<svg width="49" height="49" viewBox="0 0 49 49" fill="none" xmlns="http://www.w3.org/2000/svg">
<rect x="0.519531" width="48.3939" height="48.3939" rx="24.197" fill="#0C7489"/>
<g clip-path="url(#clip0_1017_5698)">
<g clip-path="url(#clip1_1017_5698)">
<g clip-path="url(#clip2_1017_5698)">
<path d="M32.1823 23.0344C32.6747 22.6942 33.184 22.3424 33.184 21.8073C33.184 21.2719 32.6747 20.9202 32.1823 20.58C31.9164 20.3964 31.5523 20.1448 31.5087 19.9808C31.4608 19.8012 31.6479 19.4046 31.7985 19.0861C32.0489 18.5551 32.3082 18.0062 32.05 17.5584C31.7882 17.1046 31.1788 17.0556 30.5897 17.0083C30.2436 16.9805 29.8129 16.9458 29.6868 16.8195C29.5608 16.6933 29.5264 16.2613 29.4987 15.914C29.4515 15.3232 29.4028 14.7123 28.9503 14.4498C28.5036 14.1908 27.9564 14.4506 27.4271 14.7018C27.1094 14.8527 26.7141 15.0404 26.5346 14.9924C26.3711 14.9487 26.1205 14.5835 25.9374 14.317C25.5979 13.8232 25.247 13.3125 24.7132 13.3125C24.1796 13.3125 23.8288 13.8232 23.4897 14.317C23.3066 14.5837 23.056 14.9487 22.8926 14.9926C22.7132 15.0408 22.3184 14.853 22.0006 14.7022C21.471 14.4509 20.9236 14.1913 20.4774 14.4506C20.0251 14.7131 19.9766 15.324 19.9297 15.9147C19.9022 16.2619 19.8679 16.6939 19.742 16.8202C19.6162 16.9465 19.1855 16.9812 18.8394 17.0089C18.2504 17.0565 17.6412 17.1055 17.3796 17.5592C17.1214 18.0072 17.3806 18.5559 17.6315 19.0868C17.7819 19.4051 17.9691 19.8015 17.9212 19.9811C17.8777 20.1451 17.5135 20.3965 17.2478 20.5801C16.7554 20.9204 16.2461 21.2721 16.2461 21.8073C16.2461 22.3423 16.7554 22.6942 17.2478 23.0343C17.5137 23.2179 17.8777 23.4694 17.9212 23.6332C17.9691 23.8127 17.7819 24.2091 17.6313 24.5278C17.3806 25.0584 17.1214 25.6072 17.3795 26.055C17.6411 26.5088 18.2503 26.5578 18.8394 26.6052C18.9354 26.613 19.0377 26.6216 19.1384 26.6321L16.4933 32.9344C16.3909 33.1783 16.435 33.4536 16.6084 33.6526C16.7821 33.852 17.0481 33.9329 17.3026 33.8641L18.757 33.4751L19.6162 34.781C19.7596 34.9988 20.0073 35.11 20.2498 35.0867C20.5014 35.0639 20.7193 34.9047 20.8182 34.6714L23.2418 28.9503C23.6635 29.5002 24.0451 30.302 24.7132 30.302C25.3827 30.302 25.764 29.4979 26.1873 28.948L28.6118 34.6715C28.7108 34.9047 28.9286 35.0639 29.1803 35.0867C29.4228 35.11 29.6705 34.9988 29.8138 34.781L30.6796 33.4724L32.1274 33.8641C32.3821 33.9329 32.6479 33.852 32.8216 33.6526C32.9951 33.4536 33.0392 33.1783 32.9369 32.9347L30.2921 26.6331C30.3924 26.6225 30.4941 26.6141 30.5897 26.6063C31.1788 26.5591 31.788 26.5101 32.0497 26.0563C32.308 25.6084 32.0489 25.0594 31.7982 24.5284C31.6479 24.2098 31.4608 23.8133 31.5087 23.6339C31.5523 23.4697 31.9164 23.2182 32.1823 23.0344ZM20.1827 34.4062L19.3237 33.1003C19.1597 32.8511 18.8569 32.7384 18.5738 32.8154L17.1187 33.1987L19.7824 26.852C19.8353 26.9492 19.8657 27.1165 19.8814 27.2255C19.8866 27.2722 19.8981 27.3107 19.9292 27.7009C19.9761 28.291 20.0245 28.9013 20.4768 29.1658C20.9239 29.4231 21.4708 29.1643 21.9995 28.9134C22.2039 28.8167 22.4403 28.7044 22.6312 28.6495L20.1827 34.4062ZM30.8565 32.8155C30.5717 32.7384 30.2692 32.8524 30.1062 33.1003L29.2365 34.4052L26.7985 28.6502C27.018 28.714 27.2884 28.8482 27.5613 28.9759C28.1565 29.2547 28.7979 29.4849 29.195 28.9383C29.2028 28.9277 29.2129 28.9188 29.2203 28.9079C29.2221 28.905 29.2233 28.9018 29.2251 28.8987C29.4268 28.5888 29.4634 28.1393 29.4985 27.7004C29.5082 27.5784 29.5191 27.4463 29.5342 27.3204C29.5353 27.3104 29.5364 27.3002 29.5376 27.2901C29.5422 27.2539 29.5474 27.2187 29.553 27.1841C29.5612 27.133 29.5703 27.084 29.5809 27.039C29.5855 27.0194 29.591 27.0021 29.596 26.9842C29.6096 26.9371 29.6242 26.8934 29.6421 26.8595C29.6436 26.8565 29.6454 26.854 29.647 26.8512L32.308 33.2076C31.5383 32.9998 30.8163 32.8047 30.8565 32.8155ZM31.1849 24.8195C31.3272 25.1213 31.5423 25.5769 31.4622 25.7154C31.3788 25.8603 30.8713 25.901 30.5354 25.9281C30.2634 25.9499 29.9876 25.9736 29.7426 26.0371C28.9479 26.2022 28.8796 26.9096 28.8209 27.647C28.8008 27.8994 28.7731 28.2487 28.7002 28.4429C28.599 28.7096 28.363 28.5992 27.8416 28.3564L27.8376 28.3544C27.8073 28.34 27.7968 28.3354 27.7174 28.2977C27.4492 28.1704 27.1761 28.0424 26.9118 27.978C26.8922 27.9733 26.8723 27.967 26.8529 27.9629C26.8454 27.9613 26.8382 27.961 26.8308 27.9595C26.5735 27.9098 26.3342 27.9303 26.1144 28.0771C25.8302 28.2574 25.6009 28.5876 25.3784 28.9114C25.1841 29.1942 24.8905 29.6215 24.7132 29.6215C24.5363 29.6215 24.2429 29.1942 24.0487 28.9114C23.3456 27.8871 23.0164 27.6917 21.8837 28.2163C21.8053 28.2526 21.7601 28.2734 21.7102 28.297C21.4095 28.4397 20.9554 28.6551 20.8172 28.575C20.6731 28.4913 20.6328 27.9823 20.606 27.6456C20.4959 26.2559 20.2426 26.0358 18.8937 25.9269C18.5579 25.8998 18.0504 25.859 17.967 25.7144C17.8871 25.5759 18.1021 25.1204 18.2446 24.8192C18.4632 24.3566 18.689 23.8785 18.577 23.4575C18.4686 23.0512 18.0437 22.7576 17.6328 22.4739C17.3508 22.2791 16.9247 21.9847 16.9247 21.8073C16.9247 21.6297 17.3508 21.3354 17.6326 21.1407C18.0437 20.8568 18.4686 20.5632 18.577 20.1568C18.689 19.7361 18.4632 19.2579 18.2446 18.7954C18.1023 18.494 17.8871 18.0386 17.9671 17.9C18.0504 17.7553 18.5579 17.7144 18.8937 17.6875C19.3981 17.6468 19.9196 17.6048 20.2221 17.3014C20.5246 16.9977 20.5661 16.4746 20.6061 15.9687C20.633 15.6319 20.6732 15.1232 20.8174 15.0394C20.9554 14.9599 21.4097 15.1747 21.7104 15.3174C22.1716 15.5362 22.6484 15.7625 23.0679 15.65C23.473 15.5414 23.7657 15.1152 24.0487 14.7031C24.2429 14.4204 24.5363 13.993 24.7132 13.993C24.8905 13.993 25.1842 14.4204 25.3786 14.7031C25.6615 15.1152 25.9543 15.5412 26.3594 15.6499C26.7792 15.7622 27.2563 15.5359 27.7174 15.3169C28.0179 15.1743 28.4726 14.9587 28.6104 15.0388C28.7548 15.1225 28.7954 15.6316 28.8222 15.9685C28.8626 16.4743 28.9043 16.9973 29.207 17.3009C29.5097 17.6042 30.0312 17.6461 30.5355 17.6867C30.8713 17.7137 31.379 17.7544 31.4625 17.8992C31.5424 18.0377 31.3275 18.4933 31.1851 18.7949C30.9668 19.2572 30.7409 19.7356 30.8531 20.1564C30.9612 20.5628 31.3863 20.8564 31.7972 21.1404C32.0793 21.3351 32.5054 21.6295 32.5054 21.8073C32.5054 21.9849 32.0793 22.2793 31.7972 22.4742C31.3863 22.758 30.9612 23.0517 30.853 23.4581C30.7409 23.879 30.9666 24.3571 31.1849 24.8195Z" fill="white"/>
<path d="M24.7137 16.7734C21.9444 16.7734 19.6914 19.0327 19.6914 21.81C19.6914 24.587 21.9444 26.8464 24.7137 26.8464C27.4829 26.8464 29.7359 24.587 29.7359 21.81C29.7359 19.0327 27.4829 16.7734 24.7137 16.7734ZM24.7137 26.1659C22.3185 26.1659 20.37 24.2119 20.37 21.81C20.37 19.408 22.3185 17.454 24.7137 17.454C27.1088 17.454 29.0573 19.408 29.0573 21.81C29.0573 24.2119 27.1088 26.1659 24.7137 26.1659Z" fill="white"/>
<path d="M27.026 20.6984H25.6885L25.2722 19.42C25.1933 19.1781 24.9698 19.0156 24.716 19.0156C24.4619 19.0158 24.2382 19.1788 24.1595 19.4212L23.7463 20.6984H22.4093C22.1552 20.6984 21.9317 20.8612 21.8532 21.1036C21.7745 21.346 21.8598 21.6095 22.0652 21.7595L23.1469 22.5486L22.7341 23.8246C22.6557 24.067 22.7412 24.3305 22.947 24.4802C23.1524 24.6297 23.4291 24.6297 23.6345 24.4799L24.7155 23.6917L25.8019 24.4819C26.009 24.6326 26.2856 24.6303 26.4894 24.4815C26.6948 24.3317 26.7802 24.0683 26.7018 23.8259L26.2884 22.5486L27.3701 21.7594C27.5756 21.6095 27.6609 21.346 27.5822 21.1036C27.5037 20.8612 27.2802 20.6984 27.026 20.6984ZM25.834 22.0383C25.6289 22.1882 25.5436 22.4515 25.6219 22.6938L25.9677 23.7618L25.059 23.1008C24.9563 23.0261 24.8358 22.9887 24.7154 22.9887C24.5949 22.9887 24.4743 23.0261 24.3714 23.1012L23.4685 23.7596L23.8134 22.6938C23.8918 22.4515 23.8065 22.1882 23.6012 22.0382L22.6973 21.3789H23.8143C24.0687 21.3789 24.2924 21.2159 24.3708 20.9733L24.7164 19.9052L25.0646 20.9743C25.1433 21.2164 25.3668 21.3789 25.6208 21.3789H26.7381L25.834 22.0383Z" fill="white"/>
</g>
</g>
</g>
<defs>
<clipPath id="clip0_1017_5698">
<rect width="16.9379" height="21.7773" fill="white" transform="translate(16.2461 13.3125)"/>
</clipPath>
<clipPath id="clip1_1017_5698">
<rect width="16.9379" height="21.7773" fill="white" transform="translate(16.2461 13.3125)"/>
</clipPath>
<clipPath id="clip2_1017_5698">
<rect width="16.9379" height="21.7773" fill="white" transform="translate(16.2461 13.3125)"/>
</clipPath>
</defs>
</svg>
