<svg width="1064" height="742" viewBox="0 0 1064 742" fill="none" xmlns="http://www.w3.org/2000/svg">
<g clip-path="url(#clip0_1023_3853)">
<path d="M532 0C496.399 0 461.598 10.5568 431.997 30.3355C402.397 50.1141 379.326 78.2263 365.702 111.117C352.078 144.008 348.513 180.2 355.459 215.116C362.404 250.033 379.547 282.106 404.721 307.279C429.894 332.453 461.967 349.596 496.884 356.541C531.8 363.487 567.992 359.922 600.883 346.298C633.774 332.675 661.886 309.604 681.665 280.003C701.443 250.402 712 215.601 712 180C711.948 132.277 692.967 86.5236 659.222 52.7783C625.477 19.0331 579.723 0.0521116 532 0ZM532 343.125C499.737 343.125 468.198 333.558 441.373 315.634C414.547 297.709 393.639 272.232 381.292 242.425C368.946 212.618 365.715 179.819 372.009 148.176C378.304 116.533 393.84 87.4667 416.653 64.6532C439.467 41.8398 468.533 26.3036 500.176 20.0094C531.819 13.7152 564.618 16.9456 594.425 29.2922C624.233 41.6387 649.709 62.5468 667.634 89.3726C685.558 116.198 695.125 147.737 695.125 180C695.073 223.247 677.87 264.709 647.289 295.289C616.709 325.87 575.248 343.073 532 343.125Z" fill="#0C7489"/>
<path d="M600.131 119.546L494.921 222.572L466.148 192.414C464.596 190.862 462.497 189.977 460.299 189.946C458.1 189.916 455.977 190.742 454.383 192.25C452.788 193.757 451.849 195.826 451.766 198.013C451.683 200.201 452.462 202.334 453.937 203.957L488.605 240.293C489.374 241.097 490.297 241.741 491.318 242.187C492.34 242.634 493.44 242.873 494.556 242.892H494.696C496.901 242.891 499.018 242.028 500.591 240.489L611.893 131.481C612.682 130.708 613.31 129.789 613.742 128.774C614.174 127.76 614.401 126.67 614.41 125.569C614.419 124.467 614.21 123.374 613.795 122.353C613.38 121.331 612.767 120.401 611.991 119.616C611.215 118.83 610.292 118.205 609.273 117.775C608.254 117.345 607.16 117.119 606.054 117.11C604.947 117.101 603.85 117.309 602.824 117.722C601.798 118.135 600.864 118.745 600.075 119.518L600.131 119.546Z" fill="#0C7489"/>
</g>
<path d="M206.683 551.488H188.891L185.947 560H176.539L192.603 515.264H203.035L219.099 560H209.627L206.683 551.488ZM204.251 544.32L197.787 525.632L191.323 544.32H204.251ZM234.064 529.664C235.216 528.043 236.794 526.699 238.8 525.632C240.848 524.523 243.173 523.968 245.776 523.968C248.805 523.968 251.536 524.715 253.968 526.208C256.442 527.701 258.384 529.835 259.792 532.608C261.242 535.339 261.968 538.517 261.968 542.144C261.968 545.771 261.242 548.992 259.792 551.808C258.384 554.581 256.442 556.736 253.968 558.272C251.536 559.808 248.805 560.576 245.776 560.576C243.173 560.576 240.869 560.043 238.864 558.976C236.901 557.909 235.301 556.565 234.064 554.944V576.896H225.104V524.544H234.064V529.664ZM252.816 542.144C252.816 540.011 252.368 538.176 251.472 536.64C250.618 535.061 249.466 533.867 248.016 533.056C246.608 532.245 245.072 531.84 243.408 531.84C241.786 531.84 240.25 532.267 238.8 533.12C237.392 533.931 236.24 535.125 235.344 536.704C234.49 538.283 234.064 540.139 234.064 542.272C234.064 544.405 234.49 546.261 235.344 547.84C236.24 549.419 237.392 550.635 238.8 551.488C240.25 552.299 241.786 552.704 243.408 552.704C245.072 552.704 246.608 552.277 248.016 551.424C249.466 550.571 250.618 549.355 251.472 547.776C252.368 546.197 252.816 544.32 252.816 542.144ZM277.439 529.664C278.591 528.043 280.169 526.699 282.175 525.632C284.223 524.523 286.548 523.968 289.151 523.968C292.18 523.968 294.911 524.715 297.343 526.208C299.817 527.701 301.759 529.835 303.167 532.608C304.617 535.339 305.343 538.517 305.343 542.144C305.343 545.771 304.617 548.992 303.167 551.808C301.759 554.581 299.817 556.736 297.343 558.272C294.911 559.808 292.18 560.576 289.151 560.576C286.548 560.576 284.244 560.043 282.239 558.976C280.276 557.909 278.676 556.565 277.439 554.944V576.896H268.479V524.544H277.439V529.664ZM296.191 542.144C296.191 540.011 295.743 538.176 294.847 536.64C293.993 535.061 292.841 533.867 291.391 533.056C289.983 532.245 288.447 531.84 286.783 531.84C285.161 531.84 283.625 532.267 282.175 533.12C280.767 533.931 279.615 535.125 278.719 536.704C277.865 538.283 277.439 540.139 277.439 542.272C277.439 544.405 277.865 546.261 278.719 547.84C279.615 549.419 280.767 550.635 282.175 551.488C283.625 552.299 285.161 552.704 286.783 552.704C288.447 552.704 289.983 552.277 291.391 551.424C292.841 550.571 293.993 549.355 294.847 547.776C295.743 546.197 296.191 544.32 296.191 542.144ZM327.598 560.576C324.184 560.576 321.112 559.829 318.382 558.336C315.651 556.8 313.496 554.645 311.918 551.872C310.382 549.099 309.614 545.899 309.614 542.272C309.614 538.645 310.403 535.445 311.982 532.672C313.603 529.899 315.8 527.765 318.574 526.272C321.347 524.736 324.44 523.968 327.854 523.968C331.267 523.968 334.36 524.736 337.134 526.272C339.907 527.765 342.083 529.899 343.662 532.672C345.283 535.445 346.094 538.645 346.094 542.272C346.094 545.899 345.262 549.099 343.597 551.872C341.976 554.645 339.758 556.8 336.942 558.336C334.168 559.829 331.054 560.576 327.598 560.576ZM327.598 552.768C329.219 552.768 330.734 552.384 332.142 551.616C333.592 550.805 334.744 549.611 335.598 548.032C336.451 546.453 336.878 544.533 336.878 542.272C336.878 538.901 335.982 536.32 334.19 534.528C332.44 532.693 330.286 531.776 327.726 531.776C325.166 531.776 323.011 532.693 321.262 534.528C319.555 536.32 318.702 538.901 318.702 542.272C318.702 545.643 319.534 548.245 321.198 550.08C322.904 551.872 325.038 552.768 327.598 552.768ZM357.21 520.32C355.631 520.32 354.309 519.829 353.242 518.848C352.218 517.824 351.706 516.565 351.706 515.072C351.706 513.579 352.218 512.341 353.242 511.36C354.309 510.336 355.631 509.824 357.21 509.824C358.789 509.824 360.09 510.336 361.114 511.36C362.181 512.341 362.714 513.579 362.714 515.072C362.714 516.565 362.181 517.824 361.114 518.848C360.09 519.829 358.789 520.32 357.21 520.32ZM361.626 524.544V560H352.666V524.544H361.626ZM390.127 524.032C394.351 524.032 397.764 525.376 400.367 528.064C402.969 530.709 404.271 534.421 404.271 539.2V560H395.311V540.416C395.311 537.6 394.607 535.445 393.199 533.952C391.791 532.416 389.871 531.648 387.439 531.648C384.964 531.648 383.001 532.416 381.551 533.952C380.143 535.445 379.439 537.6 379.439 540.416V560H370.479V524.544H379.439V528.96C380.633 527.424 382.148 526.229 383.983 525.376C385.86 524.48 387.908 524.032 390.127 524.032ZM423.223 531.904V549.056C423.223 550.251 423.5 551.125 424.055 551.68C424.652 552.192 425.634 552.448 426.999 552.448H431.159V560H425.527C417.975 560 414.199 556.331 414.199 548.992V531.904H409.975V524.544H414.199V515.776H423.223V524.544H431.159V531.904H423.223ZM481.636 524.032C485.988 524.032 489.486 525.376 492.132 528.064C494.82 530.709 496.164 534.421 496.164 539.2V560H487.204V540.416C487.204 537.643 486.5 535.531 485.092 534.08C483.684 532.587 481.764 531.84 479.332 531.84C476.9 531.84 474.958 532.587 473.508 534.08C472.1 535.531 471.396 537.643 471.396 540.416V560H462.436V540.416C462.436 537.643 461.732 535.531 460.324 534.08C458.916 532.587 456.996 531.84 454.564 531.84C452.089 531.84 450.126 532.587 448.676 534.08C447.268 535.531 446.564 537.643 446.564 540.416V560H437.604V524.544H446.564V528.832C447.716 527.339 449.188 526.165 450.98 525.312C452.814 524.459 454.82 524.032 456.996 524.032C459.769 524.032 462.244 524.629 464.42 525.824C466.596 526.976 468.281 528.64 469.476 530.816C470.628 528.768 472.292 527.125 474.468 525.888C476.686 524.651 479.076 524.032 481.636 524.032ZM537.626 541.504C537.626 542.784 537.541 543.936 537.37 544.96H511.45C511.663 547.52 512.559 549.525 514.138 550.976C515.717 552.427 517.658 553.152 519.962 553.152C523.29 553.152 525.658 551.723 527.066 548.864H536.73C535.706 552.277 533.743 555.093 530.842 557.312C527.941 559.488 524.378 560.576 520.154 560.576C516.741 560.576 513.669 559.829 510.938 558.336C508.25 556.8 506.138 554.645 504.602 551.872C503.109 549.099 502.362 545.899 502.362 542.272C502.362 538.603 503.109 535.381 504.602 532.608C506.095 529.835 508.186 527.701 510.874 526.208C513.562 524.715 516.655 523.968 520.154 523.968C523.525 523.968 526.533 524.693 529.178 526.144C531.866 527.595 533.935 529.664 535.386 532.352C536.879 534.997 537.626 538.048 537.626 541.504ZM528.346 538.944C528.303 536.64 527.471 534.805 525.85 533.44C524.229 532.032 522.245 531.328 519.898 531.328C517.679 531.328 515.802 532.011 514.266 533.376C512.773 534.699 511.855 536.555 511.514 538.944H528.346ZM563.814 524.032C568.038 524.032 571.451 525.376 574.054 528.064C576.657 530.709 577.958 534.421 577.958 539.2V560H568.998V540.416C568.998 537.6 568.294 535.445 566.886 533.952C565.478 532.416 563.558 531.648 561.126 531.648C558.651 531.648 556.689 532.416 555.238 533.952C553.83 535.445 553.126 537.6 553.126 540.416V560H544.166V524.544H553.126V528.96C554.321 527.424 555.835 526.229 557.67 525.376C559.547 524.48 561.595 524.032 563.814 524.032ZM596.911 531.904V549.056C596.911 550.251 597.188 551.125 597.743 551.68C598.34 552.192 599.321 552.448 600.687 552.448H604.847V560H599.215C591.663 560 587.887 556.331 587.887 548.992V531.904H583.663V524.544H587.887V515.776H596.911V524.544H604.847V531.904H596.911ZM659.501 541.504C659.501 542.784 659.416 543.936 659.245 544.96H633.325C633.538 547.52 634.434 549.525 636.013 550.976C637.592 552.427 639.533 553.152 641.837 553.152C645.165 553.152 647.533 551.723 648.941 548.864H658.605C657.581 552.277 655.618 555.093 652.717 557.312C649.816 559.488 646.253 560.576 642.029 560.576C638.616 560.576 635.544 559.829 632.813 558.336C630.125 556.8 628.013 554.645 626.477 551.872C624.984 549.099 624.237 545.899 624.237 542.272C624.237 538.603 624.984 535.381 626.477 532.608C627.97 529.835 630.061 527.701 632.749 526.208C635.437 524.715 638.53 523.968 642.029 523.968C645.4 523.968 648.408 524.693 651.053 526.144C653.741 527.595 655.81 529.664 657.261 532.352C658.754 534.997 659.501 538.048 659.501 541.504ZM650.221 538.944C650.178 536.64 649.346 534.805 647.725 533.44C646.104 532.032 644.12 531.328 641.773 531.328C639.554 531.328 637.677 532.011 636.141 533.376C634.648 534.699 633.73 536.555 633.389 538.944H650.221ZM685.689 524.032C689.913 524.032 693.326 525.376 695.929 528.064C698.532 530.709 699.833 534.421 699.833 539.2V560H690.873V540.416C690.873 537.6 690.169 535.445 688.761 533.952C687.353 532.416 685.433 531.648 683.001 531.648C680.526 531.648 678.564 532.416 677.113 533.952C675.705 535.445 675.001 537.6 675.001 540.416V560H666.041V524.544H675.001V528.96C676.196 527.424 677.71 526.229 679.545 525.376C681.422 524.48 683.47 524.032 685.689 524.032ZM717.314 530.048C718.466 528.171 719.959 526.699 721.794 525.632C723.671 524.565 725.804 524.032 728.194 524.032V533.44H725.826C723.01 533.44 720.876 534.101 719.426 535.424C718.018 536.747 717.314 539.051 717.314 542.336V560H708.354V524.544H717.314V530.048ZM749.973 560.576C746.559 560.576 743.487 559.829 740.757 558.336C738.026 556.8 735.871 554.645 734.293 551.872C732.757 549.099 731.989 545.899 731.989 542.272C731.989 538.645 732.778 535.445 734.357 532.672C735.978 529.899 738.175 527.765 740.949 526.272C743.722 524.736 746.815 523.968 750.229 523.968C753.642 523.968 756.735 524.736 759.509 526.272C762.282 527.765 764.458 529.899 766.037 532.672C767.658 535.445 768.469 538.645 768.469 542.272C768.469 545.899 767.637 549.099 765.972 551.872C764.351 554.645 762.133 556.8 759.317 558.336C756.543 559.829 753.429 560.576 749.973 560.576ZM749.973 552.768C751.594 552.768 753.109 552.384 754.517 551.616C755.967 550.805 757.119 549.611 757.973 548.032C758.826 546.453 759.253 544.533 759.253 542.272C759.253 538.901 758.357 536.32 756.565 534.528C754.815 532.693 752.661 531.776 750.101 531.776C747.541 531.776 745.386 532.693 743.637 534.528C741.93 536.32 741.077 538.901 741.077 542.272C741.077 545.643 741.909 548.245 743.573 550.08C745.279 551.872 747.413 552.768 749.973 552.768ZM784.001 512.64V560H775.041V512.64H784.001ZM801.814 512.64V560H792.854V512.64H801.814ZM843.626 541.504C843.626 542.784 843.541 543.936 843.37 544.96H817.45C817.663 547.52 818.559 549.525 820.138 550.976C821.717 552.427 823.658 553.152 825.962 553.152C829.29 553.152 831.658 551.723 833.066 548.864H842.73C841.706 552.277 839.743 555.093 836.842 557.312C833.941 559.488 830.378 560.576 826.154 560.576C822.741 560.576 819.669 559.829 816.938 558.336C814.25 556.8 812.138 554.645 810.602 551.872C809.109 549.099 808.362 545.899 808.362 542.272C808.362 538.603 809.109 535.381 810.602 532.608C812.095 529.835 814.186 527.701 816.874 526.208C819.562 524.715 822.655 523.968 826.154 523.968C829.525 523.968 832.533 524.693 835.178 526.144C837.866 527.595 839.935 529.664 841.386 532.352C842.879 534.997 843.626 538.048 843.626 541.504ZM834.346 538.944C834.303 536.64 833.471 534.805 831.85 533.44C830.229 532.032 828.245 531.328 825.898 531.328C823.679 531.328 821.802 532.011 820.266 533.376C818.773 534.699 817.855 536.555 817.514 538.944H834.346ZM847.862 542.144C847.862 538.56 848.566 535.381 849.974 532.608C851.425 529.835 853.387 527.701 855.862 526.208C858.337 524.715 861.089 523.968 864.118 523.968C866.422 523.968 868.619 524.48 870.71 525.504C872.801 526.485 874.465 527.808 875.702 529.472V512.64H884.79V560H875.702V554.752C874.593 556.501 873.035 557.909 871.03 558.976C869.025 560.043 866.699 560.576 864.054 560.576C861.067 560.576 858.337 559.808 855.862 558.272C853.387 556.736 851.425 554.581 849.974 551.808C848.566 548.992 847.862 545.771 847.862 542.144ZM875.766 542.272C875.766 540.096 875.339 538.24 874.486 536.704C873.633 535.125 872.481 533.931 871.03 533.12C869.579 532.267 868.022 531.84 866.358 531.84C864.694 531.84 863.158 532.245 861.75 533.056C860.342 533.867 859.19 535.061 858.294 536.64C857.441 538.176 857.014 540.011 857.014 542.144C857.014 544.277 857.441 546.155 858.294 547.776C859.19 549.355 860.342 550.571 861.75 551.424C863.201 552.277 864.737 552.704 866.358 552.704C868.022 552.704 869.579 552.299 871.03 551.488C872.481 550.635 873.633 549.44 874.486 547.904C875.339 546.325 875.766 544.448 875.766 542.272Z" fill="#1E1E1E"/>
<path d="M59.4845 648.908L51.3125 664.532V674H48.0365V664.532L39.8285 648.908H43.4645L49.6565 661.616L55.8485 648.908H59.4845ZM71.544 674.324C69.696 674.324 68.016 673.904 66.504 673.064C65.016 672.224 63.84 671.036 62.976 669.5C62.136 667.94 61.716 666.14 61.716 664.1C61.716 662.084 62.148 660.308 63.012 658.772C63.9 657.212 65.1 656.024 66.612 655.208C68.124 654.368 69.816 653.948 71.688 653.948C73.56 653.948 75.252 654.368 76.764 655.208C78.276 656.024 79.464 657.2 80.328 658.736C81.216 660.272 81.66 662.06 81.66 664.1C81.66 666.14 81.204 667.94 80.292 669.5C79.404 671.036 78.192 672.224 76.656 673.064C75.12 673.904 73.416 674.324 71.544 674.324ZM71.544 671.444C72.72 671.444 73.824 671.168 74.856 670.616C75.888 670.064 76.716 669.236 77.34 668.132C77.988 667.028 78.312 665.684 78.312 664.1C78.312 662.516 78 661.172 77.376 660.068C76.752 658.964 75.936 658.148 74.928 657.62C73.92 657.068 72.828 656.792 71.652 656.792C70.452 656.792 69.348 657.068 68.34 657.62C67.356 658.148 66.564 658.964 65.964 660.068C65.364 661.172 65.064 662.516 65.064 664.1C65.064 665.708 65.352 667.064 65.928 668.168C66.528 669.272 67.32 670.1 68.304 670.652C69.288 671.18 70.368 671.444 71.544 671.444ZM103.463 654.272V674H100.187V671.084C99.5633 672.092 98.6873 672.884 97.5593 673.46C96.4553 674.012 95.2313 674.288 93.8873 674.288C92.3513 674.288 90.9713 673.976 89.7473 673.352C88.5233 672.704 87.5513 671.744 86.8313 670.472C86.1353 669.2 85.7873 667.652 85.7873 665.828V654.272H89.0273V665.396C89.0273 667.34 89.5193 668.84 90.5033 669.896C91.4873 670.928 92.8313 671.444 94.5353 671.444C96.2873 671.444 97.6673 670.904 98.6753 669.824C99.6833 668.744 100.187 667.172 100.187 665.108V654.272H103.463ZM112.271 657.476C112.847 656.348 113.663 655.472 114.719 654.848C115.799 654.224 117.107 653.912 118.643 653.912V657.296H117.779C114.107 657.296 112.271 659.288 112.271 663.272V674H108.995V654.272H112.271V657.476ZM210.392 664.064C210.392 662.048 210.8 660.284 211.616 658.772C212.432 657.236 213.548 656.048 214.964 655.208C216.404 654.368 218 653.948 219.752 653.948C221.48 653.948 222.98 654.32 224.252 655.064C225.524 655.808 226.472 656.744 227.096 657.872V654.272H230.408V674H227.096V670.328C226.448 671.48 225.476 672.44 224.18 673.208C222.908 673.952 221.42 674.324 219.716 674.324C217.964 674.324 216.38 673.892 214.964 673.028C213.548 672.164 212.432 670.952 211.616 669.392C210.8 667.832 210.392 666.056 210.392 664.064ZM227.096 664.1C227.096 662.612 226.796 661.316 226.196 660.212C225.596 659.108 224.78 658.268 223.748 657.692C222.74 657.092 221.624 656.792 220.4 656.792C219.176 656.792 218.06 657.08 217.052 657.656C216.044 658.232 215.24 659.072 214.64 660.176C214.04 661.28 213.74 662.576 213.74 664.064C213.74 665.576 214.04 666.896 214.64 668.024C215.24 669.128 216.044 669.98 217.052 670.58C218.06 671.156 219.176 671.444 220.4 671.444C221.624 671.444 222.74 671.156 223.748 670.58C224.78 669.98 225.596 669.128 226.196 668.024C226.796 666.896 227.096 665.588 227.096 664.1ZM239.22 657.908C239.868 656.78 240.828 655.844 242.1 655.1C243.396 654.332 244.896 653.948 246.6 653.948C248.352 653.948 249.936 654.368 251.352 655.208C252.792 656.048 253.92 657.236 254.736 658.772C255.552 660.284 255.96 662.048 255.96 664.064C255.96 666.056 255.552 667.832 254.736 669.392C253.92 670.952 252.792 672.164 251.352 673.028C249.936 673.892 248.352 674.324 246.6 674.324C244.92 674.324 243.432 673.952 242.136 673.208C240.864 672.44 239.892 671.492 239.22 670.364V683.36H235.944V654.272H239.22V657.908ZM252.612 664.064C252.612 662.576 252.312 661.28 251.712 660.176C251.112 659.072 250.296 658.232 249.264 657.656C248.256 657.08 247.14 656.792 245.916 656.792C244.716 656.792 243.6 657.092 242.568 657.692C241.56 658.268 240.744 659.12 240.12 660.248C239.52 661.352 239.22 662.636 239.22 664.1C239.22 665.588 239.52 666.896 240.12 668.024C240.744 669.128 241.56 669.98 242.568 670.58C243.6 671.156 244.716 671.444 245.916 671.444C247.14 671.444 248.256 671.156 249.264 670.58C250.296 669.98 251.112 669.128 251.712 668.024C252.312 666.896 252.612 665.576 252.612 664.064ZM263.548 657.908C264.196 656.78 265.156 655.844 266.428 655.1C267.724 654.332 269.224 653.948 270.928 653.948C272.68 653.948 274.264 654.368 275.68 655.208C277.12 656.048 278.248 657.236 279.064 658.772C279.88 660.284 280.288 662.048 280.288 664.064C280.288 666.056 279.88 667.832 279.064 669.392C278.248 670.952 277.12 672.164 275.68 673.028C274.264 673.892 272.68 674.324 270.928 674.324C269.248 674.324 267.76 673.952 266.464 673.208C265.192 672.44 264.22 671.492 263.548 670.364V683.36H260.272V654.272H263.548V657.908ZM276.94 664.064C276.94 662.576 276.64 661.28 276.04 660.176C275.44 659.072 274.624 658.232 273.592 657.656C272.584 657.08 271.468 656.792 270.244 656.792C269.044 656.792 267.928 657.092 266.896 657.692C265.888 658.268 265.072 659.12 264.448 660.248C263.848 661.352 263.548 662.636 263.548 664.1C263.548 665.588 263.848 666.896 264.448 668.024C265.072 669.128 265.888 669.98 266.896 670.58C267.928 671.156 269.044 671.444 270.244 671.444C271.468 671.444 272.584 671.156 273.592 670.58C274.624 669.98 275.44 669.128 276.04 668.024C276.64 666.896 276.94 665.576 276.94 664.064ZM293.204 674.324C291.356 674.324 289.676 673.904 288.164 673.064C286.676 672.224 285.5 671.036 284.636 669.5C283.796 667.94 283.376 666.14 283.376 664.1C283.376 662.084 283.808 660.308 284.672 658.772C285.56 657.212 286.76 656.024 288.272 655.208C289.784 654.368 291.476 653.948 293.348 653.948C295.22 653.948 296.912 654.368 298.424 655.208C299.936 656.024 301.124 657.2 301.988 658.736C302.876 660.272 303.32 662.06 303.32 664.1C303.32 666.14 302.864 667.94 301.952 669.5C301.064 671.036 299.852 672.224 298.316 673.064C296.78 673.904 295.076 674.324 293.204 674.324ZM293.204 671.444C294.38 671.444 295.484 671.168 296.516 670.616C297.548 670.064 298.376 669.236 299 668.132C299.648 667.028 299.972 665.684 299.972 664.1C299.972 662.516 299.66 661.172 299.036 660.068C298.412 658.964 297.596 658.148 296.588 657.62C295.58 657.068 294.488 656.792 293.312 656.792C292.112 656.792 291.008 657.068 290 657.62C289.016 658.148 288.224 658.964 287.624 660.068C287.024 661.172 286.724 662.516 286.724 664.1C286.724 665.708 287.012 667.064 287.588 668.168C288.188 669.272 288.98 670.1 289.964 670.652C290.948 671.18 292.028 671.444 293.204 671.444ZM309.319 651.068C308.695 651.068 308.167 650.852 307.735 650.42C307.303 649.988 307.087 649.46 307.087 648.836C307.087 648.212 307.303 647.684 307.735 647.252C308.167 646.82 308.695 646.604 309.319 646.604C309.919 646.604 310.423 646.82 310.831 647.252C311.263 647.684 311.479 648.212 311.479 648.836C311.479 649.46 311.263 649.988 310.831 650.42C310.423 650.852 309.919 651.068 309.319 651.068ZM310.903 654.272V674H307.627V654.272H310.903ZM326.099 653.912C328.499 653.912 330.443 654.644 331.931 656.108C333.419 657.548 334.163 659.636 334.163 662.372V674H330.923V662.84C330.923 660.872 330.431 659.372 329.447 658.34C328.463 657.284 327.119 656.756 325.415 656.756C323.687 656.756 322.307 657.296 321.275 658.376C320.267 659.456 319.763 661.028 319.763 663.092V674H316.487V654.272H319.763V657.08C320.411 656.072 321.287 655.292 322.391 654.74C323.519 654.188 324.755 653.912 326.099 653.912ZM343.51 656.972V668.6C343.51 669.56 343.714 670.244 344.122 670.652C344.53 671.036 345.238 671.228 346.246 671.228H348.658V674H345.706C343.882 674 342.514 673.58 341.602 672.74C340.69 671.9 340.234 670.52 340.234 668.6V656.972H337.678V654.272H340.234V649.304H343.51V654.272H348.658V656.972H343.51ZM376.351 653.912C377.887 653.912 379.255 654.236 380.455 654.884C381.655 655.508 382.603 656.456 383.299 657.728C383.995 659 384.343 660.548 384.343 662.372V674H381.103V662.84C381.103 660.872 380.611 659.372 379.627 658.34C378.667 657.284 377.359 656.756 375.703 656.756C373.999 656.756 372.643 657.308 371.635 658.412C370.627 659.492 370.123 661.064 370.123 663.128V674H366.883V662.84C366.883 660.872 366.391 659.372 365.407 658.34C364.447 657.284 363.139 656.756 361.483 656.756C359.779 656.756 358.423 657.308 357.415 658.412C356.407 659.492 355.903 661.064 355.903 663.128V674H352.627V654.272H355.903V657.116C356.551 656.084 357.415 655.292 358.495 654.74C359.599 654.188 360.811 653.912 362.131 653.912C363.787 653.912 365.251 654.284 366.523 655.028C367.795 655.772 368.743 656.864 369.367 658.304C369.919 656.912 370.831 655.832 372.103 655.064C373.375 654.296 374.791 653.912 376.351 653.912ZM407.717 663.38C407.717 664.004 407.681 664.664 407.609 665.36H391.841C391.961 667.304 392.621 668.828 393.821 669.932C395.045 671.012 396.521 671.552 398.249 671.552C399.665 671.552 400.841 671.228 401.777 670.58C402.737 669.908 403.409 669.02 403.793 667.916H407.321C406.793 669.812 405.737 671.36 404.153 672.56C402.569 673.736 400.601 674.324 398.249 674.324C396.377 674.324 394.697 673.904 393.209 673.064C391.745 672.224 390.593 671.036 389.753 669.5C388.913 667.94 388.493 666.14 388.493 664.1C388.493 662.06 388.901 660.272 389.717 658.736C390.533 657.2 391.673 656.024 393.137 655.208C394.625 654.368 396.329 653.948 398.249 653.948C400.121 653.948 401.777 654.356 403.217 655.172C404.657 655.988 405.761 657.116 406.529 658.556C407.321 659.972 407.717 661.58 407.717 663.38ZM404.333 662.696C404.333 661.448 404.057 660.38 403.505 659.492C402.953 658.58 402.197 657.896 401.237 657.44C400.301 656.96 399.257 656.72 398.105 656.72C396.449 656.72 395.033 657.248 393.857 658.304C392.705 659.36 392.045 660.824 391.877 662.696H404.333ZM421.654 653.912C424.054 653.912 425.998 654.644 427.486 656.108C428.974 657.548 429.718 659.636 429.718 662.372V674H426.478V662.84C426.478 660.872 425.986 659.372 425.002 658.34C424.018 657.284 422.674 656.756 420.97 656.756C419.242 656.756 417.862 657.296 416.83 658.376C415.822 659.456 415.318 661.028 415.318 663.092V674H412.042V654.272H415.318V657.08C415.966 656.072 416.842 655.292 417.946 654.74C419.074 654.188 420.31 653.912 421.654 653.912ZM439.065 656.972V668.6C439.065 669.56 439.269 670.244 439.677 670.652C440.085 671.036 440.793 671.228 441.801 671.228H444.213V674H441.261C439.437 674 438.069 673.58 437.157 672.74C436.245 671.9 435.789 670.52 435.789 668.6V656.972H433.233V654.272H435.789V649.304H439.065V654.272H444.213V656.972H439.065ZM461.056 657.908C461.704 656.78 462.664 655.844 463.936 655.1C465.232 654.332 466.732 653.948 468.436 653.948C470.188 653.948 471.772 654.368 473.188 655.208C474.628 656.048 475.756 657.236 476.572 658.772C477.388 660.284 477.796 662.048 477.796 664.064C477.796 666.056 477.388 667.832 476.572 669.392C475.756 670.952 474.628 672.164 473.188 673.028C471.772 673.892 470.188 674.324 468.436 674.324C466.756 674.324 465.268 673.952 463.972 673.208C462.7 672.44 461.728 671.492 461.056 670.364V683.36H457.78V654.272H461.056V657.908ZM474.448 664.064C474.448 662.576 474.148 661.28 473.548 660.176C472.948 659.072 472.132 658.232 471.1 657.656C470.092 657.08 468.976 656.792 467.752 656.792C466.552 656.792 465.436 657.092 464.404 657.692C463.396 658.268 462.58 659.12 461.956 660.248C461.356 661.352 461.056 662.636 461.056 664.1C461.056 665.588 461.356 666.896 461.956 668.024C462.58 669.128 463.396 669.98 464.404 670.58C465.436 671.156 466.552 671.444 467.752 671.444C468.976 671.444 470.092 671.156 471.1 670.58C472.132 669.98 472.948 669.128 473.548 668.024C474.148 666.896 474.448 665.576 474.448 664.064ZM480.884 664.064C480.884 662.048 481.292 660.284 482.108 658.772C482.924 657.236 484.04 656.048 485.456 655.208C486.896 654.368 488.492 653.948 490.244 653.948C491.972 653.948 493.472 654.32 494.744 655.064C496.016 655.808 496.964 656.744 497.588 657.872V654.272H500.9V674H497.588V670.328C496.94 671.48 495.968 672.44 494.672 673.208C493.4 673.952 491.912 674.324 490.208 674.324C488.456 674.324 486.872 673.892 485.456 673.028C484.04 672.164 482.924 670.952 482.108 669.392C481.292 667.832 480.884 666.056 480.884 664.064ZM497.588 664.1C497.588 662.612 497.288 661.316 496.688 660.212C496.088 659.108 495.272 658.268 494.24 657.692C493.232 657.092 492.116 656.792 490.892 656.792C489.668 656.792 488.552 657.08 487.544 657.656C486.536 658.232 485.732 659.072 485.132 660.176C484.532 661.28 484.232 662.576 484.232 664.064C484.232 665.576 484.532 666.896 485.132 668.024C485.732 669.128 486.536 669.98 487.544 670.58C488.552 671.156 489.668 671.444 490.892 671.444C492.116 671.444 493.232 671.156 494.24 670.58C495.272 669.98 496.088 669.128 496.688 668.024C497.288 666.896 497.588 665.588 497.588 664.1ZM523.428 654.272L511.548 683.288H508.164L512.052 673.784L504.096 654.272H507.732L513.924 670.256L520.044 654.272H523.428ZM550.445 653.912C551.981 653.912 553.349 654.236 554.549 654.884C555.749 655.508 556.697 656.456 557.393 657.728C558.089 659 558.437 660.548 558.437 662.372V674H555.197V662.84C555.197 660.872 554.705 659.372 553.721 658.34C552.761 657.284 551.453 656.756 549.797 656.756C548.093 656.756 546.737 657.308 545.729 658.412C544.721 659.492 544.217 661.064 544.217 663.128V674H540.977V662.84C540.977 660.872 540.485 659.372 539.501 658.34C538.541 657.284 537.233 656.756 535.577 656.756C533.873 656.756 532.517 657.308 531.509 658.412C530.501 659.492 529.997 661.064 529.997 663.128V674H526.721V654.272H529.997V657.116C530.645 656.084 531.509 655.292 532.589 654.74C533.693 654.188 534.905 653.912 536.225 653.912C537.881 653.912 539.345 654.284 540.617 655.028C541.889 655.772 542.837 656.864 543.461 658.304C544.013 656.912 544.925 655.832 546.197 655.064C547.469 654.296 548.885 653.912 550.445 653.912ZM581.811 663.38C581.811 664.004 581.775 664.664 581.703 665.36H565.935C566.055 667.304 566.715 668.828 567.915 669.932C569.139 671.012 570.615 671.552 572.343 671.552C573.759 671.552 574.935 671.228 575.871 670.58C576.831 669.908 577.503 669.02 577.887 667.916H581.415C580.887 669.812 579.831 671.36 578.247 672.56C576.663 673.736 574.695 674.324 572.343 674.324C570.471 674.324 568.791 673.904 567.303 673.064C565.839 672.224 564.687 671.036 563.847 669.5C563.007 667.94 562.587 666.14 562.587 664.1C562.587 662.06 562.995 660.272 563.811 658.736C564.627 657.2 565.767 656.024 567.231 655.208C568.719 654.368 570.423 653.948 572.343 653.948C574.215 653.948 575.871 654.356 577.311 655.172C578.751 655.988 579.855 657.116 580.623 658.556C581.415 659.972 581.811 661.58 581.811 663.38ZM578.427 662.696C578.427 661.448 578.151 660.38 577.599 659.492C577.047 658.58 576.291 657.896 575.331 657.44C574.395 656.96 573.351 656.72 572.199 656.72C570.543 656.72 569.127 657.248 567.951 658.304C566.799 659.36 566.139 660.824 565.971 662.696H578.427ZM595.747 653.912C598.147 653.912 600.091 654.644 601.579 656.108C603.067 657.548 603.811 659.636 603.811 662.372V674H600.571V662.84C600.571 660.872 600.079 659.372 599.095 658.34C598.111 657.284 596.767 656.756 595.063 656.756C593.335 656.756 591.955 657.296 590.923 658.376C589.915 659.456 589.411 661.028 589.411 663.092V674H586.135V654.272H589.411V657.08C590.059 656.072 590.935 655.292 592.039 654.74C593.167 654.188 594.403 653.912 595.747 653.912ZM613.159 656.972V668.6C613.159 669.56 613.363 670.244 613.771 670.652C614.179 671.036 614.887 671.228 615.895 671.228H618.307V674H615.355C613.531 674 612.163 673.58 611.251 672.74C610.339 671.9 609.883 670.52 609.883 668.6V656.972H607.327V654.272H609.883V649.304H613.159V654.272H618.307V656.972H613.159ZM641.666 653.912C643.154 653.912 644.498 654.236 645.698 654.884C646.898 655.508 647.834 656.456 648.506 657.728C649.202 659 649.55 660.548 649.55 662.372V674H646.31V662.84C646.31 660.872 645.818 659.372 644.834 658.34C643.85 657.284 642.506 656.756 640.802 656.756C639.074 656.756 637.694 657.296 636.662 658.376C635.654 659.456 635.15 661.028 635.15 663.092V674H631.874V647.36H635.15V657.08C635.798 656.072 636.686 655.292 637.814 654.74C638.966 654.188 640.25 653.912 641.666 653.912ZM653.677 664.064C653.677 662.048 654.085 660.284 654.901 658.772C655.717 657.236 656.833 656.048 658.249 655.208C659.689 654.368 661.285 653.948 663.037 653.948C664.765 653.948 666.265 654.32 667.537 655.064C668.809 655.808 669.757 656.744 670.381 657.872V654.272H673.693V674H670.381V670.328C669.733 671.48 668.761 672.44 667.465 673.208C666.193 673.952 664.705 674.324 663.001 674.324C661.249 674.324 659.665 673.892 658.249 673.028C656.833 672.164 655.717 670.952 654.901 669.392C654.085 667.832 653.677 666.056 653.677 664.064ZM670.381 664.1C670.381 662.612 670.081 661.316 669.481 660.212C668.881 659.108 668.065 658.268 667.033 657.692C666.025 657.092 664.909 656.792 663.685 656.792C662.461 656.792 661.345 657.08 660.337 657.656C659.329 658.232 658.525 659.072 657.925 660.176C657.325 661.28 657.025 662.576 657.025 664.064C657.025 665.576 657.325 666.896 657.925 668.024C658.525 669.128 659.329 669.98 660.337 670.58C661.345 671.156 662.461 671.444 663.685 671.444C664.909 671.444 666.025 671.156 667.033 670.58C668.065 669.98 668.881 669.128 669.481 668.024C670.081 666.896 670.381 665.588 670.381 664.1ZM686.213 674.324C684.701 674.324 683.345 674.072 682.145 673.568C680.945 673.04 679.997 672.32 679.301 671.408C678.605 670.472 678.221 669.404 678.149 668.204H681.533C681.629 669.188 682.085 669.992 682.901 670.616C683.741 671.24 684.833 671.552 686.177 671.552C687.425 671.552 688.409 671.276 689.129 670.724C689.849 670.172 690.209 669.476 690.209 668.636C690.209 667.772 689.825 667.136 689.057 666.728C688.289 666.296 687.101 665.876 685.493 665.468C684.029 665.084 682.829 664.7 681.893 664.316C680.981 663.908 680.189 663.32 679.517 662.552C678.869 661.76 678.545 660.728 678.545 659.456C678.545 658.448 678.845 657.524 679.445 656.684C680.045 655.844 680.897 655.184 682.001 654.704C683.105 654.2 684.365 653.948 685.781 653.948C687.965 653.948 689.729 654.5 691.073 655.604C692.417 656.708 693.137 658.22 693.233 660.14H689.957C689.885 659.108 689.465 658.28 688.697 657.656C687.953 657.032 686.945 656.72 685.673 656.72C684.497 656.72 683.561 656.972 682.865 657.476C682.169 657.98 681.821 658.64 681.821 659.456C681.821 660.104 682.025 660.644 682.433 661.076C682.865 661.484 683.393 661.82 684.017 662.084C684.665 662.324 685.553 662.6 686.681 662.912C688.097 663.296 689.249 663.68 690.137 664.064C691.025 664.424 691.781 664.976 692.405 665.72C693.053 666.464 693.389 667.436 693.413 668.636C693.413 669.716 693.113 670.688 692.513 671.552C691.913 672.416 691.061 673.1 689.957 673.604C688.877 674.084 687.629 674.324 686.213 674.324ZM710.911 657.944C711.583 656.768 712.567 655.808 713.863 655.064C715.159 654.32 716.635 653.948 718.291 653.948C720.067 653.948 721.663 654.368 723.079 655.208C724.495 656.048 725.611 657.236 726.427 658.772C727.243 660.284 727.651 662.048 727.651 664.064C727.651 666.056 727.243 667.832 726.427 669.392C725.611 670.952 724.483 672.164 723.043 673.028C721.627 673.892 720.043 674.324 718.291 674.324C716.587 674.324 715.087 673.952 713.791 673.208C712.519 672.464 711.559 671.516 710.911 670.364V674H707.635V647.36H710.911V657.944ZM724.303 664.064C724.303 662.576 724.003 661.28 723.403 660.176C722.803 659.072 721.987 658.232 720.955 657.656C719.947 657.08 718.831 656.792 717.607 656.792C716.407 656.792 715.291 657.092 714.259 657.692C713.251 658.268 712.435 659.12 711.811 660.248C711.211 661.352 710.911 662.636 710.911 664.1C710.911 665.588 711.211 666.896 711.811 668.024C712.435 669.128 713.251 669.98 714.259 670.58C715.291 671.156 716.407 671.444 717.607 671.444C718.831 671.444 719.947 671.156 720.955 670.58C721.987 669.98 722.803 669.128 723.403 668.024C724.003 666.896 724.303 665.576 724.303 664.064ZM749.963 663.38C749.963 664.004 749.927 664.664 749.855 665.36H734.087C734.207 667.304 734.867 668.828 736.067 669.932C737.291 671.012 738.767 671.552 740.495 671.552C741.911 671.552 743.087 671.228 744.023 670.58C744.983 669.908 745.655 669.02 746.039 667.916H749.567C749.039 669.812 747.983 671.36 746.399 672.56C744.815 673.736 742.847 674.324 740.495 674.324C738.623 674.324 736.943 673.904 735.455 673.064C733.991 672.224 732.839 671.036 731.999 669.5C731.159 667.94 730.739 666.14 730.739 664.1C730.739 662.06 731.147 660.272 731.963 658.736C732.779 657.2 733.919 656.024 735.383 655.208C736.871 654.368 738.575 653.948 740.495 653.948C742.367 653.948 744.023 654.356 745.463 655.172C746.903 655.988 748.007 657.116 748.775 658.556C749.567 659.972 749.963 661.58 749.963 663.38ZM746.579 662.696C746.579 661.448 746.303 660.38 745.751 659.492C745.199 658.58 744.443 657.896 743.483 657.44C742.547 656.96 741.503 656.72 740.351 656.72C738.695 656.72 737.279 657.248 736.103 658.304C734.951 659.36 734.291 660.824 734.123 662.696H746.579ZM772.288 663.38C772.288 664.004 772.252 664.664 772.18 665.36H756.412C756.532 667.304 757.192 668.828 758.392 669.932C759.616 671.012 761.092 671.552 762.82 671.552C764.236 671.552 765.412 671.228 766.348 670.58C767.308 669.908 767.98 669.02 768.364 667.916H771.892C771.364 669.812 770.308 671.36 768.724 672.56C767.14 673.736 765.172 674.324 762.82 674.324C760.948 674.324 759.268 673.904 757.78 673.064C756.316 672.224 755.164 671.036 754.324 669.5C753.484 667.94 753.064 666.14 753.064 664.1C753.064 662.06 753.472 660.272 754.288 658.736C755.104 657.2 756.244 656.024 757.708 655.208C759.196 654.368 760.9 653.948 762.82 653.948C764.692 653.948 766.348 654.356 767.788 655.172C769.228 655.988 770.332 657.116 771.1 658.556C771.892 659.972 772.288 661.58 772.288 663.38ZM768.904 662.696C768.904 661.448 768.628 660.38 768.076 659.492C767.524 658.58 766.768 657.896 765.808 657.44C764.872 656.96 763.828 656.72 762.676 656.72C761.02 656.72 759.604 657.248 758.428 658.304C757.276 659.36 756.616 660.824 756.448 662.696H768.904ZM786.224 653.912C788.624 653.912 790.568 654.644 792.056 656.108C793.544 657.548 794.288 659.636 794.288 662.372V674H791.048V662.84C791.048 660.872 790.556 659.372 789.572 658.34C788.588 657.284 787.244 656.756 785.54 656.756C783.812 656.756 782.432 657.296 781.4 658.376C780.392 659.456 779.888 661.028 779.888 663.092V674H776.612V654.272H779.888V657.08C780.536 656.072 781.412 655.292 782.516 654.74C783.644 654.188 784.88 653.912 786.224 653.912ZM816.221 674.324C814.709 674.324 813.353 674.072 812.153 673.568C810.953 673.04 810.005 672.32 809.309 671.408C808.613 670.472 808.229 669.404 808.157 668.204H811.541C811.637 669.188 812.093 669.992 812.909 670.616C813.749 671.24 814.841 671.552 816.185 671.552C817.433 671.552 818.417 671.276 819.137 670.724C819.857 670.172 820.217 669.476 820.217 668.636C820.217 667.772 819.833 667.136 819.065 666.728C818.297 666.296 817.109 665.876 815.501 665.468C814.037 665.084 812.837 664.7 811.901 664.316C810.989 663.908 810.197 663.32 809.525 662.552C808.877 661.76 808.553 660.728 808.553 659.456C808.553 658.448 808.853 657.524 809.453 656.684C810.053 655.844 810.905 655.184 812.009 654.704C813.113 654.2 814.373 653.948 815.789 653.948C817.973 653.948 819.737 654.5 821.081 655.604C822.425 656.708 823.145 658.22 823.241 660.14H819.965C819.893 659.108 819.473 658.28 818.705 657.656C817.961 657.032 816.953 656.72 815.681 656.72C814.505 656.72 813.569 656.972 812.873 657.476C812.177 657.98 811.829 658.64 811.829 659.456C811.829 660.104 812.033 660.644 812.441 661.076C812.873 661.484 813.401 661.82 814.025 662.084C814.673 662.324 815.561 662.6 816.689 662.912C818.105 663.296 819.257 663.68 820.145 664.064C821.033 664.424 821.789 664.976 822.413 665.72C823.061 666.464 823.397 667.436 823.421 668.636C823.421 669.716 823.121 670.688 822.521 671.552C821.921 672.416 821.069 673.1 819.965 673.604C818.885 674.084 817.637 674.324 816.221 674.324ZM845.541 654.272V674H842.265V671.084C841.641 672.092 840.765 672.884 839.637 673.46C838.533 674.012 837.309 674.288 835.965 674.288C834.429 674.288 833.049 673.976 831.825 673.352C830.601 672.704 829.629 671.744 828.909 670.472C828.213 669.2 827.865 667.652 827.865 665.828V654.272H831.105V665.396C831.105 667.34 831.597 668.84 832.581 669.896C833.565 670.928 834.909 671.444 836.613 671.444C838.365 671.444 839.745 670.904 840.753 669.824C841.761 668.744 842.265 667.172 842.265 665.108V654.272H845.541ZM849.849 664.1C849.849 662.06 850.257 660.284 851.073 658.772C851.889 657.236 853.017 656.048 854.457 655.208C855.921 654.368 857.589 653.948 859.461 653.948C861.885 653.948 863.877 654.536 865.437 655.712C867.021 656.888 868.065 658.52 868.569 660.608H865.041C864.705 659.408 864.045 658.46 863.061 657.764C862.101 657.068 860.901 656.72 859.461 656.72C857.589 656.72 856.077 657.368 854.925 658.664C853.773 659.936 853.197 661.748 853.197 664.1C853.197 666.476 853.773 668.312 854.925 669.608C856.077 670.904 857.589 671.552 859.461 671.552C860.901 671.552 862.101 671.216 863.061 670.544C864.021 669.872 864.681 668.912 865.041 667.664H868.569C868.041 669.68 866.985 671.3 865.401 672.524C863.817 673.724 861.837 674.324 859.461 674.324C857.589 674.324 855.921 673.904 854.457 673.064C853.017 672.224 851.889 671.036 851.073 669.5C850.257 667.964 849.849 666.164 849.849 664.1ZM871.716 664.1C871.716 662.06 872.124 660.284 872.94 658.772C873.756 657.236 874.884 656.048 876.324 655.208C877.788 654.368 879.456 653.948 881.328 653.948C883.752 653.948 885.744 654.536 887.304 655.712C888.888 656.888 889.932 658.52 890.436 660.608H886.908C886.572 659.408 885.912 658.46 884.928 657.764C883.968 657.068 882.768 656.72 881.328 656.72C879.456 656.72 877.944 657.368 876.792 658.664C875.64 659.936 875.064 661.748 875.064 664.1C875.064 666.476 875.64 668.312 876.792 669.608C877.944 670.904 879.456 671.552 881.328 671.552C882.768 671.552 883.968 671.216 884.928 670.544C885.888 669.872 886.548 668.912 886.908 667.664H890.436C889.908 669.68 888.852 671.3 887.268 672.524C885.684 673.724 883.704 674.324 881.328 674.324C879.456 674.324 877.788 673.904 876.324 673.064C874.884 672.224 873.756 671.036 872.94 669.5C872.124 667.964 871.716 666.164 871.716 664.1ZM912.807 663.38C912.807 664.004 912.771 664.664 912.699 665.36H896.931C897.051 667.304 897.711 668.828 898.911 669.932C900.135 671.012 901.611 671.552 903.339 671.552C904.755 671.552 905.931 671.228 906.867 670.58C907.827 669.908 908.499 669.02 908.883 667.916H912.411C911.883 669.812 910.827 671.36 909.243 672.56C907.659 673.736 905.691 674.324 903.339 674.324C901.467 674.324 899.787 673.904 898.299 673.064C896.835 672.224 895.683 671.036 894.843 669.5C894.003 667.94 893.583 666.14 893.583 664.1C893.583 662.06 893.991 660.272 894.807 658.736C895.623 657.2 896.763 656.024 898.227 655.208C899.715 654.368 901.419 653.948 903.339 653.948C905.211 653.948 906.867 654.356 908.307 655.172C909.747 655.988 910.851 657.116 911.619 658.556C912.411 659.972 912.807 661.58 912.807 663.38ZM909.423 662.696C909.423 661.448 909.147 660.38 908.595 659.492C908.043 658.58 907.287 657.896 906.327 657.44C905.391 656.96 904.347 656.72 903.195 656.72C901.539 656.72 900.123 657.248 898.947 658.304C897.795 659.36 897.135 660.824 896.967 662.696H909.423ZM924.115 674.324C922.603 674.324 921.247 674.072 920.047 673.568C918.847 673.04 917.899 672.32 917.203 671.408C916.507 670.472 916.123 669.404 916.051 668.204H919.435C919.531 669.188 919.987 669.992 920.803 670.616C921.643 671.24 922.735 671.552 924.079 671.552C925.327 671.552 926.311 671.276 927.031 670.724C927.751 670.172 928.111 669.476 928.111 668.636C928.111 667.772 927.727 667.136 926.959 666.728C926.191 666.296 925.003 665.876 923.395 665.468C921.931 665.084 920.731 664.7 919.795 664.316C918.883 663.908 918.091 663.32 917.419 662.552C916.771 661.76 916.447 660.728 916.447 659.456C916.447 658.448 916.747 657.524 917.347 656.684C917.947 655.844 918.799 655.184 919.903 654.704C921.007 654.2 922.267 653.948 923.683 653.948C925.867 653.948 927.631 654.5 928.975 655.604C930.319 656.708 931.039 658.22 931.135 660.14H927.859C927.787 659.108 927.367 658.28 926.599 657.656C925.855 657.032 924.847 656.72 923.575 656.72C922.399 656.72 921.463 656.972 920.767 657.476C920.071 657.98 919.723 658.64 919.723 659.456C919.723 660.104 919.927 660.644 920.335 661.076C920.767 661.484 921.295 661.82 921.919 662.084C922.567 662.324 923.455 662.6 924.583 662.912C925.999 663.296 927.151 663.68 928.039 664.064C928.927 664.424 929.683 664.976 930.307 665.72C930.955 666.464 931.291 667.436 931.315 668.636C931.315 669.716 931.015 670.688 930.415 671.552C929.815 672.416 928.963 673.1 927.859 673.604C926.779 674.084 925.531 674.324 924.115 674.324ZM942.924 674.324C941.412 674.324 940.056 674.072 938.856 673.568C937.656 673.04 936.708 672.32 936.012 671.408C935.316 670.472 934.932 669.404 934.86 668.204H938.244C938.34 669.188 938.796 669.992 939.612 670.616C940.452 671.24 941.544 671.552 942.888 671.552C944.136 671.552 945.12 671.276 945.84 670.724C946.56 670.172 946.92 669.476 946.92 668.636C946.92 667.772 946.536 667.136 945.768 666.728C945 666.296 943.812 665.876 942.204 665.468C940.74 665.084 939.54 664.7 938.604 664.316C937.692 663.908 936.9 663.32 936.228 662.552C935.58 661.76 935.256 660.728 935.256 659.456C935.256 658.448 935.556 657.524 936.156 656.684C936.756 655.844 937.608 655.184 938.712 654.704C939.816 654.2 941.076 653.948 942.492 653.948C944.676 653.948 946.44 654.5 947.784 655.604C949.128 656.708 949.848 658.22 949.944 660.14H946.668C946.596 659.108 946.176 658.28 945.408 657.656C944.664 657.032 943.656 656.72 942.384 656.72C941.208 656.72 940.272 656.972 939.576 657.476C938.88 657.98 938.532 658.64 938.532 659.456C938.532 660.104 938.736 660.644 939.144 661.076C939.576 661.484 940.104 661.82 940.728 662.084C941.376 662.324 942.264 662.6 943.392 662.912C944.808 663.296 945.96 663.68 946.848 664.064C947.736 664.424 948.492 664.976 949.116 665.72C949.764 666.464 950.1 667.436 950.124 668.636C950.124 669.716 949.824 670.688 949.224 671.552C948.624 672.416 947.772 673.1 946.668 673.604C945.588 674.084 944.34 674.324 942.924 674.324ZM962.777 656.972H958.637V674H955.361V656.972H952.805V654.272H955.361V652.868C955.361 650.66 955.925 649.052 957.053 648.044C958.205 647.012 960.041 646.496 962.561 646.496V649.232C961.121 649.232 960.101 649.52 959.501 650.096C958.925 650.648 958.637 651.572 958.637 652.868V654.272H962.777V656.972ZM984.092 654.272V674H980.816V671.084C980.192 672.092 979.316 672.884 978.188 673.46C977.084 674.012 975.86 674.288 974.516 674.288C972.98 674.288 971.6 673.976 970.376 673.352C969.152 672.704 968.18 671.744 967.46 670.472C966.764 669.2 966.416 667.652 966.416 665.828V654.272H969.656V665.396C969.656 667.34 970.148 668.84 971.132 669.896C972.116 670.928 973.46 671.444 975.164 671.444C976.916 671.444 978.296 670.904 979.304 669.824C980.312 668.744 980.816 667.172 980.816 665.108V654.272H984.092ZM992.9 647.36V674H989.624V647.36H992.9ZM1001.76 647.36V674H998.483V647.36H1001.76ZM1024.33 654.272L1012.45 683.288H1009.07L1012.96 673.784L1005 654.272H1008.64L1014.83 670.256L1020.95 654.272H1024.33ZM186.362 718.1C186.362 716.06 186.77 714.284 187.586 712.772C188.402 711.236 189.53 710.048 190.97 709.208C192.434 708.368 194.102 707.948 195.974 707.948C198.398 707.948 200.39 708.536 201.95 709.712C203.534 710.888 204.578 712.52 205.082 714.608H201.554C201.218 713.408 200.558 712.46 199.574 711.764C198.614 711.068 197.414 710.72 195.974 710.72C194.102 710.72 192.59 711.368 191.438 712.664C190.286 713.936 189.71 715.748 189.71 718.1C189.71 720.476 190.286 722.312 191.438 723.608C192.59 724.904 194.102 725.552 195.974 725.552C197.414 725.552 198.614 725.216 199.574 724.544C200.534 723.872 201.194 722.912 201.554 721.664H205.082C204.554 723.68 203.498 725.3 201.914 726.524C200.33 727.724 198.35 728.324 195.974 728.324C194.102 728.324 192.434 727.904 190.97 727.064C189.53 726.224 188.402 725.036 187.586 723.5C186.77 721.964 186.362 720.164 186.362 718.1ZM218.058 728.324C216.21 728.324 214.53 727.904 213.018 727.064C211.53 726.224 210.354 725.036 209.49 723.5C208.65 721.94 208.23 720.14 208.23 718.1C208.23 716.084 208.662 714.308 209.526 712.772C210.414 711.212 211.614 710.024 213.126 709.208C214.638 708.368 216.33 707.948 218.202 707.948C220.074 707.948 221.766 708.368 223.278 709.208C224.79 710.024 225.978 711.2 226.842 712.736C227.73 714.272 228.174 716.06 228.174 718.1C228.174 720.14 227.718 721.94 226.806 723.5C225.918 725.036 224.706 726.224 223.17 727.064C221.634 727.904 219.93 728.324 218.058 728.324ZM218.058 725.444C219.234 725.444 220.338 725.168 221.37 724.616C222.402 724.064 223.23 723.236 223.854 722.132C224.502 721.028 224.826 719.684 224.826 718.1C224.826 716.516 224.514 715.172 223.89 714.068C223.266 712.964 222.45 712.148 221.442 711.62C220.434 711.068 219.342 710.792 218.166 710.792C216.966 710.792 215.862 711.068 214.854 711.62C213.87 712.148 213.078 712.964 212.478 714.068C211.878 715.172 211.578 716.516 211.578 718.1C211.578 719.708 211.866 721.064 212.442 722.168C213.042 723.272 213.834 724.1 214.818 724.652C215.802 725.18 216.882 725.444 218.058 725.444ZM256.205 707.912C257.741 707.912 259.109 708.236 260.309 708.884C261.509 709.508 262.457 710.456 263.153 711.728C263.849 713 264.197 714.548 264.197 716.372V728H260.957V716.84C260.957 714.872 260.465 713.372 259.481 712.34C258.521 711.284 257.213 710.756 255.557 710.756C253.853 710.756 252.497 711.308 251.489 712.412C250.481 713.492 249.977 715.064 249.977 717.128V728H246.737V716.84C246.737 714.872 246.245 713.372 245.261 712.34C244.301 711.284 242.993 710.756 241.337 710.756C239.633 710.756 238.277 711.308 237.269 712.412C236.261 713.492 235.757 715.064 235.757 717.128V728H232.481V708.272H235.757V711.116C236.405 710.084 237.269 709.292 238.349 708.74C239.453 708.188 240.665 707.912 241.985 707.912C243.641 707.912 245.105 708.284 246.377 709.028C247.649 709.772 248.597 710.864 249.221 712.304C249.773 710.912 250.685 709.832 251.957 709.064C253.229 708.296 254.645 707.912 256.205 707.912ZM272.847 711.908C273.495 710.78 274.455 709.844 275.727 709.1C277.023 708.332 278.523 707.948 280.227 707.948C281.979 707.948 283.563 708.368 284.979 709.208C286.419 710.048 287.547 711.236 288.363 712.772C289.179 714.284 289.587 716.048 289.587 718.064C289.587 720.056 289.179 721.832 288.363 723.392C287.547 724.952 286.419 726.164 284.979 727.028C283.563 727.892 281.979 728.324 280.227 728.324C278.547 728.324 277.059 727.952 275.763 727.208C274.491 726.44 273.519 725.492 272.847 724.364V737.36H269.571V708.272H272.847V711.908ZM286.239 718.064C286.239 716.576 285.939 715.28 285.339 714.176C284.739 713.072 283.923 712.232 282.891 711.656C281.883 711.08 280.767 710.792 279.543 710.792C278.343 710.792 277.227 711.092 276.195 711.692C275.187 712.268 274.371 713.12 273.747 714.248C273.147 715.352 272.847 716.636 272.847 718.1C272.847 719.588 273.147 720.896 273.747 722.024C274.371 723.128 275.187 723.98 276.195 724.58C277.227 725.156 278.343 725.444 279.543 725.444C280.767 725.444 281.883 725.156 282.891 724.58C283.923 723.98 284.739 723.128 285.339 722.024C285.939 720.896 286.239 719.576 286.239 718.064ZM297.175 701.36V728H293.899V701.36H297.175ZM320.758 717.38C320.758 718.004 320.722 718.664 320.65 719.36H304.882C305.002 721.304 305.662 722.828 306.862 723.932C308.086 725.012 309.562 725.552 311.29 725.552C312.706 725.552 313.882 725.228 314.818 724.58C315.778 723.908 316.45 723.02 316.834 721.916H320.362C319.834 723.812 318.778 725.36 317.194 726.56C315.61 727.736 313.642 728.324 311.29 728.324C309.418 728.324 307.738 727.904 306.25 727.064C304.786 726.224 303.634 725.036 302.794 723.5C301.954 721.94 301.534 720.14 301.534 718.1C301.534 716.06 301.942 714.272 302.758 712.736C303.574 711.2 304.714 710.024 306.178 709.208C307.666 708.368 309.37 707.948 311.29 707.948C313.162 707.948 314.818 708.356 316.258 709.172C317.698 709.988 318.802 711.116 319.57 712.556C320.362 713.972 320.758 715.58 320.758 717.38ZM317.374 716.696C317.374 715.448 317.098 714.38 316.546 713.492C315.994 712.58 315.238 711.896 314.278 711.44C313.342 710.96 312.298 710.72 311.146 710.72C309.49 710.72 308.074 711.248 306.898 712.304C305.746 713.36 305.086 714.824 304.918 716.696H317.374ZM329.079 710.972V722.6C329.079 723.56 329.283 724.244 329.691 724.652C330.099 725.036 330.807 725.228 331.815 725.228H334.227V728H331.275C329.451 728 328.083 727.58 327.171 726.74C326.259 725.9 325.803 724.52 325.803 722.6V710.972H323.247V708.272H325.803V703.304H329.079V708.272H334.227V710.972H329.079ZM356.196 717.38C356.196 718.004 356.16 718.664 356.088 719.36H340.32C340.44 721.304 341.1 722.828 342.3 723.932C343.524 725.012 345 725.552 346.728 725.552C348.144 725.552 349.32 725.228 350.256 724.58C351.216 723.908 351.888 723.02 352.272 721.916H355.8C355.272 723.812 354.216 725.36 352.632 726.56C351.048 727.736 349.08 728.324 346.728 728.324C344.856 728.324 343.176 727.904 341.688 727.064C340.224 726.224 339.072 725.036 338.232 723.5C337.392 721.94 336.972 720.14 336.972 718.1C336.972 716.06 337.38 714.272 338.196 712.736C339.012 711.2 340.152 710.024 341.616 709.208C343.104 708.368 344.808 707.948 346.728 707.948C348.6 707.948 350.256 708.356 351.696 709.172C353.136 709.988 354.24 711.116 355.008 712.556C355.8 713.972 356.196 715.58 356.196 717.38ZM352.812 716.696C352.812 715.448 352.536 714.38 351.984 713.492C351.432 712.58 350.676 711.896 349.716 711.44C348.78 710.96 347.736 710.72 346.584 710.72C344.928 710.72 343.512 711.248 342.336 712.304C341.184 713.36 340.524 714.824 340.356 716.696H352.812ZM359.296 718.064C359.296 716.048 359.704 714.284 360.52 712.772C361.336 711.236 362.452 710.048 363.868 709.208C365.308 708.368 366.916 707.948 368.692 707.948C370.228 707.948 371.656 708.308 372.976 709.028C374.296 709.724 375.304 710.648 376 711.8V701.36H379.312V728H376V724.292C375.352 725.468 374.392 726.44 373.12 727.208C371.848 727.952 370.36 728.324 368.656 728.324C366.904 728.324 365.308 727.892 363.868 727.028C362.452 726.164 361.336 724.952 360.52 723.392C359.704 721.832 359.296 720.056 359.296 718.064ZM376 718.1C376 716.612 375.7 715.316 375.1 714.212C374.5 713.108 373.684 712.268 372.652 711.692C371.644 711.092 370.528 710.792 369.304 710.792C368.08 710.792 366.964 711.08 365.956 711.656C364.948 712.232 364.144 713.072 363.544 714.176C362.944 715.28 362.644 716.576 362.644 718.064C362.644 719.576 362.944 720.896 363.544 722.024C364.144 723.128 364.948 723.98 365.956 724.58C366.964 725.156 368.08 725.444 369.304 725.444C370.528 725.444 371.644 725.156 372.652 724.58C373.684 723.98 374.5 723.128 375.1 722.024C375.7 720.896 376 719.588 376 718.1ZM385.892 728.216C385.268 728.216 384.74 728 384.308 727.568C383.876 727.136 383.66 726.608 383.66 725.984C383.66 725.36 383.876 724.832 384.308 724.4C384.74 723.968 385.268 723.752 385.892 723.752C386.492 723.752 386.996 723.968 387.404 724.4C387.836 724.832 388.052 725.36 388.052 725.984C388.052 726.608 387.836 727.136 387.404 727.568C386.996 728 386.492 728.216 385.892 728.216ZM417.448 702.908V705.572H410.608V728H407.332V705.572H400.456V702.908H417.448ZM431.273 707.912C432.761 707.912 434.105 708.236 435.305 708.884C436.505 709.508 437.441 710.456 438.113 711.728C438.809 713 439.157 714.548 439.157 716.372V728H435.917V716.84C435.917 714.872 435.425 713.372 434.441 712.34C433.457 711.284 432.113 710.756 430.409 710.756C428.681 710.756 427.301 711.296 426.269 712.376C425.261 713.456 424.757 715.028 424.757 717.092V728H421.481V701.36H424.757V711.08C425.405 710.072 426.293 709.292 427.421 708.74C428.573 708.188 429.857 707.912 431.273 707.912ZM443.284 718.064C443.284 716.048 443.692 714.284 444.508 712.772C445.324 711.236 446.44 710.048 447.856 709.208C449.296 708.368 450.892 707.948 452.644 707.948C454.372 707.948 455.872 708.32 457.144 709.064C458.416 709.808 459.364 710.744 459.988 711.872V708.272H463.3V728H459.988V724.328C459.34 725.48 458.368 726.44 457.072 727.208C455.8 727.952 454.312 728.324 452.608 728.324C450.856 728.324 449.272 727.892 447.856 727.028C446.44 726.164 445.324 724.952 444.508 723.392C443.692 721.832 443.284 720.056 443.284 718.064ZM459.988 718.1C459.988 716.612 459.688 715.316 459.088 714.212C458.488 713.108 457.672 712.268 456.64 711.692C455.632 711.092 454.516 710.792 453.292 710.792C452.068 710.792 450.952 711.08 449.944 711.656C448.936 712.232 448.132 713.072 447.532 714.176C446.932 715.28 446.632 716.576 446.632 718.064C446.632 719.576 446.932 720.896 447.532 722.024C448.132 723.128 448.936 723.98 449.944 724.58C450.952 725.156 452.068 725.444 453.292 725.444C454.516 725.444 455.632 725.156 456.64 724.58C457.672 723.98 458.488 723.128 459.088 722.024C459.688 720.896 459.988 719.588 459.988 718.1ZM478.448 707.912C480.848 707.912 482.792 708.644 484.28 710.108C485.768 711.548 486.512 713.636 486.512 716.372V728H483.272V716.84C483.272 714.872 482.78 713.372 481.796 712.34C480.812 711.284 479.468 710.756 477.764 710.756C476.036 710.756 474.656 711.296 473.624 712.376C472.616 713.456 472.112 715.028 472.112 717.092V728H468.836V708.272H472.112V711.08C472.76 710.072 473.636 709.292 474.74 708.74C475.868 708.188 477.104 707.912 478.448 707.912ZM502.88 728L495.14 719.288V728H491.864V701.36H495.14V717.02L502.736 708.272H507.308L498.02 718.1L507.344 728H502.88ZM536.981 708.272L525.101 737.288H521.717L525.605 727.784L517.649 708.272H521.285L527.477 724.256L533.597 708.272H536.981ZM548.878 728.324C547.03 728.324 545.35 727.904 543.838 727.064C542.35 726.224 541.174 725.036 540.31 723.5C539.47 721.94 539.05 720.14 539.05 718.1C539.05 716.084 539.482 714.308 540.346 712.772C541.234 711.212 542.434 710.024 543.946 709.208C545.458 708.368 547.15 707.948 549.022 707.948C550.894 707.948 552.586 708.368 554.098 709.208C555.61 710.024 556.798 711.2 557.662 712.736C558.55 714.272 558.994 716.06 558.994 718.1C558.994 720.14 558.538 721.94 557.626 723.5C556.738 725.036 555.526 726.224 553.99 727.064C552.454 727.904 550.75 728.324 548.878 728.324ZM548.878 725.444C550.054 725.444 551.158 725.168 552.19 724.616C553.222 724.064 554.05 723.236 554.674 722.132C555.322 721.028 555.646 719.684 555.646 718.1C555.646 716.516 555.334 715.172 554.71 714.068C554.086 712.964 553.27 712.148 552.262 711.62C551.254 711.068 550.162 710.792 548.986 710.792C547.786 710.792 546.682 711.068 545.674 711.62C544.69 712.148 543.898 712.964 543.298 714.068C542.698 715.172 542.398 716.516 542.398 718.1C542.398 719.708 542.686 721.064 543.262 722.168C543.862 723.272 544.654 724.1 545.638 724.652C546.622 725.18 547.702 725.444 548.878 725.444ZM580.797 708.272V728H577.521V725.084C576.897 726.092 576.021 726.884 574.893 727.46C573.789 728.012 572.565 728.288 571.221 728.288C569.685 728.288 568.305 727.976 567.081 727.352C565.857 726.704 564.885 725.744 564.165 724.472C563.469 723.2 563.121 721.652 563.121 719.828V708.272H566.361V719.396C566.361 721.34 566.853 722.84 567.837 723.896C568.821 724.928 570.165 725.444 571.869 725.444C573.621 725.444 575.001 724.904 576.009 723.824C577.017 722.744 577.521 721.172 577.521 719.108V708.272H580.797ZM603.954 710.972H599.814V728H596.538V710.972H593.982V708.272H596.538V706.868C596.538 704.66 597.102 703.052 598.23 702.044C599.382 701.012 601.218 700.496 603.738 700.496V703.232C602.298 703.232 601.278 703.52 600.678 704.096C600.102 704.648 599.814 705.572 599.814 706.868V708.272H603.954V710.972ZM616.378 728.324C614.53 728.324 612.85 727.904 611.338 727.064C609.85 726.224 608.674 725.036 607.81 723.5C606.97 721.94 606.55 720.14 606.55 718.1C606.55 716.084 606.982 714.308 607.846 712.772C608.734 711.212 609.934 710.024 611.446 709.208C612.958 708.368 614.65 707.948 616.522 707.948C618.394 707.948 620.086 708.368 621.598 709.208C623.11 710.024 624.298 711.2 625.162 712.736C626.05 714.272 626.494 716.06 626.494 718.1C626.494 720.14 626.038 721.94 625.126 723.5C624.238 725.036 623.026 726.224 621.49 727.064C619.954 727.904 618.25 728.324 616.378 728.324ZM616.378 725.444C617.554 725.444 618.658 725.168 619.69 724.616C620.722 724.064 621.55 723.236 622.174 722.132C622.822 721.028 623.146 719.684 623.146 718.1C623.146 716.516 622.834 715.172 622.21 714.068C621.586 712.964 620.77 712.148 619.762 711.62C618.754 711.068 617.662 710.792 616.486 710.792C615.286 710.792 614.182 711.068 613.174 711.62C612.19 712.148 611.398 712.964 610.798 714.068C610.198 715.172 609.898 716.516 609.898 718.1C609.898 719.708 610.186 721.064 610.762 722.168C611.362 723.272 612.154 724.1 613.138 724.652C614.122 725.18 615.202 725.444 616.378 725.444ZM634.077 711.476C634.653 710.348 635.469 709.472 636.525 708.848C637.605 708.224 638.913 707.912 640.449 707.912V711.296H639.585C635.913 711.296 634.077 713.288 634.077 717.272V728H630.801V708.272H634.077V711.476ZM652.605 718.1C652.605 716.06 653.013 714.284 653.829 712.772C654.645 711.236 655.773 710.048 657.213 709.208C658.677 708.368 660.345 707.948 662.217 707.948C664.641 707.948 666.633 708.536 668.193 709.712C669.777 710.888 670.821 712.52 671.325 714.608H667.797C667.461 713.408 666.801 712.46 665.817 711.764C664.857 711.068 663.657 710.72 662.217 710.72C660.345 710.72 658.833 711.368 657.681 712.664C656.529 713.936 655.953 715.748 655.953 718.1C655.953 720.476 656.529 722.312 657.681 723.608C658.833 724.904 660.345 725.552 662.217 725.552C663.657 725.552 664.857 725.216 665.817 724.544C666.777 723.872 667.437 722.912 667.797 721.664H671.325C670.797 723.68 669.741 725.3 668.157 726.524C666.573 727.724 664.593 728.324 662.217 728.324C660.345 728.324 658.677 727.904 657.213 727.064C655.773 726.224 654.645 725.036 653.829 723.5C653.013 721.964 652.605 720.164 652.605 718.1ZM685.488 707.912C686.976 707.912 688.32 708.236 689.52 708.884C690.72 709.508 691.656 710.456 692.328 711.728C693.024 713 693.372 714.548 693.372 716.372V728H690.132V716.84C690.132 714.872 689.64 713.372 688.656 712.34C687.672 711.284 686.328 710.756 684.624 710.756C682.896 710.756 681.516 711.296 680.484 712.376C679.476 713.456 678.972 715.028 678.972 717.092V728H675.696V701.36H678.972V711.08C679.62 710.072 680.508 709.292 681.636 708.74C682.788 708.188 684.072 707.912 685.488 707.912ZM707.327 728.324C705.479 728.324 703.799 727.904 702.287 727.064C700.799 726.224 699.623 725.036 698.759 723.5C697.919 721.94 697.499 720.14 697.499 718.1C697.499 716.084 697.931 714.308 698.795 712.772C699.683 711.212 700.883 710.024 702.395 709.208C703.907 708.368 705.599 707.948 707.471 707.948C709.343 707.948 711.035 708.368 712.547 709.208C714.059 710.024 715.247 711.2 716.111 712.736C716.999 714.272 717.443 716.06 717.443 718.1C717.443 720.14 716.987 721.94 716.075 723.5C715.187 725.036 713.975 726.224 712.439 727.064C710.903 727.904 709.199 728.324 707.327 728.324ZM707.327 725.444C708.503 725.444 709.607 725.168 710.639 724.616C711.671 724.064 712.499 723.236 713.123 722.132C713.771 721.028 714.095 719.684 714.095 718.1C714.095 716.516 713.783 715.172 713.159 714.068C712.535 712.964 711.719 712.148 710.711 711.62C709.703 711.068 708.611 710.792 707.435 710.792C706.235 710.792 705.131 711.068 704.123 711.62C703.139 712.148 702.347 712.964 701.747 714.068C701.147 715.172 700.847 716.516 700.847 718.1C700.847 719.708 701.135 721.064 701.711 722.168C702.311 723.272 703.103 724.1 704.087 724.652C705.071 725.18 706.151 725.444 707.327 725.444ZM730.355 728.324C728.507 728.324 726.827 727.904 725.315 727.064C723.827 726.224 722.651 725.036 721.787 723.5C720.947 721.94 720.527 720.14 720.527 718.1C720.527 716.084 720.959 714.308 721.823 712.772C722.711 711.212 723.911 710.024 725.423 709.208C726.935 708.368 728.627 707.948 730.499 707.948C732.371 707.948 734.063 708.368 735.575 709.208C737.087 710.024 738.275 711.2 739.139 712.736C740.027 714.272 740.471 716.06 740.471 718.1C740.471 720.14 740.015 721.94 739.103 723.5C738.215 725.036 737.003 726.224 735.467 727.064C733.931 727.904 732.227 728.324 730.355 728.324ZM730.355 725.444C731.531 725.444 732.635 725.168 733.667 724.616C734.699 724.064 735.527 723.236 736.151 722.132C736.799 721.028 737.123 719.684 737.123 718.1C737.123 716.516 736.811 715.172 736.187 714.068C735.563 712.964 734.747 712.148 733.739 711.62C732.731 711.068 731.639 710.792 730.463 710.792C729.263 710.792 728.159 711.068 727.151 711.62C726.167 712.148 725.375 712.964 724.775 714.068C724.175 715.172 723.875 716.516 723.875 718.1C723.875 719.708 724.163 721.064 724.739 722.168C725.339 723.272 726.131 724.1 727.115 724.652C728.099 725.18 729.179 725.444 730.355 725.444ZM751.762 728.324C750.25 728.324 748.894 728.072 747.694 727.568C746.494 727.04 745.546 726.32 744.85 725.408C744.154 724.472 743.77 723.404 743.698 722.204H747.082C747.178 723.188 747.634 723.992 748.45 724.616C749.29 725.24 750.382 725.552 751.726 725.552C752.974 725.552 753.958 725.276 754.678 724.724C755.398 724.172 755.758 723.476 755.758 722.636C755.758 721.772 755.374 721.136 754.606 720.728C753.838 720.296 752.65 719.876 751.042 719.468C749.578 719.084 748.378 718.7 747.442 718.316C746.53 717.908 745.738 717.32 745.066 716.552C744.418 715.76 744.094 714.728 744.094 713.456C744.094 712.448 744.394 711.524 744.994 710.684C745.594 709.844 746.446 709.184 747.55 708.704C748.654 708.2 749.914 707.948 751.33 707.948C753.514 707.948 755.278 708.5 756.622 709.604C757.966 710.708 758.686 712.22 758.782 714.14H755.506C755.434 713.108 755.014 712.28 754.246 711.656C753.502 711.032 752.494 710.72 751.222 710.72C750.046 710.72 749.11 710.972 748.414 711.476C747.718 711.98 747.37 712.64 747.37 713.456C747.37 714.104 747.574 714.644 747.982 715.076C748.414 715.484 748.942 715.82 749.566 716.084C750.214 716.324 751.102 716.6 752.23 716.912C753.646 717.296 754.798 717.68 755.686 718.064C756.574 718.424 757.33 718.976 757.954 719.72C758.602 720.464 758.938 721.436 758.962 722.636C758.962 723.716 758.662 724.688 758.062 725.552C757.462 726.416 756.61 727.1 755.506 727.604C754.426 728.084 753.178 728.324 751.762 728.324ZM765.278 705.068C764.654 705.068 764.126 704.852 763.694 704.42C763.262 703.988 763.046 703.46 763.046 702.836C763.046 702.212 763.262 701.684 763.694 701.252C764.126 700.82 764.654 700.604 765.278 700.604C765.878 700.604 766.382 700.82 766.79 701.252C767.222 701.684 767.438 702.212 767.438 702.836C767.438 703.46 767.222 703.988 766.79 704.42C766.382 704.852 765.878 705.068 765.278 705.068ZM766.862 708.272V728H763.586V708.272H766.862ZM782.058 707.912C784.458 707.912 786.402 708.644 787.89 710.108C789.378 711.548 790.122 713.636 790.122 716.372V728H786.882V716.84C786.882 714.872 786.39 713.372 785.406 712.34C784.422 711.284 783.078 710.756 781.374 710.756C779.646 710.756 778.266 711.296 777.234 712.376C776.226 713.456 775.722 715.028 775.722 717.092V728H772.446V708.272H775.722V711.08C776.37 710.072 777.246 709.292 778.35 708.74C779.478 708.188 780.714 707.912 782.058 707.912ZM803.609 707.948C805.313 707.948 806.801 708.32 808.073 709.064C809.369 709.808 810.329 710.744 810.953 711.872V708.272H814.265V728.432C814.265 730.232 813.881 731.828 813.113 733.22C812.345 734.636 811.241 735.74 809.801 736.532C808.385 737.324 806.729 737.72 804.833 737.72C802.241 737.72 800.081 737.108 798.353 735.884C796.625 734.66 795.605 732.992 795.293 730.88H798.533C798.893 732.08 799.637 733.04 800.765 733.76C801.893 734.504 803.249 734.876 804.833 734.876C806.633 734.876 808.097 734.312 809.225 733.184C810.377 732.056 810.953 730.472 810.953 728.432V724.292C810.305 725.444 809.345 726.404 808.073 727.172C806.801 727.94 805.313 728.324 803.609 728.324C801.857 728.324 800.261 727.892 798.821 727.028C797.405 726.164 796.289 724.952 795.473 723.392C794.657 721.832 794.249 720.056 794.249 718.064C794.249 716.048 794.657 714.284 795.473 712.772C796.289 711.236 797.405 710.048 798.821 709.208C800.261 708.368 801.857 707.948 803.609 707.948ZM810.953 718.1C810.953 716.612 810.653 715.316 810.053 714.212C809.453 713.108 808.637 712.268 807.605 711.692C806.597 711.092 805.481 710.792 804.257 710.792C803.033 710.792 801.917 711.08 800.909 711.656C799.901 712.232 799.097 713.072 798.497 714.176C797.897 715.28 797.597 716.576 797.597 718.064C797.597 719.576 797.897 720.896 798.497 722.024C799.097 723.128 799.901 723.98 800.909 724.58C801.917 725.156 803.033 725.444 804.257 725.444C805.481 725.444 806.597 725.156 807.605 724.58C808.637 723.98 809.453 723.128 810.053 722.024C810.653 720.896 810.953 719.588 810.953 718.1ZM846.895 708.272V728H843.619V725.084C842.995 726.092 842.119 726.884 840.991 727.46C839.887 728.012 838.663 728.288 837.319 728.288C835.783 728.288 834.403 727.976 833.179 727.352C831.955 726.704 830.983 725.744 830.263 724.472C829.567 723.2 829.219 721.652 829.219 719.828V708.272H832.459V719.396C832.459 721.34 832.951 722.84 833.935 723.896C834.919 724.928 836.263 725.444 837.967 725.444C839.719 725.444 841.099 724.904 842.107 723.824C843.115 722.744 843.619 721.172 843.619 719.108V708.272H846.895ZM859.41 728.324C857.898 728.324 856.542 728.072 855.342 727.568C854.142 727.04 853.194 726.32 852.498 725.408C851.802 724.472 851.418 723.404 851.346 722.204H854.73C854.826 723.188 855.282 723.992 856.098 724.616C856.938 725.24 858.03 725.552 859.374 725.552C860.622 725.552 861.606 725.276 862.326 724.724C863.046 724.172 863.406 723.476 863.406 722.636C863.406 721.772 863.022 721.136 862.254 720.728C861.486 720.296 860.298 719.876 858.69 719.468C857.226 719.084 856.026 718.7 855.09 718.316C854.178 717.908 853.386 717.32 852.714 716.552C852.066 715.76 851.742 714.728 851.742 713.456C851.742 712.448 852.042 711.524 852.642 710.684C853.242 709.844 854.094 709.184 855.198 708.704C856.302 708.2 857.562 707.948 858.978 707.948C861.162 707.948 862.926 708.5 864.27 709.604C865.614 710.708 866.334 712.22 866.43 714.14H863.154C863.082 713.108 862.662 712.28 861.894 711.656C861.15 711.032 860.142 710.72 858.87 710.72C857.694 710.72 856.758 710.972 856.062 711.476C855.366 711.98 855.018 712.64 855.018 713.456C855.018 714.104 855.222 714.644 855.63 715.076C856.062 715.484 856.59 715.82 857.214 716.084C857.862 716.324 858.75 716.6 859.878 716.912C861.294 717.296 862.446 717.68 863.334 718.064C864.222 718.424 864.978 718.976 865.602 719.72C866.25 720.464 866.586 721.436 866.61 722.636C866.61 723.716 866.31 724.688 865.71 725.552C865.11 726.416 864.258 727.1 863.154 727.604C862.074 728.084 860.826 728.324 859.41 728.324ZM875.483 702.908L875.087 720.908H872.351L871.955 702.908H875.483ZM873.863 728.216C873.239 728.216 872.711 728 872.279 727.568C871.847 727.136 871.631 726.608 871.631 725.984C871.631 725.36 871.847 724.832 872.279 724.4C872.711 723.968 873.239 723.752 873.863 723.752C874.463 723.752 874.967 723.968 875.375 724.4C875.807 724.832 876.023 725.36 876.023 725.984C876.023 726.608 875.807 727.136 875.375 727.568C874.967 728 874.463 728.216 873.863 728.216Z" fill="#1E1E1E"/>
<path d="M149.662 666.764C149.662 668.012 149.338 669.188 148.69 670.292C148.066 671.372 147.13 672.272 145.882 672.992C144.658 673.688 143.206 674.096 141.526 674.216V677.132H139.222V674.18C136.822 673.964 134.89 673.244 133.426 672.02C131.962 670.772 131.206 669.092 131.158 666.98H136.558C136.702 668.708 137.59 669.752 139.222 670.112V663.236C137.494 662.804 136.102 662.372 135.046 661.94C133.99 661.508 133.078 660.812 132.31 659.852C131.542 658.892 131.158 657.584 131.158 655.928C131.158 653.84 131.902 652.136 133.39 650.816C134.902 649.496 136.846 648.74 139.222 648.548V645.632H141.526V648.548C143.83 648.74 145.666 649.436 147.034 650.636C148.426 651.836 149.206 653.492 149.374 655.604H143.938C143.866 654.908 143.614 654.308 143.182 653.804C142.774 653.276 142.222 652.904 141.526 652.688V659.492C143.326 659.948 144.742 660.392 145.774 660.824C146.83 661.232 147.742 661.916 148.51 662.876C149.278 663.812 149.662 665.108 149.662 666.764ZM136.414 655.676C136.414 656.468 136.654 657.116 137.134 657.62C137.614 658.1 138.31 658.496 139.222 658.808V652.58C138.358 652.7 137.674 653.024 137.17 653.552C136.666 654.08 136.414 654.788 136.414 655.676ZM141.526 670.184C142.438 670.016 143.146 669.644 143.65 669.068C144.178 668.492 144.442 667.796 144.442 666.98C144.442 666.188 144.19 665.552 143.686 665.072C143.182 664.592 142.462 664.196 141.526 663.884V670.184ZM172.353 652.112H160.689V658.268C161.193 657.644 161.913 657.14 162.849 656.756C163.785 656.348 164.781 656.144 165.837 656.144C167.757 656.144 169.329 656.564 170.553 657.404C171.777 658.244 172.665 659.324 173.217 660.644C173.769 661.94 174.045 663.332 174.045 664.82C174.045 667.58 173.253 669.8 171.669 671.48C170.109 673.16 167.877 674 164.973 674C162.237 674 160.053 673.316 158.421 671.948C156.789 670.58 155.865 668.792 155.649 666.584H160.545C160.761 667.544 161.241 668.312 161.985 668.888C162.753 669.464 163.725 669.752 164.901 669.752C166.317 669.752 167.385 669.308 168.105 668.42C168.825 667.532 169.185 666.356 169.185 664.892C169.185 663.404 168.813 662.276 168.069 661.508C167.349 660.716 166.281 660.32 164.865 660.32C163.857 660.32 163.017 660.572 162.345 661.076C161.673 661.58 161.193 662.252 160.905 663.092H156.081V647.684H172.353V652.112ZM177.881 660.536C177.881 656.384 178.625 653.132 180.113 650.78C181.625 648.428 184.121 647.252 187.601 647.252C191.081 647.252 193.565 648.428 195.053 650.78C196.565 653.132 197.321 656.384 197.321 660.536C197.321 664.712 196.565 667.988 195.053 670.364C193.565 672.74 191.081 673.928 187.601 673.928C184.121 673.928 181.625 672.74 180.113 670.364C178.625 667.988 177.881 664.712 177.881 660.536ZM192.353 660.536C192.353 658.76 192.233 657.272 191.993 656.072C191.777 654.848 191.321 653.852 190.625 653.084C189.953 652.316 188.945 651.932 187.601 651.932C186.257 651.932 185.237 652.316 184.541 653.084C183.869 653.852 183.413 654.848 183.173 656.072C182.957 657.272 182.849 658.76 182.849 660.536C182.849 662.36 182.957 663.896 183.173 665.144C183.389 666.368 183.845 667.364 184.541 668.132C185.237 668.876 186.257 669.248 187.601 669.248C188.945 669.248 189.965 668.876 190.661 668.132C191.357 667.364 191.813 666.368 192.029 665.144C192.245 663.896 192.353 662.36 192.353 660.536Z" fill="#0C7489"/>
<defs>
<clipPath id="clip0_1023_3853">
<rect width="360" height="360" fill="white" transform="translate(352)"/>
</clipPath>
</defs>
</svg>
