<svg width="1596" height="666" viewBox="0 0 1596 666" fill="none" xmlns="http://www.w3.org/2000/svg">
<rect y="10" width="1596" height="656" rx="64" fill="url(#paint0_linear_1017_8659)"/>
<path opacity="0.9" d="M83.6332 119.717C82.0917 119.717 80.6876 119.464 79.4206 118.957C78.1537 118.45 77.0663 117.711 76.1583 116.74C75.2504 115.769 74.543 114.576 74.0362 113.161C73.5506 111.725 73.3077 110.089 73.3077 108.252C73.3077 106.415 73.5822 104.789 74.1312 103.374C74.7014 101.938 75.4615 100.735 76.4117 99.7633C77.3619 98.792 78.4704 98.0529 79.7374 97.5461C81.0043 97.0394 82.3557 96.786 83.7915 96.786C84.6995 96.786 85.5124 96.8493 86.2303 96.976C86.9694 97.1027 87.6028 97.2505 88.1307 97.4195C88.6797 97.5884 89.1232 97.7573 89.461 97.9262C89.7988 98.0951 90.0311 98.2218 90.1578 98.3063L89.271 100.84C89.0809 100.713 88.8064 100.576 88.4475 100.428C88.0885 100.281 87.6767 100.133 87.2122 99.985C86.7688 99.8372 86.2726 99.721 85.7236 99.6366C85.1957 99.531 84.6573 99.4782 84.1083 99.4782C82.9469 99.4782 81.9017 99.6788 80.9726 100.08C80.0435 100.481 79.2517 101.062 78.5971 101.822C77.9426 102.582 77.4358 103.511 77.0768 104.609C76.739 105.686 76.5701 106.9 76.5701 108.252C76.5701 109.561 76.7179 110.754 77.0135 111.831C77.3302 112.908 77.7948 113.837 78.4071 114.618C79.0194 115.378 79.7796 115.969 80.6876 116.392C81.6166 116.814 82.6935 117.025 83.9182 117.025C85.3329 117.025 86.5048 116.877 87.4339 116.582C88.363 116.286 89.0598 116.022 89.5243 115.79L90.3162 118.324C90.1684 118.429 89.9044 118.566 89.5243 118.735C89.1443 118.883 88.6692 119.031 88.0991 119.179C87.5289 119.327 86.8638 119.453 86.1037 119.559C85.3435 119.664 84.52 119.717 83.6332 119.717ZM99.7268 102.424C99.9802 102.424 100.265 102.445 100.582 102.487C100.92 102.508 101.247 102.55 101.564 102.614C101.881 102.656 102.166 102.709 102.419 102.772C102.693 102.814 102.894 102.857 103.021 102.899L102.514 105.464C102.282 105.38 101.891 105.285 101.342 105.179C100.814 105.053 100.128 104.989 99.2834 104.989C98.7344 104.989 98.1854 105.053 97.6364 105.179C97.1085 105.285 96.7601 105.359 96.5911 105.401V119.242H93.6455V103.469C94.3424 103.216 95.2081 102.983 96.2427 102.772C97.2774 102.54 98.4387 102.424 99.7268 102.424ZM104.945 111.039C104.945 109.582 105.156 108.315 105.578 107.238C106 106.14 106.56 105.232 107.257 104.514C107.954 103.796 108.756 103.258 109.664 102.899C110.572 102.54 111.501 102.36 112.451 102.36C114.668 102.36 116.368 103.057 117.551 104.451C118.733 105.823 119.324 107.924 119.324 110.754C119.324 110.881 119.324 111.049 119.324 111.261C119.324 111.451 119.314 111.63 119.293 111.799H108.017C108.144 113.509 108.64 114.808 109.506 115.695C110.371 116.582 111.723 117.025 113.56 117.025C114.594 117.025 115.46 116.941 116.157 116.772C116.875 116.582 117.413 116.402 117.772 116.233L118.184 118.704C117.825 118.894 117.192 119.094 116.284 119.306C115.397 119.517 114.383 119.622 113.243 119.622C111.807 119.622 110.561 119.411 109.506 118.989C108.471 118.545 107.616 117.944 106.94 117.183C106.264 116.423 105.758 115.526 105.42 114.491C105.103 113.435 104.945 112.285 104.945 111.039ZM116.252 109.424C116.273 108.093 115.935 107.006 115.238 106.161C114.563 105.295 113.623 104.863 112.42 104.863C111.744 104.863 111.142 105 110.614 105.274C110.107 105.528 109.675 105.866 109.316 106.288C108.957 106.71 108.672 107.196 108.46 107.745C108.27 108.294 108.144 108.853 108.08 109.424H116.252ZM134.198 106.256C133.839 105.961 133.321 105.676 132.646 105.401C131.97 105.127 131.231 104.989 130.429 104.989C129.584 104.989 128.856 105.148 128.243 105.464C127.652 105.76 127.166 106.182 126.786 106.731C126.406 107.259 126.132 107.893 125.963 108.632C125.794 109.371 125.709 110.163 125.709 111.007C125.709 112.929 126.184 114.417 127.135 115.473C128.085 116.508 129.352 117.025 130.935 117.025C131.738 117.025 132.403 116.993 132.931 116.93C133.48 116.846 133.902 116.761 134.198 116.677V106.256ZM134.198 95.1707L137.143 94.6639V118.767C136.468 118.957 135.602 119.147 134.546 119.337C133.49 119.527 132.276 119.622 130.904 119.622C129.637 119.622 128.497 119.422 127.483 119.02C126.469 118.619 125.604 118.049 124.886 117.31C124.168 116.571 123.608 115.674 123.207 114.618C122.827 113.541 122.637 112.337 122.637 111.007C122.637 109.74 122.795 108.579 123.112 107.523C123.45 106.467 123.936 105.559 124.569 104.799C125.203 104.039 125.973 103.448 126.881 103.026C127.81 102.603 128.866 102.392 130.049 102.392C130.999 102.392 131.833 102.519 132.551 102.772C133.29 103.026 133.839 103.268 134.198 103.501V95.1707ZM145.152 119.242H142.207V102.772H145.152V119.242ZM143.664 99.7949C143.136 99.7949 142.682 99.626 142.302 99.2882C141.943 98.9292 141.763 98.4541 141.763 97.8629C141.763 97.2716 141.943 96.8071 142.302 96.4693C142.682 96.1103 143.136 95.9308 143.664 95.9308C144.192 95.9308 144.635 96.1103 144.994 96.4693C145.374 96.8071 145.564 97.2716 145.564 97.8629C145.564 98.4541 145.374 98.9292 144.994 99.2882C144.635 99.626 144.192 99.7949 143.664 99.7949ZM152.973 102.772H159.213V105.243H152.973V112.844C152.973 113.668 153.037 114.354 153.163 114.903C153.29 115.431 153.48 115.853 153.734 116.17C153.987 116.466 154.304 116.677 154.684 116.803C155.064 116.93 155.507 116.993 156.014 116.993C156.901 116.993 157.608 116.898 158.136 116.708C158.685 116.497 159.065 116.349 159.276 116.265L159.846 118.704C159.551 118.852 159.033 119.031 158.294 119.242C157.555 119.474 156.711 119.591 155.761 119.591C154.641 119.591 153.712 119.453 152.973 119.179C152.255 118.883 151.675 118.45 151.231 117.88C150.788 117.31 150.471 116.613 150.281 115.79C150.112 114.945 150.028 113.974 150.028 112.876V98.1796L152.973 97.6728V102.772Z" fill="white"/>
<path d="M95.335 563.204H85.453L84.8195 571.661H85.0413C85.5903 570.922 86.2026 570.341 86.8783 569.919C87.554 569.476 88.4831 569.254 89.6655 569.254C90.6368 569.254 91.5237 569.412 92.3261 569.729C93.1496 570.025 93.8569 570.468 94.4482 571.059C95.0394 571.65 95.5039 572.368 95.8418 573.213C96.1796 574.037 96.3485 574.987 96.3485 576.064C96.3485 577.14 96.1796 578.133 95.8418 579.041C95.5039 579.928 95.0077 580.698 94.3531 581.353C93.6986 581.986 92.9067 582.483 91.9777 582.842C91.0486 583.201 89.9928 583.38 88.8103 583.38C87.8813 583.38 87.0472 583.274 86.3082 583.063C85.5903 582.852 84.9462 582.567 84.3761 582.208C83.8271 581.849 83.3415 581.448 82.9192 581.005C82.4969 580.561 82.1168 580.097 81.7789 579.611L83.7743 578.091C84.0699 578.534 84.3656 578.935 84.6612 579.294C84.9779 579.653 85.3369 579.97 85.7381 580.244C86.1393 580.498 86.5932 580.698 87.1 580.846C87.6068 580.994 88.198 581.068 88.8737 581.068C90.394 581.068 91.5553 580.656 92.3577 579.833C93.1812 579.009 93.593 577.869 93.593 576.412V576.159C93.593 574.702 93.1812 573.561 92.3577 572.738C91.5342 571.914 90.3518 571.503 88.8103 571.503C87.7546 571.503 86.9311 571.682 86.3398 572.041C85.7697 572.4 85.2419 572.844 84.7562 573.371L82.5074 573.055L83.2992 560.892H95.335V563.204ZM115.467 583H100.707V580.276L108.087 573.625C109.164 572.653 110.051 571.661 110.747 570.648C111.444 569.613 111.793 568.525 111.793 567.385V567.005C111.793 565.675 111.444 564.651 110.747 563.933C110.051 563.194 109.016 562.824 107.643 562.824C106.292 562.824 105.247 563.173 104.508 563.869C103.79 564.545 103.251 565.453 102.892 566.593L100.517 565.707C100.728 565.052 101.013 564.418 101.372 563.806C101.752 563.173 102.227 562.613 102.797 562.127C103.368 561.642 104.054 561.251 104.856 560.956C105.68 560.66 106.63 560.512 107.707 560.512C108.805 560.512 109.776 560.67 110.621 560.987C111.486 561.304 112.204 561.747 112.774 562.317C113.366 562.888 113.809 563.563 114.105 564.345C114.421 565.126 114.58 565.981 114.58 566.91C114.58 567.755 114.453 568.547 114.2 569.286C113.967 570.025 113.63 570.732 113.186 571.408C112.764 572.083 112.247 572.748 111.634 573.403C111.043 574.037 110.378 574.67 109.639 575.303L103.463 580.688H115.467V583ZM129.422 583V578.661H118.527V576.317L128.092 560.892H131.956V576.475H135.25V578.661H131.956V583H129.422ZM120.902 576.475H129.422V562.951H129.295L120.902 576.475ZM153.45 583H138.69V580.276L146.07 573.625C147.147 572.653 148.034 571.661 148.73 570.648C149.427 569.613 149.776 568.525 149.776 567.385V567.005C149.776 565.675 149.427 564.651 148.73 563.933C148.034 563.194 146.999 562.824 145.626 562.824C144.275 562.824 143.23 563.173 142.491 563.869C141.773 564.545 141.234 565.453 140.875 566.593L138.5 565.707C138.711 565.052 138.996 564.418 139.355 563.806C139.735 563.173 140.21 562.613 140.78 562.127C141.35 561.642 142.037 561.251 142.839 560.956C143.663 560.66 144.613 560.512 145.69 560.512C146.788 560.512 147.759 560.67 148.604 560.987C149.469 561.304 150.187 561.747 150.757 562.317C151.349 562.888 151.792 563.563 152.088 564.345C152.404 565.126 152.563 565.981 152.563 566.91C152.563 567.755 152.436 568.547 152.183 569.286C151.95 570.025 151.613 570.732 151.169 571.408C150.747 572.083 150.23 572.748 149.617 573.403C149.026 574.037 148.361 574.67 147.622 575.303L141.446 580.688H153.45V583ZM179.333 574.702V572.041H188.519V574.702H179.333ZM224.379 583V578.661H213.484V576.317L223.049 560.892H226.913V576.475H230.207V578.661H226.913V583H224.379ZM215.859 576.475H224.379V562.951H224.253L215.859 576.475ZM239.95 570.267C241.492 570.267 242.642 569.93 243.403 569.254C244.184 568.557 244.574 567.67 244.574 566.593V566.372C244.574 565.189 244.194 564.302 243.434 563.711C242.695 563.12 241.724 562.824 240.52 562.824C239.338 562.824 238.377 563.088 237.638 563.616C236.92 564.123 236.329 564.799 235.864 565.643L233.869 564.123C234.143 563.679 234.481 563.247 234.882 562.824C235.284 562.381 235.748 561.99 236.276 561.652C236.825 561.315 237.448 561.04 238.145 560.829C238.863 560.618 239.676 560.512 240.584 560.512C241.534 560.512 242.421 560.639 243.244 560.892C244.068 561.124 244.786 561.483 245.398 561.969C246.01 562.434 246.485 563.014 246.823 563.711C247.182 564.408 247.362 565.2 247.362 566.087C247.362 566.805 247.246 567.449 247.013 568.019C246.802 568.589 246.496 569.085 246.095 569.507C245.715 569.93 245.261 570.289 244.733 570.584C244.205 570.88 243.645 571.101 243.054 571.249V571.376C243.666 571.503 244.258 571.714 244.828 572.009C245.398 572.284 245.905 572.653 246.348 573.118C246.792 573.561 247.14 574.11 247.393 574.765C247.668 575.398 247.805 576.127 247.805 576.95C247.805 577.901 247.615 578.777 247.235 579.579C246.876 580.361 246.359 581.036 245.683 581.606C245.028 582.155 244.226 582.588 243.276 582.905C242.347 583.222 241.312 583.38 240.172 583.38C239.201 583.38 238.335 583.274 237.575 583.063C236.836 582.852 236.171 582.567 235.579 582.208C235.009 581.849 234.502 581.448 234.059 581.005C233.637 580.561 233.257 580.097 232.919 579.611L234.914 578.091C235.21 578.534 235.516 578.935 235.833 579.294C236.149 579.653 236.508 579.97 236.91 580.244C237.332 580.498 237.807 580.698 238.335 580.846C238.863 580.994 239.475 581.068 240.172 581.068C241.734 581.068 242.927 580.709 243.751 579.991C244.596 579.273 245.018 578.249 245.018 576.919V576.665C245.018 575.356 244.606 574.343 243.783 573.625C242.98 572.907 241.766 572.548 240.14 572.548H237.511V570.267H239.95ZM262.362 583V578.661H251.467V576.317L261.032 560.892H264.896V576.475H268.19V578.661H264.896V583H262.362ZM253.842 576.475H262.362V562.951H262.236L253.842 576.475ZM277.933 570.267C279.475 570.267 280.625 569.93 281.385 569.254C282.167 568.557 282.557 567.67 282.557 566.593V566.372C282.557 565.189 282.177 564.302 281.417 563.711C280.678 563.12 279.707 562.824 278.503 562.824C277.321 562.824 276.36 563.088 275.621 563.616C274.903 564.123 274.312 564.799 273.847 565.643L271.852 564.123C272.126 563.679 272.464 563.247 272.865 562.824C273.267 562.381 273.731 561.99 274.259 561.652C274.808 561.315 275.431 561.04 276.128 560.829C276.846 560.618 277.659 560.512 278.567 560.512C279.517 560.512 280.404 560.639 281.227 560.892C282.051 561.124 282.769 561.483 283.381 561.969C283.993 562.434 284.468 563.014 284.806 563.711C285.165 564.408 285.345 565.2 285.345 566.087C285.345 566.805 285.228 567.449 284.996 568.019C284.785 568.589 284.479 569.085 284.078 569.507C283.698 569.93 283.244 570.289 282.716 570.584C282.188 570.88 281.628 571.101 281.037 571.249V571.376C281.649 571.503 282.241 571.714 282.811 572.009C283.381 572.284 283.888 572.653 284.331 573.118C284.774 573.561 285.123 574.11 285.376 574.765C285.651 575.398 285.788 576.127 285.788 576.95C285.788 577.901 285.598 578.777 285.218 579.579C284.859 580.361 284.342 581.036 283.666 581.606C283.011 582.155 282.209 582.588 281.259 582.905C280.33 583.222 279.295 583.38 278.155 583.38C277.183 583.38 276.318 583.274 275.558 583.063C274.819 582.852 274.153 582.567 273.562 582.208C272.992 581.849 272.485 581.448 272.042 581.005C271.62 580.561 271.24 580.097 270.902 579.611L272.897 578.091C273.193 578.534 273.499 578.935 273.816 579.294C274.132 579.653 274.491 579.97 274.892 580.244C275.315 580.498 275.79 580.698 276.318 580.846C276.846 580.994 277.458 581.068 278.155 581.068C279.717 581.068 280.91 580.709 281.734 579.991C282.578 579.273 283.001 578.249 283.001 576.919V576.665C283.001 575.356 282.589 574.343 281.766 573.625C280.963 572.907 279.749 572.548 278.123 572.548H275.494V570.267H277.933ZM312.274 574.702V572.041H321.459V574.702H312.274ZM354.849 583.38C353.561 583.38 352.431 583.222 351.46 582.905C350.489 582.567 349.676 582.113 349.021 581.543C348.388 580.973 347.902 580.297 347.564 579.516C347.248 578.735 347.089 577.89 347.089 576.982C347.089 575.462 347.501 574.258 348.324 573.371C349.148 572.485 350.235 571.862 351.587 571.503V571.249C350.404 570.848 349.465 570.204 348.768 569.317C348.092 568.409 347.754 567.322 347.754 566.055C347.754 564.366 348.377 563.025 349.623 562.032C350.869 561.019 352.611 560.512 354.849 560.512C357.087 560.512 358.829 561.019 360.075 562.032C361.321 563.025 361.944 564.366 361.944 566.055C361.944 567.322 361.595 568.409 360.899 569.317C360.223 570.204 359.294 570.848 358.111 571.249V571.503C359.463 571.862 360.55 572.485 361.374 573.371C362.197 574.258 362.609 575.462 362.609 576.982C362.609 577.89 362.44 578.735 362.102 579.516C361.786 580.297 361.3 580.973 360.645 581.543C359.991 582.113 359.178 582.567 358.206 582.905C357.256 583.222 356.137 583.38 354.849 583.38ZM354.849 581.131C356.412 581.131 357.636 580.783 358.523 580.086C359.41 579.389 359.853 578.407 359.853 577.14V576.444C359.853 575.177 359.41 574.195 358.523 573.498C357.657 572.801 356.433 572.453 354.849 572.453C353.265 572.453 352.03 572.801 351.143 573.498C350.278 574.195 349.845 575.177 349.845 576.444V577.14C349.845 578.407 350.288 579.389 351.175 580.086C352.062 580.783 353.287 581.131 354.849 581.131ZM354.849 570.299C356.285 570.299 357.372 569.993 358.111 569.381C358.872 568.768 359.252 567.892 359.252 566.752V566.308C359.252 565.168 358.861 564.292 358.08 563.679C357.32 563.067 356.243 562.761 354.849 562.761C353.455 562.761 352.368 563.067 351.587 563.679C350.827 564.292 350.447 565.168 350.447 566.308V566.752C350.447 567.892 350.816 568.768 351.555 569.381C352.315 569.993 353.413 570.299 354.849 570.299ZM372.89 570.267C374.432 570.267 375.583 569.93 376.343 569.254C377.124 568.557 377.515 567.67 377.515 566.593V566.372C377.515 565.189 377.135 564.302 376.374 563.711C375.635 563.12 374.664 562.824 373.46 562.824C372.278 562.824 371.317 563.088 370.578 563.616C369.86 564.123 369.269 564.799 368.805 565.643L366.809 564.123C367.084 563.679 367.421 563.247 367.823 562.824C368.224 562.381 368.688 561.99 369.216 561.652C369.765 561.315 370.388 561.04 371.085 560.829C371.803 560.618 372.616 560.512 373.524 560.512C374.474 560.512 375.361 560.639 376.184 560.892C377.008 561.124 377.726 561.483 378.338 561.969C378.95 562.434 379.426 563.014 379.763 563.711C380.122 564.408 380.302 565.2 380.302 566.087C380.302 566.805 380.186 567.449 379.953 568.019C379.742 568.589 379.436 569.085 379.035 569.507C378.655 569.93 378.201 570.289 377.673 570.584C377.145 570.88 376.586 571.101 375.994 571.249V571.376C376.607 571.503 377.198 571.714 377.768 572.009C378.338 572.284 378.845 572.653 379.288 573.118C379.732 573.561 380.08 574.11 380.334 574.765C380.608 575.398 380.745 576.127 380.745 576.95C380.745 577.901 380.555 578.777 380.175 579.579C379.816 580.361 379.299 581.036 378.623 581.606C377.969 582.155 377.166 582.588 376.216 582.905C375.287 583.222 374.252 583.38 373.112 583.38C372.141 583.38 371.275 583.274 370.515 583.063C369.776 582.852 369.111 582.567 368.519 582.208C367.949 581.849 367.443 581.448 366.999 581.005C366.577 580.561 366.197 580.097 365.859 579.611L367.854 578.091C368.15 578.534 368.456 578.935 368.773 579.294C369.09 579.653 369.449 579.97 369.85 580.244C370.272 580.498 370.747 580.698 371.275 580.846C371.803 580.994 372.415 581.068 373.112 581.068C374.675 581.068 375.868 580.709 376.691 579.991C377.536 579.273 377.958 578.249 377.958 576.919V576.665C377.958 575.356 377.546 574.343 376.723 573.625C375.92 572.907 374.706 572.548 373.08 572.548H370.452V570.267H372.89ZM395.303 583V578.661H384.407V576.317L393.972 560.892H397.836V576.475H401.13V578.661H397.836V583H395.303ZM386.782 576.475H395.303V562.951H395.176L386.782 576.475ZM411.823 583.38C410.535 583.38 409.406 583.222 408.434 582.905C407.463 582.567 406.65 582.113 405.996 581.543C405.362 580.973 404.877 580.297 404.539 579.516C404.222 578.735 404.064 577.89 404.064 576.982C404.064 575.462 404.475 574.258 405.299 573.371C406.122 572.485 407.21 571.862 408.561 571.503V571.249C407.379 570.848 406.439 570.204 405.742 569.317C405.067 568.409 404.729 567.322 404.729 566.055C404.729 564.366 405.352 563.025 406.597 562.032C407.843 561.019 409.585 560.512 411.823 560.512C414.062 560.512 415.804 561.019 417.05 562.032C418.295 563.025 418.918 564.366 418.918 566.055C418.918 567.322 418.57 568.409 417.873 569.317C417.197 570.204 416.268 570.848 415.086 571.249V571.503C416.437 571.862 417.525 572.485 418.348 573.371C419.172 574.258 419.583 575.462 419.583 576.982C419.583 577.89 419.414 578.735 419.077 579.516C418.76 580.297 418.274 580.973 417.62 581.543C416.965 582.113 416.152 582.567 415.181 582.905C414.231 583.222 413.112 583.38 411.823 583.38ZM411.823 581.131C413.386 581.131 414.611 580.783 415.498 580.086C416.384 579.389 416.828 578.407 416.828 577.14V576.444C416.828 575.177 416.384 574.195 415.498 573.498C414.632 572.801 413.407 572.453 411.823 572.453C410.24 572.453 409.005 572.801 408.118 573.498C407.252 574.195 406.819 575.177 406.819 576.444V577.14C406.819 578.407 407.263 579.389 408.149 580.086C409.036 580.783 410.261 581.131 411.823 581.131ZM411.823 570.299C413.259 570.299 414.347 569.993 415.086 569.381C415.846 568.768 416.226 567.892 416.226 566.752V566.308C416.226 565.168 415.835 564.292 415.054 563.679C414.294 563.067 413.217 562.761 411.823 562.761C410.43 562.761 409.342 563.067 408.561 563.679C407.801 564.292 407.421 565.168 407.421 566.308V566.752C407.421 567.892 407.79 568.768 408.529 569.381C409.29 569.993 410.388 570.299 411.823 570.299ZM445.214 574.702V572.041H454.399V574.702H445.214ZM490.26 583V578.661H479.364V576.317L488.93 560.892H492.794V576.475H496.088V578.661H492.794V583H490.26ZM481.74 576.475H490.26V562.951H490.133L481.74 576.475ZM506.781 583.38C505.493 583.38 504.363 583.222 503.392 582.905C502.42 582.567 501.607 582.113 500.953 581.543C500.319 580.973 499.834 580.297 499.496 579.516C499.179 578.735 499.021 577.89 499.021 576.982C499.021 575.462 499.433 574.258 500.256 573.371C501.08 572.485 502.167 571.862 503.518 571.503V571.249C502.336 570.848 501.396 570.204 500.7 569.317C500.024 568.409 499.686 567.322 499.686 566.055C499.686 564.366 500.309 563.025 501.555 562.032C502.801 561.019 504.543 560.512 506.781 560.512C509.019 560.512 510.761 561.019 512.007 562.032C513.253 563.025 513.876 564.366 513.876 566.055C513.876 567.322 513.527 568.409 512.83 569.317C512.155 570.204 511.226 570.848 510.043 571.249V571.503C511.394 571.862 512.482 572.485 513.305 573.371C514.129 574.258 514.541 575.462 514.541 576.982C514.541 577.89 514.372 578.735 514.034 579.516C513.717 580.297 513.231 580.973 512.577 581.543C511.922 582.113 511.109 582.567 510.138 582.905C509.188 583.222 508.069 583.38 506.781 583.38ZM506.781 581.131C508.343 581.131 509.568 580.783 510.455 580.086C511.342 579.389 511.785 578.407 511.785 577.14V576.444C511.785 575.177 511.342 574.195 510.455 573.498C509.589 572.801 508.364 572.453 506.781 572.453C505.197 572.453 503.962 572.801 503.075 573.498C502.209 574.195 501.776 575.177 501.776 576.444V577.14C501.776 578.407 502.22 579.389 503.107 580.086C503.994 580.783 505.218 581.131 506.781 581.131ZM506.781 570.299C508.217 570.299 509.304 569.993 510.043 569.381C510.803 568.768 511.183 567.892 511.183 566.752V566.308C511.183 565.168 510.793 564.292 510.011 563.679C509.251 563.067 508.174 562.761 506.781 562.761C505.387 562.761 504.3 563.067 503.518 563.679C502.758 564.292 502.378 565.168 502.378 566.308V566.752C502.378 567.892 502.748 568.768 503.487 569.381C504.247 569.993 505.345 570.299 506.781 570.299ZM521.75 583L530.396 563.173H520.705V567.29H518.329V560.892H533.089V563.236L524.6 583H521.75ZM544.764 583.38C543.476 583.38 542.346 583.222 541.375 582.905C540.403 582.567 539.59 582.113 538.936 581.543C538.302 580.973 537.817 580.297 537.479 579.516C537.162 578.735 537.004 577.89 537.004 576.982C537.004 575.462 537.416 574.258 538.239 573.371C539.063 572.485 540.15 571.862 541.501 571.503V571.249C540.319 570.848 539.379 570.204 538.682 569.317C538.007 568.409 537.669 567.322 537.669 566.055C537.669 564.366 538.292 563.025 539.538 562.032C540.783 561.019 542.525 560.512 544.764 560.512C547.002 560.512 548.744 561.019 549.99 562.032C551.236 563.025 551.858 564.366 551.858 566.055C551.858 567.322 551.51 568.409 550.813 569.317C550.138 570.204 549.208 570.848 548.026 571.249V571.503C549.377 571.862 550.465 572.485 551.288 573.371C552.112 574.258 552.524 575.462 552.524 576.982C552.524 577.89 552.355 578.735 552.017 579.516C551.7 580.297 551.214 580.973 550.56 581.543C549.905 582.113 549.092 582.567 548.121 582.905C547.171 583.222 546.052 583.38 544.764 583.38ZM544.764 581.131C546.326 581.131 547.551 580.783 548.438 580.086C549.325 579.389 549.768 578.407 549.768 577.14V576.444C549.768 575.177 549.325 574.195 548.438 573.498C547.572 572.801 546.347 572.453 544.764 572.453C543.18 572.453 541.945 572.801 541.058 573.498C540.192 574.195 539.759 575.177 539.759 576.444V577.14C539.759 578.407 540.203 579.389 541.09 580.086C541.976 580.783 543.201 581.131 544.764 581.131ZM544.764 570.299C546.2 570.299 547.287 569.993 548.026 569.381C548.786 568.768 549.166 567.892 549.166 566.752V566.308C549.166 565.168 548.776 564.292 547.994 563.679C547.234 563.067 546.157 562.761 544.764 562.761C543.37 562.761 542.283 563.067 541.501 563.679C540.741 564.292 540.361 565.168 540.361 566.308V566.752C540.361 567.892 540.731 568.768 541.47 569.381C542.23 569.993 543.328 570.299 544.764 570.299Z" fill="white"/>
<path d="M82.4757 513.38H88.652C91.3547 513.38 93.3713 514.31 94.7015 516.168C96.0318 518.026 96.6969 520.781 96.6969 524.434C96.6969 528.087 96.0318 530.843 94.7015 532.701C93.3713 534.559 91.3547 535.488 88.652 535.488H82.4757V513.38ZM88.5253 533.176C90.299 533.176 91.6292 532.564 92.5161 531.339C93.4241 530.114 93.878 528.383 93.878 526.145V522.724C93.878 520.486 93.4241 518.754 92.5161 517.53C91.6292 516.305 90.299 515.693 88.5253 515.693H85.1363V533.176H88.5253ZM113.661 513.38V529.755C113.661 530.685 113.503 531.529 113.186 532.289C112.869 533.049 112.416 533.693 111.824 534.221C111.254 534.749 110.568 535.161 109.766 535.457C108.963 535.731 108.087 535.868 107.137 535.868C105.447 535.868 104.054 535.435 102.956 534.57C101.858 533.683 101.14 532.448 100.802 530.864L103.336 530.326C103.441 530.769 103.579 531.191 103.748 531.592C103.938 531.973 104.181 532.31 104.476 532.606C104.793 532.881 105.173 533.102 105.616 533.271C106.06 533.44 106.588 533.525 107.2 533.525C108.404 533.525 109.333 533.187 109.987 532.511C110.663 531.814 111.001 530.737 111.001 529.28V515.693H103.019V513.38H113.661ZM145.88 535.868C143.895 535.868 142.269 535.509 141.002 534.791C139.735 534.052 138.69 533.113 137.866 531.973L139.799 530.389C140.664 531.466 141.572 532.268 142.522 532.796C143.494 533.324 144.644 533.588 145.975 533.588C147.58 533.588 148.804 533.218 149.649 532.479C150.493 531.74 150.916 530.706 150.916 529.375C150.916 528.298 150.61 527.464 149.997 526.873C149.385 526.261 148.319 525.828 146.798 525.575L144.328 525.163C143.251 524.973 142.343 524.688 141.604 524.308C140.886 523.928 140.305 523.474 139.862 522.946C139.418 522.397 139.102 521.806 138.912 521.172C138.722 520.517 138.627 519.842 138.627 519.145C138.627 517.118 139.292 515.587 140.622 514.552C141.952 513.518 143.747 513 146.006 513C147.78 513 149.269 513.296 150.472 513.887C151.697 514.478 152.679 515.313 153.418 516.389L151.549 518.005C150.937 517.202 150.198 516.548 149.332 516.041C148.466 515.534 147.347 515.281 145.975 515.281C144.476 515.281 143.325 515.598 142.522 516.231C141.72 516.865 141.319 517.815 141.319 519.082C141.319 520.074 141.614 520.887 142.206 521.52C142.818 522.133 143.905 522.576 145.468 522.851L147.843 523.262C148.92 523.453 149.828 523.738 150.567 524.118C151.306 524.498 151.898 524.952 152.341 525.48C152.806 526.007 153.133 526.599 153.323 527.253C153.513 527.908 153.608 528.594 153.608 529.312C153.608 531.36 152.932 532.965 151.581 534.126C150.251 535.288 148.35 535.868 145.88 535.868ZM158.537 535.488V519.145H161.07V521.806H161.197C161.366 521.404 161.577 521.024 161.831 520.665C162.084 520.285 162.39 519.958 162.749 519.683C163.129 519.409 163.573 519.187 164.079 519.018C164.586 518.849 165.177 518.765 165.853 518.765C167.563 518.765 168.936 519.314 169.971 520.412C171.005 521.489 171.523 523.02 171.523 525.005V535.488H168.989V525.448C168.989 523.949 168.661 522.84 168.007 522.122C167.352 521.383 166.392 521.014 165.125 521.014C164.618 521.014 164.122 521.077 163.636 521.204C163.15 521.33 162.717 521.52 162.337 521.774C161.957 522.027 161.651 522.355 161.419 522.756C161.187 523.157 161.07 523.621 161.07 524.149V535.488H158.537ZM190.102 535.488C189.11 535.488 188.402 535.235 187.98 534.728C187.558 534.221 187.294 533.588 187.188 532.828H187.03C186.671 533.778 186.09 534.528 185.288 535.077C184.507 535.604 183.451 535.868 182.121 535.868C180.41 535.868 179.048 535.425 178.035 534.538C177.021 533.651 176.515 532.437 176.515 530.896C176.515 529.375 177.064 528.203 178.162 527.38C179.281 526.556 181.075 526.145 183.546 526.145H187.03V524.529C187.03 523.326 186.692 522.428 186.016 521.837C185.341 521.225 184.38 520.919 183.134 520.919C182.036 520.919 181.139 521.14 180.442 521.584C179.745 522.006 179.186 522.587 178.763 523.326L177.053 522.059C177.264 521.637 177.549 521.225 177.908 520.824C178.267 520.422 178.71 520.074 179.238 519.778C179.766 519.462 180.368 519.219 181.044 519.05C181.719 518.86 182.469 518.765 183.293 518.765C185.214 518.765 186.734 519.251 187.853 520.222C188.994 521.193 189.564 522.545 189.564 524.276V533.271H191.844V535.488H190.102ZM182.564 533.746C183.219 533.746 183.81 533.672 184.338 533.525C184.887 533.356 185.362 533.144 185.763 532.891C186.164 532.617 186.47 532.3 186.682 531.941C186.914 531.561 187.03 531.16 187.03 530.737V528.045H183.546C182.026 528.045 180.917 528.256 180.22 528.679C179.523 529.101 179.175 529.713 179.175 530.516V531.181C179.175 532.025 179.471 532.669 180.062 533.113C180.674 533.535 181.508 533.746 182.564 533.746ZM196.741 512.05H199.275V526.842H199.402L202.252 524.149L207.7 519.145H210.804L204.026 525.543L211.596 535.488H208.46L202.094 527L199.275 529.565V535.488H196.741V512.05ZM222.194 535.868C221.012 535.868 219.945 535.668 218.995 535.267C218.066 534.865 217.264 534.295 216.588 533.556C215.933 532.796 215.426 531.899 215.068 530.864C214.709 529.808 214.529 528.636 214.529 527.348C214.529 526.039 214.709 524.857 215.068 523.801C215.448 522.745 215.965 521.848 216.62 521.109C217.274 520.349 218.055 519.768 218.963 519.367C219.892 518.966 220.916 518.765 222.036 518.765C223.134 518.765 224.126 518.966 225.013 519.367C225.921 519.768 226.692 520.327 227.325 521.045C227.958 521.742 228.444 522.576 228.782 523.548C229.12 524.519 229.289 525.585 229.289 526.747V527.95H217.19V528.71C217.19 529.428 217.306 530.093 217.538 530.706C217.77 531.318 218.098 531.846 218.52 532.289C218.963 532.733 219.491 533.081 220.104 533.335C220.737 533.567 221.434 533.683 222.194 533.683C223.292 533.683 224.242 533.43 225.045 532.923C225.847 532.416 226.459 531.719 226.882 530.832L228.75 532.099C228.265 533.197 227.452 534.105 226.311 534.823C225.192 535.52 223.82 535.868 222.194 535.868ZM222.036 520.855C221.339 520.855 220.695 520.982 220.104 521.235C219.512 521.489 218.995 521.837 218.552 522.281C218.129 522.724 217.791 523.252 217.538 523.864C217.306 524.456 217.19 525.11 217.19 525.828V526.05H226.565V525.701C226.565 524.983 226.449 524.329 226.216 523.738C226.005 523.146 225.699 522.64 225.298 522.217C224.918 521.774 224.443 521.436 223.873 521.204C223.324 520.971 222.711 520.855 222.036 520.855Z" fill="white"/>
<path d="M295.934 10.6545C295.196 43.596 281.553 74.9306 257.942 97.9135C234.331 120.896 202.64 133.69 169.691 133.54C136.741 133.39 105.168 120.308 81.7673 97.1111C58.3667 73.9141 45.0098 42.4565 44.5717 9.50964L170.263 7.83846L295.934 10.6545Z" fill="#D9D9D9" fill-opacity="0.05"/>
<circle cx="140.036" cy="126.072" r="125.702" transform="rotate(-27.4782 140.036 126.072)" fill="#D9D9D9" fill-opacity="0.05"/>
<circle cx="140.036" cy="276.521" r="125.702" transform="rotate(-27.4782 140.036 276.521)" fill="#D9D9D9" fill-opacity="0.05"/>
<path opacity="0.5" d="M401.525 111.682C452.907 210.479 414.47 332.223 315.673 383.606C194.199 409.87 106.109 396.013 43.7493 297.755C-7.63329 198.958 30.8036 77.2134 129.601 25.8308C235.77 -7.81872 350.142 12.8851 401.525 111.682Z" fill="#D9D9D9" fill-opacity="0.05"/>
<defs>
<linearGradient id="paint0_linear_1017_8659" x1="-404.955" y1="-126.519" x2="1492.33" y2="1205.35" gradientUnits="userSpaceOnUse">
<stop offset="0.0364583"/>
<stop offset="1" stop-color="#0C7489"/>
</linearGradient>
</defs>
</svg>
