<svg width="590" height="512" viewBox="0 0 590 512" fill="none" xmlns="http://www.w3.org/2000/svg">
<path d="M237.735 468.898L530.145 468.898C558.606 468.898 581.678 448.551 581.678 423.451V277.708C581.678 252.608 558.606 232.261 530.145 232.261L237.735 232.261C209.274 232.261 186.202 252.608 186.202 277.708V423.451C186.202 448.551 209.274 468.898 237.735 468.898Z" fill="#263238"/>
<path d="M479.148 511.737H451.475L395.24 394.234H437.592L479.148 511.737Z" fill="#263238"/>
<path d="M589.999 338.594H588.148V350.576H589.999V338.594Z" fill="#0C7489"/>
<path opacity="0.2" d="M589.999 338.594H588.148V350.576H589.999V338.594Z" fill="black"/>
<path d="M589.999 287.492H588.148V330.393H589.999V287.492Z" fill="#0C7489"/>
<path opacity="0.2" d="M589.999 287.492H588.148V330.393H589.999V287.492Z" fill="black"/>
<path d="M354.831 224.898H329.73V226.531H354.831V224.898Z" fill="#0C7489"/>
<path opacity="0.2" d="M354.831 224.898H329.73V226.531H354.831V224.898Z" fill="black"/>
<path d="M555.304 394.258L479.096 511.761L422.861 394.258H555.304Z" fill="#0C7489"/>
<path opacity="0.2" d="M555.317 394.258L479.11 511.761L422.875 394.258H555.317Z" fill="black"/>
<path d="M261.002 468.906L530.145 468.906C558.606 468.906 581.678 448.559 581.678 423.459V277.715C581.678 252.616 558.606 232.268 530.145 232.268L261.002 232.268C232.541 232.268 209.469 252.616 209.469 277.715V423.459C209.469 448.559 232.541 468.906 261.002 468.906Z" fill="#0C7489"/>
<path opacity="0.2" d="M261.002 468.906L530.145 468.906C558.606 468.906 581.678 448.559 581.678 423.459V277.715C581.678 252.616 558.606 232.268 530.145 232.268L261.002 232.268C232.541 232.268 209.469 252.616 209.469 277.715V423.459C209.469 448.559 232.541 468.906 261.002 468.906Z" fill="black"/>
<path opacity="0.7" d="M354.109 468.888H304.871L356.96 232.25H406.216L354.109 468.888Z" fill="#0C7489"/>
<path opacity="0.7" d="M398.588 468.888H370.582L422.689 232.25H450.677L398.588 468.888Z" fill="#0C7489"/>
<path d="M514.914 308.603H378.084C374.386 308.485 370.883 307.107 368.314 304.758C365.744 302.409 364.309 299.272 364.309 296.009C364.309 292.745 365.744 289.608 368.314 287.259C370.883 284.91 374.386 283.532 378.084 283.414H514.914C516.832 283.353 518.745 283.634 520.538 284.24C522.331 284.845 523.967 285.763 525.349 286.938C526.731 288.114 527.83 289.523 528.581 291.081C529.331 292.64 529.718 294.316 529.718 296.009C529.718 297.702 529.331 299.378 528.581 300.936C527.83 302.494 526.731 303.903 525.349 305.079C523.967 306.254 522.331 307.172 520.538 307.778C518.745 308.383 516.832 308.664 514.914 308.603Z" fill="white"/>
<path d="M331.196 308.603H269.223C265.525 308.485 262.022 307.107 259.453 304.758C256.883 302.409 255.447 299.272 255.447 296.009C255.447 292.745 256.883 289.608 259.453 287.259C262.022 284.91 265.525 283.532 269.223 283.414H331.196C333.115 283.353 335.028 283.634 336.821 284.24C338.614 284.845 340.25 285.763 341.632 286.938C343.013 288.114 344.112 289.523 344.863 291.081C345.614 292.64 346 294.316 346 296.009C346 297.702 345.614 299.378 344.863 300.936C344.112 302.494 343.013 303.903 341.632 305.079C340.25 306.254 338.614 307.172 336.821 307.778C335.028 308.383 333.115 308.664 331.196 308.603Z" fill="white"/>
<path d="M514.909 361.689H283.75C280.052 361.571 276.549 360.193 273.98 357.844C271.41 355.495 269.975 352.358 269.975 349.095C269.975 345.831 271.41 342.694 273.98 340.345C276.549 337.996 280.052 336.618 283.75 336.5H514.909C516.828 336.439 518.741 336.72 520.534 337.326C522.327 337.931 523.963 338.849 525.345 340.024C526.726 341.2 527.825 342.609 528.576 344.167C529.327 345.726 529.713 347.401 529.713 349.095C529.713 350.788 529.327 352.464 528.576 354.022C527.825 355.58 526.726 356.989 525.345 358.165C523.963 359.34 522.327 360.258 520.534 360.864C518.741 361.469 516.828 361.75 514.909 361.689Z" fill="white"/>
<path d="M514.916 414.759H407.832C404.134 414.642 400.631 413.263 398.062 410.914C395.492 408.565 394.057 405.429 394.057 402.165C394.057 398.901 395.492 395.765 398.062 393.415C400.631 391.066 404.134 389.688 407.832 389.571H514.916C516.834 389.51 518.747 389.79 520.54 390.396C522.333 391.001 523.969 391.919 525.351 393.095C526.733 394.27 527.832 395.679 528.582 397.238C529.333 398.796 529.72 400.472 529.72 402.165C529.72 403.858 529.333 405.534 528.582 407.092C527.832 408.651 526.733 410.06 525.351 411.235C523.969 412.411 522.333 413.328 520.54 413.934C518.747 414.539 516.834 414.82 514.916 414.759Z" fill="white"/>
<path opacity="0.1" d="M276.309 232.222C276.309 232.222 255.836 329.842 255.836 371.077C255.836 413.374 272.755 468.86 272.755 468.86H218.686L215.113 415.3C211.746 365.21 217.369 314.965 231.773 266.422L241.916 232.141L276.309 232.222Z" fill="black"/>
<path d="M191.967 106.079C187.2 106.879 182.741 107.287 178.128 107.711C173.515 108.136 168.902 108.12 164.289 108.087C154.896 108.086 145.532 106.991 136.364 104.822C133.451 103.979 130.727 102.525 128.352 100.545C126.356 98.9145 124.474 97.1303 122.724 95.207C119.494 91.5924 116.513 87.7353 113.805 83.6657C108.503 75.7914 103.778 67.4959 99.6738 58.8527L105.44 55.1797C108.024 58.8853 110.684 62.6562 113.421 66.2639C116.158 69.8716 118.88 73.4956 121.771 76.9074C124.539 80.2774 127.497 83.4665 130.628 86.4572C132.074 87.8358 133.616 89.0964 135.241 90.2281C136.423 91.1157 137.746 91.7684 139.147 92.1544C143.25 92.885 147.387 93.3809 151.541 93.6399C155.77 93.8358 160.029 93.95 164.319 93.8847C168.61 93.8194 172.915 93.5746 177.205 93.2481C181.496 92.9216 185.878 92.4482 189.922 91.9258L191.967 106.079Z" fill="#FF8B7B"/>
<path d="M205.808 92.8354C194.106 85.3098 178.236 90.7785 178.236 90.7785L186.263 120.162C186.263 120.162 198.934 116.375 203.901 110.645C209.098 104.72 212.866 97.3572 205.808 92.8354Z" fill="#263238"/>
<path d="M106.429 58.2383L109.259 48.1172L95.8652 49.8802C96.7366 53.8982 98.3977 57.6754 100.74 60.9644L106.429 58.2383Z" fill="#FF8B7B"/>
<path d="M108.29 36.3125L97.1415 38.4347L95.8652 49.8781L109.259 48.115L108.29 36.3125Z" fill="#FF8B7B"/>
<path d="M260.441 0.00235774C272.281 0.263548 268.96 10.7601 268.96 10.7601C268.96 10.7601 281.861 2.10821 285.967 12.213C290.073 22.3178 280.816 25.5173 275.403 27.0355C278.801 29.1087 278.986 35.8343 274.219 38.0381C269.452 40.2419 261.471 34.1856 255.443 34.2672L249.508 26.807C257.565 21.2567 248.585 -0.258832 260.441 0.00235774Z" fill="#263238"/>
<path d="M258.593 39.4544C263.76 40.4175 267.512 39.7319 266.497 33.6755C265.851 30.3132 264.415 27.1784 262.324 24.5617C260.233 21.945 257.553 19.9309 254.533 18.7061C248.014 16.1595 246.553 27.5866 246.553 27.5866L258.593 39.4544Z" fill="#0C7489"/>
<path d="M107.508 462.509L94.3145 460.893L96.944 428.375L110.138 429.975L107.508 462.509Z" fill="#FF8B7B"/>
<path d="M194.887 500.613L181.632 499.976L178.771 467.164L192.042 467.817L194.887 500.613Z" fill="#FF8B7B"/>
<path d="M181.13 495.727H196.045C196.302 495.724 196.551 495.82 196.746 495.997C196.941 496.174 197.069 496.42 197.106 496.69L198.798 509.227C198.83 509.543 198.8 509.862 198.708 510.164C198.616 510.467 198.465 510.745 198.264 510.981C198.064 511.216 197.819 511.405 197.545 511.533C197.271 511.661 196.975 511.726 196.676 511.724C191.478 511.627 188.987 511.316 182.406 511.316C178.377 511.316 172.472 511.757 166.906 511.757C161.339 511.757 161.047 505.913 163.354 505.374C173.764 503.007 175.409 499.726 178.915 496.608C179.531 496.044 180.316 495.731 181.13 495.727Z" fill="#263238"/>
<path d="M93.865 455.762L108.673 453.901C108.93 453.864 109.191 453.928 109.406 454.082C109.622 454.235 109.776 454.467 109.842 454.733L112.917 466.96C112.982 467.27 112.984 467.592 112.924 467.903C112.864 468.214 112.743 468.509 112.569 468.767C112.395 469.026 112.172 469.243 111.914 469.404C111.656 469.565 111.369 469.667 111.072 469.703C105.905 470.258 103.383 470.258 96.8635 471.074C92.8654 471.58 84.5618 473.066 79.0875 473.751C73.6133 474.437 72.6138 468.674 74.8588 467.858C84.9308 464.201 88.6214 460.447 91.7737 456.904C92.3252 456.278 93.0643 455.874 93.865 455.762Z" fill="#263238"/>
<path d="M96.9506 428.375L95.582 445.14L108.776 446.756L110.144 429.991L96.9506 428.375Z" fill="#EA7063"/>
<path d="M192.042 467.832L178.771 467.195L180.248 484.107L193.518 484.744L192.042 467.832Z" fill="#EA7063"/>
<path d="M192.953 89.0781C192.953 89.0781 186.264 89.5189 177.207 172.74L229.074 188.347C234.195 165.672 237.854 151.845 260.228 108.896C253.393 105.09 246.306 101.817 239.023 99.1013C231.339 96.1496 223.466 93.782 215.465 92.0165C205.086 90.0412 192.953 89.0781 192.953 89.0781Z" fill="#263238"/>
<path d="M244.205 70.3438C240.576 77.9346 235.148 92.2347 239.023 99.1889C239.023 99.1889 234.764 106.731 220.693 102.454C205.209 97.8013 215.465 92.0715 215.465 92.0715C224.492 92.4796 226.045 85.7539 226.229 79.012L244.205 70.3438Z" fill="#FF8B7B"/>
<path d="M200.958 89.8984C205.202 90.3882 210.538 91.1227 215.459 92.1022C223.461 93.8635 231.333 96.2311 239.016 99.187C243.43 100.819 247.705 102.615 251.226 104.297C250.503 107.023 245.413 121.209 215.136 113.046C186.965 105.341 197.744 92.6736 200.958 89.8984Z" fill="#FF8B7B"/>
<path d="M236.882 73.8672L226.256 79.042C226.23 80.6095 226.076 82.1716 225.795 83.7108C229.147 84.1842 234.837 82.5844 236.144 79.091C236.676 77.409 236.926 75.6409 236.882 73.8672Z" fill="#EA7063"/>
<path d="M250.953 52.4762C247.77 66.0417 246.709 71.8695 238.959 77.632C227.303 86.3166 212.279 79.2644 211.572 64.9153C210.926 52.0354 216.185 32.0054 229.825 29.0017C232.822 28.3264 235.933 28.4757 238.861 29.4355C241.788 30.3953 244.437 32.1338 246.554 34.4858C248.67 36.8378 250.186 39.7253 250.956 42.8739C251.726 46.0226 251.725 49.328 250.953 52.4762Z" fill="#FF8B7B"/>
<path d="M246.799 65.5615C242.939 63.4393 239.848 57.3993 245.415 51.7837C245.415 51.7837 237.726 47.1313 241.586 40.7158C245.446 34.3003 260.869 28.9622 263.283 37.5815C265.697 46.2008 258.193 49.7432 258.193 49.7432C258.193 49.7432 264.344 59.7337 253.288 63.0312C253.288 63.0312 252.334 77.4456 244.4 71.0301L246.799 65.5615Z" fill="#263238"/>
<path d="M250.817 65.2576C250.085 67.8395 248.429 70.0139 246.204 71.3139C243.22 72.9464 241.006 70.3508 241.221 66.9717C241.421 63.919 243.221 59.3645 246.496 59.087C247.214 59.0395 247.932 59.1831 248.584 59.5047C249.237 59.8262 249.803 60.3157 250.232 60.9286C250.661 61.5415 250.94 62.2584 251.042 63.0144C251.144 63.7703 251.067 64.5414 250.817 65.2576Z" fill="#FF8B7B"/>
<path d="M177.203 172.734C177.203 172.734 116.955 248.169 106.76 289.764C96.1497 333.023 91.3828 439.948 91.3828 439.948L112.111 442.788C112.111 442.788 125.951 344.956 143.373 305.092C161.918 262.649 215.261 184.194 215.261 184.194L177.203 172.734Z" fill="#0C7489"/>
<path d="M114.88 443.157L88.5082 439.501L88.0469 431.828L117.064 438.08L114.88 443.157Z" fill="#0C7489"/>
<path opacity="0.3" d="M114.88 443.157L88.5082 439.501L88.0469 431.828L117.064 438.08L114.88 443.157Z" fill="black"/>
<path opacity="0.2" d="M176.175 207.047C171.245 225.578 167.536 244.451 165.072 263.529C170.577 254.061 176.374 244.479 181.987 235.402C184.032 230.603 186.124 225.853 188.138 221.216C188.138 221.216 188.138 221.118 188.138 221.053L176.175 207.047Z" fill="black"/>
<path d="M190.906 176.852C190.906 176.852 173.468 272.137 167.164 326.889C162.059 371.128 178.128 478.428 178.128 478.428L195.412 479.554C195.412 479.554 191.767 383.73 199.794 340.879C220.123 232.469 239.129 217.924 229.011 188.344L190.906 176.852Z" fill="#0C7489"/>
<path d="M197.554 479.696L175.18 478.243L174.135 471.484L198.369 474.162L197.554 479.696Z" fill="#0C7489"/>
<path opacity="0.3" d="M197.554 479.696L175.18 478.243L174.135 471.484L198.369 474.162L197.554 479.696Z" fill="black"/>
<path d="M230.718 185.351L231.733 190.983C231.81 191.424 231.287 191.685 230.687 191.505L176.298 175.181C175.822 175.05 175.499 174.691 175.56 174.365L176.406 169.304C176.406 168.945 176.944 168.782 177.452 168.929L229.98 184.731C230.14 184.766 230.29 184.84 230.418 184.948C230.547 185.056 230.649 185.194 230.718 185.351Z" fill="#0C7489"/>
<path opacity="0.4" d="M230.718 185.351L231.733 190.983C231.81 191.424 231.287 191.685 230.687 191.505L176.298 175.181C175.822 175.05 175.499 174.691 175.56 174.365L176.406 169.304C176.406 168.945 176.944 168.782 177.452 168.929L229.98 184.731C230.14 184.766 230.29 184.84 230.418 184.948C230.547 185.056 230.649 185.194 230.718 185.351Z" fill="black"/>
<path d="M221.997 189.458L223.397 189.883C223.674 189.964 223.935 189.883 223.966 189.687L225.011 183.157C225.011 182.961 224.842 182.733 224.565 182.651L223.151 182.227C222.874 182.145 222.628 182.227 222.597 182.423L221.536 188.952C221.505 189.148 221.721 189.377 221.997 189.458Z" fill="#0C7489"/>
<path d="M180.1 176.863L181.515 177.288C181.792 177.369 182.053 177.288 182.084 177.092L183.129 170.562C183.129 170.382 182.96 170.154 182.668 170.072L181.269 169.648C180.992 169.55 180.731 169.648 180.7 169.844L179.654 176.373C179.623 176.553 179.777 176.716 180.1 176.863Z" fill="#0C7489"/>
<path d="M201.06 183.239L202.459 183.663C202.736 183.663 202.998 183.663 203.028 183.467L204.074 176.938C204.074 176.742 203.905 176.513 203.628 176.432L202.213 176.007C201.937 175.909 201.675 176.007 201.644 176.203L200.599 182.733C200.568 182.847 200.768 183.076 201.06 183.239Z" fill="#0C7489"/>
<path d="M230.67 52.4893C230.47 53.5994 229.763 54.3993 229.132 54.2687C228.502 54.1381 228.041 53.1097 228.241 51.9996C228.44 50.8896 229.148 50.0733 229.778 50.2202C230.409 50.3672 230.855 51.3629 230.67 52.4893Z" fill="#263238"/>
<path d="M218.774 50.1578C218.574 51.2842 217.866 52.0841 217.236 51.9372C216.605 51.7902 216.144 50.7945 216.344 49.6844C216.544 48.5743 217.251 47.7581 217.882 47.8887C218.512 48.0193 218.958 49.0478 218.774 50.1578Z" fill="#263238"/>
<path d="M218.215 48.0233L215.832 46.75C215.832 46.75 216.678 49.1007 218.215 48.0233Z" fill="#263238"/>
<path d="M221.585 52.6562C220.201 55.0202 218.52 57.173 216.588 59.0554C217.056 59.5657 217.623 59.9615 218.25 60.2152C218.876 60.469 219.548 60.5745 220.217 60.5246L221.585 52.6562Z" fill="#FF5652"/>
<path d="M225.011 65.8935C224.387 65.889 223.764 65.8234 223.151 65.6976C223.072 65.6817 223.001 65.6334 222.955 65.5632C222.909 65.493 222.891 65.4064 222.905 65.3221C222.92 65.2337 222.967 65.1552 223.036 65.1033C223.105 65.0514 223.19 65.0303 223.274 65.0446C224.578 65.3291 225.927 65.2837 227.212 64.9122C228.497 64.5407 229.682 63.8535 230.67 62.9061C230.731 62.8527 230.809 62.825 230.888 62.8284C230.967 62.8318 231.043 62.866 231.1 62.9245C231.157 62.983 231.191 63.0616 231.197 63.1455C231.203 63.2295 231.18 63.3127 231.131 63.3795C229.472 65.0213 227.28 65.9216 225.011 65.8935Z" fill="#263238"/>
<path d="M235.13 49.1063C235.016 49.1071 234.903 49.0739 234.805 49.0105C234.707 48.947 234.628 48.8558 234.577 48.7471C234.241 47.988 233.742 47.3234 233.12 46.8072C232.497 46.291 231.769 45.9378 230.994 45.7761C230.905 45.7761 230.817 45.7562 230.736 45.7178C230.656 45.6794 230.583 45.6233 230.524 45.5532C230.465 45.483 230.42 45.4004 230.393 45.3108C230.366 45.2211 230.357 45.1264 230.367 45.0329C230.377 44.9393 230.405 44.849 230.45 44.7679C230.495 44.6867 230.556 44.6165 230.628 44.5619C230.7 44.5072 230.782 44.4693 230.869 44.4507C230.956 44.4321 231.046 44.4332 231.132 44.4538C232.124 44.6289 233.062 45.0558 233.865 45.6981C234.668 46.3404 235.313 47.1793 235.745 48.1431C235.82 48.3012 235.833 48.4845 235.782 48.6527C235.73 48.821 235.617 48.9606 235.468 49.041C235.363 49.094 235.246 49.1166 235.13 49.1063Z" fill="#263238"/>
<path d="M214.481 43.2928C214.401 43.2925 214.321 43.275 214.247 43.2414C214.173 43.2077 214.107 43.1586 214.051 43.0969C213.99 43.0359 213.942 42.9625 213.909 42.8811C213.876 42.7997 213.859 42.7121 213.859 42.6235C213.859 42.535 213.876 42.4473 213.909 42.366C213.942 42.2846 213.99 42.2111 214.051 42.1501C214.731 41.3747 215.575 40.7823 216.514 40.4218C217.452 40.0613 218.458 39.9431 219.448 40.0769C219.609 40.1161 219.75 40.2192 219.841 40.3649C219.933 40.5106 219.968 40.6879 219.94 40.8605C219.926 40.9471 219.895 41.0296 219.849 41.1032C219.804 41.1767 219.745 41.2398 219.676 41.2886C219.607 41.3374 219.53 41.3709 219.448 41.3871C219.367 41.4033 219.283 41.4019 219.202 41.3829C218.424 41.2824 217.634 41.3778 216.897 41.6614C216.159 41.945 215.495 42.4088 214.958 43.0153C214.903 43.0964 214.832 43.1634 214.749 43.2114C214.667 43.2595 214.575 43.2873 214.481 43.2928Z" fill="#263238"/>
<path d="M261.838 124.359C262.883 129.355 263.545 134.056 264.16 138.921C264.775 143.785 265.098 148.715 265.359 153.515C265.903 163.471 265.424 173.461 263.929 183.307C263.317 186.446 262.114 189.423 260.392 192.056C259.001 194.268 257.459 196.368 255.779 198.341C252.58 201.999 249.142 205.414 245.492 208.56C238.399 214.659 230.873 220.166 222.98 225.032L219.182 219.155C222.503 216.184 225.886 213.131 229.115 210.03C232.344 206.928 235.589 203.794 238.603 200.529C241.61 197.389 244.435 194.059 247.06 190.555C248.265 188.945 249.354 187.243 250.32 185.461C251.073 184.153 251.594 182.709 251.858 181.201C252.302 176.809 252.518 172.395 252.504 167.978C252.504 163.473 252.273 158.951 251.95 154.413C251.627 149.874 251.135 145.336 250.566 140.798C249.997 136.26 249.29 131.656 248.552 127.412L261.838 124.359Z" fill="#FF8B7B"/>
<path d="M260.226 108.903C264.962 112.168 266.147 133.014 266.147 133.014L241.897 142.254C241.897 142.254 238.821 124.183 242.866 117.767C247.125 110.96 254.798 105.197 260.226 108.903Z" fill="#263238"/>
<path d="M176.576 498.198C175.68 498.282 174.785 498.021 174.054 497.463C173.832 497.241 173.668 496.963 173.576 496.654C173.485 496.345 173.469 496.017 173.531 495.7C173.547 495.497 173.614 495.302 173.725 495.136C173.836 494.969 173.987 494.837 174.162 494.753C175.7 494.002 179.728 496.778 180.19 497.088C180.24 497.126 180.28 497.178 180.304 497.239C180.329 497.299 180.337 497.365 180.328 497.431C180.313 497.494 180.282 497.551 180.239 497.597C180.196 497.643 180.142 497.676 180.082 497.692C178.935 498.001 177.759 498.171 176.576 498.198ZM174.823 495.292C174.691 495.263 174.555 495.263 174.423 495.292C174.345 495.328 174.279 495.387 174.232 495.462C174.186 495.538 174.161 495.626 174.162 495.717C174.112 495.926 174.114 496.146 174.168 496.355C174.222 496.564 174.326 496.755 174.469 496.908C175.146 497.561 176.884 497.643 179.206 497.153C177.878 496.224 176.387 495.591 174.823 495.292Z" fill="#0C7489"/>
<path d="M180.019 497.693C179.969 497.709 179.915 497.709 179.865 497.693C178.589 496.925 176.174 493.889 176.482 492.306C176.526 492.042 176.657 491.803 176.851 491.633C177.045 491.462 177.291 491.371 177.543 491.375C177.78 491.341 178.022 491.363 178.25 491.439C178.479 491.515 178.689 491.644 178.865 491.816C180.311 493.171 180.403 497.236 180.403 497.399C180.403 497.458 180.389 497.516 180.362 497.567C180.335 497.619 180.297 497.662 180.249 497.693C180.213 497.709 180.174 497.718 180.134 497.718C180.094 497.718 180.055 497.709 180.019 497.693ZM177.758 491.979H177.604C177.205 491.979 177.128 492.208 177.097 492.371C176.912 493.334 178.419 495.636 179.68 496.697C179.713 495.117 179.283 493.566 178.45 492.257C178.261 492.075 178.014 491.976 177.758 491.979Z" fill="#0C7489"/>
<path d="M88.0225 458.911C87.2804 458.961 86.5413 458.773 85.9005 458.373C85.6691 458.2 85.4809 457.97 85.3523 457.703C85.2237 457.435 85.1585 457.138 85.1624 456.838C85.1508 456.652 85.1843 456.466 85.2597 456.297C85.335 456.129 85.4498 455.983 85.593 455.875C87.1307 454.732 92.6664 456.92 93.2815 457.181C93.3435 457.205 93.3963 457.25 93.4323 457.309C93.4683 457.368 93.4856 457.438 93.4814 457.508C93.4812 457.577 93.4602 457.644 93.4215 457.7C93.3828 457.756 93.3284 457.797 93.2662 457.818C91.5755 458.443 89.8102 458.811 88.0225 458.911ZM86.9154 456.218C86.5801 456.19 86.2442 456.264 85.9466 456.43C85.8909 456.472 85.847 456.529 85.8199 456.595C85.7927 456.661 85.7834 456.734 85.7929 456.806C85.7859 457.005 85.8258 457.204 85.909 457.384C85.9922 457.563 86.1161 457.718 86.2696 457.834C87.146 458.487 89.345 458.356 92.1897 457.475C90.4953 456.797 88.7201 456.374 86.9154 456.218Z" fill="#0C7489"/>
<path d="M93.1902 457.833H93.098C91.4372 457.278 87.9927 454.649 88.0696 453.033C88.0696 452.642 88.2695 452.152 89.1307 451.94C89.4379 451.869 89.7554 451.864 90.0645 451.926C90.3735 451.987 90.6677 452.114 90.9298 452.299C92.7443 453.556 93.467 457.278 93.4978 457.441C93.5078 457.497 93.5046 457.554 93.4885 457.608C93.4724 457.663 93.4439 457.712 93.4055 457.751C93.3463 457.807 93.2692 457.836 93.1902 457.833ZM89.6535 452.527C89.5258 452.511 89.3967 452.511 89.269 452.527C88.7001 452.658 88.7001 452.903 88.6847 452.984C88.6847 453.964 91.022 456.07 92.7443 456.902C92.4402 455.326 91.6826 453.888 90.5761 452.789C90.2917 452.634 89.9722 452.566 89.6535 452.593V452.527Z" fill="#0C7489"/>
<path opacity="0.6" d="M149.819 45.2687C131.925 40.849 113.241 41.6153 95.7217 47.4873C78.2021 53.3594 62.4908 64.1215 50.2314 78.6478C37.9719 93.1742 29.6148 110.931 26.0342 130.061C22.4536 149.19 23.781 168.99 29.8778 187.389L0 221.147L45.1934 217.425C55.183 231.311 68.1739 242.44 83.0687 249.872C97.9634 257.305 114.325 260.822 130.77 260.128C147.215 259.433 163.261 254.547 177.552 245.881C191.844 237.216 203.961 225.027 212.88 210.343C221.798 195.658 227.257 178.911 228.794 161.516C230.332 144.12 227.903 126.587 221.712 110.398C215.522 94.2094 205.752 79.84 193.228 68.504C180.704 57.168 165.794 49.1985 149.758 45.2687H149.819Z" fill="#0C7489"/>
<path opacity="0.1" d="M149.819 45.2687C131.925 40.849 113.241 41.6153 95.7217 47.4873C78.2021 53.3594 62.4908 64.1215 50.2314 78.6478C37.9719 93.1742 29.6148 110.931 26.0342 130.061C22.4536 149.19 23.781 168.99 29.8778 187.389L0 221.147L45.1934 217.425C55.183 231.311 68.1739 242.44 83.0687 249.872C97.9634 257.305 114.325 260.822 130.77 260.128C147.215 259.433 163.261 254.547 177.552 245.881C191.844 237.216 203.961 225.027 212.88 210.343C221.798 195.658 227.257 178.911 228.794 161.516C230.332 144.12 227.903 126.587 221.712 110.398C215.522 94.2094 205.752 79.84 193.228 68.504C180.704 57.168 165.794 49.1985 149.758 45.2687H149.819Z" fill="black"/>
<path d="M126.784 254.922C111.774 254.919 96.9663 251.25 83.5061 244.199C70.0458 237.147 58.2942 226.903 49.1604 214.258L47.5304 211.908L13.0549 214.748C13.0119 214.746 12.9701 214.733 12.9327 214.71C12.8953 214.687 12.8635 214.656 12.8396 214.618C12.818 214.578 12.8066 214.533 12.8066 214.487C12.8066 214.441 12.818 214.396 12.8396 214.356L35.6131 188.678L34.6136 185.626C29.4463 170.016 27.8778 153.319 30.0396 136.933C32.2014 120.547 38.0305 104.95 47.0387 91.4483C56.0468 77.9462 67.9716 66.9324 81.8142 59.3295C95.6568 51.7265 111.014 47.7558 126.6 47.75C141.288 47.7427 155.788 51.2551 169.02 58.0252C182.252 64.7954 193.873 74.6487 203.019 86.8507C212.164 99.0527 218.597 113.289 221.838 128.497C225.079 143.706 225.045 159.495 221.738 174.688C216.853 197.525 204.787 217.915 187.527 232.499C170.268 247.083 148.844 254.992 126.784 254.922ZM47.6227 211.434C47.6561 211.436 47.6888 211.445 47.7182 211.462C47.7475 211.479 47.7727 211.503 47.7918 211.532L49.5141 213.932C58.5969 226.534 70.2919 236.745 83.692 243.774C97.0922 250.804 111.837 254.462 126.784 254.465C150.626 254.434 173.624 245.096 191.4 228.229C209.176 211.361 220.487 188.143 223.181 162.995C225.874 137.846 219.762 112.525 206.007 91.8513C192.252 71.1779 171.815 56.5968 148.589 50.8843C141.378 49.1102 134.001 48.212 126.6 48.2071C111.087 48.222 95.8036 52.182 82.0288 59.7556C68.2541 67.3292 56.3889 78.296 47.4267 91.7377C38.4646 105.179 32.6663 120.705 30.5173 137.014C28.3683 153.324 29.9311 169.942 35.0749 185.479L36.1206 188.662C36.1431 188.695 36.1552 188.735 36.1552 188.776C36.1552 188.817 36.1431 188.857 36.1206 188.89L13.5931 214.258L47.6073 211.451L47.6227 211.434Z" fill="white"/>
<path d="M162.276 132.799C162.517 132.208 162.566 131.55 162.415 130.926C162.265 130.303 161.924 129.75 161.446 129.355C156.139 125.25 150.085 122.365 143.67 120.882C132.682 118.193 121.137 120.243 111.572 126.582C102.006 132.92 95.1999 143.029 92.6486 154.69C89.1119 170.9 97.4924 181.903 107.595 184.384C111.77 185.502 116.134 185.56 120.334 184.553C124.534 183.546 128.451 181.503 131.768 178.589C131.853 182.068 133.055 185.411 135.174 188.065C137.294 190.72 140.205 192.525 143.424 193.183C159.216 197.068 178.515 185.821 184.835 156.829C191.647 125.616 175.716 98.7302 146.115 91.5311C110.563 82.7976 77.2254 106.092 68.5834 145.728C61.3869 178.768 78.1326 208.136 108.395 215.58C120.404 218.535 130.261 218.584 140.348 215.759C140.987 215.579 141.542 215.158 141.91 214.576C142.278 213.993 142.433 213.288 142.348 212.593L141.363 204.43C141.31 204.018 141.173 203.623 140.964 203.271C140.754 202.919 140.476 202.618 140.149 202.39C139.823 202.157 139.453 202.004 139.064 201.942C138.676 201.879 138.279 201.91 137.904 202.031C129.83 204.205 121.373 204.205 113.3 202.031C89.7424 196.236 77.7635 174.638 83.5146 148.258C90.4343 116.475 114.992 98.2078 141.948 104.819C164.737 110.418 175.516 129.306 170.088 154.331C167.704 165.252 162.799 173.806 156.618 177.822C154.347 179.498 151.544 180.149 148.821 179.634C148.413 179.563 148.028 179.388 147.698 179.124C147.369 178.859 147.105 178.513 146.93 178.116C146.269 176.679 145.792 172.777 150.005 162.934L162.276 132.799ZM138.472 135.231C140.192 135.649 141.871 136.239 143.485 136.994L136.781 153.319C132.998 162.754 122.557 172.255 114.792 170.345C107.703 168.615 108.072 161.84 108.918 157.971C112.27 142.528 125.817 132.13 138.472 135.231Z" fill="white"/>
<path d="M222.058 217.918L210.402 210.898L212.878 224.986C212.878 224.986 220.966 227.827 224.964 223.778L222.058 217.918Z" fill="#FF8B7B"/>
<path d="M199.359 212.645L202.035 224.317L212.876 224.986L210.4 210.898L199.359 212.645Z" fill="#FF8B7B"/>
<path d="M230.077 50.328L227.678 49.0547C227.678 49.0547 228.616 51.4054 230.077 50.328Z" fill="#263238"/>
<path d="M246.553 43.8818C239.972 43.4411 235.143 40.3721 234.497 36.34C234.497 36.34 219.397 43.0003 213.292 33.0751C213.292 33.0751 206.403 34.2831 204.696 29.1899C202.99 24.0967 210.155 22.6602 213.538 24.9456C213.538 24.9456 203.051 15.151 213.815 12.4248C224.579 9.69862 226.886 18.9545 226.886 18.9545C226.886 18.9545 231.13 5.43796 240.725 11.4453C250.32 17.4527 244.354 23.2642 244.354 23.2642C244.354 23.2642 267.143 25.1415 258.655 34.6912C250.167 44.241 246.553 43.8818 246.553 43.8818Z" fill="#263238"/>
<path d="M238.313 90.804C239.605 90.9346 239.036 95.7014 238.451 96.0279C237.114 96.7951 220.998 93.2854 221.537 90.6408C222.093 89.3705 222.864 88.2195 223.812 87.2453C224.52 86.6903 226.98 89.8083 238.313 90.804Z" fill="#263238"/>
<path d="M322.469 128.195C315.947 128.174 309.66 130.783 304.881 135.494C300.102 140.206 297.188 146.669 296.727 153.575C296.265 160.482 298.293 167.316 302.398 172.696C306.503 178.077 312.38 181.601 318.84 182.556C318.969 189.453 316.69 196.157 312.443 201.378C312.443 201.378 348.21 191.926 348.21 155.522C348.21 148.275 345.498 141.324 340.67 136.199C335.843 131.075 329.296 128.195 322.469 128.195Z" fill="#0C7489"/>
<path d="M380.394 128.195C373.872 128.174 367.586 130.783 362.807 135.494C358.028 140.206 355.113 146.669 354.652 153.575C354.191 160.482 356.218 167.316 360.324 172.696C364.429 178.077 370.306 181.601 376.765 182.556C376.916 189.442 374.665 196.145 370.445 201.378C370.445 201.378 406.213 191.926 406.213 155.522C406.215 151.926 405.548 148.365 404.25 145.043C402.952 141.722 401.049 138.705 398.65 136.166C396.252 133.627 393.404 131.615 390.271 130.248C387.138 128.88 383.782 128.183 380.394 128.195Z" fill="#0C7489"/>
</svg>
