<svg width="49" height="49" viewBox="0 0 49 49" fill="none" xmlns="http://www.w3.org/2000/svg">
<rect x="0.246094" y="0.257812" width="48.3939" height="48.3939" rx="24.197" fill="#0C7489"/>
<g clip-path="url(#clip0_1017_5819)">
<g clip-path="url(#clip1_1017_5819)">
<g clip-path="url(#clip2_1017_5819)">
<path d="M33.0165 15.5839H32.0006V13.8906H30.3074V15.5839H19.1319V13.8906H17.4386V15.5839H16.4227C15.0222 15.5839 13.8828 16.7233 13.8828 18.1237V33.0243C13.8828 34.4247 15.0222 35.5642 16.4227 35.5642H33.0165C34.417 35.5642 35.5564 34.4247 35.5564 33.0243V18.1237C35.5564 16.7233 34.417 15.5839 33.0165 15.5839ZM33.8631 33.0243C33.8631 33.4911 33.4833 33.871 33.0165 33.871H16.4227C15.9559 33.871 15.5761 33.4911 15.5761 33.0243V21.8489H33.8631V33.0243ZM33.8631 20.1556H15.5761V18.1237C15.5761 17.6569 15.9559 17.2771 16.4227 17.2771H17.4386V18.9704H19.1319V17.2771H30.3074V18.9704H32.0006V17.2771H33.0165C33.4833 17.2771 33.8631 17.6569 33.8631 18.1237V20.1556Z" fill="white"/>
<path d="M18.7929 23.6328H17.0996V25.3261H18.7929V23.6328Z" fill="white"/>
<path d="M22.1796 23.6328H20.4863V25.3261H22.1796V23.6328Z" fill="white"/>
<path d="M25.5644 23.6328H23.8711V25.3261H25.5644V23.6328Z" fill="white"/>
<path d="M28.9531 23.6328H27.2598V25.3261H28.9531V23.6328Z" fill="white"/>
<path d="M32.3397 23.6328H30.6465V25.3261H32.3397V23.6328Z" fill="white"/>
<path d="M18.7929 27.0156H17.0996V28.7088H18.7929V27.0156Z" fill="white"/>
<path d="M22.1796 27.0156H20.4863V28.7088H22.1796V27.0156Z" fill="white"/>
<path d="M25.5644 27.0156H23.8711V28.7088H25.5644V27.0156Z" fill="white"/>
<path d="M28.9531 27.0156H27.2598V28.7088H28.9531V27.0156Z" fill="white"/>
<path d="M18.7929 30.4062H17.0996V32.0994H18.7929V30.4062Z" fill="white"/>
<path d="M22.1796 30.4062H20.4863V32.0994H22.1796V30.4062Z" fill="white"/>
<path d="M25.5644 30.4062H23.8711V32.0994H25.5644V30.4062Z" fill="white"/>
<path d="M28.9531 30.4062H27.2598V32.0994H28.9531V30.4062Z" fill="white"/>
<path d="M32.3397 27.0156H30.6465V28.7088H32.3397V27.0156Z" fill="white"/>
</g>
</g>
</g>
<defs>
<clipPath id="clip0_1017_5819">
<rect width="22.9871" height="22.9871" fill="white" transform="translate(12.9512 12.9609)"/>
</clipPath>
<clipPath id="clip1_1017_5819">
<rect width="22.9871" height="22.9871" fill="white" transform="translate(12.9512 12.9609)"/>
</clipPath>
<clipPath id="clip2_1017_5819">
<rect width="22.9871" height="22.9871" fill="white" transform="translate(12.9512 12.9609)"/>
</clipPath>
</defs>
</svg>
