<svg width="20" height="20" viewBox="0 0 20 20" fill="none" xmlns="http://www.w3.org/2000/svg">
<path d="M19.2685 12.2006C19.171 12.1028 19.0487 12.0335 18.9148 12.0001C18.7809 11.9666 18.6404 11.9702 18.5084 12.0105C17.059 12.4487 15.5178 12.4854 14.0491 12.1168C12.5805 11.7482 11.2394 10.988 10.1686 9.91733C9.09793 8.84662 8.33777 7.50548 7.96915 6.03682C7.60053 4.56816 7.63727 3.02701 8.07545 1.57759C8.11612 1.44551 8.12001 1.30485 8.08671 1.17073C8.05342 1.03661 7.98419 0.914107 7.88647 0.81639C7.78875 0.718674 7.66625 0.649444 7.53213 0.616146C7.39801 0.582848 7.25735 0.586743 7.12527 0.62741C5.12138 1.24127 3.36214 2.47151 2.09789 4.14306C0.992277 5.61095 0.317881 7.35805 0.15047 9.18809C-0.0169411 11.0181 0.329265 12.8586 1.15019 14.5027C1.97112 16.1469 3.23425 17.5295 4.79766 18.4953C6.36107 19.4611 8.16283 19.9719 10.0005 19.9701C12.1444 19.9767 14.2313 19.2797 15.941 17.9862C17.6126 16.7219 18.8428 14.9627 19.4567 12.9588C19.4969 12.8272 19.5006 12.6872 19.4675 12.5537C19.4343 12.4201 19.3656 12.2981 19.2685 12.2006ZM15.0269 16.7719C13.4169 17.9845 11.423 18.5748 9.4123 18.434C7.40159 18.2932 5.50941 17.4308 4.08408 16.0056C2.65876 14.5804 1.79622 12.6883 1.65527 10.6776C1.51432 8.66691 2.10443 6.67296 3.31697 5.06283C4.10695 4.0196 5.12826 3.17393 6.30052 2.59237C6.23374 3.06103 6.20009 3.5338 6.1998 4.00719C6.20257 6.62716 7.24458 9.13904 9.09718 10.9916C10.9498 12.8442 13.4617 13.8863 16.0816 13.889C16.556 13.8889 17.0297 13.8552 17.4993 13.7883C16.9172 14.9608 16.0709 15.9821 15.0269 16.7719Z" fill="#1E1E1E"/>
</svg>
