<svg width="397" height="467" viewBox="0 0 397 467" fill="none" xmlns="http://www.w3.org/2000/svg">
<path d="M386.989 171.498C376.456 156.762 359.181 148.842 343.161 140.491C327.141 132.14 310.588 121.549 304.082 104.619C294.729 80.2796 309.354 51.2438 298.98 27.3264C289.956 6.52419 263.84 -2.66216 241.752 1.97356C219.665 6.60928 201.327 22.0496 186.443 39.1074C171.559 56.1651 159.082 75.3566 142.96 91.2342C119.718 114.123 90.0905 129.017 61.927 145.386C41.2066 157.429 20.1763 171.353 8.80327 192.533C0.0814826 208.776 -2.00454 228.723 4.18068 246.103C10.3667 263.483 25.0275 277.82 42.7667 282.549C70.2594 289.879 98.309 274.508 121.819 258.405C145.329 242.302 170.316 224.07 198.744 224.973C227.217 225.877 251.307 245.835 278.587 254.091C308.422 263.12 343.41 255.204 371.759 243.504C398.412 232.504 402.703 193.483 386.989 171.498Z" fill="#EAFCFF"/>
<path d="M301.06 228.559H103.685C98.977 228.559 95.1602 224.743 95.1602 220.035V89.6728C95.1602 84.9653 98.9763 81.1484 103.685 81.1484H301.06C305.767 81.1484 309.584 84.9646 309.584 89.6728V220.035C309.584 224.742 305.768 228.559 301.06 228.559Z" fill="#5C5C5C"/>
<path d="M295.784 219.884C295.784 221.817 294.216 223.383 292.283 223.383C290.35 223.383 288.783 221.816 288.783 219.884C288.783 217.95 290.351 216.383 292.283 216.383C294.216 216.383 295.784 217.95 295.784 219.884Z" stroke="#121D30" stroke-width="0.998706" stroke-miterlimit="10"/>
<path d="M301.173 93.5156H103.574V208.647H301.173V93.5156Z" fill="white"/>
<path d="M117.944 104.247C117.944 105.933 116.577 107.299 114.892 107.299C113.206 107.299 111.84 105.933 111.84 104.247C111.84 102.562 113.206 101.195 114.892 101.195C116.577 101.195 117.944 102.561 117.944 104.247Z" stroke="#121D30" stroke-width="0.998706" stroke-miterlimit="10"/>
<path d="M128.856 104.247C128.856 105.933 127.49 107.299 125.804 107.299C124.118 107.299 122.752 105.933 122.752 104.247C122.752 102.562 124.118 101.195 125.804 101.195C127.49 101.195 128.856 102.561 128.856 104.247Z" stroke="#121D30" stroke-width="0.998706" stroke-miterlimit="10"/>
<path d="M139.768 104.247C139.768 105.933 138.402 107.299 136.716 107.299C135.03 107.299 133.664 105.933 133.664 104.247C133.664 102.562 135.03 101.195 136.716 101.195C138.402 101.195 139.768 102.561 139.768 104.247Z" stroke="#121D30" stroke-width="0.998706" stroke-miterlimit="10"/>
<path d="M110.955 119.779L114.607 126.789H152.182C153.262 126.789 154.136 127.664 154.136 128.744V178.092C154.136 179.171 153.262 180.046 152.182 180.046H80.1145C79.035 180.046 78.1602 179.171 78.1602 178.092V130.454V126.789V120.681C78.1602 119.601 79.035 118.727 80.1145 118.727H109.221C109.95 118.727 110.619 119.132 110.955 119.779Z" fill="#0C7489"/>
<path d="M80.1133 118.727H109.22C109.949 118.727 110.617 119.132 110.953 119.778L114.605 126.789H152.18C153.26 126.789 154.134 127.663 154.134 128.743V178.091" stroke="#121D30" stroke-width="0.998706" stroke-miterlimit="10"/>
<path d="M116.146 168.097C123.88 168.097 130.15 161.827 130.15 154.093C130.15 146.359 123.88 140.09 116.146 140.09C108.412 140.09 102.143 146.359 102.143 154.093C102.143 161.827 108.412 168.097 116.146 168.097Z" fill="#2E363D"/>
<path d="M122.116 159.299L116.908 154.091L122.116 148.884C122.325 148.674 122.325 148.331 122.116 148.122C121.906 147.913 121.563 147.913 121.354 148.122L116.146 153.33L110.938 148.122C110.729 147.913 110.386 147.913 110.176 148.122C109.967 148.331 109.967 148.674 110.176 148.884L115.385 154.092L110.176 159.3C109.967 159.509 109.967 159.853 110.176 160.062C110.386 160.271 110.729 160.271 110.938 160.062L116.146 154.854L121.354 160.062C121.563 160.271 121.906 160.271 122.116 160.062C122.325 159.852 122.325 159.509 122.116 159.299Z" fill="white"/>
<path d="M197.17 119.779L200.821 126.789H238.397C239.477 126.789 240.351 127.664 240.351 128.744V178.092C240.351 179.171 239.477 180.046 238.397 180.046H166.329C165.25 180.046 164.375 179.171 164.375 178.092V130.454V126.789V120.681C164.375 119.601 165.25 118.727 166.329 118.727H195.436C196.165 118.727 196.834 119.132 197.17 119.779Z" fill="#0C7489"/>
<path d="M166.328 118.727H195.435C196.164 118.727 196.832 119.132 197.168 119.778L200.819 126.789H238.395C239.475 126.789 240.349 127.663 240.349 128.743V178.091" stroke="#121D30" stroke-width="0.998706" stroke-miterlimit="10"/>
<path d="M202.363 168.097C210.097 168.097 216.366 161.827 216.366 154.093C216.366 146.359 210.097 140.09 202.363 140.09C194.629 140.09 188.359 146.359 188.359 154.093C188.359 161.827 194.629 168.097 202.363 168.097Z" fill="#2E363D"/>
<path d="M208.333 159.299L203.125 154.091L208.333 148.884C208.542 148.674 208.542 148.331 208.333 148.122C208.123 147.913 207.78 147.913 207.571 148.122L202.363 153.33L197.155 148.122C196.946 147.913 196.603 147.913 196.393 148.122C196.184 148.331 196.184 148.674 196.393 148.884L201.601 154.092L196.393 159.3C196.184 159.509 196.184 159.853 196.393 160.062C196.603 160.271 196.946 160.271 197.155 160.062L202.363 154.854L207.571 160.062C207.78 160.271 208.123 160.271 208.333 160.062C208.543 159.852 208.543 159.509 208.333 159.299Z" fill="white"/>
<path d="M283.377 119.779L287.028 126.789H324.604C325.684 126.789 326.558 127.664 326.558 128.744V178.092C326.558 179.171 325.684 180.046 324.604 180.046H252.536C251.457 180.046 250.582 179.171 250.582 178.092V130.454V126.789V120.681C250.582 119.601 251.457 118.727 252.536 118.727H281.643C282.373 118.727 283.041 119.132 283.377 119.779Z" fill="#0C7489"/>
<path d="M252.537 118.727H281.644C282.373 118.727 283.041 119.132 283.377 119.778L287.028 126.789H324.604C325.684 126.789 326.558 127.663 326.558 128.743V178.091" stroke="#121D30" stroke-width="0.998706" stroke-miterlimit="10"/>
<path d="M288.57 168.097C296.304 168.097 302.573 161.827 302.573 154.093C302.573 146.359 296.304 140.09 288.57 140.09C280.836 140.09 274.566 146.359 274.566 154.093C274.566 161.827 280.836 168.097 288.57 168.097Z" fill="#2E363D"/>
<path d="M294.538 159.299L289.331 154.091L294.538 148.884C294.748 148.674 294.748 148.331 294.538 148.122C294.329 147.913 293.986 147.913 293.776 148.122L288.568 153.33L283.36 148.122C283.151 147.913 282.808 147.913 282.598 148.122C282.389 148.331 282.389 148.674 282.598 148.884L287.806 154.092L282.598 159.3C282.389 159.509 282.389 159.853 282.598 160.062C282.808 160.271 283.151 160.271 283.36 160.062L288.568 154.854L293.776 160.062C293.986 160.271 294.328 160.271 294.538 160.062C294.748 159.852 294.748 159.509 294.538 159.299Z" fill="white"/>
<path d="M290.28 93.1901C290.28 93.1901 283.487 83.279 274.99 88.2206C264.354 94.4059 277.2 109.141 269.338 113.405C261.476 117.669 253.348 118.001 251.083 129.795C248.121 145.215 276.012 166.894 299.598 153.169C323.183 139.444 314.793 113.757 303.716 108.644C290.39 102.492 290.28 93.1901 290.28 93.1901Z" fill="#121D30"/>
<path d="M285.627 116.449V130.061C285.627 131.824 286.344 133.42 287.5 134.575C288.65 135.732 290.245 136.448 292.008 136.448C295.534 136.448 298.388 133.588 298.388 130.061V116.449H285.627Z" fill="#FFC4B0"/>
<path d="M308.117 112.237C307.587 114.824 305.061 116.491 302.473 115.962C299.887 115.433 298.219 112.906 298.748 110.319C299.278 107.733 301.804 106.064 304.391 106.594C306.978 107.124 308.646 109.65 308.117 112.237Z" fill="#FFC4B0"/>
<path d="M306.804 110.422L303.016 112.985" stroke="#121D30" stroke-width="0.998706" stroke-miterlimit="10"/>
<path d="M281.052 111.284C280.523 113.87 277.996 115.538 275.409 115.009C272.822 114.479 271.155 111.953 271.684 109.366C272.213 106.779 274.74 105.111 277.326 105.641C279.915 106.17 281.582 108.697 281.052 111.284Z" fill="#FFC4B0"/>
<path d="M276.816 110.32C276.816 110.32 274.082 107.329 275.042 100.238H278.876L276.816 110.32Z" fill="#121D30"/>
<path d="M277.158 112.432L273.449 108.84" stroke="#121D30" stroke-width="0.998706" stroke-miterlimit="10"/>
<path d="M288.798 91.6406C281.932 91.6406 276.365 97.2063 276.365 104.073V114.288C276.365 114.543 276.386 114.79 276.419 115.037C276.599 116.241 277.214 117.352 278.171 118.141L283.209 122.329C284.734 123.599 286.874 123.847 288.661 122.95L298.474 118.027C300.166 117.171 301.23 115.438 301.23 113.552V104.072C301.23 97.2064 295.663 91.6406 288.798 91.6406Z" fill="#FFC4B0"/>
<path d="M294.632 119.887L288.923 122.751C287.958 123.235 286.892 123.488 285.812 123.488H285.387" stroke="#121D30" stroke-width="0.998706" stroke-miterlimit="10"/>
<path d="M286.851 91.6406L283.689 113.408H287.656" stroke="#121D30" stroke-width="0.998706" stroke-miterlimit="10"/>
<path d="M276.365 107.452V113.827C276.513 113.847 276.666 113.86 276.827 113.86C278.606 113.86 280.051 112.422 280.051 110.636C280.051 108.856 278.606 107.418 276.827 107.418C276.666 107.419 276.512 107.432 276.365 107.452Z" fill="#CB705D"/>
<path d="M294.739 113.865C296.52 113.865 297.963 112.422 297.963 110.642C297.963 108.861 296.52 107.418 294.739 107.418C292.959 107.418 291.516 108.861 291.516 110.642C291.516 112.422 292.959 113.865 294.739 113.865Z" fill="#CB705D"/>
<path d="M278.74 107.565C278.74 108.679 279.238 109.584 279.851 109.584C280.465 109.584 280.963 108.68 280.963 107.565C280.963 106.45 280.465 105.547 279.851 105.547C279.238 105.547 278.74 106.45 278.74 107.565Z" fill="#121D30"/>
<path d="M290.389 107.565C290.389 108.679 290.886 109.584 291.5 109.584C292.113 109.584 292.611 108.68 292.611 107.565C292.611 106.45 292.113 105.547 291.5 105.547C290.886 105.547 290.389 106.45 290.389 107.565Z" fill="#121D30"/>
<path d="M301.232 102.904V110.963C301.232 110.963 298.032 108.12 298.121 102.523L301.232 102.904Z" fill="#121D30"/>
<path d="M280.569 99.0033C279.562 97.4653 278.583 97.2793 277.934 99.3293L280.569 99.0033Z" fill="#121D30"/>
<path d="M294.37 99.5864C294.222 97.754 293.453 97.1217 291.9 98.6093L294.37 99.5864Z" fill="#121D30"/>
<path d="M272.805 89.9269C281.303 84.9868 290.284 93.1874 290.284 93.1874C290.284 93.1874 285.945 102.524 303.717 108.642C306.643 109.649 310.291 114.559 312.054 117.369C312.054 117.369 308.16 106.136 306.933 98.8706C305.699 91.5989 299.241 92.7222 299.241 92.7222C299.241 92.7222 295.328 83.1581 284.504 83.2033C277.006 83.2357 272.805 89.9269 272.805 89.9269Z" fill="#121D30"/>
<path d="M287.646 118.249C285.672 114.278 283.699 118.249 283.699 118.249H287.646Z" fill="#121D30"/>
<path d="M232.962 174.431L263.727 158.016L272.389 166.425L272.386 166.428C265.862 172.595 257.754 176.83 248.964 178.661L232.424 181.229L232.962 174.431Z" fill="#FFAC9D"/>
<path d="M263.779 165.45C265.887 168.096 269.74 168.532 272.386 166.425L296.19 147.466C298.836 145.359 299.272 141.505 297.165 138.86C295.057 136.214 291.204 135.778 288.558 137.885L263.724 158.016C263.724 158.016 261.672 162.804 263.779 165.45Z" fill="#FFAC9D"/>
<path d="M264.285 151.398L276.03 150.625L288.396 154.647L276.031 155.128L264.285 151.398Z" fill="#5C5C5C"/>
<path d="M268.136 140.432L266.209 155.828L284.743 158.386L282.031 130.816L276.965 131.507C272.339 132.137 268.715 135.799 268.136 140.432Z" fill="#969696"/>
<path d="M264.285 151.402L276.031 155.133L288.395 154.652L286.026 161.581L275.165 161.017L263.652 157.415L264.285 151.402Z" fill="white"/>
<path d="M277.526 179.69H302.028L317.774 149.143C320.368 144.112 318.205 137.934 313.039 135.62L296.77 128.332L282.031 130.822C276.928 131.684 273.359 136.341 273.854 141.493L277.526 179.69Z" fill="#969696"/>
<path d="M284.114 139.36L282.291 127.342L302.913 125.34L300.997 139.36H284.114Z" fill="#969696"/>
<path d="M300.77 133.884C299.098 139.754 295.057 151.653 289.361 153.466C289.049 153.565 288.747 153.615 288.463 153.615C287.775 153.615 287.156 153.327 286.574 152.734C283.63 149.736 282.855 140.455 282.657 134.981C284.209 138.359 286.928 140.331 290.284 140.331C293.929 140.332 297.642 138.019 300.77 133.884ZM302.176 130.746C298.57 136.916 294.111 139.767 290.284 139.767C286.251 139.767 282.919 136.599 282.033 130.815C282.033 130.815 281.604 154.18 288.464 154.18C288.802 154.18 289.158 154.122 289.532 154.003C297.503 151.467 302.176 130.746 302.176 130.746Z" fill="#121D30"/>
<path d="M272.112 322.144H259.764L264.793 283.945H277.142L272.112 322.144Z" fill="#FFAC9D"/>
<path d="M273.287 322.085H259.381L261.607 303.91L275.384 304.964L273.287 322.085Z" fill="#DEDEDE"/>
<path d="M274.371 333.432H242.822L243.647 330.616C243.918 329.697 244.323 328.843 244.841 328.072C245.938 326.432 247.544 325.169 249.453 324.496L250.308 324.195C251.146 323.9 251.932 323.512 252.661 323.041C253.288 322.636 253.87 322.177 254.395 321.657C255.541 320.542 256.444 319.175 257.025 317.633H274.752L274.457 328.072L274.371 333.432Z" fill="#0C7489"/>
<path d="M262.254 319.418H256.021" stroke="#121D30" stroke-width="0.998706" stroke-miterlimit="10"/>
<path d="M260.646 321.586H254.414" stroke="#121D30" stroke-width="0.998706" stroke-miterlimit="10"/>
<path d="M268.448 325.844C268.462 326.269 268.128 326.614 267.703 326.614C267.278 326.614 266.922 326.27 266.909 325.844C266.895 325.419 267.229 325.074 267.654 325.074C268.079 325.074 268.435 325.419 268.448 325.844Z" stroke="#121D30" stroke-width="0.998706" stroke-miterlimit="10"/>
<path d="M264.685 325.844C264.698 326.269 264.365 326.614 263.939 326.614C263.514 326.614 263.158 326.27 263.145 325.844C263.131 325.419 263.465 325.074 263.891 325.074C264.316 325.074 264.671 325.419 264.685 325.844Z" stroke="#121D30" stroke-width="0.998706" stroke-miterlimit="10"/>
<path d="M274.371 333.434H242.822L243.647 330.617C243.918 329.699 244.323 328.845 244.841 328.074H274.457L274.371 333.434Z" fill="#DEDEDE"/>
<path d="M274.543 330.75H254.703" stroke="#121D30" stroke-width="0.998706" stroke-miterlimit="10"/>
<path d="M260.529 333.434H242.822L243.647 330.617C243.918 329.699 244.323 328.845 244.841 328.074C245.938 326.434 247.544 325.17 249.453 324.498L250.308 324.197C251.146 323.902 251.932 323.513 252.661 323.043C256.768 324.942 259.827 328.819 260.529 333.434Z" fill="#DEDEDE"/>
<path d="M257.025 317.633L256.62 316.063C256.335 314.958 257.143 313.906 258.276 313.906H259.856C261.104 313.906 262.286 314.54 262.994 315.59L264.375 317.633H257.025Z" fill="#0C7489"/>
<path d="M308.755 173.615L274.695 171.77L277.68 180.399L306.034 180.093L308.755 173.615Z" fill="#2E363D"/>
<path d="M277.68 180.397C277.68 180.397 266.013 191.184 265.322 210.422H317.495C317.495 192.341 306.034 180.09 306.034 180.09L277.68 180.397Z" fill="#2E363D"/>
<path d="M307.705 187.633H299.523C299.523 187.633 303.562 196.947 311.611 197.559" stroke="white" stroke-width="0.998706" stroke-miterlimit="10"/>
<path d="M272.098 187.633H276.608C276.608 187.633 274.884 196.451 267.562 197.559" stroke="white" stroke-width="0.998706" stroke-miterlimit="10"/>
<path d="M287.387 180.98L288.175 195.257C288.175 195.257 290.823 193.849 290.26 189.096" stroke="white" stroke-width="0.998706" stroke-miterlimit="10"/>
<path d="M296.915 181.875H304.344V178.924H296.915V181.875Z" fill="#121D30"/>
<path d="M278.86 181.875H281.445V178.924H278.86V181.875Z" fill="#121D30"/>
<path d="M283.148 181.875H294.85V178.924H283.148V181.875Z" fill="#121D30"/>
<path d="M285.339 182.469H290.346V178.33H285.339V182.469Z" fill="white"/>
<path d="M319.917 322.125L307.566 322.68L301.25 281.227L313.6 280.672L319.917 322.125Z" fill="#FFAC9D"/>
<path d="M320.628 322.09L306.736 322.715L304.338 303.828L318.206 304.662L320.628 322.09Z" fill="#DEDEDE"/>
<path d="M323.334 333.436H291.785L292.062 330.619C292.156 329.701 292.395 328.847 292.762 328.076C293.54 326.436 294.9 325.173 296.679 324.5L297.475 324.199C298.256 323.904 298.966 323.516 299.604 323.045C300.152 322.64 300.645 322.181 301.069 321.661C301.998 320.546 302.636 319.179 302.916 317.637H320.643L322.379 328.076L323.334 333.436Z" fill="#0C7489"/>
<path d="M308.492 319.422H302.26" stroke="#121D30" stroke-width="0.998706" stroke-miterlimit="10"/>
<path d="M307.306 321.59H301.074" stroke="#121D30" stroke-width="0.998706" stroke-miterlimit="10"/>
<path d="M315.938 325.844C316.034 326.269 315.767 326.614 315.343 326.614C314.918 326.614 314.495 326.27 314.399 325.844C314.302 325.419 314.57 325.074 314.995 325.074C315.42 325.074 315.842 325.419 315.938 325.844Z" stroke="#121D30" stroke-width="0.998706" stroke-miterlimit="10"/>
<path d="M312.175 325.844C312.271 326.269 312.004 326.614 311.579 326.614C311.154 326.614 310.731 326.27 310.635 325.844C310.538 325.419 310.806 325.074 311.231 325.074C311.656 325.074 312.079 325.419 312.175 325.844Z" stroke="#121D30" stroke-width="0.998706" stroke-miterlimit="10"/>
<path d="M323.334 333.438H291.785L292.062 330.621C292.156 329.703 292.395 328.849 292.762 328.078H322.379L323.334 333.438Z" fill="#DEDEDE"/>
<path d="M302.912 330.754H322.752" stroke="#121D30" stroke-width="0.998706" stroke-miterlimit="10"/>
<path d="M309.492 333.438H291.785L292.062 330.621C292.156 329.703 292.395 328.849 292.762 328.078C293.54 326.438 294.9 325.174 296.679 324.502L297.475 324.201C298.256 323.906 298.966 323.517 299.604 323.047C304.08 324.946 307.891 328.823 309.492 333.438Z" fill="#DEDEDE"/>
<path d="M302.917 317.637L302.207 316.067C301.707 314.962 302.309 313.91 303.443 313.91H305.023C306.27 313.91 307.577 314.544 308.489 315.594L310.267 317.637H302.917Z" fill="#0C7489"/>
<path d="M290.246 209.496L282.811 299.905H256.98L265.394 209.864L290.246 209.496Z" fill="#2E363D"/>
<path d="M313.405 250.926L322.499 299.902H296.669L288.553 251.294L313.405 250.926Z" fill="#2E363D"/>
<path d="M313.405 250.934C313.405 250.934 317.492 224.089 317.473 210.289H291.642L288.553 251.302L313.405 250.934Z" fill="#2E363D"/>
<path d="M277.378 144.324C268.624 157.28 269.077 163.486 279.827 168.232L277.378 144.324Z" fill="#969696"/>
<path d="M271.248 155.133L276.075 146.312L273.856 141.492" stroke="#121D30" stroke-width="0.998706" stroke-miterlimit="10"/>
<path d="M234.505 171.453L240.975 181.603C234.909 184.073 230.767 186.075 230.767 186.075C227.714 185.08 225.432 182.77 223.938 180.763L230.812 176.846C227.554 177.315 224.545 178.747 223.089 179.535C222.241 178.22 221.816 177.247 221.816 177.247C228.706 173.298 234.505 171.453 234.505 171.453Z" fill="#FFAC9D"/>
<path d="M225.385 182.502C230.811 180.038 233.372 178.816 233.372 178.816" stroke="#121D30" stroke-width="0.998706" stroke-miterlimit="10"/>
<path d="M227.889 184.484L234.934 181.008" stroke="#121D30" stroke-width="0.998706" stroke-miterlimit="10"/>
<path d="M247.736 198.685C245.426 200.995 241.681 200.995 239.37 198.685L222.125 181.44L230.491 173.074L247.736 190.319C250.045 192.63 250.045 196.375 247.736 198.685Z" fill="#969696"/>
<path d="M224.295 183.707L236.811 196.129" stroke="#121D30" stroke-width="0.998706" stroke-miterlimit="10"/>
<path opacity="0.11" d="M203.062 164.784C203.873 165.596 203.873 166.913 203.062 167.725C202.249 168.537 200.933 168.537 200.121 167.725C199.309 166.913 199.309 165.597 200.121 164.784C200.933 163.973 202.25 163.973 203.062 164.784Z" fill="white"/>
<path d="M230.964 174.831L223.885 181.909C222.979 182.816 221.495 182.816 220.589 181.909L216.184 177.505C215.277 176.598 215.277 175.114 216.184 174.208L223.263 167.129C224.169 166.223 225.653 166.223 226.559 167.129L230.964 171.534C231.871 172.44 231.871 173.924 230.964 174.831Z" fill="#5C5C5C"/>
<path d="M223.264 167.129C224.17 166.223 225.654 166.223 226.56 167.129L230.965 171.534C231.872 172.44 231.872 173.924 230.965 174.831L223.886 181.909" stroke="#121D30" stroke-width="0.998706" stroke-miterlimit="10"/>
<path d="M184.883 135.047C174.74 144.757 174.387 160.909 184.097 171.053C193.808 181.196 209.96 181.548 220.103 171.838C230.247 162.128 230.599 145.975 220.889 135.832C211.179 125.689 195.026 125.337 184.883 135.047ZM216.176 140.344C223.399 147.889 223.136 159.902 215.592 167.125C208.047 174.348 196.034 174.086 188.811 166.541C181.588 158.997 181.85 146.983 189.394 139.76C196.939 132.538 208.953 132.8 216.176 140.344Z" fill="#969696" stroke="#1D1615" stroke-width="0.998706" stroke-miterlimit="10"/>
<path opacity="0.19" d="M202.228 173.426C213.41 173.426 222.475 164.361 222.475 153.18C222.475 141.998 213.41 132.934 202.228 132.934C191.047 132.934 181.982 141.998 181.982 153.18C181.982 164.361 191.047 173.426 202.228 173.426Z" fill="white"/>
<path opacity="0.11" d="M194.485 164.173C198.761 164.173 202.228 160.707 202.228 156.43C202.228 152.154 198.761 148.688 194.485 148.688C190.209 148.688 186.742 152.154 186.742 156.43C186.742 160.707 190.209 164.173 194.485 164.173Z" fill="white"/>
<path opacity="0.11" d="M211.537 143.872C213.209 145.544 214.334 147.555 214.918 149.683L218.604 147.67C217.781 145.219 216.398 142.915 214.446 140.963C207.699 134.216 196.761 134.216 190.014 140.963L192.923 143.872C198.064 138.732 206.398 138.732 211.537 143.872Z" fill="white"/>
<path d="M185.145 136.097C175.71 145.532 175.71 160.83 185.145 170.266C194.58 179.701 209.879 179.701 219.314 170.266C228.749 160.83 228.749 145.533 219.314 136.097C209.879 126.661 194.581 126.661 185.145 136.097ZM216.546 167.497C208.639 175.404 195.82 175.404 187.913 167.497C180.007 159.59 180.007 146.772 187.913 138.865C195.819 130.958 208.639 130.958 216.546 138.865C224.453 146.771 224.453 159.59 216.546 167.497Z" fill="#5C5C5C"/>
<g opacity="0.11">
<path d="M214.983 156.438C214.419 158.655 213.272 160.755 211.537 162.49L214.446 165.399C216.988 162.858 218.571 159.721 219.197 156.438H214.983Z" fill="white"/>
</g>
<path d="M244.688 170.664L227.089 168.992C226.9 170.974 228.354 172.734 230.336 172.922L232.787 173.155L235.377 176.191C239.726 187.848 247.918 178.388 247.918 178.388L244.688 170.664Z" fill="#FFAC9D"/>
<path d="M242.865 179.343C236.162 180.758 234.952 173.71 234.952 173.71L230.338 172.922" stroke="#121D30" stroke-width="0.998706" stroke-miterlimit="10"/>
<path d="M278.854 299.91L287.837 207.512H292.365" stroke="white" stroke-width="0.998706" stroke-miterlimit="10"/>
<path d="M304.338 181.879C304.338 181.879 315.274 197.153 313.017 213.878C310.761 230.603 308.75 250.932 308.75 250.932L318.872 299.908" stroke="white" stroke-width="0.998706" stroke-miterlimit="10"/>
<path d="M318.693 308.182L304.822 307.652" stroke="#121D30" stroke-width="0.998706" stroke-miterlimit="10"/>
<path d="M275.385 307.916L261.26 306.766" stroke="#121D30" stroke-width="0.998706" stroke-miterlimit="10"/>
<path d="M276.074 159.785C277.337 162.923 280.904 164.444 284.042 163.181L313.396 151.785C316.534 150.522 318.055 146.955 316.792 143.817C315.53 140.679 311.962 139.158 308.824 140.421L280.6 151.634C278.333 152.569 276.544 154.476 275.965 156.859C275.731 157.825 275.696 158.843 276.074 159.785Z" fill="#FFAC9D"/>
<path d="M311.871 154.719L298.882 159.099L295.715 142.818L308.591 137.124C314.003 134.732 320.091 138.677 320.117 144.593C320.123 145.734 319.912 146.873 319.436 147.91C317.974 151.098 315.251 153.58 311.871 154.719Z" fill="#969696"/>
<path d="M303.589 160.181L299.68 148.965L297.455 140.629L291.076 144.225L297.792 161.901L303.589 160.181Z" fill="white"/>
<path d="M283.752 130.413C288.454 127.041 294.402 126.336 294.402 126.336L291.084 116.199C281.251 118.855 278.742 123.606 277.738 126.551L283.752 130.413Z" fill="#FFAC9D"/>
<path d="M294.399 126.336C294.399 126.336 298.997 123.595 300.608 119.325L297.449 113.783C297.449 113.783 294.697 117.568 291.82 118.457C291.82 118.457 295.261 114.815 295.592 112.019L293.699 111.707C293.699 111.707 291.352 115.726 287.236 117.899L294.399 126.336Z" fill="#FFAC9D"/>
<path d="M299.773 117.938C299.773 117.938 297.016 121.708 294.365 123.742" stroke="#121D30" stroke-width="0.998706" stroke-miterlimit="10"/>
<path d="M298.572 115.75C298.572 115.75 296.326 119.322 292.857 121.465" stroke="#121D30" stroke-width="0.998706" stroke-miterlimit="10"/>
<path d="M288.053 153.158L283.667 127.129L277.987 125.898C273.837 137.02 272.235 148.708 276.011 159.614L288.053 153.158Z" fill="#FFAC9D"/>
<path d="M287.484 148.898L288.572 157.027" stroke="#121D30" stroke-width="0.998706" stroke-miterlimit="10"/>
<path d="M348.44 58.785C346.97 58.4522 345.568 57.7784 344.384 56.8359L344.766 56.3563C345.878 57.2417 347.195 57.8748 348.575 58.1865L348.44 58.785ZM352.938 58.7812L352.802 58.1835C354.182 57.868 355.498 57.2326 356.607 56.345L356.99 56.8238C355.808 57.7694 354.408 58.4462 352.938 58.7812ZM341.572 53.3254C340.906 51.9522 340.567 50.4774 340.564 48.9409L341.177 48.9394C341.18 50.3826 341.499 51.7685 342.124 53.0574L341.572 53.3254ZM359.794 53.3073L359.242 53.0408C359.865 51.7505 360.18 50.3637 360.18 48.9198L360.619 48.8912L360.793 48.9063C360.793 50.4571 360.457 51.9327 359.794 53.3073ZM342.106 44.8161L341.553 44.5511C342.205 43.1922 343.172 41.9734 344.351 41.0278L344.734 41.5059C343.628 42.395 342.718 43.5393 342.106 44.8161ZM359.227 44.7641C358.607 43.4919 357.691 42.3528 356.577 41.4705L356.958 40.9902C358.143 41.929 359.118 43.1418 359.777 44.4961L359.227 44.7641ZM348.538 39.6599L348.4 39.0622C349.142 38.8913 349.908 38.8047 350.675 38.8047C350.677 38.8047 350.678 38.8047 350.678 38.8047C351.428 38.8047 352.175 38.8867 352.899 39.0486L352.765 39.6464C352.085 39.4943 351.383 39.4175 350.68 39.4175C350.68 39.4175 350.677 39.4175 350.676 39.4175C349.954 39.4183 349.235 39.4996 348.538 39.6599Z" fill="#2E363D"/>
<path d="M45.0427 86.0878C45.0412 86.0878 45.0397 86.0878 45.0382 86.0878L44.8598 86.087L44.8658 85.4742L45.0382 85.475C45.0397 85.475 45.0419 85.475 45.0419 85.475C46.3948 85.475 47.7446 85.3297 49.0553 85.0429L49.1863 85.6414C47.8335 85.9372 46.4392 86.0878 45.0427 86.0878ZM40.543 85.5616C39.1299 85.2243 37.7537 84.7252 36.4521 84.0785L36.7253 83.5297C37.9856 84.156 39.3181 84.6393 40.6853 84.9653L40.543 85.5616ZM53.3028 84.2343L53.0401 83.6802C54.3079 83.0795 55.5109 82.3319 56.6168 81.4586L56.997 81.9397C55.8549 82.8416 54.612 83.6132 53.3028 84.2343ZM32.8001 81.7146C31.6768 80.7931 30.6567 79.7444 29.7676 78.5963L30.2517 78.2214C31.1129 79.3326 32.1014 80.3489 33.1885 81.2403L32.8001 81.7146ZM60.0866 78.8786L59.6093 78.4947C60.4932 77.397 61.252 76.2008 61.8656 74.9375L62.4167 75.2048C61.7828 76.5094 60.9991 77.7456 60.0866 78.8786ZM27.5069 74.8818C26.8963 73.5636 26.4363 72.1739 26.139 70.7525L26.739 70.6268C27.0265 72.003 27.4722 73.3475 28.0632 74.6243L27.5069 74.8818ZM63.8621 71.0996L63.2644 70.9633C63.576 69.5992 63.7349 68.1913 63.7349 66.7783H64.3477C64.3477 68.2373 64.1843 69.691 63.8621 71.0996ZM26.3452 66.4335L25.7324 66.4229C25.7588 64.9654 25.9485 63.5147 26.297 62.1107L26.8918 62.2582C26.5545 63.6171 26.3708 65.0219 26.3452 66.4335ZM63.4059 63.2663C63.1432 61.8848 62.7231 60.532 62.1554 59.2446L62.7163 58.9977C63.302 60.3272 63.7364 61.7252 64.0082 63.1519L63.4059 63.2663ZM28.3643 58.3111L27.8178 58.0333C28.4758 56.7399 29.282 55.5188 30.2148 54.4024L30.6853 54.7954C29.7827 55.8764 29.0012 57.0591 28.3643 58.3111ZM60.0332 55.6092C59.1923 54.4822 58.2226 53.4485 57.1521 52.5368L57.5496 52.0701C58.6555 53.0111 59.6568 54.0794 60.5248 55.2433L60.0332 55.6092ZM33.7313 51.8871L33.3602 51.3993C34.5173 50.52 35.7738 49.7709 37.0957 49.1732L37.3487 49.7318C36.0689 50.31 34.8523 51.0349 33.7313 51.8871ZM53.6582 50.1827C52.4092 49.533 51.0857 49.0256 49.7253 48.674L49.8789 48.0808C51.2845 48.4437 52.6516 48.9676 53.9412 49.6392L53.6582 50.1827ZM41.3583 48.4437L41.2379 47.8429C42.48 47.5945 43.7568 47.4688 45.0344 47.4688C45.2181 47.4688 45.3935 47.471 45.5719 47.4755L45.5554 48.0883C45.3822 48.0831 45.1985 48.0703 45.0344 48.0808C43.7967 48.0816 42.5598 48.2035 41.3583 48.4437Z" fill="#2E363D"/>
<path d="M63.124 83.33C66.34 83.33 68.9472 80.7229 68.9472 77.5068C68.9472 74.2907 66.34 71.6836 63.124 71.6836C59.9079 71.6836 57.3008 74.2907 57.3008 77.5068C57.3008 80.7229 59.9079 83.33 63.124 83.33Z" fill="#2E363D"/>
<path d="M349.147 208.885C349.147 211.255 347.226 213.176 344.856 213.176C342.486 213.176 340.564 211.255 340.564 208.885C340.564 206.515 342.486 204.594 344.856 204.594C347.226 204.594 349.147 206.515 349.147 208.885Z" fill="#2E363D"/>
<path d="M346.694 41.5375C346.694 43.2306 345.322 44.6023 343.629 44.6023C341.937 44.6023 340.564 43.2298 340.564 41.5375C340.564 39.8451 341.937 38.4727 343.629 38.4727C345.322 38.4727 346.694 39.8451 346.694 41.5375Z" fill="#2E363D"/>
<path d="M140.387 32.6327C142.926 32.6327 144.984 30.5742 144.984 28.0351C144.984 25.4959 142.926 23.4375 140.387 23.4375C137.847 23.4375 135.789 25.4959 135.789 28.0351C135.789 30.5742 137.847 32.6327 140.387 32.6327Z" fill="#2E363D"/>
<path d="M148.662 42.125C148.298 42.125 147.932 42.1016 147.575 42.0542L147.655 41.4467C149.017 41.6258 150.427 41.4346 151.692 40.8896L151.934 41.4519C150.9 41.8991 149.799 42.125 148.662 42.125ZM143.523 40.337C142.351 39.4065 141.452 38.1786 140.923 36.7858L141.496 36.5683C141.986 37.8579 142.819 38.9947 143.905 39.8559L143.523 40.337ZM155.368 38.6996L154.872 38.3397C155.684 37.2195 156.176 35.899 156.296 34.5221L156.906 34.5755C156.777 36.0631 156.245 37.489 155.368 38.6996ZM141 33.8498H140.387C140.387 32.3524 140.791 30.8851 141.556 29.6068L142.082 29.9215C141.374 31.1049 141 32.4631 141 33.8498ZM155.562 30.514C154.959 29.2703 154.03 28.211 152.875 27.4484L153.212 26.9365C154.46 27.7593 155.462 28.9044 156.113 30.246L155.562 30.514ZM145.026 27.1029L144.735 26.5638C146.04 25.8592 147.553 25.5166 149.026 25.5821L148.998 26.1942C147.637 26.1362 146.234 26.4509 145.026 27.1029Z" fill="#2E363D"/>
<path d="M354.265 225.308C352.782 225.197 351.364 224.787 350.052 224.091L350.339 223.55C351.576 224.205 352.913 224.592 354.311 224.696L354.265 225.308ZM358.613 224.741L358.411 224.163C359.73 223.702 360.921 222.984 361.952 222.028L362.368 222.477C361.276 223.49 360.013 224.252 358.613 224.741ZM346.679 221.288C345.752 220.123 345.088 218.805 344.707 217.37L345.299 217.214C345.658 218.565 346.284 219.807 347.159 220.906L346.679 221.288ZM364.909 218.902L364.347 218.657C364.907 217.379 365.19 216.018 365.19 214.61H365.803C365.803 216.103 365.502 217.547 364.909 218.902ZM365.13 213.508C364.979 212.115 364.548 210.793 363.851 209.578L364.382 209.273C365.123 210.562 365.579 211.964 365.739 213.442L365.13 213.508ZM345.075 213.086L344.469 212.994C344.69 211.525 345.207 210.143 346.002 208.884L346.52 209.213C345.77 210.398 345.284 211.701 345.075 213.086ZM361.103 206.487C359.976 205.649 358.714 205.065 357.351 204.753L357.488 204.155C358.934 204.487 360.274 205.107 361.469 205.995L361.103 206.487ZM349.395 206.24L349.051 205.733C350.282 204.896 351.646 204.334 353.105 204.062L353.217 204.665C351.842 204.921 350.555 205.451 349.395 206.24Z" fill="#2E363D"/>
<path d="M107.763 388.398H104.781L98.0268 378.193V388.398H95.044V373.506H98.0268L104.781 383.732V373.506H107.763V388.398ZM115.952 388.59C114.816 388.59 113.793 388.342 112.884 387.844C111.975 387.333 111.258 386.616 110.732 385.693C110.221 384.769 109.965 383.704 109.965 382.497C109.965 381.289 110.228 380.224 110.754 379.301C111.294 378.378 112.025 377.667 112.948 377.17C113.872 376.659 114.901 376.403 116.038 376.403C117.174 376.403 118.204 376.659 119.127 377.17C120.05 377.667 120.775 378.378 121.3 379.301C121.84 380.224 122.11 381.289 122.11 382.497C122.11 383.704 121.833 384.769 121.279 385.693C120.739 386.616 120 387.333 119.063 387.844C118.14 388.342 117.103 388.59 115.952 388.59ZM115.952 385.991C116.492 385.991 116.996 385.863 117.465 385.607C117.948 385.338 118.332 384.94 118.616 384.414C118.9 383.889 119.042 383.25 119.042 382.497C119.042 381.375 118.743 380.515 118.147 379.919C117.565 379.308 116.847 379.003 115.995 379.003C115.143 379.003 114.425 379.308 113.843 379.919C113.275 380.515 112.991 381.375 112.991 382.497C112.991 383.619 113.268 384.485 113.822 385.096C114.39 385.693 115.1 385.991 115.952 385.991ZM135.915 376.425C137.322 376.425 138.458 376.872 139.324 377.767C140.191 378.648 140.624 379.883 140.624 381.474V388.398H137.641V381.879C137.641 380.941 137.407 380.224 136.938 379.727C136.469 379.216 135.83 378.96 135.02 378.96C134.197 378.96 133.543 379.216 133.06 379.727C132.592 380.224 132.357 380.941 132.357 381.879V388.398H129.374V376.595H132.357V378.065C132.755 377.554 133.259 377.156 133.87 376.872C134.495 376.574 135.177 376.425 135.915 376.425ZM148.702 388.59C147.565 388.59 146.543 388.342 145.634 387.844C144.725 387.333 144.007 386.616 143.482 385.693C142.97 384.769 142.715 383.704 142.715 382.497C142.715 381.289 142.977 380.224 143.503 379.301C144.043 378.378 144.774 377.667 145.697 377.17C146.621 376.659 147.651 376.403 148.787 376.403C149.923 376.403 150.953 376.659 151.876 377.17C152.799 377.667 153.524 378.378 154.049 379.301C154.589 380.224 154.859 381.289 154.859 382.497C154.859 383.704 154.582 384.769 154.028 385.693C153.488 386.616 152.75 387.333 151.812 387.844C150.889 388.342 149.852 388.59 148.702 388.59ZM148.702 385.991C149.241 385.991 149.746 385.863 150.214 385.607C150.697 385.338 151.081 384.94 151.365 384.414C151.649 383.889 151.791 383.25 151.791 382.497C151.791 381.375 151.493 380.515 150.896 379.919C150.314 379.308 149.596 379.003 148.744 379.003C147.892 379.003 147.175 379.308 146.592 379.919C146.024 380.515 145.74 381.375 145.74 382.497C145.74 383.619 146.017 384.485 146.571 385.096C147.139 385.693 147.849 385.991 148.702 385.991ZM160.52 379.045V384.755C160.52 385.153 160.612 385.444 160.797 385.629C160.996 385.799 161.322 385.884 161.777 385.884H163.162V388.398H161.287C158.773 388.398 157.516 387.177 157.516 384.734V379.045H156.11V376.595H157.516V373.676H160.52V376.595H163.162V379.045H160.52ZM166.82 375.189C166.294 375.189 165.854 375.026 165.499 374.699C165.158 374.358 164.987 373.939 164.987 373.442C164.987 372.945 165.158 372.533 165.499 372.206C165.854 371.865 166.294 371.695 166.82 371.695C167.345 371.695 167.779 371.865 168.119 372.206C168.475 372.533 168.652 372.945 168.652 373.442C168.652 373.939 168.475 374.358 168.119 374.699C167.779 375.026 167.345 375.189 166.82 375.189ZM168.29 376.595V388.398H165.307V376.595H168.29ZM176.649 379.045H174.582V388.398H171.556V379.045H170.214V376.595H171.556V375.999C171.556 374.55 171.968 373.484 172.792 372.803C173.616 372.121 174.859 371.801 176.521 371.844V374.358C175.796 374.344 175.292 374.464 175.008 374.72C174.724 374.976 174.582 375.437 174.582 376.105V376.595H176.649V379.045ZM180.094 375.189C179.569 375.189 179.128 375.026 178.773 374.699C178.432 374.358 178.262 373.939 178.262 373.442C178.262 372.945 178.432 372.533 178.773 372.206C179.128 371.865 179.569 371.695 180.094 371.695C180.62 371.695 181.053 371.865 181.394 372.206C181.749 372.533 181.927 372.945 181.927 373.442C181.927 373.939 181.749 374.358 181.394 374.699C181.053 375.026 180.62 375.189 180.094 375.189ZM181.564 376.595V388.398H178.582V376.595H181.564ZM183.744 382.497C183.744 381.275 183.993 380.21 184.49 379.301C184.987 378.378 185.676 377.667 186.557 377.17C187.437 376.659 188.446 376.403 189.582 376.403C191.045 376.403 192.252 376.773 193.204 377.511C194.17 378.236 194.816 379.258 195.143 380.579H191.926C191.755 380.068 191.464 379.67 191.052 379.386C190.655 379.088 190.157 378.939 189.561 378.939C188.709 378.939 188.034 379.251 187.537 379.876C187.04 380.487 186.791 381.36 186.791 382.497C186.791 383.619 187.04 384.492 187.537 385.117C188.034 385.728 188.709 386.034 189.561 386.034C190.768 386.034 191.556 385.494 191.926 384.414H195.143C194.816 385.693 194.17 386.708 193.204 387.461C192.238 388.214 191.031 388.59 189.582 388.59C188.446 388.59 187.437 388.342 186.557 387.844C185.676 387.333 184.987 386.623 184.49 385.714C183.993 384.791 183.744 383.718 183.744 382.497ZM196.561 382.454C196.561 381.261 196.795 380.203 197.264 379.28C197.747 378.356 198.393 377.646 199.203 377.149C200.027 376.652 200.943 376.403 201.951 376.403C202.832 376.403 203.599 376.581 204.252 376.936C204.92 377.291 205.453 377.738 205.85 378.278V376.595H208.854V388.398H205.85V386.673C205.467 387.227 204.934 387.688 204.252 388.058C203.585 388.413 202.811 388.59 201.93 388.59C200.936 388.59 200.027 388.335 199.203 387.823C198.393 387.312 197.747 386.595 197.264 385.671C196.795 384.734 196.561 383.661 196.561 382.454ZM205.85 382.497C205.85 381.772 205.708 381.154 205.424 380.643C205.14 380.118 204.757 379.72 204.274 379.45C203.791 379.166 203.272 379.024 202.718 379.024C202.164 379.024 201.653 379.159 201.184 379.429C200.716 379.699 200.332 380.096 200.034 380.622C199.75 381.133 199.608 381.744 199.608 382.454C199.608 383.164 199.75 383.789 200.034 384.329C200.332 384.855 200.716 385.259 201.184 385.543C201.667 385.828 202.179 385.97 202.718 385.97C203.272 385.97 203.791 385.835 204.274 385.565C204.757 385.281 205.14 384.883 205.424 384.372C205.708 383.846 205.85 383.221 205.85 382.497ZM215.241 379.045V384.755C215.241 385.153 215.333 385.444 215.518 385.629C215.716 385.799 216.043 385.884 216.498 385.884H217.882V388.398H216.008C213.493 388.398 212.236 387.177 212.236 384.734V379.045H210.83V376.595H212.236V373.676H215.241V376.595H217.882V379.045H215.241ZM221.541 375.189C221.015 375.189 220.575 375.026 220.22 374.699C219.879 374.358 219.708 373.939 219.708 373.442C219.708 372.945 219.879 372.533 220.22 372.206C220.575 371.865 221.015 371.695 221.541 371.695C222.066 371.695 222.499 371.865 222.84 372.206C223.195 372.533 223.373 372.945 223.373 373.442C223.373 373.939 223.195 374.358 222.84 374.699C222.499 375.026 222.066 375.189 221.541 375.189ZM223.011 376.595V388.398H220.028V376.595H223.011ZM231.199 388.59C230.063 388.59 229.04 388.342 228.131 387.844C227.222 387.333 226.504 386.616 225.979 385.693C225.468 384.769 225.212 383.704 225.212 382.497C225.212 381.289 225.475 380.224 226 379.301C226.54 378.378 227.271 377.667 228.195 377.17C229.118 376.659 230.148 376.403 231.284 376.403C232.42 376.403 233.45 376.659 234.373 377.17C235.297 377.667 236.021 378.378 236.547 379.301C237.086 380.224 237.356 381.289 237.356 382.497C237.356 383.704 237.079 384.769 236.525 385.693C235.986 386.616 235.247 387.333 234.309 387.844C233.386 388.342 232.349 388.59 231.199 388.59ZM231.199 385.991C231.739 385.991 232.243 385.863 232.712 385.607C233.194 385.338 233.578 384.94 233.862 384.414C234.146 383.889 234.288 383.25 234.288 382.497C234.288 381.375 233.99 380.515 233.393 379.919C232.811 379.308 232.094 379.003 231.241 379.003C230.389 379.003 229.672 379.308 229.09 379.919C228.521 380.515 228.237 381.375 228.237 382.497C228.237 383.619 228.514 384.485 229.068 385.096C229.636 385.693 230.347 385.991 231.199 385.991ZM246.085 376.425C247.491 376.425 248.628 376.872 249.494 377.767C250.36 378.648 250.794 379.883 250.794 381.474V388.398H247.811V381.879C247.811 380.941 247.576 380.224 247.108 379.727C246.639 379.216 246 378.96 245.19 378.96C244.366 378.96 243.713 379.216 243.23 379.727C242.761 380.224 242.527 380.941 242.527 381.879V388.398H239.544V376.595H242.527V378.065C242.925 377.554 243.429 377.156 244.04 376.872C244.665 376.574 245.346 376.425 246.085 376.425ZM258.147 388.59C257.181 388.59 256.315 388.42 255.548 388.079C254.781 387.724 254.17 387.248 253.715 386.651C253.275 386.055 253.034 385.394 252.991 384.67H255.995C256.052 385.124 256.272 385.501 256.656 385.799C257.053 386.097 257.543 386.247 258.126 386.247C258.694 386.247 259.134 386.133 259.447 385.906C259.773 385.678 259.937 385.387 259.937 385.032C259.937 384.649 259.738 384.365 259.34 384.18C258.957 383.981 258.339 383.768 257.486 383.541C256.606 383.328 255.881 383.108 255.313 382.88C254.759 382.653 254.276 382.305 253.864 381.836C253.467 381.368 253.268 380.735 253.268 379.94C253.268 379.287 253.453 378.69 253.822 378.15C254.205 377.611 254.745 377.185 255.441 376.872C256.151 376.56 256.982 376.403 257.934 376.403C259.34 376.403 260.462 376.758 261.3 377.469C262.138 378.165 262.6 379.109 262.685 380.302H259.83C259.787 379.834 259.589 379.464 259.234 379.194C258.893 378.91 258.431 378.768 257.849 378.768C257.309 378.768 256.89 378.868 256.592 379.067C256.308 379.265 256.165 379.542 256.165 379.897C256.165 380.295 256.364 380.601 256.762 380.814C257.16 381.012 257.778 381.218 258.616 381.431C259.468 381.645 260.171 381.865 260.725 382.092C261.279 382.319 261.755 382.674 262.152 383.157C262.564 383.626 262.777 384.251 262.792 385.032C262.792 385.714 262.6 386.325 262.216 386.864C261.847 387.404 261.307 387.83 260.597 388.143C259.901 388.441 259.084 388.59 258.147 388.59ZM281.609 376.595L274.301 393.981H271.126L273.683 388.1L268.953 376.595H272.298L275.345 384.84L278.434 376.595H281.609ZM294.189 382.241C294.189 382.667 294.161 383.051 294.104 383.392H285.475C285.546 384.244 285.844 384.911 286.37 385.394C286.896 385.877 287.542 386.119 288.309 386.119C289.417 386.119 290.205 385.643 290.674 384.691H293.891C293.55 385.828 292.897 386.765 291.931 387.504C290.965 388.228 289.779 388.59 288.373 388.59C287.236 388.59 286.214 388.342 285.305 387.844C284.41 387.333 283.707 386.616 283.195 385.693C282.698 384.769 282.45 383.704 282.45 382.497C282.45 381.275 282.698 380.203 283.195 379.28C283.693 378.356 284.389 377.646 285.283 377.149C286.178 376.652 287.208 376.403 288.373 376.403C289.495 376.403 290.496 376.645 291.377 377.128C292.272 377.611 292.961 378.3 293.444 379.194C293.941 380.075 294.189 381.091 294.189 382.241ZM291.1 381.389C291.086 380.622 290.809 380.011 290.269 379.557C289.729 379.088 289.069 378.853 288.288 378.853C287.549 378.853 286.924 379.081 286.413 379.535C285.915 379.976 285.61 380.593 285.496 381.389H291.1ZM299.839 379.045V384.755C299.839 385.153 299.932 385.444 300.116 385.629C300.315 385.799 300.642 385.884 301.096 385.884H302.481V388.398H300.606C298.092 388.398 296.835 387.177 296.835 384.734V379.045H295.429V376.595H296.835V373.676H299.839V376.595H302.481V379.045H299.839Z" fill="#1E1E1E"/>
<path d="M30.7375 418.684L26.5616 426.644V431.715H25.2566V426.644L21.0434 418.684H22.5161L25.9091 425.451L29.2834 418.684H30.7375ZM37.103 431.864C36.146 431.864 35.2823 431.653 34.5117 431.23C33.7536 430.795 33.1508 430.186 32.7034 429.403C32.2684 428.608 32.0509 427.682 32.0509 426.625C32.0509 425.569 32.2746 424.649 32.722 423.866C33.1695 423.071 33.7784 422.462 34.549 422.039C35.3196 421.604 36.1833 421.387 37.1403 421.387C38.0973 421.387 38.9611 421.604 39.7316 422.039C40.5146 422.462 41.1236 423.071 41.5586 423.866C42.006 424.649 42.2297 425.569 42.2297 426.625C42.2297 427.669 42.006 428.589 41.5586 429.385C41.1112 430.18 40.496 430.795 39.713 431.23C38.93 431.653 38.06 431.864 37.103 431.864ZM37.103 430.727C37.7742 430.727 38.3956 430.578 38.9673 430.279C39.539 429.969 39.9988 429.509 40.3468 428.9C40.7072 428.278 40.8875 427.52 40.8875 426.625C40.8875 425.731 40.7135 424.979 40.3655 424.37C40.0175 423.748 39.5576 423.288 38.9859 422.99C38.4142 422.679 37.7928 422.524 37.1217 422.524C36.4505 422.524 35.8291 422.679 35.2574 422.99C34.6857 423.288 34.2259 423.748 33.8779 424.37C33.5423 424.979 33.3745 425.731 33.3745 426.625C33.3745 427.52 33.5423 428.278 33.8779 428.9C34.2259 429.509 34.6795 429.969 35.2388 430.279C35.8105 430.578 36.4319 430.727 37.103 430.727ZM53.4264 421.536V431.715H52.1215V429.925C51.8232 430.559 51.3633 431.044 50.7419 431.379C50.1205 431.715 49.4245 431.883 48.6539 431.883C47.436 431.883 46.4417 431.51 45.6711 430.764C44.9006 430.006 44.5153 428.912 44.5153 427.483V421.536H45.8016V427.334C45.8016 428.44 46.0751 429.285 46.6219 429.869C47.1812 430.453 47.9393 430.745 48.8963 430.745C49.8781 430.745 50.6611 430.435 51.2453 429.813C51.8294 429.192 52.1215 428.278 52.1215 427.073V421.536H53.4264ZM57.7107 423.344C57.9966 422.711 58.4316 422.22 59.0157 421.872C59.6122 421.524 60.3393 421.35 61.1969 421.35V422.711H60.8427C59.8981 422.711 59.14 422.965 58.5683 423.475C57.9966 423.984 57.7107 424.836 57.7107 426.029V431.715H56.4057V421.536H57.7107V423.344ZM73.0483 421.35C74.2662 421.35 75.2605 421.729 76.0311 422.487C76.8016 423.233 77.1869 424.32 77.1869 425.749V431.715H75.9006V425.898C75.9006 424.792 75.6209 423.947 75.0616 423.363C74.5148 422.779 73.7629 422.487 72.8059 422.487C71.8241 422.487 71.0411 422.798 70.4569 423.419C69.8728 424.04 69.5807 424.954 69.5807 426.159V431.715H68.2758V421.536H69.5807V423.27C69.9039 422.648 70.3699 422.176 70.9789 421.853C71.5879 421.517 72.2777 421.35 73.0483 421.35ZM84.5285 431.864C83.5716 431.864 82.7078 431.653 81.9372 431.23C81.1791 430.795 80.5763 430.186 80.1289 429.403C79.6939 428.608 79.4764 427.682 79.4764 426.625C79.4764 425.569 79.7001 424.649 80.1476 423.866C80.595 423.071 81.204 422.462 81.9745 422.039C82.7451 421.604 83.6088 421.387 84.5658 421.387C85.5228 421.387 86.3866 421.604 87.1571 422.039C87.9401 422.462 88.5491 423.071 88.9841 423.866C89.4315 424.649 89.6552 425.569 89.6552 426.625C89.6552 427.669 89.4315 428.589 88.9841 429.385C88.5367 430.18 87.9215 430.795 87.1385 431.23C86.3555 431.653 85.4855 431.864 84.5285 431.864ZM84.5285 430.727C85.1997 430.727 85.8211 430.578 86.3928 430.279C86.9645 429.969 87.4243 429.509 87.7723 428.9C88.1328 428.278 88.313 427.52 88.313 426.625C88.313 425.731 88.139 424.979 87.791 424.37C87.443 423.748 86.9831 423.288 86.4114 422.99C85.8397 422.679 85.2183 422.524 84.5472 422.524C83.8761 422.524 83.2546 422.679 82.6829 422.99C82.1112 423.288 81.6514 423.748 81.3034 424.37C80.9678 424.979 80.8 425.731 80.8 426.625C80.8 427.52 80.9678 428.278 81.3034 428.9C81.6514 429.509 82.105 429.969 82.6643 430.279C83.236 430.578 83.8574 430.727 84.5285 430.727ZM93.7305 422.636V428.956C93.7305 429.577 93.8486 430.006 94.0847 430.242C94.3209 430.478 94.7372 430.596 95.3338 430.596H96.5269V431.715H95.1287C94.209 431.715 93.5254 431.504 93.078 431.081C92.6306 430.646 92.4069 429.938 92.4069 428.956V422.636H90.9901V421.536H92.4069V418.982H93.7305V421.536H96.5269V422.636H93.7305ZM99.3316 419.616C99.0706 419.616 98.8469 419.523 98.6604 419.336C98.474 419.15 98.3808 418.92 98.3808 418.646C98.3808 418.373 98.474 418.149 98.6604 417.975C98.8469 417.789 99.0706 417.696 99.3316 417.696C99.5926 417.696 99.8163 417.789 100.003 417.975C100.189 418.149 100.282 418.373 100.282 418.646C100.282 418.92 100.189 419.15 100.003 419.336C99.8163 419.523 99.5926 419.616 99.3316 419.616ZM99.9841 421.536V431.715H98.6791V421.536H99.9841ZM106.947 422.636H104.58V431.715H103.275V422.636H101.858V421.536H103.275V420.828C103.275 419.721 103.554 418.907 104.114 418.385C104.685 417.863 105.605 417.602 106.873 417.602V418.721C106.028 418.721 105.431 418.883 105.083 419.206C104.748 419.529 104.58 420.069 104.58 420.828V421.536H106.947V422.636ZM109.654 419.616C109.393 419.616 109.169 419.523 108.983 419.336C108.797 419.15 108.703 418.92 108.703 418.646C108.703 418.373 108.797 418.149 108.983 417.975C109.169 417.789 109.393 417.696 109.654 417.696C109.915 417.696 110.139 417.789 110.325 417.975C110.512 418.149 110.605 418.373 110.605 418.646C110.605 418.92 110.512 419.15 110.325 419.336C110.139 419.523 109.915 419.616 109.654 419.616ZM110.307 421.536V431.715H109.002V421.536H110.307ZM112.665 426.625C112.665 425.569 112.876 424.649 113.299 423.866C113.722 423.071 114.306 422.462 115.051 422.039C115.797 421.604 116.648 421.387 117.605 421.387C118.861 421.387 119.892 421.698 120.7 422.319C121.52 422.94 122.049 423.786 122.285 424.854H120.887C120.713 424.121 120.333 423.549 119.749 423.139C119.178 422.717 118.463 422.505 117.605 422.505C116.922 422.505 116.307 422.661 115.76 422.972C115.213 423.282 114.778 423.748 114.455 424.37C114.144 424.979 113.989 425.731 113.989 426.625C113.989 427.52 114.144 428.278 114.455 428.9C114.778 429.521 115.213 429.987 115.76 430.298C116.307 430.609 116.922 430.764 117.605 430.764C118.463 430.764 119.178 430.559 119.749 430.149C120.333 429.726 120.713 429.142 120.887 428.396H122.285C122.049 429.44 121.52 430.279 120.7 430.913C119.88 431.547 118.848 431.864 117.605 431.864C116.648 431.864 115.797 431.653 115.051 431.23C114.306 430.795 113.722 430.186 113.299 429.403C112.876 428.608 112.665 427.682 112.665 426.625ZM124.098 426.607C124.098 425.563 124.303 424.649 124.713 423.866C125.136 423.071 125.714 422.462 126.447 422.039C127.193 421.604 128.032 421.387 128.964 421.387C129.933 421.387 130.766 421.611 131.462 422.058C132.17 422.505 132.68 423.077 132.991 423.773V421.536H134.296V431.715H132.991V429.459C132.668 430.155 132.152 430.733 131.443 431.193C130.747 431.64 129.915 431.864 128.945 431.864C128.026 431.864 127.193 431.646 126.447 431.211C125.714 430.777 125.136 430.161 124.713 429.366C124.303 428.57 124.098 427.651 124.098 426.607ZM132.991 426.625C132.991 425.805 132.823 425.084 132.487 424.463C132.152 423.841 131.692 423.363 131.108 423.027C130.536 422.692 129.902 422.524 129.206 422.524C128.485 422.524 127.839 422.686 127.268 423.009C126.696 423.332 126.242 423.804 125.907 424.426C125.583 425.035 125.422 425.762 125.422 426.607C125.422 427.439 125.583 428.173 125.907 428.807C126.242 429.428 126.696 429.907 127.268 430.242C127.839 430.565 128.485 430.727 129.206 430.727C129.902 430.727 130.536 430.559 131.108 430.223C131.692 429.888 132.152 429.409 132.487 428.788C132.823 428.167 132.991 427.446 132.991 426.625ZM138.971 422.636V428.956C138.971 429.577 139.089 430.006 139.326 430.242C139.562 430.478 139.978 430.596 140.575 430.596H141.768V431.715H140.37C139.45 431.715 138.766 431.504 138.319 431.081C137.871 430.646 137.648 429.938 137.648 428.956V422.636H136.231V421.536H137.648V418.982H138.971V421.536H141.768V422.636H138.971ZM144.572 419.616C144.311 419.616 144.088 419.523 143.901 419.336C143.715 419.15 143.622 418.92 143.622 418.646C143.622 418.373 143.715 418.149 143.901 417.975C144.088 417.789 144.311 417.696 144.572 417.696C144.833 417.696 145.057 417.789 145.244 417.975C145.43 418.149 145.523 418.373 145.523 418.646C145.523 418.92 145.43 419.15 145.244 419.336C145.057 419.523 144.833 419.616 144.572 419.616ZM145.225 421.536V431.715H143.92V421.536H145.225ZM152.636 431.864C151.679 431.864 150.815 431.653 150.044 431.23C149.286 430.795 148.683 430.186 148.236 429.403C147.801 428.608 147.583 427.682 147.583 426.625C147.583 425.569 147.807 424.649 148.255 423.866C148.702 423.071 149.311 422.462 150.082 422.039C150.852 421.604 151.716 421.387 152.673 421.387C153.63 421.387 154.494 421.604 155.264 422.039C156.047 422.462 156.656 423.071 157.091 423.866C157.539 424.649 157.762 425.569 157.762 426.625C157.762 427.669 157.539 428.589 157.091 429.385C156.644 430.18 156.029 430.795 155.246 431.23C154.463 431.653 153.593 431.864 152.636 431.864ZM152.636 430.727C153.307 430.727 153.928 430.578 154.5 430.279C155.072 429.969 155.531 429.509 155.879 428.9C156.24 428.278 156.42 427.52 156.42 426.625C156.42 425.731 156.246 424.979 155.898 424.37C155.55 423.748 155.09 423.288 154.518 422.99C153.947 422.679 153.325 422.524 152.654 422.524C151.983 422.524 151.362 422.679 150.79 422.99C150.218 423.288 149.758 423.748 149.41 424.37C149.075 424.979 148.907 425.731 148.907 426.625C148.907 427.52 149.075 428.278 149.41 428.9C149.758 429.509 150.212 429.969 150.771 430.279C151.343 430.578 151.964 430.727 152.636 430.727ZM164.914 421.35C166.132 421.35 167.126 421.729 167.896 422.487C168.667 423.233 169.052 424.32 169.052 425.749V431.715H167.766V425.898C167.766 424.792 167.486 423.947 166.927 423.363C166.38 422.779 165.628 422.487 164.671 422.487C163.689 422.487 162.906 422.798 162.322 423.419C161.738 424.04 161.446 424.954 161.446 426.159V431.715H160.141V421.536H161.446V423.27C161.769 422.648 162.235 422.176 162.844 421.853C163.453 421.517 164.143 421.35 164.914 421.35ZM190.477 421.536L187.289 431.715H185.984L183.169 423.177L180.354 431.715H179.03L175.842 421.536H177.166L179.701 430.391L182.554 421.536H183.859L186.674 430.41L189.19 421.536H190.477ZM192.908 419.616C192.647 419.616 192.424 419.523 192.237 419.336C192.051 419.15 191.957 418.92 191.957 418.646C191.957 418.373 192.051 418.149 192.237 417.975C192.424 417.789 192.647 417.696 192.908 417.696C193.169 417.696 193.393 417.789 193.579 417.975C193.766 418.149 193.859 418.373 193.859 418.646C193.859 418.92 193.766 419.15 193.579 419.336C193.393 419.523 193.169 419.616 192.908 419.616ZM193.561 421.536V431.715H192.256V421.536H193.561ZM197.821 417.919V431.715H196.516V417.919H197.821ZM202.081 417.919V431.715H200.776V417.919H202.081ZM209.555 426.607C209.555 425.563 209.76 424.649 210.17 423.866C210.593 423.071 211.171 422.462 211.904 422.039C212.65 421.604 213.489 421.387 214.421 421.387C215.39 421.387 216.223 421.611 216.919 422.058C217.627 422.505 218.137 423.077 218.448 423.773V421.536H219.753V431.715H218.448V429.459C218.125 430.155 217.609 430.733 216.9 431.193C216.204 431.64 215.372 431.864 214.402 431.864C213.483 431.864 212.65 431.646 211.904 431.211C211.171 430.777 210.593 430.161 210.17 429.366C209.76 428.57 209.555 427.651 209.555 426.607ZM218.448 426.625C218.448 425.805 218.28 425.084 217.944 424.463C217.609 423.841 217.149 423.363 216.565 423.027C215.993 422.692 215.359 422.524 214.663 422.524C213.942 422.524 213.296 422.686 212.724 423.009C212.153 423.332 211.699 423.804 211.364 424.426C211.04 425.035 210.879 425.762 210.879 426.607C210.879 427.439 211.04 428.173 211.364 428.807C211.699 429.428 212.153 429.907 212.724 430.242C213.296 430.565 213.942 430.727 214.663 430.727C215.359 430.727 215.993 430.559 216.565 430.223C217.149 429.888 217.609 429.409 217.944 428.788C218.28 428.167 218.448 427.446 218.448 426.625ZM224.018 423.773C224.341 423.09 224.851 422.524 225.547 422.077C226.255 421.617 227.094 421.387 228.064 421.387C228.983 421.387 229.81 421.604 230.543 422.039C231.289 422.462 231.867 423.071 232.277 423.866C232.699 424.649 232.911 425.563 232.911 426.607C232.911 427.651 232.699 428.57 232.277 429.366C231.867 430.161 231.289 430.777 230.543 431.211C229.81 431.646 228.983 431.864 228.064 431.864C227.107 431.864 226.274 431.64 225.566 431.193C224.857 430.733 224.341 430.161 224.018 429.478V436.525H222.732V421.536H224.018V423.773ZM231.587 426.607C231.587 425.762 231.419 425.035 231.084 424.426C230.761 423.804 230.313 423.332 229.741 423.009C229.17 422.686 228.523 422.524 227.803 422.524C227.107 422.524 226.467 422.692 225.882 423.027C225.311 423.363 224.857 423.841 224.522 424.463C224.186 425.084 224.018 425.805 224.018 426.625C224.018 427.446 224.186 428.167 224.522 428.788C224.857 429.409 225.311 429.888 225.882 430.223C226.467 430.559 227.107 430.727 227.803 430.727C228.523 430.727 229.17 430.565 229.741 430.242C230.313 429.907 230.761 429.428 231.084 428.807C231.419 428.173 231.587 427.439 231.587 426.607ZM236.598 423.773C236.921 423.09 237.431 422.524 238.127 422.077C238.835 421.617 239.674 421.387 240.644 421.387C241.563 421.387 242.39 421.604 243.123 422.039C243.869 422.462 244.447 423.071 244.857 423.866C245.279 424.649 245.491 425.563 245.491 426.607C245.491 427.651 245.279 428.57 244.857 429.366C244.447 430.161 243.869 430.777 243.123 431.211C242.39 431.646 241.563 431.864 240.644 431.864C239.687 431.864 238.854 431.64 238.146 431.193C237.437 430.733 236.921 430.161 236.598 429.478V436.525H235.312V421.536H236.598V423.773ZM244.167 426.607C244.167 425.762 243.999 425.035 243.664 424.426C243.341 423.804 242.893 423.332 242.321 423.009C241.75 422.686 241.104 422.524 240.383 422.524C239.687 422.524 239.047 422.692 238.462 423.027C237.891 423.363 237.437 423.841 237.102 424.463C236.766 425.084 236.598 425.805 236.598 426.625C236.598 427.446 236.766 428.167 237.102 428.788C237.437 429.409 237.891 429.888 238.462 430.223C239.047 430.559 239.687 430.727 240.383 430.727C241.104 430.727 241.75 430.565 242.321 430.242C242.893 429.907 243.341 429.428 243.664 428.807C243.999 428.173 244.167 427.439 244.167 426.607ZM257.101 426.103C257.101 426.551 257.089 426.893 257.064 427.129H248.619C248.656 427.899 248.843 428.558 249.178 429.105C249.514 429.652 249.955 430.068 250.502 430.354C251.049 430.627 251.645 430.764 252.292 430.764C253.137 430.764 253.845 430.559 254.417 430.149C255.001 429.739 255.386 429.186 255.573 428.49H256.952C256.704 429.484 256.169 430.298 255.349 430.932C254.541 431.553 253.522 431.864 252.292 431.864C251.335 431.864 250.477 431.653 249.719 431.23C248.961 430.795 248.364 430.186 247.929 429.403C247.507 428.608 247.295 427.682 247.295 426.625C247.295 425.569 247.507 424.643 247.929 423.848C248.352 423.052 248.942 422.443 249.7 422.021C250.458 421.598 251.322 421.387 252.292 421.387C253.261 421.387 254.106 421.598 254.827 422.021C255.56 422.443 256.12 423.015 256.505 423.736C256.903 424.444 257.101 425.233 257.101 426.103ZM255.778 426.066C255.79 425.308 255.635 424.662 255.312 424.127C255.001 423.593 254.572 423.189 254.025 422.916C253.478 422.642 252.882 422.505 252.236 422.505C251.266 422.505 250.44 422.816 249.756 423.438C249.073 424.059 248.694 424.935 248.619 426.066H255.778ZM258.892 426.607C258.892 425.563 259.097 424.649 259.508 423.866C259.93 423.071 260.508 422.462 261.241 422.039C261.987 421.604 262.826 421.387 263.758 421.387C264.727 421.387 265.56 421.611 266.256 422.058C266.965 422.505 267.474 423.077 267.785 423.773V421.536H269.09V431.715H267.785V429.459C267.462 430.155 266.946 430.733 266.238 431.193C265.542 431.64 264.709 431.864 263.739 431.864C262.82 431.864 261.987 431.646 261.241 431.211C260.508 430.777 259.93 430.161 259.508 429.366C259.097 428.57 258.892 427.651 258.892 426.607ZM267.785 426.625C267.785 425.805 267.617 425.084 267.281 424.463C266.946 423.841 266.486 423.363 265.902 423.027C265.33 422.692 264.696 422.524 264 422.524C263.28 422.524 262.633 422.686 262.062 423.009C261.49 423.332 261.036 423.804 260.701 424.426C260.378 425.035 260.216 425.762 260.216 426.607C260.216 427.439 260.378 428.173 260.701 428.807C261.036 429.428 261.49 429.907 262.062 430.242C262.633 430.565 263.28 430.727 264 430.727C264.696 430.727 265.33 430.559 265.902 430.223C266.486 429.888 266.946 429.409 267.281 428.788C267.617 428.167 267.785 427.446 267.785 426.625ZM273.374 423.344C273.66 422.711 274.095 422.22 274.679 421.872C275.275 421.524 276.003 421.35 276.86 421.35V422.711H276.506C275.561 422.711 274.803 422.965 274.232 423.475C273.66 423.984 273.374 424.836 273.374 426.029V431.715H272.069V421.536H273.374V423.344ZM288.786 421.35C289.557 421.35 290.246 421.511 290.855 421.834C291.477 422.157 291.961 422.655 292.309 423.326C292.67 423.984 292.85 424.792 292.85 425.749V431.715H291.564V425.898C291.564 424.792 291.284 423.947 290.725 423.363C290.178 422.779 289.426 422.487 288.469 422.487C287.487 422.487 286.704 422.798 286.12 423.419C285.536 424.04 285.244 424.954 285.244 426.159V431.715H283.939V417.919H285.244V423.27C285.567 422.661 286.039 422.189 286.661 421.853C287.295 421.517 288.003 421.35 288.786 421.35ZM304.946 426.103C304.946 426.551 304.933 426.893 304.908 427.129H296.463C296.501 427.899 296.687 428.558 297.023 429.105C297.358 429.652 297.799 430.068 298.346 430.354C298.893 430.627 299.49 430.764 300.136 430.764C300.981 430.764 301.689 430.559 302.261 430.149C302.845 429.739 303.231 429.186 303.417 428.49H304.796C304.548 429.484 304.013 430.298 303.193 430.932C302.385 431.553 301.366 431.864 300.136 431.864C299.179 431.864 298.321 431.653 297.563 431.23C296.805 430.795 296.208 430.186 295.773 429.403C295.351 428.608 295.14 427.682 295.14 426.625C295.14 425.569 295.351 424.643 295.773 423.848C296.196 423.052 296.786 422.443 297.545 422.021C298.303 421.598 299.166 421.387 300.136 421.387C301.105 421.387 301.95 421.598 302.671 422.021C303.404 422.443 303.964 423.015 304.349 423.736C304.747 424.444 304.946 425.233 304.946 426.103ZM303.622 426.066C303.634 425.308 303.479 424.662 303.156 424.127C302.845 423.593 302.416 423.189 301.87 422.916C301.323 422.642 300.726 422.505 300.08 422.505C299.111 422.505 298.284 422.816 297.6 423.438C296.917 424.059 296.538 424.935 296.463 426.066H303.622ZM308.638 423.344C308.924 422.711 309.359 422.22 309.943 421.872C310.54 421.524 311.267 421.35 312.124 421.35V422.711H311.77C310.826 422.711 310.067 422.965 309.496 423.475C308.924 423.984 308.638 424.836 308.638 426.029V431.715H307.333V421.536H308.638V423.344ZM323.297 426.103C323.297 426.551 323.284 426.893 323.26 427.129H314.814C314.852 427.899 315.038 428.558 315.374 429.105C315.709 429.652 316.151 430.068 316.697 430.354C317.244 430.627 317.841 430.764 318.487 430.764C319.332 430.764 320.041 430.559 320.612 430.149C321.196 429.739 321.582 429.186 321.768 428.49H323.148C322.899 429.484 322.365 430.298 321.544 430.932C320.737 431.553 319.717 431.864 318.487 431.864C317.53 431.864 316.673 431.653 315.914 431.23C315.156 430.795 314.56 430.186 314.125 429.403C313.702 428.608 313.491 427.682 313.491 426.625C313.491 425.569 313.702 424.643 314.125 423.848C314.547 423.052 315.138 422.443 315.896 422.021C316.654 421.598 317.518 421.387 318.487 421.387C319.456 421.387 320.302 421.598 321.022 422.021C321.756 422.443 322.315 423.015 322.7 423.736C323.098 424.444 323.297 425.233 323.297 426.103ZM321.973 426.066C321.986 425.308 321.83 424.662 321.507 424.127C321.196 423.593 320.768 423.189 320.221 422.916C319.674 422.642 319.077 422.505 318.431 422.505C317.462 422.505 316.635 422.816 315.952 423.438C315.268 424.059 314.889 424.935 314.814 426.066H321.973ZM335.256 431.864C334.299 431.864 333.435 431.653 332.664 431.23C331.906 430.795 331.303 430.186 330.856 429.403C330.421 428.608 330.204 427.682 330.204 426.625C330.204 425.569 330.427 424.649 330.875 423.866C331.322 423.071 331.931 422.462 332.702 422.039C333.472 421.604 334.336 421.387 335.293 421.387C336.25 421.387 337.114 421.604 337.884 422.039C338.667 422.462 339.276 423.071 339.711 423.866C340.159 424.649 340.382 425.569 340.382 426.625C340.382 427.669 340.159 428.589 339.711 429.385C339.264 430.18 338.649 430.795 337.866 431.23C337.083 431.653 336.213 431.864 335.256 431.864ZM335.256 430.727C335.927 430.727 336.548 430.578 337.12 430.279C337.692 429.969 338.152 429.509 338.5 428.9C338.86 428.278 339.04 427.52 339.04 426.625C339.04 425.731 338.866 424.979 338.518 424.37C338.17 423.748 337.71 423.288 337.139 422.99C336.567 422.679 335.945 422.524 335.274 422.524C334.603 422.524 333.982 422.679 333.41 422.99C332.838 423.288 332.379 423.748 332.031 424.37C331.695 424.979 331.527 425.731 331.527 426.625C331.527 427.52 331.695 428.278 332.031 428.9C332.379 429.509 332.832 429.969 333.391 430.279C333.963 430.578 334.585 430.727 335.256 430.727ZM347.534 421.35C348.752 421.35 349.746 421.729 350.516 422.487C351.287 423.233 351.672 424.32 351.672 425.749V431.715H350.386V425.898C350.386 424.792 350.106 423.947 349.547 423.363C349 422.779 348.248 422.487 347.291 422.487C346.309 422.487 345.527 422.798 344.942 423.419C344.358 424.04 344.066 424.954 344.066 426.159V431.715H342.761V421.536H344.066V423.27C344.389 422.648 344.855 422.176 345.464 421.853C346.073 421.517 346.763 421.35 347.534 421.35ZM353.962 426.625C353.962 425.569 354.173 424.649 354.596 423.866C355.018 423.071 355.602 422.462 356.348 422.039C357.094 421.604 357.945 421.387 358.902 421.387C360.157 421.387 361.189 421.698 361.997 422.319C362.817 422.94 363.345 423.786 363.581 424.854H362.183C362.009 424.121 361.63 423.549 361.046 423.139C360.474 422.717 359.76 422.505 358.902 422.505C358.219 422.505 357.603 422.661 357.057 422.972C356.51 423.282 356.075 423.748 355.752 424.37C355.441 424.979 355.285 425.731 355.285 426.625C355.285 427.52 355.441 428.278 355.752 428.9C356.075 429.521 356.51 429.987 357.057 430.298C357.603 430.609 358.219 430.764 358.902 430.764C359.76 430.764 360.474 430.559 361.046 430.149C361.63 429.726 362.009 429.142 362.183 428.396H363.581C363.345 429.44 362.817 430.279 361.997 430.913C361.177 431.547 360.145 431.864 358.902 431.864C357.945 431.864 357.094 431.653 356.348 431.23C355.602 430.795 355.018 430.186 354.596 429.403C354.173 428.608 353.962 427.682 353.962 426.625ZM375.201 426.103C375.201 426.551 375.188 426.893 375.164 427.129H366.719C366.756 427.899 366.942 428.558 367.278 429.105C367.613 429.652 368.055 430.068 368.601 430.354C369.148 430.627 369.745 430.764 370.391 430.764C371.236 430.764 371.945 430.559 372.516 430.149C373.101 429.739 373.486 429.186 373.672 428.49H375.052C374.803 429.484 374.269 430.298 373.449 430.932C372.641 431.553 371.622 431.864 370.391 431.864C369.434 431.864 368.577 431.653 367.818 431.23C367.06 430.795 366.464 430.186 366.029 429.403C365.606 428.608 365.395 427.682 365.395 426.625C365.395 425.569 365.606 424.643 366.029 423.848C366.451 423.052 367.042 422.443 367.8 422.021C368.558 421.598 369.422 421.387 370.391 421.387C371.361 421.387 372.206 421.598 372.927 422.021C373.66 422.443 374.219 423.015 374.604 423.736C375.002 424.444 375.201 425.233 375.201 426.103ZM373.877 426.066C373.89 425.308 373.734 424.662 373.411 424.127C373.101 423.593 372.672 423.189 372.125 422.916C371.578 422.642 370.982 422.505 370.335 422.505C369.366 422.505 368.539 422.816 367.856 423.438C367.172 424.059 366.793 424.935 366.719 426.066H373.877ZM107.651 449.536L101.611 464.506H100.25L102.226 459.659L98.0499 449.536H99.4854L102.953 458.223L106.309 449.536H107.651ZM113.876 459.864C112.919 459.864 112.055 459.653 111.285 459.23C110.526 458.795 109.924 458.186 109.476 457.403C109.041 456.608 108.824 455.682 108.824 454.625C108.824 453.569 109.048 452.649 109.495 451.866C109.942 451.071 110.551 450.462 111.322 450.039C112.092 449.604 112.956 449.387 113.913 449.387C114.87 449.387 115.734 449.604 116.505 450.039C117.288 450.462 117.896 451.071 118.331 451.866C118.779 452.649 119.003 453.569 119.003 454.625C119.003 455.669 118.779 456.589 118.331 457.385C117.884 458.18 117.269 458.795 116.486 459.23C115.703 459.653 114.833 459.864 113.876 459.864ZM113.876 458.727C114.547 458.727 115.168 458.578 115.74 458.279C116.312 457.969 116.772 457.509 117.12 456.9C117.48 456.278 117.66 455.52 117.66 454.625C117.66 453.731 117.486 452.979 117.138 452.37C116.79 451.748 116.331 451.288 115.759 450.99C115.187 450.679 114.566 450.524 113.895 450.524C113.223 450.524 112.602 450.679 112.03 450.99C111.459 451.288 110.999 451.748 110.651 452.37C110.315 452.979 110.147 453.731 110.147 454.625C110.147 455.52 110.315 456.278 110.651 456.9C110.999 457.509 111.452 457.969 112.012 458.279C112.583 458.578 113.205 458.727 113.876 458.727ZM130.199 449.536V459.715H128.894V457.925C128.596 458.559 128.136 459.044 127.515 459.379C126.893 459.715 126.197 459.883 125.427 459.883C124.209 459.883 123.215 459.51 122.444 458.764C121.674 458.006 121.288 456.912 121.288 455.483V449.536H122.575V455.334C122.575 456.44 122.848 457.285 123.395 457.869C123.954 458.453 124.712 458.745 125.669 458.745C126.651 458.745 127.434 458.435 128.018 457.813C128.602 457.192 128.894 456.278 128.894 455.073V449.536H130.199ZM133.738 444.894L133.514 448.492H132.601L132.377 444.894H133.738ZM139.544 458.447L142.975 449.536H144.354L140.271 459.715H138.799L134.716 449.536H136.114L139.544 458.447ZM155.332 454.103C155.332 454.551 155.32 454.893 155.295 455.129H146.85C146.887 455.899 147.074 456.558 147.409 457.105C147.745 457.652 148.186 458.068 148.733 458.354C149.28 458.627 149.876 458.764 150.522 458.764C151.368 458.764 152.076 458.559 152.648 458.149C153.232 457.739 153.617 457.186 153.804 456.49H155.183C154.935 457.484 154.4 458.298 153.58 458.932C152.772 459.553 151.753 459.864 150.522 459.864C149.565 459.864 148.708 459.653 147.95 459.23C147.192 458.795 146.595 458.186 146.16 457.403C145.738 456.608 145.526 455.682 145.526 454.625C145.526 453.569 145.738 452.643 146.16 451.848C146.583 451.052 147.173 450.443 147.931 450.021C148.689 449.598 149.553 449.387 150.522 449.387C151.492 449.387 152.337 449.598 153.058 450.021C153.791 450.443 154.35 451.015 154.736 451.736C155.133 452.444 155.332 453.233 155.332 454.103ZM154.009 454.066C154.021 453.308 153.866 452.662 153.543 452.127C153.232 451.593 152.803 451.189 152.256 450.916C151.709 450.642 151.113 450.505 150.467 450.505C149.497 450.505 148.671 450.816 147.987 451.438C147.304 452.059 146.924 452.935 146.85 454.066H154.009ZM164.141 451.344C164.426 450.711 164.861 450.22 165.445 449.872C166.042 449.524 166.769 449.35 167.627 449.35V450.711H167.272C166.328 450.711 165.57 450.965 164.998 451.475C164.426 451.984 164.141 452.836 164.141 454.029V459.715H162.836V449.536H164.141V451.344ZM178.799 454.103C178.799 454.551 178.787 454.893 178.762 455.129H170.317C170.354 455.899 170.541 456.558 170.876 457.105C171.212 457.652 171.653 458.068 172.2 458.354C172.747 458.627 173.343 458.764 173.989 458.764C174.835 458.764 175.543 458.559 176.115 458.149C176.699 457.739 177.084 457.186 177.271 456.49H178.65C178.401 457.484 177.867 458.298 177.047 458.932C176.239 459.553 175.22 459.864 173.989 459.864C173.032 459.864 172.175 459.653 171.417 459.23C170.659 458.795 170.062 458.186 169.627 457.403C169.205 456.608 168.993 455.682 168.993 454.625C168.993 453.569 169.205 452.643 169.627 451.848C170.05 451.052 170.64 450.443 171.398 450.021C172.156 449.598 173.02 449.387 173.989 449.387C174.959 449.387 175.804 449.598 176.525 450.021C177.258 450.443 177.817 451.015 178.203 451.736C178.6 452.444 178.799 453.233 178.799 454.103ZM177.476 454.066C177.488 453.308 177.333 452.662 177.01 452.127C176.699 451.593 176.27 451.189 175.723 450.916C175.176 450.642 174.58 450.505 173.933 450.505C172.964 450.505 172.138 450.816 171.454 451.438C170.77 452.059 170.391 452.935 170.317 454.066H177.476ZM180.59 454.625C180.59 453.569 180.801 452.649 181.224 451.866C181.647 451.071 182.231 450.462 182.976 450.039C183.722 449.604 184.573 449.387 185.53 449.387C186.786 449.387 187.817 449.698 188.625 450.319C189.445 450.94 189.974 451.786 190.21 452.854H188.812C188.638 452.121 188.258 451.549 187.674 451.139C187.103 450.717 186.388 450.505 185.53 450.505C184.847 450.505 184.232 450.661 183.685 450.972C183.138 451.282 182.703 451.748 182.38 452.37C182.069 452.979 181.914 453.731 181.914 454.625C181.914 455.52 182.069 456.278 182.38 456.9C182.703 457.521 183.138 457.987 183.685 458.298C184.232 458.609 184.847 458.764 185.53 458.764C186.388 458.764 187.103 458.559 187.674 458.149C188.258 457.726 188.638 457.142 188.812 456.396H190.21C189.974 457.44 189.445 458.279 188.625 458.913C187.805 459.547 186.773 459.864 185.53 459.864C184.573 459.864 183.722 459.653 182.976 459.23C182.231 458.795 181.647 458.186 181.224 457.403C180.801 456.608 180.59 455.682 180.59 454.625ZM201.829 454.103C201.829 454.551 201.817 454.893 201.792 455.129H193.347C193.384 455.899 193.571 456.558 193.906 457.105C194.242 457.652 194.683 458.068 195.23 458.354C195.777 458.627 196.373 458.764 197.019 458.764C197.865 458.764 198.573 458.559 199.145 458.149C199.729 457.739 200.114 457.186 200.301 456.49H201.68C201.432 457.484 200.897 458.298 200.077 458.932C199.269 459.553 198.25 459.864 197.019 459.864C196.062 459.864 195.205 459.653 194.447 459.23C193.689 458.795 193.092 458.186 192.657 457.403C192.235 456.608 192.023 455.682 192.023 454.625C192.023 453.569 192.235 452.643 192.657 451.848C193.08 451.052 193.67 450.443 194.428 450.021C195.186 449.598 196.05 449.387 197.019 449.387C197.989 449.387 198.834 449.598 199.555 450.021C200.288 450.443 200.847 451.015 201.233 451.736C201.63 452.444 201.829 453.233 201.829 454.103ZM200.506 454.066C200.518 453.308 200.363 452.662 200.04 452.127C199.729 451.593 199.3 451.189 198.753 450.916C198.206 450.642 197.61 450.505 196.964 450.505C195.994 450.505 195.168 450.816 194.484 451.438C193.801 452.059 193.421 452.935 193.347 454.066H200.506ZM204.869 447.616C204.608 447.616 204.385 447.523 204.198 447.336C204.012 447.15 203.919 446.92 203.919 446.646C203.919 446.373 204.012 446.149 204.198 445.975C204.385 445.789 204.608 445.696 204.869 445.696C205.13 445.696 205.354 445.789 205.54 445.975C205.727 446.149 205.82 446.373 205.82 446.646C205.82 446.92 205.727 447.15 205.54 447.336C205.354 447.523 205.13 447.616 204.869 447.616ZM205.522 449.536V459.715H204.217V449.536H205.522ZM212.094 458.447L215.524 449.536H216.903L212.821 459.715H211.348L207.265 449.536H208.663L212.094 458.447ZM227.881 454.103C227.881 454.551 227.869 454.893 227.844 455.129H219.399C219.436 455.899 219.623 456.558 219.958 457.105C220.294 457.652 220.735 458.068 221.282 458.354C221.829 458.627 222.425 458.764 223.072 458.764C223.917 458.764 224.625 458.559 225.197 458.149C225.781 457.739 226.166 457.186 226.353 456.49H227.732C227.484 457.484 226.949 458.298 226.129 458.932C225.321 459.553 224.302 459.864 223.072 459.864C222.115 459.864 221.257 459.653 220.499 459.23C219.741 458.795 219.144 458.186 218.709 457.403C218.287 456.608 218.075 455.682 218.075 454.625C218.075 453.569 218.287 452.643 218.709 451.848C219.132 451.052 219.722 450.443 220.48 450.021C221.238 449.598 222.102 449.387 223.072 449.387C224.041 449.387 224.886 449.598 225.607 450.021C226.34 450.443 226.9 451.015 227.285 451.736C227.683 452.444 227.881 453.233 227.881 454.103ZM226.558 454.066C226.57 453.308 226.415 452.662 226.092 452.127C225.781 451.593 225.352 451.189 224.805 450.916C224.259 450.642 223.662 450.505 223.016 450.505C222.046 450.505 221.22 450.816 220.536 451.438C219.853 452.059 219.474 452.935 219.399 454.066H226.558ZM229.672 454.607C229.672 453.563 229.884 452.649 230.306 451.866C230.729 451.071 231.307 450.462 232.04 450.039C232.786 449.604 233.625 449.387 234.557 449.387C235.452 449.387 236.259 449.604 236.98 450.039C237.701 450.474 238.229 451.04 238.565 451.736V445.919H239.87V459.715H238.565V457.44C238.254 458.149 237.745 458.733 237.036 459.193C236.328 459.64 235.495 459.864 234.538 459.864C233.606 459.864 232.767 459.646 232.021 459.211C231.288 458.777 230.71 458.161 230.288 457.366C229.877 456.57 229.672 455.651 229.672 454.607ZM238.565 454.625C238.565 453.805 238.397 453.084 238.062 452.463C237.726 451.841 237.266 451.363 236.682 451.027C236.11 450.692 235.476 450.524 234.78 450.524C234.06 450.524 233.413 450.686 232.842 451.009C232.27 451.332 231.816 451.804 231.481 452.426C231.158 453.035 230.996 453.762 230.996 454.607C230.996 455.439 231.158 456.173 231.481 456.807C231.816 457.428 232.27 457.907 232.842 458.242C233.413 458.565 234.06 458.727 234.78 458.727C235.476 458.727 236.11 458.559 236.682 458.223C237.266 457.888 237.726 457.409 238.062 456.788C238.397 456.167 238.565 455.446 238.565 454.625ZM249.661 450.636V456.956C249.661 457.577 249.779 458.006 250.015 458.242C250.252 458.478 250.668 458.596 251.265 458.596H252.458V459.715H251.059C250.14 459.715 249.456 459.504 249.009 459.081C248.561 458.646 248.338 457.938 248.338 456.956V450.636H246.921V449.536H248.338V446.982H249.661V449.536H252.458V450.636H249.661ZM259.457 449.35C260.227 449.35 260.917 449.511 261.526 449.834C262.148 450.157 262.632 450.655 262.98 451.326C263.341 451.984 263.521 452.792 263.521 453.749V459.715H262.235V453.898C262.235 452.792 261.955 451.947 261.396 451.363C260.849 450.779 260.097 450.487 259.14 450.487C258.158 450.487 257.375 450.798 256.791 451.419C256.207 452.04 255.915 452.954 255.915 454.159V459.715H254.61V445.919H255.915V451.27C256.238 450.661 256.71 450.189 257.332 449.853C257.965 449.517 258.674 449.35 259.457 449.35ZM275.616 454.103C275.616 454.551 275.604 454.893 275.579 455.129H267.134C267.171 455.899 267.358 456.558 267.693 457.105C268.029 457.652 268.47 458.068 269.017 458.354C269.564 458.627 270.16 458.764 270.807 458.764C271.652 458.764 272.36 458.559 272.932 458.149C273.516 457.739 273.901 457.186 274.088 456.49H275.467C275.219 457.484 274.684 458.298 273.864 458.932C273.056 459.553 272.037 459.864 270.807 459.864C269.85 459.864 268.992 459.653 268.234 459.23C267.476 458.795 266.879 458.186 266.444 457.403C266.022 456.608 265.81 455.682 265.81 454.625C265.81 453.569 266.022 452.643 266.444 451.848C266.867 451.052 267.457 450.443 268.215 450.021C268.973 449.598 269.837 449.387 270.807 449.387C271.776 449.387 272.621 449.598 273.342 450.021C274.075 450.443 274.635 451.015 275.02 451.736C275.418 452.444 275.616 453.233 275.616 454.103ZM274.293 454.066C274.305 453.308 274.15 452.662 273.827 452.127C273.516 451.593 273.087 451.189 272.54 450.916C271.994 450.642 271.397 450.505 270.751 450.505C269.781 450.505 268.955 450.816 268.271 451.438C267.588 452.059 267.209 452.935 267.134 454.066H274.293ZM290.122 449.35C291.315 449.35 292.284 449.729 293.03 450.487C293.788 451.233 294.167 452.32 294.167 453.749V459.715H292.881V453.898C292.881 452.792 292.613 451.947 292.079 451.363C291.545 450.779 290.818 450.487 289.898 450.487C288.941 450.487 288.177 450.804 287.605 451.438C287.033 452.071 286.747 452.991 286.747 454.197V459.715H285.461V453.898C285.461 452.792 285.194 451.947 284.659 451.363C284.125 450.779 283.392 450.487 282.46 450.487C281.503 450.487 280.738 450.804 280.167 451.438C279.595 452.071 279.309 452.991 279.309 454.197V459.715H278.004V449.536H279.309V451.288C279.632 450.655 280.092 450.176 280.688 449.853C281.285 449.517 281.95 449.35 282.683 449.35C283.566 449.35 284.336 449.561 284.995 449.983C285.666 450.406 286.151 451.027 286.449 451.848C286.722 451.04 287.189 450.425 287.847 450.002C288.518 449.567 289.276 449.35 290.122 449.35ZM297.289 459.808C297.016 459.808 296.786 459.715 296.599 459.528C296.425 459.342 296.338 459.112 296.338 458.839C296.338 458.565 296.425 458.342 296.599 458.168C296.786 457.981 297.016 457.888 297.289 457.888C297.55 457.888 297.767 457.981 297.941 458.168C298.128 458.342 298.221 458.565 298.221 458.839C298.221 459.112 298.128 459.342 297.941 459.528C297.767 459.715 297.55 459.808 297.289 459.808Z" fill="#4D4D4D"/>
</svg>
