<svg width="384" height="391" viewBox="0 0 384 391" fill="none" xmlns="http://www.w3.org/2000/svg">
<path d="M326.473 371C324.595 382.583 320.861 390.532 305.89 390.532C290.92 390.532 287.198 382.583 285.319 371C282.971 356.809 291.19 333.152 305.89 333.152C320.591 333.152 328.775 356.809 326.473 371Z" fill="#0C7489"/>
<path opacity="0.7" d="M326.473 371C324.595 382.583 320.861 390.532 305.89 390.532C290.92 390.532 287.198 382.583 285.319 371C282.971 356.809 291.19 333.152 305.89 333.152C320.591 333.152 328.775 356.809 326.473 371Z" fill="white"/>
<path d="M305.465 336.231C302.729 335.861 300.107 334.944 297.771 333.541C295.436 332.138 293.44 330.281 291.915 328.092C288.517 323.363 286.99 317.645 287.606 311.95C293.477 310.01 299.63 310.244 303.798 315.908C305.828 318.899 307.043 322.322 307.334 325.869C307.625 329.417 306.983 332.977 305.465 336.231Z" fill="#0C7489"/>
<path opacity="0.3" d="M305.465 336.231C302.729 335.861 300.107 334.944 297.771 333.541C295.436 332.138 293.44 330.281 291.915 328.092C288.517 323.363 286.99 317.645 287.606 311.95C293.477 310.01 299.63 310.244 303.798 315.908C305.828 318.899 307.043 322.322 307.334 325.869C307.625 329.417 306.983 332.977 305.465 336.231Z" fill="black"/>
<path d="M294.758 329.665C293.666 322.62 285.776 317.826 278.32 317.915C273.488 318.094 268.799 319.52 264.758 322.04C263.824 322.597 263.041 323.355 262.472 324.252C261.902 325.149 261.563 326.161 261.481 327.205C261.398 328.25 261.576 329.298 261.998 330.266C262.42 331.233 263.076 332.093 263.913 332.776C266.902 335.242 270.622 336.768 274.562 337.146C281.607 337.804 289.744 334.493 294.758 329.665Z" fill="#0C7489"/>
<path opacity="0.2" d="M294.758 329.665C293.666 322.62 285.776 317.826 278.32 317.915C273.488 318.094 268.799 319.52 264.758 322.04C263.824 322.597 263.041 323.355 262.472 324.252C261.902 325.149 261.563 326.161 261.481 327.205C261.398 328.25 261.576 329.298 261.998 330.266C262.42 331.233 263.076 332.093 263.913 332.776C266.902 335.242 270.622 336.768 274.562 337.146C281.607 337.804 289.744 334.493 294.758 329.665Z" fill="black"/>
<path d="M299.972 335.081C299.929 333.927 299.6 332.799 299.011 331.789C298.422 330.779 297.59 329.915 296.583 329.268C295.575 328.622 294.421 328.21 293.215 328.068C292.008 327.925 290.783 328.056 289.639 328.448C285.214 329.931 281.385 332.686 278.685 336.33C275.986 339.974 274.549 344.327 274.575 348.782C274.567 349.984 274.834 351.173 275.357 352.267C275.88 353.361 276.647 354.334 277.604 355.12C278.562 355.905 279.688 356.484 280.904 356.816C282.12 357.148 283.398 357.225 284.649 357.043C286.863 356.715 288.981 355.956 290.872 354.814C295.057 352.032 298.039 347.905 299.267 343.197C299.905 340.537 300.142 337.805 299.972 335.081Z" fill="#0C7489"/>
<path d="M299.972 335.081C299.929 333.927 299.6 332.799 299.011 331.789C298.422 330.779 297.59 329.915 296.583 329.268C295.575 328.622 294.421 328.21 293.215 328.068C292.008 327.925 290.783 328.056 289.639 328.448C285.214 329.931 281.385 332.686 278.685 336.33C275.986 339.974 274.549 344.327 274.575 348.782C274.567 349.984 274.834 351.173 275.357 352.267C275.88 353.361 276.647 354.334 277.604 355.12C278.562 355.905 279.688 356.484 280.904 356.816C282.12 357.148 283.398 357.225 284.649 357.043C286.863 356.715 288.981 355.956 290.872 354.814C295.057 352.032 298.039 347.905 299.267 343.197C299.905 340.537 300.142 337.805 299.972 335.081Z" fill="#0C7489"/>
<path d="M328.256 315.207C323.584 313.491 318.393 313.567 313.779 315.418C312.082 316.108 310.5 317.028 309.082 318.15C307.883 319.072 306.965 320.281 306.422 321.652C305.878 323.024 305.729 324.507 305.99 325.951C306.251 327.395 306.912 328.747 307.905 329.868C308.898 330.989 310.188 331.839 311.642 332.33C313.34 332.941 315.15 333.224 316.964 333.161C318.779 333.097 320.563 332.69 322.209 331.962C328.949 328.83 332.095 321.316 328.256 315.207Z" fill="#0C7489"/>
<path opacity="0.3" d="M328.256 315.207C323.584 313.491 318.393 313.567 313.779 315.418C312.082 316.108 310.5 317.028 309.082 318.15C307.883 319.072 306.965 320.281 306.422 321.652C305.878 323.024 305.729 324.507 305.99 325.951C306.251 327.395 306.912 328.747 307.905 329.868C308.898 330.989 310.188 331.839 311.642 332.33C313.34 332.941 315.15 333.224 316.964 333.161C318.779 333.097 320.563 332.69 322.209 331.962C328.949 328.83 332.095 321.316 328.256 315.207Z" fill="black"/>
<path d="M322.103 322.017C320.142 323.633 318.122 325.305 317.183 327.914C316.81 328.922 316.69 329.998 316.831 331.058C317.312 334.257 319.942 335.283 322.349 335.896C330.464 337.949 339.033 337.709 347.007 335.205C347.738 334.982 348.4 334.593 348.936 334.071C349.472 333.549 349.865 332.91 350.081 332.21C350.296 331.51 350.328 330.771 350.173 330.057C350.017 329.343 349.68 328.676 349.191 328.115C346.634 325.033 343.336 322.579 339.574 320.958C334.525 318.929 326.447 318.449 322.103 322.017Z" fill="#0C7489"/>
<path opacity="0.2" d="M322.103 322.017C320.142 323.633 318.122 325.305 317.183 327.914C316.81 328.922 316.69 329.998 316.831 331.058C317.312 334.257 319.942 335.283 322.349 335.896C330.464 337.949 339.033 337.709 347.007 335.205C347.738 334.982 348.4 334.593 348.936 334.071C349.472 333.549 349.865 332.91 350.081 332.21C350.296 331.51 350.328 330.771 350.173 330.057C350.017 329.343 349.68 328.676 349.191 328.115C346.634 325.033 343.336 322.579 339.574 320.958C334.525 318.929 326.447 318.449 322.103 322.017Z" fill="black"/>
<path d="M325.203 330.089C323.501 329.702 321.707 329.962 320.204 330.814C318.701 331.666 317.609 333.042 317.16 334.649C316.566 336.874 316.651 339.213 317.407 341.394C318.241 343.486 319.523 345.392 321.172 346.991C322.821 348.589 324.801 349.845 326.988 350.68C329.327 351.617 331.801 352.218 334.326 352.464C335.204 352.564 336.093 352.475 336.929 352.204C337.765 351.932 338.526 351.485 339.155 350.896C339.783 350.307 340.264 349.59 340.56 348.8C340.856 348.01 340.961 347.166 340.867 346.332C340.507 342.702 339.155 339.225 336.945 336.243C334.291 332.821 329.771 331.137 325.203 330.089Z" fill="#0C7489"/>
<path d="M325.203 330.089C323.501 329.702 321.707 329.962 320.204 330.814C318.701 331.666 317.609 333.042 317.16 334.649C316.566 336.874 316.651 339.213 317.407 341.394C318.241 343.486 319.523 345.392 321.172 346.991C322.821 348.589 324.801 349.845 326.988 350.68C329.327 351.617 331.801 352.218 334.326 352.464C335.204 352.564 336.093 352.475 336.929 352.204C337.765 351.932 338.526 351.485 339.155 350.896C339.783 350.307 340.264 349.59 340.56 348.8C340.856 348.01 340.961 347.166 340.867 346.332C340.507 342.702 339.155 339.225 336.945 336.243C334.291 332.821 329.771 331.137 325.203 330.089Z" fill="#0C7489"/>
<path d="M311.101 329.999C308.025 326.655 301.884 326.889 298.444 329.999C295.003 333.11 294.087 338.093 295.215 342.441C296.342 346.789 299.195 350.546 302.4 353.823C303.762 355.228 305.207 356.566 306.71 357.836C307.845 358.787 309.218 359.446 310.697 359.752C312.176 360.057 313.713 359.999 315.162 359.582C316.611 359.166 317.924 358.405 318.976 357.372C320.028 356.338 320.785 355.067 321.175 353.678V353.567C322.49 349.041 323.829 344.336 323.019 339.698C322.208 335.061 316.032 330.49 311.101 329.999Z" fill="#0C7489"/>
<path opacity="0.1" d="M311.101 329.999C308.025 326.655 301.884 326.889 298.444 329.999C295.003 333.11 294.087 338.093 295.215 342.441C296.342 346.789 299.195 350.546 302.4 353.823C303.762 355.228 305.207 356.566 306.71 357.836C307.845 358.787 309.218 359.446 310.697 359.752C312.176 360.057 313.713 359.999 315.162 359.582C316.611 359.166 317.924 358.405 318.976 357.372C320.028 356.338 320.785 355.067 321.175 353.678V353.567C322.49 349.041 323.829 344.336 323.019 339.698C322.208 335.061 316.032 330.49 311.101 329.999Z" fill="white"/>
<path opacity="0.2" d="M312.205 333.218C315.302 340.488 316.393 348.389 315.376 356.172C314.863 347.875 313.059 339.697 310.021 331.902C310.475 331.919 310.917 332.049 311.3 332.28C311.684 332.511 311.996 332.835 312.205 333.218Z" fill="white"/>
<path opacity="0.2" d="M292.55 332.55C287.444 337.735 283.727 344.009 281.713 350.845C282.607 344.008 285.736 337.61 290.66 332.55C291.153 331.993 291.916 332.216 292.55 332.55Z" fill="white"/>
<path opacity="0.2" d="M287.195 326.118C284.594 324.697 281.754 323.712 278.8 323.208C274.479 322.728 270.205 324.59 266.178 326.162C269.475 324.421 273.012 323.127 276.686 322.316C278.529 321.92 280.438 321.891 282.293 322.231C284.149 322.571 285.909 323.271 287.465 324.289C287.395 324.925 287.266 325.482 287.195 326.118Z" fill="white"/>
<path opacity="0.2" d="M336.488 345.293C334.963 342.42 333.112 339.714 330.97 337.222C328.805 334.719 325.835 332.96 322.516 332.216C323.49 332.216 324.664 331.938 325.651 331.938C330.975 334.99 334.882 339.847 336.582 345.527C336.676 345.315 336.394 345.505 336.488 345.293Z" fill="white"/>
<path opacity="0.2" d="M301.733 326.384C299.72 320.943 295.771 316.338 290.566 313.363C294.477 316.155 297.405 320.007 298.962 324.411C299.22 325.147 299.22 326.039 299.49 326.763C299.862 326.916 300.273 326.961 300.671 326.894C301.07 326.826 301.439 326.649 301.733 326.384Z" fill="white"/>
<path opacity="0.2" d="M325.274 316.574C322.5 317.4 319.952 318.794 317.809 320.659C315.666 322.524 313.982 324.814 312.875 327.366C313.298 327.555 313.298 327.756 313.72 327.956C314.237 325.247 316.515 323.129 318.781 321.413C321.047 319.696 323.078 318.403 325.274 316.574Z" fill="white"/>
<path opacity="0.2" d="M346.82 329.698C344.119 325.785 339.07 323.712 334.151 323.578C329.187 323.619 324.315 324.854 319.99 327.168V328.751C323.882 326.132 328.587 324.829 333.352 325.05C338.254 325.168 342.982 326.8 346.82 329.698Z" fill="white"/>
<path d="M285.289 279.487H115.036C113.656 279.506 112.288 279.25 111.018 278.735C109.749 278.221 108.607 277.46 107.667 276.501C106.726 275.542 106.008 274.406 105.559 273.168C105.109 271.929 104.938 270.614 105.056 269.309L123.42 21.0615C123.669 18.3158 124.98 15.7551 127.101 13.8734C129.221 11.9918 132.001 10.9225 134.903 10.8721H305.156C306.537 10.8531 307.906 11.1094 309.177 11.6244C310.447 12.1394 311.589 12.9016 312.53 13.8619C313.47 14.8221 314.188 15.9591 314.637 17.1992C315.086 18.4394 315.256 19.7551 315.136 21.0615L296.772 269.309C296.52 272.052 295.208 274.61 293.087 276.49C290.967 278.369 288.189 279.437 285.289 279.487Z" fill="#0C7489"/>
<path opacity="0.7" d="M278.724 267.559H124.182C122.802 267.578 121.434 267.322 120.165 266.807C118.896 266.293 117.755 265.532 116.816 264.572C115.877 263.613 115.159 262.477 114.711 261.239C114.263 260 114.093 258.686 114.213 257.381L130.874 31.073C131.123 28.3293 132.433 25.7701 134.551 23.8887C136.669 22.0073 139.446 20.9368 142.346 20.8836H296.888C298.269 20.8664 299.638 21.1238 300.907 21.6394C302.177 22.155 303.318 22.9173 304.258 23.8772C305.198 24.837 305.916 25.9733 306.366 27.2126C306.816 28.452 306.987 29.767 306.869 31.073L290.196 257.381C289.944 260.122 288.633 262.679 286.515 264.558C284.397 266.437 281.622 267.506 278.724 267.559Z" fill="white"/>
<path opacity="0.2" d="M227.193 10.8711L120.074 279.486H159.96L265 10.8711" fill="white"/>
<path opacity="0.2" d="M280.439 10.8711L173.32 279.486H200.267L305.307 10.8711" fill="white"/>
<path d="M266.668 99.0325C265.334 99.0496 264.011 98.8012 262.785 98.3033C261.558 97.8053 260.455 97.0689 259.547 96.1414C258.639 95.2139 257.945 94.116 257.511 92.9185C257.078 91.721 256.913 90.4504 257.028 89.1886C257.258 86.5546 258.511 84.096 260.545 82.291C262.578 80.486 265.246 79.4637 268.03 79.4229C269.364 79.4041 270.688 79.6514 271.916 80.1486C273.144 80.6459 274.248 81.3821 275.158 82.3097C276.067 83.2374 276.762 84.3358 277.196 85.5341C277.631 86.7325 277.796 88.004 277.681 89.2667C277.448 91.9017 276.192 94.3604 274.157 96.1652C272.122 97.97 269.452 98.9919 266.668 99.0325ZM268.03 80.5377C265.541 80.5738 263.156 81.4873 261.337 83.1007C259.518 84.714 258.397 86.9118 258.19 89.2667C258.088 90.3762 258.232 91.4936 258.614 92.5468C258.995 93.5999 259.605 94.5654 260.404 95.3808C261.203 96.1961 262.173 96.8432 263.252 97.2802C264.331 97.7172 265.495 97.9343 266.668 97.9177C269.156 97.8815 271.542 96.968 273.36 95.3547C275.179 93.7414 276.3 91.5436 276.507 89.1886C276.613 88.0784 276.471 86.9595 276.091 85.9048C275.711 84.8501 275.101 83.8832 274.301 83.0671C273.502 82.2509 272.53 81.6039 271.449 81.1681C270.369 80.7323 269.203 80.5175 268.03 80.5377Z" fill="#0C7489"/>
<path d="M260.596 87.1595C260.596 87.1595 266.784 94.3055 266.69 93.514L267.312 92.8562C272.254 87.5113 278.07 82.9566 284.537 79.367L285.711 78.6758C276.799 80.1473 266.924 89.4783 266.924 89.4783L264.224 86.1339L260.596 87.1595Z" fill="#263238"/>
<path d="M263.709 139.29C262.374 139.309 261.05 139.062 259.822 138.564C258.594 138.067 257.49 137.331 256.58 136.403C255.671 135.476 254.976 134.377 254.542 133.179C254.107 131.981 253.942 130.709 254.057 129.446C254.29 126.811 255.546 124.353 257.581 122.548C259.617 120.743 262.286 119.721 265.071 119.681C266.404 119.663 267.727 119.912 268.953 120.41C270.18 120.908 271.283 121.644 272.191 122.572C273.099 123.499 273.793 124.597 274.227 125.794C274.661 126.992 274.825 128.263 274.71 129.524C274.48 132.158 273.227 134.617 271.193 136.422C269.16 138.227 266.492 139.249 263.709 139.29ZM255.231 129.524C255.125 130.635 255.267 131.753 255.647 132.808C256.027 133.863 256.637 134.83 257.437 135.646C258.236 136.462 259.208 137.109 260.289 137.545C261.37 137.981 262.535 138.195 263.709 138.175C266.196 138.139 268.58 137.225 270.397 135.611C272.213 133.998 273.332 131.8 273.536 129.446C273.642 128.337 273.5 127.219 273.121 126.165C272.742 125.111 272.133 124.145 271.335 123.329C270.536 122.513 269.566 121.866 268.487 121.429C267.407 120.993 266.244 120.777 265.071 120.795C262.582 120.831 260.197 121.745 258.378 123.358C256.559 124.972 255.438 127.169 255.231 129.524Z" fill="#0C7489"/>
<path d="M257.637 127.425C257.637 127.425 263.813 134.582 263.731 133.78L264.341 133.122C269.286 127.773 275.106 123.214 281.578 119.621L282.811 118.941C273.887 120.402 264.024 129.733 264.024 129.733L261.335 126.388L257.637 127.425Z" fill="#263238"/>
<path d="M260.796 179.551C259.461 179.568 258.137 179.32 256.91 178.821C255.682 178.323 254.579 177.585 253.67 176.656C252.762 175.728 252.069 174.628 251.636 173.429C251.202 172.231 251.039 170.959 251.156 169.696C251.386 167.062 252.639 164.603 254.673 162.798C256.706 160.993 259.374 159.971 262.158 159.93C263.491 159.915 264.814 160.165 266.04 160.663C267.266 161.161 268.369 161.898 269.277 162.825C270.186 163.752 270.881 164.849 271.317 166.045C271.753 167.242 271.92 168.512 271.809 169.774C271.579 172.411 270.324 174.873 268.289 176.68C266.253 178.487 263.582 179.51 260.796 179.551ZM262.158 161.045C259.67 161.084 257.286 161.998 255.468 163.611C253.65 165.224 252.527 167.42 252.318 169.774C252.218 170.883 252.364 172 252.746 173.052C253.128 174.105 253.738 175.07 254.536 175.885C255.335 176.699 256.305 177.347 257.383 177.784C258.461 178.222 259.623 178.44 260.796 178.425C263.284 178.389 265.67 177.475 267.488 175.862C269.307 174.249 270.428 172.051 270.635 169.696C270.737 168.586 270.592 167.468 270.211 166.414C269.83 165.361 269.22 164.395 268.421 163.578C267.623 162.762 266.652 162.114 265.574 161.676C264.495 161.238 263.331 161.019 262.158 161.034V161.045Z" fill="#0C7489"/>
<path d="M254.668 167.668C254.668 167.668 260.856 174.825 260.762 174.034L261.384 173.365C266.329 168.023 272.145 163.468 278.609 159.875L279.842 159.195C270.93 160.667 261.055 169.987 261.055 169.987L258.355 166.642L254.668 167.668Z" fill="#263238"/>
<path d="M205.457 78.3281H160.252V79.4437H205.457V78.3281Z" fill="#0C7489"/>
<path d="M243.278 78.3281H216.002V79.4437H243.278V78.3281Z" fill="#0C7489"/>
<path d="M171.888 87.9727H147.125V89.0883H171.888V87.9727Z" fill="#0C7489"/>
<path d="M240.448 87.9727H180.719V89.0883H240.448V87.9727Z" fill="#0C7489"/>
<path d="M208.792 97.6172H145.869V98.7328H208.792V97.6172Z" fill="#0C7489"/>
<path d="M239.179 97.6172H218.619V98.7328H239.179V97.6172Z" fill="#0C7489"/>
<path d="M161.321 107.258H144.988V108.373H161.321V107.258Z" fill="#0C7489"/>
<path d="M202.498 118.465H157.293V119.58H202.498V118.465Z" fill="#0C7489"/>
<path d="M240.33 118.465H213.055V119.58H240.33V118.465Z" fill="#0C7489"/>
<path d="M168.931 128.105H144.168V129.221H168.931V128.105Z" fill="#0C7489"/>
<path d="M237.489 128.105H177.76V129.221H237.489V128.105Z" fill="#0C7489"/>
<path d="M205.833 137.75H142.91V138.866H205.833V137.75Z" fill="#0C7489"/>
<path d="M236.22 137.75H215.66V138.866H236.22V137.75Z" fill="#0C7489"/>
<path d="M158.362 147.395H142.029V148.51H158.362V147.395Z" fill="#0C7489"/>
<path d="M201.664 158.586H156.459V159.702H201.664V158.586Z" fill="#0C7489"/>
<path d="M239.485 158.586H212.209V159.702H239.485V158.586Z" fill="#0C7489"/>
<path d="M168.097 168.227H143.334V169.342H168.097V168.227Z" fill="#0C7489"/>
<path d="M236.643 168.227H176.914V169.342H236.643V168.227Z" fill="#0C7489"/>
<path d="M204.987 177.871H142.064V178.987H204.987V177.871Z" fill="#0C7489"/>
<path d="M235.388 177.871H214.828V178.987H235.388V177.871Z" fill="#0C7489"/>
<path d="M157.528 187.516H141.195V188.631H157.528V187.516Z" fill="#0C7489"/>
<path d="M254.76 310.671C255.136 309.065 255.399 307.438 255.547 305.799C256.263 300.292 259.715 296.022 264.048 295.186L267.183 294.573C267.183 294.573 262.263 294.573 260.22 293.213C255.864 290.325 254.866 281.797 254.866 281.797C254.866 281.797 253.692 290.325 249.312 293.213C247.258 294.573 242.338 294.573 242.338 294.573L245.473 295.186C249.817 296.022 253.258 300.292 253.974 305.799C254.129 307.437 254.391 309.064 254.76 310.671Z" fill="#0C7489"/>
<g opacity="0.7">
<path d="M254.76 310.671C255.136 309.065 255.399 307.438 255.547 305.799C256.263 300.292 259.715 296.022 264.048 295.186L267.183 294.573C267.183 294.573 262.263 294.573 260.22 293.213C255.864 290.325 254.866 281.797 254.866 281.797C254.866 281.797 253.692 290.325 249.312 293.213C247.258 294.573 242.338 294.573 242.338 294.573L245.473 295.186C249.817 296.022 253.258 300.292 253.974 305.799C254.129 307.437 254.391 309.064 254.76 310.671Z" fill="white"/>
</g>
<path d="M344.174 38.2428C344.66 36.148 345.001 34.0253 345.196 31.8883C346.135 24.7089 350.62 19.1571 356.268 18.0646L360.342 17.2731C360.342 17.2731 353.943 17.2731 351.278 15.5005C345.618 11.7325 344.315 0.628906 344.315 0.628906C344.315 0.628906 342.73 11.7771 337.07 15.5005C334.405 17.2731 328.006 17.2731 328.006 17.2731L332.08 18.0646C337.728 19.1794 342.213 24.7535 343.152 31.8883C343.347 34.0253 343.688 36.148 344.174 38.2428Z" fill="#0C7489"/>
<g opacity="0.7">
<path d="M344.174 38.2428C344.66 36.148 345.001 34.0253 345.196 31.8883C346.135 24.7089 350.62 19.1571 356.268 18.0646L360.342 17.2731C360.342 17.2731 353.943 17.2731 351.278 15.5005C345.618 11.7325 344.315 0.628906 344.315 0.628906C344.315 0.628906 342.73 11.7771 337.07 15.5005C334.405 17.2731 328.006 17.2731 328.006 17.2731L332.08 18.0646C337.728 19.1794 342.213 24.7535 343.152 31.8883C343.347 34.0253 343.688 36.148 344.174 38.2428Z" fill="white"/>
</g>
<path d="M106.864 64.9195C107.233 63.309 107.496 61.6782 107.651 60.0366C108.367 54.4625 111.807 50.2596 116.152 49.4124L119.287 48.8104C119.287 48.8104 114.367 48.8104 112.312 47.4503C107.968 44.5629 106.97 36.0234 106.97 36.0234C106.97 36.0234 105.796 44.5629 101.404 47.4503C99.3611 48.8104 94.4414 48.8104 94.4414 48.8104L97.5764 49.4124C101.909 50.2596 105.361 54.5182 106.077 60.0366C106.225 61.679 106.488 63.3102 106.864 64.9195Z" fill="#0C7489"/>
<g opacity="0.7">
<path d="M106.864 64.9156C107.233 63.3051 107.496 61.6743 107.651 60.0327C108.367 54.4586 111.807 50.2557 116.152 49.4085L119.287 48.8065C119.287 48.8065 114.367 48.8065 112.312 47.4464C107.968 44.559 106.97 36.0195 106.97 36.0195C106.97 36.0195 105.796 44.559 101.404 47.4464C99.3611 48.8065 94.4414 48.8065 94.4414 48.8065L97.5764 49.4085C101.909 50.2557 105.361 54.5143 106.077 60.0327C106.225 61.6751 106.488 63.3063 106.864 64.9156Z" fill="white"/>
</g>
<path d="M319.142 120.738L311.98 146.825L286.97 130.359C286.97 130.359 283.648 134.818 283.084 136.792C283.084 136.792 307.436 160.203 315.96 156.312C324.485 152.421 330.25 120.738 330.25 120.738H319.142Z" fill="#FF887B"/>
<path d="M281.149 138.753C279.097 138.741 277.066 138.363 275.161 137.638L273.024 136.846C272.651 136.658 272.338 136.377 272.119 136.033C271.9 135.69 271.783 135.297 271.779 134.895V129.009C271.779 127.638 272.719 126.222 274.128 126.467L283.615 126.133L289.638 132.086L285.564 138.719L281.149 138.753Z" fill="#FF887B"/>
<path d="M284.014 126.872C283.206 125.26 282.675 123.537 282.441 121.766C282.443 121.603 282.408 121.442 282.337 121.294C282.267 121.145 282.163 121.013 282.033 120.907C281.904 120.801 281.751 120.723 281.586 120.679C281.421 120.634 281.248 120.625 281.079 120.651C280.801 120.694 280.549 120.83 280.368 121.035C280.187 121.239 280.089 121.499 280.093 121.766L279.975 127.262C279.967 127.517 280.052 127.766 280.214 127.969C280.376 128.172 280.607 128.316 280.867 128.377L283.697 129.046L284.085 127.608C284.144 127.361 284.119 127.104 284.014 126.872Z" fill="#FF887B"/>
<path d="M355.508 103.506C354.334 101.678 353.912 99.8047 352.749 97.9318C352.573 97.9318 360.193 96.7501 365.113 85.2452C372.44 81.5328 362.483 96.1927 358.937 100.251C363.399 100.752 367.156 104.799 367.602 109.046C367.99 112.324 364.702 115.368 361.99 117.452C357.973 113.8 355.642 108.785 355.508 103.506Z" fill="#263238"/>
<path d="M353.276 379.365L343.272 379.9L342.896 369.61L352.9 369.086L353.276 379.365Z" fill="#FF887B"/>
<path opacity="0.2" d="M342.896 368.094L343.073 372.876L353.076 372.308L352.9 367.559L342.896 368.094Z" fill="black"/>
<path d="M342.71 378.002L354.029 377.813C354.229 377.808 354.424 377.868 354.582 377.984C354.741 378.1 354.852 378.264 354.898 378.448L357.011 386.932C357.054 387.117 357.058 387.308 357.021 387.493C356.985 387.679 356.91 387.856 356.801 388.014C356.691 388.172 356.55 388.308 356.384 388.413C356.219 388.518 356.033 388.591 355.837 388.626H355.52C351.552 388.626 349.649 388.437 344.648 388.515C341.583 388.515 333.646 389.006 329.384 389.072C325.121 389.139 324.534 385.171 326.26 384.78C334.033 383.041 338.53 380.745 340.996 378.571C341.468 378.177 342.083 377.973 342.71 378.002Z" fill="#263238"/>
<path d="M377.923 379.365L367.919 379.9L367.543 369.61L377.547 369.086L377.923 379.365Z" fill="#FF887B"/>
<path opacity="0.2" d="M367.543 368.094L367.719 372.876L377.723 372.308L377.547 367.559L367.543 368.094Z" fill="black"/>
<path d="M367.355 378.002L378.674 377.813C378.873 377.808 379.069 377.868 379.227 377.984C379.385 378.1 379.497 378.264 379.543 378.448L381.656 386.932C381.7 387.117 381.705 387.308 381.67 387.495C381.634 387.681 381.559 387.859 381.45 388.017C381.34 388.175 381.198 388.311 381.031 388.416C380.865 388.52 380.678 388.592 380.482 388.626H380.165C376.208 388.626 374.294 388.437 369.292 388.515C366.228 388.515 358.29 389.006 354.028 389.072C349.766 389.139 349.179 385.171 350.905 384.78C358.678 383.041 363.175 380.745 365.641 378.571C366.112 378.177 366.727 377.973 367.355 378.002Z" fill="#263238"/>
<path d="M341.239 371.08L354.601 370.11C354.601 370.11 361.705 322.051 353.075 278.762C354.014 244.928 357.02 173.502 357.02 173.502L324.696 173.379C322.664 184.828 323.815 251.416 328.136 284.526L341.239 371.08Z" fill="#263238"/>
<path opacity="0.2" d="M352.465 209.41L343.259 209.956C341.815 220.268 346.711 241.907 351.349 254.549C351.796 241.305 351.901 222.453 352.465 209.41Z" fill="black"/>
<path d="M365.781 371.081L379.155 370.112C379.155 370.112 385.695 317.916 377.722 281.785C378.25 262.9 379.483 220.771 380.352 200.816C380.505 197.276 379.905 193.744 378.587 190.43C377.268 187.116 375.259 184.089 372.68 181.529C370.1 178.97 367.003 176.931 363.575 175.534C360.146 174.138 356.455 173.413 352.724 173.402H349.202C347.182 184.852 346.783 259.578 350.634 284.148L365.781 371.081Z" fill="#263238"/>
<path d="M321.221 110.371C319.695 111.107 312.074 132.6 312.074 132.6L328.418 140.014C328.418 140.014 332.845 121.943 334.724 115.989C336.638 109.791 326.411 106.246 321.221 110.371Z" fill="#0C7489"/>
<path opacity="0.6" d="M321.221 110.371C318.873 112.455 312.074 132.6 312.074 132.6L328.418 140.014C328.418 140.014 332.845 121.943 334.724 115.989C336.638 109.791 326.411 106.246 321.221 110.371Z" fill="white"/>
<path d="M322.713 116.561C321.423 120.483 320.434 124.488 319.754 128.546C319.637 129.49 319.637 130.444 319.754 131.388C320.365 136.271 322.807 155.468 323.934 164.142C324.145 165.803 324.486 171.321 322.76 182.815C321.589 192.256 320.927 201.748 320.776 211.254L383.969 207.463C381.89 181.734 368.575 166.215 368.587 162.614C368.587 151.946 369.761 141.032 374.705 120.14C374.975 118.994 375.004 117.809 374.79 116.653C374.576 115.496 374.125 114.391 373.46 113.401C372.796 112.411 371.932 111.555 370.919 110.883C369.905 110.21 368.762 109.734 367.554 109.482C367.272 109.482 366.99 109.382 366.697 109.349C364.055 109.014 361.12 108.713 358.137 108.568C351.455 108.094 344.745 108.072 338.059 108.501C333.363 108.891 332.693 108.156 329.089 108.735C326.001 109.271 324.803 111.879 323.1 115.525C322.951 115.863 322.822 116.209 322.713 116.561Z" fill="#0C7489"/>
<path opacity="0.7" d="M322.056 118.351C321.01 121.681 320.225 125.079 319.708 128.518C319.584 129.462 319.584 130.417 319.708 131.361C320.33 136.244 322.761 155.441 323.888 164.114C324.099 165.775 324.44 171.294 322.714 182.788C321.543 192.229 320.881 201.721 320.729 211.227L383.922 207.436C381.844 181.706 368.529 166.188 368.541 162.587C368.541 151.918 369.715 141.004 374.658 120.113C374.928 118.967 374.957 117.782 374.744 116.626C374.53 115.469 374.078 114.364 373.414 113.374C372.75 112.384 371.886 111.528 370.872 110.855C369.859 110.183 368.715 109.707 367.508 109.455C367.226 109.455 366.944 109.355 366.65 109.321C364.009 108.987 361.073 108.686 358.091 108.541C351.408 108.067 344.699 108.045 338.013 108.474C333.316 108.864 332.647 108.128 329.042 108.708C325.438 109.288 323.723 113.368 322.056 118.351Z" fill="white"/>
<path d="M325.201 171.032L369.173 170.742V174.733H325.201V171.032Z" fill="#263238"/>
<path d="M363.514 175.809H364.688C364.923 175.809 365.111 175.687 365.099 175.553L364.559 170.67C364.559 170.525 364.324 170.402 364.09 170.402H362.915C362.681 170.402 362.504 170.514 362.516 170.67L363.056 175.542C363.068 175.698 363.268 175.809 363.514 175.809Z" fill="#0C7489"/>
<path d="M327.832 175.689H329.006C329.241 175.689 329.429 175.577 329.405 175.432L328.865 170.549C328.865 170.404 328.642 170.293 328.407 170.293H327.233C326.998 170.293 326.811 170.404 326.834 170.561L327.374 175.432C327.398 175.566 327.597 175.678 327.832 175.689Z" fill="#0C7489"/>
<path d="M345.669 175.748H346.843C347.078 175.748 347.265 175.636 347.242 175.491L346.702 170.62C346.702 170.475 346.479 170.363 346.244 170.363H345.07C344.835 170.363 344.659 170.486 344.67 170.62L345.211 175.503C345.25 175.584 345.315 175.652 345.397 175.696C345.48 175.74 345.575 175.758 345.669 175.748Z" fill="#0C7489"/>
<g opacity="0.7">
<path d="M363.512 175.817H364.686C364.921 175.817 365.109 175.694 365.097 175.561L364.557 170.678C364.557 170.533 364.322 170.41 364.088 170.41H362.913C362.679 170.41 362.502 170.522 362.514 170.678L363.054 175.549C363.066 175.706 363.266 175.817 363.512 175.817Z" fill="white"/>
<path d="M327.83 175.693H329.004C329.239 175.693 329.427 175.581 329.403 175.436L328.863 170.553C328.863 170.408 328.64 170.297 328.405 170.297H327.231C326.996 170.297 326.809 170.408 326.832 170.564L327.372 175.436C327.396 175.57 327.595 175.681 327.83 175.693Z" fill="white"/>
<path d="M345.665 175.748H346.839C347.074 175.748 347.261 175.636 347.238 175.491L346.698 170.62C346.698 170.475 346.475 170.363 346.24 170.363H345.066C344.831 170.363 344.655 170.486 344.667 170.62L345.207 175.503C345.246 175.584 345.311 175.652 345.394 175.696C345.476 175.74 345.571 175.758 345.665 175.748Z" fill="white"/>
</g>
<path d="M340.408 129C340.408 129.272 340.323 129.537 340.164 129.763C340.004 129.989 339.778 130.165 339.514 130.268C339.249 130.372 338.958 130.398 338.678 130.344C338.397 130.29 338.14 130.159 337.938 129.966C337.737 129.773 337.6 129.528 337.546 129.261C337.491 128.994 337.522 128.718 337.633 128.468C337.744 128.217 337.931 128.004 338.17 127.855C338.409 127.705 338.689 127.627 338.975 127.629C339.165 127.629 339.352 127.665 339.526 127.734C339.701 127.803 339.859 127.904 339.993 128.031C340.126 128.159 340.231 128.31 340.302 128.476C340.374 128.643 340.409 128.821 340.408 129Z" fill="#0C7489"/>
<path d="M340.408 144.82C340.408 145.092 340.323 145.358 340.164 145.583C340.004 145.809 339.778 145.985 339.514 146.088C339.249 146.192 338.958 146.218 338.678 146.165C338.397 146.111 338.14 145.979 337.938 145.786C337.737 145.593 337.6 145.348 337.546 145.081C337.491 144.814 337.522 144.538 337.633 144.288C337.744 144.038 337.931 143.824 338.17 143.675C338.409 143.526 338.689 143.447 338.975 143.449C339.165 143.449 339.352 143.485 339.526 143.554C339.701 143.623 339.859 143.724 339.993 143.852C340.126 143.979 340.231 144.13 340.302 144.297C340.374 144.463 340.409 144.641 340.408 144.82Z" fill="#0C7489"/>
<path d="M341.994 159.071C341.996 159.343 341.913 159.609 341.756 159.836C341.599 160.063 341.374 160.24 341.111 160.346C340.847 160.451 340.556 160.48 340.275 160.428C339.994 160.377 339.736 160.247 339.533 160.056C339.33 159.864 339.191 159.62 339.134 159.354C339.077 159.088 339.105 158.811 339.214 158.56C339.323 158.309 339.508 158.094 339.746 157.943C339.984 157.792 340.263 157.711 340.55 157.711C340.931 157.711 341.296 157.854 341.567 158.109C341.837 158.363 341.991 158.709 341.994 159.071Z" fill="#0C7489"/>
<path d="M339.386 181.977L314.33 183.783C313.858 183.81 313.392 183.674 313.018 183.399C312.645 183.124 312.389 182.73 312.299 182.289L305.336 146.124C305.292 145.919 305.295 145.707 305.344 145.503C305.394 145.298 305.49 145.107 305.625 144.941C305.759 144.775 305.93 144.638 306.126 144.54C306.321 144.443 306.536 144.386 306.757 144.374L331.79 142.557C332.263 142.535 332.73 142.674 333.105 142.95C333.479 143.226 333.738 143.621 333.833 144.062L340.784 180.227C340.83 180.43 340.829 180.641 340.781 180.845C340.733 181.048 340.64 181.24 340.508 181.406C340.375 181.572 340.206 181.709 340.013 181.808C339.819 181.906 339.605 181.964 339.386 181.977Z" fill="#263238"/>
<path d="M322.83 146.112L316.842 146.546C316.25 146.577 315.666 146.404 315.196 146.061C314.727 145.717 314.402 145.225 314.282 144.673L313.648 141.329L323.958 140.582L324.603 143.926C324.662 144.183 324.66 144.449 324.599 144.705C324.539 144.961 324.42 145.202 324.251 145.41C324.082 145.618 323.867 145.788 323.622 145.909C323.377 146.031 323.107 146.1 322.83 146.112Z" fill="#263238"/>
<path opacity="0.7" d="M322.83 146.112L316.842 146.546C316.25 146.577 315.666 146.404 315.196 146.061C314.727 145.717 314.402 145.225 314.282 144.673L313.648 141.329L323.958 140.582L324.603 143.926C324.662 144.183 324.66 144.449 324.599 144.705C324.539 144.961 324.42 145.202 324.251 145.41C324.082 145.618 323.867 145.788 323.622 145.909C323.377 146.031 323.107 146.1 322.83 146.112Z" fill="white"/>
<path d="M332.963 142.6L331.789 142.678C332.257 142.652 332.719 142.787 333.092 143.057C333.464 143.327 333.723 143.714 333.82 144.15L340.783 180.314C340.827 180.52 340.824 180.732 340.775 180.936C340.725 181.14 340.629 181.332 340.494 181.498C340.36 181.664 340.189 181.801 339.993 181.898C339.798 181.996 339.583 182.053 339.362 182.065L340.537 181.986C340.758 181.975 340.975 181.918 341.171 181.82C341.367 181.721 341.539 181.584 341.674 181.416C341.809 181.249 341.904 181.056 341.953 180.85C342.002 180.645 342.003 180.431 341.957 180.225L335.006 144.15C334.924 143.699 334.67 143.293 334.294 143.007C333.918 142.722 333.444 142.577 332.963 142.6Z" fill="white"/>
<path d="M378.157 116.004C379.073 121.578 379.777 126.996 380.306 132.559C380.576 135.324 380.822 138.133 380.904 140.965C381.08 143.936 381.061 146.914 380.846 149.883C380.766 150.8 380.633 151.712 380.446 152.614C380.293 153.305 380.073 153.98 379.789 154.632C379.662 154.888 379.521 155.138 379.366 155.379L379.108 155.847C378.967 156.037 378.826 156.215 378.673 156.394L378.415 156.672L378.333 156.817L378.274 156.929L378.063 157.118C376.889 158.088 375.773 159.125 374.54 160.006C372.079 161.88 369.455 163.555 366.697 165.011C363.868 166.44 360.879 167.562 357.785 168.356C356.211 168.756 354.605 169.036 352.983 169.192C352.161 169.259 351.327 169.314 350.494 169.326H349.202C348.721 169.326 348.38 169.27 347.711 169.181L348.286 163.473C348.505 163.407 348.729 163.359 348.956 163.328L349.824 163.138C350.412 163.005 350.999 162.826 351.597 162.637C352.799 162.246 353.975 161.788 355.12 161.265C357.422 160.173 359.619 158.889 361.683 157.43C362.705 156.628 363.738 155.925 364.724 155.022C365.711 154.119 366.674 153.384 367.601 152.536C368.529 151.689 369.421 150.697 370.349 149.805L370.454 149.604L370.513 149.504V149.593L370.396 149.805C370.312 149.925 370.222 150.04 370.126 150.151C370.072 150.225 370.025 150.303 369.985 150.385L369.82 150.675C369.691 150.92 369.726 150.842 369.82 150.742C369.887 150.295 369.914 149.844 369.902 149.393C369.902 147.163 369.726 144.465 369.456 141.856C369.186 139.248 368.893 136.561 368.552 133.897C367.871 128.579 367.132 123.161 366.404 117.855L378.157 116.004Z" fill="#FF887B"/>
<path d="M351.198 169.346L339.75 170.717L340.548 160.762C340.548 160.762 347.042 160.762 350.047 164.485L351.198 169.346Z" fill="#FF887B"/>
<path d="M333.587 168.454L333.059 164.641C332.961 163.911 333.168 163.173 333.635 162.586C334.103 161.999 334.793 161.608 335.56 161.498L340.55 160.762L339.751 170.717L336.71 170.895C335.961 170.938 335.223 170.71 334.643 170.257C334.064 169.805 333.687 169.16 333.587 168.454Z" fill="#FF887B"/>
<path d="M366.626 127.16H349.777V130.939H366.626V127.16Z" fill="white"/>
<path d="M364.36 111.698C358.196 118.922 363.186 143.459 363.186 143.459L383.969 140.025C383.969 140.025 384.709 122.534 378.744 114.719C374.599 109.268 367.836 107.919 364.36 111.698Z" fill="#0C7489"/>
<path opacity="0.6" d="M364.36 111.698C358.196 118.922 363.186 143.459 363.186 143.459L383.969 140.025C383.969 140.025 384.709 122.534 378.744 114.719C374.599 109.268 367.836 107.919 364.36 111.698Z" fill="white"/>
<path d="M356.305 87.1055C355.014 93.2258 353.699 104.452 358.196 108.543C354.955 111.888 349.742 117.462 340.724 119.948C335.675 111.498 338.129 108.465 338.129 108.465C345.327 106.871 345.174 101.776 343.93 97.0385L356.305 87.1055Z" fill="#FF887B"/>
<path opacity="0.2" d="M354.955 88.1875C354.849 91.8328 353.92 95.4141 352.231 98.6891C351.057 100.919 347.828 101.944 344.575 102.167C344.645 100.438 344.435 98.7084 343.953 97.0391L354.955 88.1875Z" fill="black"/>
<path d="M366.614 79.4906C363.444 89.3121 362.399 93.515 355.777 97.4391C345.902 103.325 333.902 97.5395 333.867 87.049C333.867 77.5954 339.022 63.1474 350.223 61.4975C352.706 61.1058 355.253 61.3255 357.621 62.1356C359.989 62.9456 362.099 64.319 363.748 66.1243C365.397 67.9295 366.531 70.1064 367.041 72.4466C367.551 74.7868 367.421 77.2121 366.661 79.4906H366.614Z" fill="#FF887B"/>
<path d="M359.83 59.4245C352.914 53.3933 345.282 55.8125 341.278 57.7969C339.273 58.8047 337.513 60.2005 336.112 61.8942C334.71 63.5878 333.698 65.5416 333.141 67.6295C332.719 69.2795 333.141 73.0698 336.511 74.1401C337.441 72.2275 338.748 70.5019 340.362 69.0565C342.875 67.1725 347.548 66.9718 349.415 67.5069C351.22 71.5557 353.671 75.3159 356.683 78.6551C359.642 81.7654 364.01 83.9727 368.425 83.393C372.429 78.5213 373.767 71.7544 371.066 66.1245C368.366 60.4947 359.83 59.4245 359.83 59.4245Z" fill="#263238"/>
<path d="M353.077 76.0762C353.013 76.0165 352.957 75.949 352.912 75.8755C351.621 74.1921 348.638 73.4898 347.37 73.1888C347.236 73.1669 347.116 73.0967 347.035 72.9928C346.954 72.889 346.919 72.7595 346.936 72.6314C346.947 72.5676 346.972 72.5066 347.008 72.4519C347.044 72.3971 347.092 72.3497 347.147 72.3124C347.203 72.2751 347.266 72.2487 347.332 72.2345C347.399 72.2204 347.468 72.2189 347.535 72.2301C349.155 72.5757 352.701 73.6236 353.863 75.4853C353.888 75.5453 353.9 75.6094 353.899 75.6738C353.897 75.7382 353.883 75.8018 353.855 75.8608C353.828 75.9198 353.789 75.9731 353.74 76.0177C353.691 76.0623 353.633 76.0973 353.57 76.1208C353.49 76.1522 353.403 76.1645 353.317 76.1567C353.231 76.149 353.149 76.1213 353.077 76.0762Z" fill="#263238"/>
<path d="M338.142 73.9174V73.8505C338.094 73.8067 338.055 73.754 338.028 73.6956C338.002 73.6371 337.988 73.5741 337.988 73.5105C337.988 73.4468 338.002 73.3839 338.028 73.3254C338.055 73.2669 338.094 73.2142 338.142 73.1705C338.72 72.6373 339.422 72.2405 340.191 72.012C340.959 71.7835 341.774 71.7297 342.569 71.855C342.635 71.8694 342.698 71.8962 342.754 71.9338C342.809 71.9713 342.856 72.0189 342.892 72.0739C342.928 72.1288 342.952 72.1899 342.963 72.2538C342.974 72.3176 342.972 72.3829 342.956 72.4458C342.923 72.5711 342.839 72.6789 342.723 72.7457C342.606 72.8125 342.466 72.8329 342.334 72.8026C341.701 72.7031 341.051 72.7471 340.439 72.9312C339.827 73.1152 339.269 73.4341 338.812 73.8616C338.725 73.9452 338.611 73.9967 338.488 74.0069C338.365 74.0171 338.243 73.9854 338.142 73.9174Z" fill="#263238"/>
<path d="M363.833 81.3288C363.195 80.57 362.404 79.9389 361.507 79.472C360.611 79.0051 359.625 78.7117 358.608 78.6087L354.005 78.1404C354.064 76.9643 353.655 75.8101 352.859 74.9069C352.064 74.0037 350.94 73.4175 349.71 73.2645C348.48 73.1115 347.235 73.4031 346.221 74.0812C345.207 74.7593 344.499 75.7744 344.236 76.9253C343.901 76.7565 343.51 76.7166 343.144 76.8138C343.052 75.6195 342.475 74.5058 341.535 73.707C340.595 72.9082 339.366 72.4864 338.106 72.5305C336.845 72.5745 335.652 73.0809 334.777 73.9431C333.901 74.8054 333.412 75.9563 333.412 77.1538C333.412 78.3514 333.901 79.5023 334.777 80.3645C335.652 81.2268 336.845 81.7332 338.106 81.7772C339.366 81.8212 340.595 81.3995 341.535 80.6007C342.475 79.8018 343.052 78.6882 343.144 77.4939C343.3 77.4008 343.485 77.3601 343.668 77.3783C343.851 77.3965 344.022 77.4725 344.154 77.5942C344.066 78.7985 344.47 79.9887 345.28 80.9186C346.091 81.8485 347.247 82.447 348.51 82.5902C349.772 82.7334 351.044 82.4104 352.063 81.688C353.081 80.9656 353.768 79.899 353.982 78.709L358.573 79.1772C359.507 79.2729 360.412 79.5428 361.236 79.9713C362.06 80.3998 362.787 80.9786 363.375 81.6744L364.69 83.224L365.195 82.845L363.833 81.3288ZM337.732 80.9163C336.88 80.8281 336.076 80.5023 335.419 79.9802C334.763 79.4581 334.284 78.763 334.044 77.9827C333.803 77.2025 333.811 76.372 334.068 75.5962C334.324 74.8204 334.816 74.1341 335.483 73.624C336.15 73.1138 336.961 72.8027 337.814 72.7298C338.667 72.657 339.523 72.8257 340.275 73.2148C341.027 73.6038 341.64 74.1956 342.038 74.9156C342.436 75.6355 342.6 76.4512 342.51 77.2597C342.45 77.7981 342.279 78.3199 342.006 78.7953C341.733 79.2707 341.364 79.6903 340.92 80.03C340.477 80.3697 339.966 80.6228 339.419 80.7749C338.872 80.927 338.298 80.9751 337.732 80.9163ZM348.604 82.0311C347.752 81.945 346.946 81.621 346.288 81.1C345.63 80.5789 345.149 79.8844 344.907 79.104C344.665 78.3237 344.672 77.4927 344.927 76.716C345.182 75.9394 345.674 75.2519 346.34 74.7407C347.007 74.2294 347.818 73.9173 348.671 73.8438C349.525 73.7702 350.382 73.9386 351.134 74.3275C351.887 74.7165 352.501 75.3085 352.899 76.0289C353.297 76.7493 353.462 77.5655 353.371 78.3745C353.247 79.4585 352.676 80.4517 351.783 81.1369C350.889 81.8221 349.747 82.1436 348.604 82.0311Z" fill="#263238"/>
<path d="M368.964 85.0641C368.663 86.0116 368.168 86.8933 367.507 87.6585C366.846 88.4238 366.032 89.0575 365.113 89.5234C362.659 90.7051 360.862 88.7653 361.074 86.2904C361.273 84.0608 362.788 80.7164 365.477 80.5603C366.057 80.5284 366.637 80.6333 367.164 80.8658C367.691 81.0982 368.149 81.4509 368.498 81.8925C368.847 82.334 369.075 82.8506 369.163 83.3962C369.25 83.9418 369.194 84.4995 368.999 85.0195L368.964 85.0641Z" fill="#FF887B"/>
<path d="M343.073 78.7148C341.851 80.3826 340.393 81.8831 338.74 83.1741C339.101 83.5665 339.547 83.8795 340.048 84.0913C340.549 84.3031 341.092 84.4086 341.64 84.4004L343.073 78.7148Z" fill="#BA4D3C"/>
<path d="M342.653 88.053C342.611 88.0265 342.578 87.9895 342.557 87.9462C342.537 87.9029 342.529 87.8549 342.535 87.8077C342.549 87.7442 342.59 87.6886 342.647 87.6531C342.704 87.6175 342.774 87.605 342.841 87.6182C343.912 87.8208 345.017 87.7843 346.071 87.5115C347.124 87.2387 348.097 86.7371 348.911 86.0463C348.932 86.0158 348.959 85.99 348.992 85.9707C349.024 85.9515 349.061 85.9394 349.099 85.9352C349.137 85.931 349.175 85.9349 349.211 85.9466C349.248 85.9582 349.281 85.9774 349.308 86.0026C349.336 86.0279 349.357 86.0586 349.37 86.0926C349.384 86.1265 349.389 86.1629 349.386 86.1991C349.383 86.2353 349.371 86.2703 349.352 86.3018C349.333 86.3332 349.307 86.3601 349.275 86.3808C348.41 87.1444 347.364 87.6984 346.225 87.9954C345.087 88.2923 343.889 88.3236 342.735 88.0864L342.653 88.053Z" fill="#263238"/>
<path d="M350.623 78.6475C350.458 79.4613 349.871 80.0521 349.307 79.9518C348.744 79.8515 348.415 79.1045 348.579 78.2796C348.744 77.4546 349.331 76.8749 349.895 76.9864C350.458 77.0979 350.787 77.8337 350.623 78.6475Z" fill="#263238"/>
<path d="M340.665 77.3602C340.501 78.1852 339.914 78.7649 339.35 78.6645C338.787 78.5642 338.458 77.8284 338.622 76.9923C338.787 76.1562 339.374 75.5988 339.938 75.6992C340.501 75.7995 340.83 76.5464 340.665 77.3602Z" fill="#263238"/>
<path d="M340.16 75.7887L338.199 74.8516C338.199 74.8516 338.986 76.5807 340.16 75.7887Z" fill="#263238"/>
<path d="M350.142 77.0738L348.182 76.1367C348.182 76.1367 348.933 77.8659 350.142 77.0738Z" fill="#263238"/>
<path d="M336.016 115.166C336.016 115.289 340.712 120.74 340.712 120.74L350.106 116.649L346.207 114.586L342.004 116.604C341.067 114.689 340.819 112.534 341.299 110.473C342.027 106.861 336.016 115.166 336.016 115.166Z" fill="#0C7489"/>
<path d="M341.548 115.61C339.485 117.003 337.524 118.526 335.677 120.17C334.35 115.788 335.782 107.907 340.186 106.112C341.923 105.387 342.334 105.053 344.084 104.328C342.287 107.271 340.021 111.184 341.548 115.61Z" fill="#0C7489"/>
<path d="M355.578 103.591C354.145 112.275 342.662 116.144 342.662 116.144C344.494 117.716 345.351 119.165 347.183 120.737C352.596 117.808 357.246 113.762 360.791 108.897C359.171 107.047 357.269 105.296 355.672 103.457C355.578 103.591 355.601 103.424 355.578 103.591Z" fill="#0C7489"/>
<path d="M122.651 124.631L138.067 123.94L142.529 120.919C143.27 120.612 144.099 120.557 144.877 120.763L151.993 121.264C152.525 121.405 153.016 121.664 153.424 122.018C153.832 122.372 154.146 122.813 154.341 123.304L154.588 129.737C154.392 130.372 154.001 130.938 153.466 131.363C152.931 131.788 152.275 132.052 151.582 132.122L142.928 133.081C142.248 133.159 141.558 133.047 140.944 132.758L135.249 131.298L116.463 133.104L122.651 124.631Z" fill="#FF887B"/>
<path d="M142.763 120.875C144.113 119.638 145.247 118.204 146.121 116.627C146.184 116.479 146.28 116.345 146.402 116.235C146.524 116.125 146.67 116.042 146.829 115.99C146.988 115.938 147.157 115.919 147.325 115.935C147.492 115.951 147.654 116 147.8 116.081C148.037 116.211 148.218 116.417 148.313 116.661C148.407 116.905 148.408 117.173 148.316 117.419L146.379 122.602C146.293 122.829 146.133 123.023 145.921 123.156C145.709 123.288 145.458 123.352 145.205 123.338L142.258 122.97L142.434 121.499C142.47 121.263 142.586 121.044 142.763 120.875Z" fill="#FF887B"/>
<path d="M103.311 135.904C101.753 135.946 100.209 135.611 98.8246 134.93C97.4402 134.249 96.2608 133.246 95.3974 132.013C92.0901 127.273 89.0867 122.348 86.4033 117.264C82.5051 109.884 81.4132 94.9681 76.8457 87.9336C84.83 91.1777 93.5774 96.7518 97.323 104.188C100.188 109.884 103.91 115.403 106.998 120.999L130.822 120.609C132.037 120.586 133.225 120.947 134.201 121.635C135.176 122.323 135.883 123.299 136.211 124.41C137.385 128.29 138.16 133.775 134.215 134.444C129.624 135.146 112.059 135.681 103.311 135.904Z" fill="#263238"/>
<path d="M80.9437 381.26L91.1119 381.004L90.9123 358.641L80.7441 358.897L80.9437 381.26Z" fill="#FF887B"/>
<path d="M91.5094 376.524L80.3902 376.802C80.1774 376.822 79.9788 376.912 79.8286 377.057C79.6785 377.202 79.5864 377.392 79.5683 377.594L78.0654 387.705C77.9806 388.126 78.0649 388.563 78.3017 388.928C78.5386 389.293 78.9108 389.561 79.3452 389.678H79.627C83.6309 389.489 89.4077 389.076 94.4448 388.954C100.316 388.809 100.821 389.154 107.713 388.954C111.881 388.842 112.809 384.115 111.036 383.725C102.993 381.986 101.091 381.83 93.9869 377.259C93.2625 376.774 92.396 376.517 91.5094 376.524Z" fill="#263238"/>
<path opacity="0.2" d="M90.9127 358.656L90.7483 371.276L80.5801 371.532L80.7445 358.913L90.9127 358.656Z" fill="black"/>
<path d="M92.8369 377.407C92.7998 377.404 92.764 377.393 92.7331 377.373C92.7022 377.354 92.6772 377.327 92.6608 377.295C92.6315 377.243 92.6249 377.183 92.6425 377.126C92.6601 377.07 92.7004 377.022 92.7547 376.994C93.2009 376.76 97.1343 374.709 98.3672 375.344C98.4859 375.396 98.5879 375.477 98.6622 375.579C98.7366 375.681 98.7807 375.8 98.7899 375.924C98.8332 376.126 98.8202 376.335 98.7523 376.53C98.6843 376.726 98.5637 376.901 98.4024 377.039C97.7048 377.516 96.8528 377.745 95.9954 377.685C94.9354 377.693 93.8773 377.599 92.8369 377.407ZM93.5649 377.072C95.7958 377.373 97.4396 377.239 98.0267 376.704C98.1305 376.612 98.2077 376.496 98.2509 376.367C98.294 376.238 98.3017 376.101 98.2732 375.969C98.2669 375.92 98.2501 375.873 98.2238 375.831C98.1976 375.789 98.1624 375.752 98.1206 375.723C97.9724 375.679 97.818 375.657 97.6627 375.656C96.2211 375.901 94.8349 376.38 93.5649 377.072Z" fill="#0C7489"/>
<path d="M92.3088 377.083C92.2761 377.057 92.2496 377.025 92.2314 376.988C92.2131 376.952 92.2035 376.912 92.2031 376.871C92.2031 376.771 92.3675 374.196 93.5652 373.17C93.7373 373.018 93.9415 372.903 94.1642 372.832C94.3869 372.761 94.6229 372.736 94.8567 372.758C95.5143 372.758 95.7608 373.115 95.7726 373.36C96.0074 374.475 93.753 376.548 92.5554 377.094H92.4497C92.4025 377.102 92.3541 377.098 92.3088 377.083ZM93.8822 373.527C93.1738 374.375 92.7631 375.412 92.708 376.492C93.8822 375.757 95.4438 374.096 95.3029 373.46C95.3029 373.404 95.2442 373.215 94.8215 373.226H94.6689C94.3774 373.235 94.0987 373.342 93.8822 373.527Z" fill="#0C7489"/>
<path d="M43.584 381.943L53.7522 381.832L53.9048 359.469L43.7366 359.591L43.584 381.943Z" fill="#FF887B"/>
<path d="M54.1969 377.352L43.0777 377.485C42.863 377.498 42.6604 377.584 42.5072 377.728C42.3541 377.871 42.2606 378.062 42.244 378.266L40.5767 388.355C40.4904 388.775 40.571 389.21 40.8031 389.576C41.0352 389.943 41.4022 390.215 41.8331 390.339C41.9267 390.35 42.0213 390.35 42.1149 390.339C46.1187 390.217 51.8956 389.882 56.9445 389.826C62.8152 389.759 63.3084 390.116 70.2007 390.038C74.3807 390.038 75.3787 385.267 73.6175 384.865C65.598 383.004 63.6959 382.825 56.6744 378.177C55.9558 377.669 55.0918 377.382 54.1969 377.352Z" fill="#263238"/>
<path opacity="0.2" d="M53.9033 359.477L53.551 372.085L43.3711 372.208L43.7351 359.599L53.9033 359.477Z" fill="black"/>
<path d="M55.5467 378.264C55.5073 378.26 55.4696 378.246 55.4369 378.225C55.4042 378.204 55.3774 378.175 55.3588 378.142C55.345 378.116 55.3367 378.088 55.3346 378.06C55.3324 378.031 55.3364 378.003 55.3463 377.975C55.3561 377.948 55.3717 377.923 55.392 377.902C55.4124 377.881 55.437 377.864 55.4645 377.852C55.9107 377.618 59.8793 375.622 61.1004 376.269C61.2179 376.324 61.3179 376.408 61.3901 376.512C61.4623 376.615 61.5042 376.736 61.5114 376.86C61.5533 377.063 61.5385 377.272 61.4685 377.468C61.3984 377.663 61.2756 377.838 61.1122 377.975C60.3998 378.437 59.5419 378.654 58.6817 378.588C57.6282 378.575 56.5784 378.467 55.5467 378.264ZM56.2629 377.93C58.5056 378.264 60.1376 378.153 60.7365 377.629C60.8397 377.536 60.9173 377.42 60.9624 377.292C61.0074 377.163 61.0185 377.027 60.9948 376.893C60.9954 376.844 60.9814 376.797 60.9544 376.755C60.9273 376.714 60.8884 376.68 60.8421 376.659C60.702 376.6 60.5491 376.573 60.396 376.581C58.9476 376.805 57.5499 377.261 56.2629 377.93Z" fill="#0C7489"/>
<path d="M55.0179 377.918C54.984 377.895 54.9566 377.865 54.9381 377.83C54.9197 377.795 54.9108 377.756 54.9123 377.717C54.9123 377.606 55.1236 375.042 56.333 374.038C56.5069 373.89 56.7117 373.777 56.9341 373.708C57.1565 373.639 57.3917 373.615 57.6246 373.637C58.2821 373.637 58.5287 374.005 58.5404 374.25C58.7518 375.365 56.4622 377.405 55.2528 377.94H55.1588C55.1106 377.949 55.0604 377.941 55.0179 377.918ZM56.65 374.384C55.952 375.233 55.5424 376.263 55.4759 377.338C56.65 376.625 58.2469 374.986 58.1177 374.35C58.1177 374.295 58.1177 374.094 57.6481 374.105H57.4954C57.1859 374.088 56.882 374.189 56.65 374.384Z" fill="#0C7489"/>
<path d="M91.1352 177.029L94.188 295.645L94.9865 364.764C95.0386 365.665 94.7181 366.551 94.0932 367.232C93.4682 367.912 92.5881 368.335 91.6401 368.409L79.5463 368.632C78.6354 368.616 77.7648 368.272 77.1109 367.67C76.4569 367.068 76.0683 366.252 76.0238 365.388C74.2626 349.914 67.9809 325.433 69.9652 296.425C69.9652 296.425 59.7265 220.551 58.7285 197.352L60.2667 176.672L91.1352 177.029Z" fill="#263238"/>
<path opacity="0.3" d="M66.608 209.383C66.608 209.383 68.3457 228.468 65.5865 259.55C65.5865 259.55 62.1697 236.774 60.291 224.321L66.608 209.383Z" fill="black"/>
<path d="M69.4608 175.879L60.7016 296.569L57.1792 365.587C57.1767 366.484 56.8084 367.345 56.1516 367.989C55.4948 368.634 54.6006 369.011 53.6567 369.043L41.5629 368.586C40.6671 368.502 39.8367 368.104 39.2348 367.468C38.633 366.833 38.3032 366.007 38.3105 365.152C37.512 349.601 32.7685 324.818 36.561 295.967C36.561 295.967 31.0659 219.647 31.5121 196.436L34.3301 175.879H69.4608Z" fill="#263238"/>
<path d="M53.8777 84.019C55.956 77.9209 55.5098 69.1808 54.817 63.707L68.7308 76.7615C67.855 79.0884 67.5576 81.5761 67.8619 84.0301C67.9471 84.5928 68.222 85.114 68.6453 85.516C69.0686 85.9179 69.6176 86.1788 70.2102 86.2598L76.081 88.0212L76.7738 92.3689L73.2513 93.2496L68.6955 98.8906L56.8601 93.2496L44.4492 87.7648C46.3203 87.1881 48.262 86.8433 50.2261 86.7391C51.0199 86.5969 51.766 86.2756 52.4015 85.8022C53.0371 85.3288 53.5434 84.7172 53.8777 84.019Z" fill="#FF887B"/>
<path d="M91.1358 177.028L32.3223 178.142L43.5237 87.1734C43.9443 87.0451 44.3714 86.9372 44.8035 86.8501L49.3006 86.0809C50.1929 86.6717 59.1517 94.2971 67.8405 94.6204C75.1907 94.8768 72.1731 86.0586 72.1731 86.0586L75.3316 86.995L76.588 87.1734L80.404 89.8824C80.404 89.8824 88.5057 106.605 90.4548 148.187L91.1358 177.028Z" fill="#0C7489"/>
<path opacity="0.8" d="M91.1358 177.028L32.3223 178.142L43.5237 87.1734C43.9443 87.0451 44.3714 86.9372 44.8035 86.8501L49.3006 86.0809C50.1929 86.6717 59.1517 94.2971 67.8405 94.6204C75.1907 94.8768 72.1731 86.0586 72.1731 86.0586L75.3316 86.995L76.588 87.1734L80.404 89.8824C80.404 89.8824 88.5057 106.605 90.4548 148.187L91.1358 177.028Z" fill="white"/>
<path opacity="0.2" d="M60.4787 70.043L68.4982 77.5011C68.0669 78.8793 67.8107 80.3014 67.735 81.7374C64.4709 81.035 60.4553 78.1031 59.4337 74.5914C58.7527 72.4175 59.6099 70.2325 60.4787 70.043Z" fill="black"/>
<path d="M52.7171 53.8523C53.3159 63.8856 53.1398 69.7941 58.4587 74.9557C66.443 82.7594 79.5231 78.1664 82.071 68.1888C84.4193 59.1365 82.9868 44.2872 72.6778 40.2515C70.4056 39.3497 67.9281 39.0149 65.4812 39.2792C63.0343 39.5434 60.6993 40.3979 58.6985 41.7612C56.6977 43.1245 55.0976 44.9513 54.0506 47.0677C53.0037 49.1841 52.5446 51.5198 52.7171 53.8523Z" fill="#FF887B"/>
<path d="M49.8535 44.2305C47.8047 45.0713 45.9968 46.3645 44.5805 48.0025C43.1641 49.6404 42.1802 51.5758 41.7104 53.6476C41.2407 55.7195 41.2988 57.8678 41.8799 59.9141C42.461 61.9603 43.5482 63.8452 45.0512 65.412C47.2352 67.6416 50.288 69.3027 51.7557 72.1009C52.5071 73.5167 51.5443 74.9213 50.1119 75.7352C51.0479 75.5136 51.8982 75.0437 52.5636 74.3804C53.2289 73.7172 53.6817 72.8879 53.8692 71.9894C54.0199 72.7155 54.0089 73.4636 53.8371 74.1855C53.6652 74.9073 53.3362 75.5871 52.8711 76.1811C54.1704 75.16 55.1537 73.8235 55.7161 72.3138C56.2785 70.8041 56.399 69.1778 56.0648 67.6081C54.7633 66.5714 53.7251 65.269 53.0278 63.7981C52.3304 62.3272 51.9919 60.7257 52.0375 59.1133C52.1195 57.5688 52.5884 56.0653 53.4053 54.7274C54.2221 53.3896 55.3633 52.2561 56.7341 51.421L55.8652 51.7889C54.698 48.7577 52.6048 46.126 49.8535 44.2305Z" fill="#263238"/>
<path d="M56.2497 59.2061C55.7603 58.9716 55.224 58.8385 54.6763 58.8159C54.3449 58.7773 54.0086 58.8206 53.7 58.9417C53.3914 59.0628 53.121 59.2576 52.9151 59.5071C52.7475 59.8395 52.6538 60.201 52.6396 60.5692C52.6255 60.9375 52.6913 61.3045 52.8329 61.6476C53.6548 64.8285 54.5589 67.9872 55.5452 71.1235C50.2502 66.0152 46.9987 59.3126 46.3516 52.1716C49.4866 51.9152 53.1734 51.7369 56.3084 51.4805L56.2497 59.2061Z" fill="#263238"/>
<path d="M69.4609 56.4693C69.5431 57.2831 70.0598 57.9074 70.6351 57.8516C71.2104 57.7959 71.5744 57.1047 71.504 56.2909C71.4335 55.4771 70.9051 54.8639 70.3298 54.9085C69.7545 54.9531 69.4609 55.6555 69.4609 56.4693Z" fill="#263238"/>
<path d="M79.1825 55.7928C79.2647 56.5955 79.7813 57.2198 80.3567 57.1641C80.932 57.1083 81.3077 56.4171 81.2255 55.6145C81.1434 54.8118 80.6267 54.1764 80.0514 54.221C79.4761 54.2656 79.1121 54.9679 79.1825 55.7928Z" fill="#263238"/>
<path d="M65.7263 52.7363C65.6431 52.7145 65.5639 52.6806 65.4914 52.636C65.4015 52.5434 65.3516 52.422 65.3516 52.296C65.3516 52.17 65.4015 52.0486 65.4914 51.956C66.0894 51.4485 66.8055 51.0828 67.5811 50.889C68.3567 50.6952 69.1697 50.6788 69.9532 50.8412C70.0171 50.8578 70.0767 50.8864 70.1287 50.9254C70.1806 50.9643 70.2238 51.0128 70.2555 51.068C70.2873 51.1231 70.3071 51.1838 70.3136 51.2463C70.3202 51.3088 70.3134 51.372 70.2937 51.432C70.2761 51.4928 70.246 51.5497 70.2051 51.5995C70.1643 51.6492 70.1135 51.6908 70.0557 51.7219C69.9979 51.7529 69.9342 51.7729 69.8682 51.7805C69.8023 51.7882 69.7354 51.7834 69.6714 51.7664C69.0482 51.6456 68.4036 51.6676 67.791 51.8304C67.1784 51.9933 66.6155 52.2924 66.149 52.7029C66.0845 52.7353 66.0139 52.7549 65.9412 52.7607C65.8686 52.7664 65.7955 52.7581 65.7263 52.7363Z" fill="#263238"/>
<path d="M82.8458 52.0247C82.773 52.0659 82.6899 52.0877 82.6051 52.0877C82.5204 52.0877 82.4372 52.0659 82.3644 52.0247C81.8281 51.7146 81.2228 51.5279 80.5969 51.4796C79.971 51.4312 79.3419 51.5224 78.7598 51.746C78.6394 51.8012 78.5013 51.8099 78.3743 51.7704C78.2473 51.7309 78.1414 51.6462 78.0787 51.5342C78.0484 51.4779 78.0302 51.4164 78.025 51.3533C78.0198 51.2903 78.0278 51.2269 78.0485 51.1668C78.0693 51.1067 78.1023 51.0511 78.1458 51.0031C78.1893 50.9552 78.2423 50.9159 78.3018 50.8876C79.0409 50.5839 79.846 50.4538 80.6492 50.5081C81.4525 50.5625 82.2301 50.7997 82.9163 51.1997C82.972 51.2288 83.0211 51.2681 83.0607 51.3153C83.1004 51.3625 83.1298 51.4167 83.1472 51.4747C83.1647 51.5327 83.1699 51.5935 83.1625 51.6535C83.1551 51.7134 83.1353 51.7714 83.1041 51.824C83.0477 51.9194 82.9554 51.991 82.8458 52.0247Z" fill="#263238"/>
<path d="M47.5151 63.1602C48.9316 65.2954 51.1749 66.8168 53.7616 67.3964C57.2137 68.1211 58.7518 65.1668 57.6364 62.168C56.6383 59.4813 53.6442 55.847 50.2627 56.449C46.8811 57.051 45.8126 60.5403 47.5151 63.1602Z" fill="#FF887B"/>
<path d="M75.4961 56.2812C76.87 58.5448 78.5737 60.6127 80.5567 62.4239C79.2886 64.0181 76.6468 63.862 76.6468 63.862L75.4961 56.2812Z" fill="#BA4D3C"/>
<path d="M69.8613 86.0781C69.8613 86.0781 78.6792 89.6121 81.9082 112.209C85.0541 133.288 86.2328 154.59 85.4307 175.865C84.5383 195.676 85.2898 208.507 91.7594 207.671C91.7594 207.671 92.3464 197.025 91.7594 161.596C91.2427 130.247 93.8376 95.7659 78.0922 87.7838C75.4952 86.7014 72.6971 86.1216 69.8613 86.0781Z" fill="#263238"/>
<g opacity="0.1">
<path d="M69.8613 86.082C69.8613 86.082 78.6792 89.616 81.9082 112.213C85.0541 133.292 86.2328 154.594 85.4307 175.869C84.5383 195.68 85.2898 208.511 91.7594 207.675C91.7594 207.675 92.3464 197.028 91.7594 161.6C91.2427 130.251 93.8376 95.7698 78.0922 87.7877C75.4952 86.7054 72.6971 86.1255 69.8613 86.082Z" fill="white"/>
</g>
<path d="M50.4043 86.0781C50.4043 86.0781 60.9717 91.6522 62.1458 127.003C63.32 162.354 65.0812 208.552 52.5412 209.667C40.0012 210.781 26.2988 204.093 26.2988 204.093C26.2988 204.093 32.6393 166.278 33.9308 153.424C35.4103 138.575 25.1129 91.4292 31.8878 89.6567C37.975 88.0972 44.1593 86.902 50.4043 86.0781Z" fill="#263238"/>
<g opacity="0.1">
<path d="M50.4023 86.082C50.4023 86.082 60.9697 91.6561 62.1439 127.007C63.318 162.358 65.0793 208.556 52.5393 209.671C39.9993 210.785 26.2969 204.096 26.2969 204.096C26.2969 204.096 32.6373 166.282 33.9289 153.428C35.4083 138.579 25.111 91.4331 31.8859 89.6606C37.9731 88.1011 44.1574 86.906 50.4023 86.082Z" fill="white"/>
</g>
<g opacity="0.2">
<path d="M50.8863 186.804L41.0407 185.482C40.0325 185.346 39.1224 184.836 38.5103 184.064C37.8983 183.291 37.6345 182.32 37.7771 181.362L38.0894 179.265L55.5256 181.607L55.2133 183.704C55.071 184.659 54.5357 185.522 53.7246 186.103C52.9135 186.684 51.8928 186.936 50.8863 186.804Z" fill="white"/>
</g>
<path d="M22.6833 137.543L34.237 145.469L41.2819 144.566C42.098 144.465 42.9261 144.63 43.6303 145.035L47.9981 147.498C48.4695 147.775 48.8673 148.152 49.1606 148.598C49.4538 149.045 49.6346 149.55 49.6889 150.073L49.9002 152.303C49.9762 153.055 49.7817 153.81 49.3484 154.444L48.0686 156.417C47.7012 156.968 47.172 157.406 46.5461 157.675C45.9202 157.944 45.225 158.034 44.5461 157.933L35.9395 156.606C35.2687 156.5 34.6425 156.218 34.1313 155.792L29.5169 151.868L14.793 143.875L22.6833 137.543Z" fill="#FF887B"/>
<path d="M31.054 153.819C30.5325 154.402 29.812 154.793 29.018 154.924C28.2241 155.054 27.4072 154.916 26.7097 154.533C22.8584 152.448 3.44962 140.118 0.479005 132.448C-3.7597 121.523 21.3203 96.8411 28.9406 91.3116C37.4767 85.1243 41.7741 103.43 36.1968 108.993C29.4454 115.681 21.7899 123.351 18.4553 126.517C18.2365 126.727 18.0717 126.982 17.9737 127.262C17.8757 127.543 17.8472 127.841 17.8903 128.133C17.9335 128.425 18.0473 128.704 18.2226 128.948C18.398 129.192 18.6304 129.394 18.9015 129.539C18.9015 129.539 33.3554 141.177 35.9268 143.351C37.5706 144.745 32.8505 151.801 31.054 153.819Z" fill="#263238"/>
<path d="M31.054 153.819C30.5325 154.402 29.812 154.793 29.018 154.924C28.2241 155.054 27.4072 154.916 26.7097 154.533C22.8584 152.448 3.44962 140.118 0.479005 132.448C-3.7597 121.523 21.3203 96.8411 28.9406 91.3116C37.4767 85.1243 41.7741 103.43 36.1968 108.993C29.4454 115.681 21.7899 123.351 18.4553 126.517C18.2365 126.727 18.0717 126.982 17.9737 127.262C17.8757 127.543 17.8472 127.841 17.8903 128.133C17.9335 128.425 18.0473 128.704 18.2226 128.948C18.398 129.192 18.6304 129.394 18.9015 129.539C18.9015 129.539 33.3554 141.177 35.9268 143.351C37.5706 144.745 32.8505 151.801 31.054 153.819Z" fill="#263238"/>
<path d="M74.1572 68.2432C73.2085 68.0433 72.3129 67.6613 71.5254 67.1206C70.7379 66.58 70.0752 65.8922 69.578 65.0994C69.5616 65.0733 69.551 65.0443 69.5469 65.0141C69.5428 64.984 69.5452 64.9533 69.554 64.9241C69.5628 64.8949 69.5778 64.8676 69.598 64.8441C69.6183 64.8206 69.6435 64.8012 69.6719 64.7873C69.7314 64.7593 69.7999 64.7541 69.8633 64.7727C69.9267 64.7914 69.9801 64.8326 70.0124 64.8876C70.5666 65.7386 71.32 66.4568 72.2139 66.9866C73.1078 67.5163 74.1184 67.8433 75.167 67.9422C75.2047 67.9345 75.2437 67.9348 75.2813 67.9432C75.3188 67.9517 75.3539 67.968 75.3839 67.991C75.4139 68.014 75.4381 68.0431 75.4548 68.0761C75.4714 68.1091 75.4801 68.1453 75.4801 68.1819C75.4801 68.2185 75.4714 68.2547 75.4548 68.2877C75.4381 68.3208 75.4139 68.3498 75.3839 68.3728C75.3539 68.3958 75.3188 68.4121 75.2813 68.4206C75.2437 68.429 75.2047 68.4294 75.167 68.4216C74.826 68.387 74.4884 68.3274 74.1572 68.2432Z" fill="#263238"/>
<path d="M65.8431 51.4556C69.9644 50.8982 73.0407 47.0855 73.5691 43.1725C77.2559 44.0309 79.6512 47.1747 81.5768 50.2962C81.7082 50.5188 81.8909 50.7103 82.1111 50.8565C82.3313 51.0026 82.5835 51.0997 82.8488 51.1404C83.114 51.1812 83.3856 51.1645 83.6431 51.0917C83.9006 51.0188 84.1375 50.8917 84.3361 50.7198C84.6418 50.3963 84.8603 50.0071 84.9728 49.5858C85.0853 49.1644 85.0884 48.7234 84.9819 48.3007C84.7445 47.4208 84.3472 46.587 83.8077 45.8369C83.0798 44.7221 82.3283 43.5181 81.4594 42.4145C80.3265 40.8667 78.8065 39.6103 77.0358 38.758C75.2651 37.9057 73.2993 37.4843 71.3147 37.5316H71.1034C68.1161 36.0783 64.7263 35.5445 61.4048 36.0043C57.6123 36.4279 55.1935 38.089 52.3169 40.4635C49.4402 42.8381 48.2895 47.4646 44.2387 51.5114C43.9295 51.823 43.7213 52.2125 43.639 52.6335C43.5568 53.0544 43.6039 53.489 43.7748 53.8852C43.9456 54.2814 44.233 54.6225 44.6026 54.8678C44.9722 55.113 45.4084 55.2521 45.859 55.2683C52.725 55.3616 59.532 54.0538 65.8197 51.4333L65.8431 51.4556Z" fill="#263238"/>
<path d="M67.1473 92.5664L63.7188 96.4906L67.1473 100.972H71.5386V95.4315L67.1473 92.5664Z" fill="#0C7489"/>
<path d="M67.112 100.973L68.2861 110.616C70.9163 128.196 66.7715 149.768 66.7715 149.768L74.7558 156.669C74.7558 156.669 81.061 149.066 80.6265 149.155C80.38 149.155 80.4269 135.197 78.0669 122.232C76.632 114.963 74.4575 107.843 71.5738 100.973H67.112Z" fill="#0C7489"/>
<path d="M68.0155 82.7147C68.9079 83.7291 69.9881 83.8295 70.8217 84.8328C72.4336 86.8498 73.5872 89.1624 74.2097 91.6243C74.8321 94.0862 74.9099 96.644 74.4381 99.1359L74.3207 99.7491C73.8184 98.3855 72.9201 97.1847 71.7296 96.2852C70.5392 95.3857 69.105 94.8242 67.5928 94.6655C65.6239 97.3409 62.985 99.5093 59.9138 100.975C55.0933 96.6572 51.3573 91.3651 48.9824 85.4906C50.6732 84.1899 52.3601 82.8819 54.043 81.5664C57.3005 85.5106 61.8914 88.2669 67.041 89.3701C67.2171 87.2966 67.8394 84.7659 68.0155 82.7147Z" fill="#0C7489"/>
<path opacity="0.9" d="M68.0155 82.7147C68.9079 83.7291 69.9881 83.8295 70.8217 84.8328C72.4336 86.8498 73.5872 89.1624 74.2097 91.6243C74.8321 94.0862 74.9099 96.644 74.4381 99.1359L74.3207 99.7491C73.8184 98.3855 72.9201 97.1847 71.7296 96.2852C70.5392 95.3857 69.105 94.8242 67.5928 94.6655C65.6239 97.3409 62.985 99.5093 59.9138 100.975C55.0933 96.6572 51.3573 91.3651 48.9824 85.4906C50.6732 84.1899 52.3601 82.8819 54.043 81.5664C57.3005 85.5106 61.8914 88.2669 67.041 89.3701C67.2171 87.2966 67.8394 84.7659 68.0155 82.7147Z" fill="white"/>
</svg>
