<svg width="787" height="855" viewBox="0 0 787 855" fill="none" xmlns="http://www.w3.org/2000/svg">
<path d="M206.303 29.576C206.303 31.272 205.903 32.872 205.103 34.376C204.303 35.88 203.023 37.112 201.263 38.072C199.503 39 197.247 39.464 194.495 39.464H188.447V53H182.975V19.64H194.495C197.055 19.64 199.215 20.088 200.975 20.984C202.767 21.848 204.095 23.032 204.959 24.536C205.855 26.04 206.303 27.72 206.303 29.576ZM194.495 35C196.575 35 198.127 34.536 199.151 33.608C200.175 32.648 200.687 31.304 200.687 29.576C200.687 25.928 198.623 24.104 194.495 24.104H188.447V35H194.495ZM216.994 30.392C217.794 29.048 218.85 28.008 220.162 27.272C221.506 26.504 223.09 26.12 224.914 26.12V31.784H223.522C221.378 31.784 219.746 32.328 218.626 33.416C217.538 34.504 216.994 36.392 216.994 39.08V53H211.522V26.552H216.994V30.392ZM254.184 39.128C254.184 40.12 254.12 41.016 253.992 41.816H233.784C233.944 43.928 234.728 45.624 236.136 46.904C237.544 48.184 239.272 48.824 241.32 48.824C244.264 48.824 246.344 47.592 247.56 45.128H253.464C252.664 47.56 251.208 49.56 249.096 51.128C247.016 52.664 244.424 53.432 241.32 53.432C238.792 53.432 236.52 52.872 234.504 51.752C232.52 50.6 230.952 49 229.8 46.952C228.68 44.872 228.12 42.472 228.12 39.752C228.12 37.032 228.664 34.648 229.752 32.6C230.872 30.52 232.424 28.92 234.408 27.8C236.424 26.68 238.728 26.12 241.32 26.12C243.816 26.12 246.04 26.664 247.992 27.752C249.944 28.84 251.464 30.376 252.552 32.36C253.64 34.312 254.184 36.568 254.184 39.128ZM248.472 37.4C248.44 35.384 247.72 33.768 246.312 32.552C244.904 31.336 243.16 30.728 241.08 30.728C239.192 30.728 237.576 31.336 236.232 32.552C234.888 33.736 234.088 35.352 233.832 37.4H248.472ZM257.745 39.656C257.745 37 258.289 34.648 259.377 32.6C260.497 30.552 262.001 28.968 263.889 27.848C265.809 26.696 267.937 26.12 270.273 26.12C272.001 26.12 273.697 26.504 275.361 27.272C277.057 28.008 278.401 29 279.393 30.248V17.48H284.913V53H279.393V49.016C278.497 50.296 277.249 51.352 275.649 52.184C274.081 53.016 272.273 53.432 270.225 53.432C267.921 53.432 265.809 52.856 263.889 51.704C262.001 50.52 260.497 48.888 259.377 46.808C258.289 44.696 257.745 42.312 257.745 39.656ZM279.393 39.752C279.393 37.928 279.009 36.344 278.241 35C277.505 33.656 276.529 32.632 275.313 31.928C274.097 31.224 272.785 30.872 271.377 30.872C269.969 30.872 268.657 31.224 267.441 31.928C266.225 32.6 265.233 33.608 264.465 34.952C263.729 36.264 263.361 37.832 263.361 39.656C263.361 41.48 263.729 43.08 264.465 44.456C265.233 45.832 266.225 46.888 267.441 47.624C268.689 48.328 270.001 48.68 271.377 48.68C272.785 48.68 274.097 48.328 275.313 47.624C276.529 46.92 277.505 45.896 278.241 44.552C279.009 43.176 279.393 41.576 279.393 39.752ZM294.884 23.048C293.892 23.048 293.06 22.712 292.388 22.04C291.716 21.368 291.38 20.536 291.38 19.544C291.38 18.552 291.716 17.72 292.388 17.048C293.06 16.376 293.892 16.04 294.884 16.04C295.844 16.04 296.66 16.376 297.332 17.048C298.004 17.72 298.34 18.552 298.34 19.544C298.34 20.536 298.004 21.368 297.332 22.04C296.66 22.712 295.844 23.048 294.884 23.048ZM297.572 26.552V53H292.1V26.552H297.572ZM302.932 39.752C302.932 37.032 303.476 34.648 304.564 32.6C305.684 30.52 307.22 28.92 309.172 27.8C311.124 26.68 313.364 26.12 315.892 26.12C319.092 26.12 321.732 26.888 323.812 28.424C325.924 29.928 327.348 32.088 328.084 34.904H322.18C321.7 33.592 320.932 32.568 319.876 31.832C318.82 31.096 317.492 30.728 315.892 30.728C313.652 30.728 311.86 31.528 310.516 33.128C309.204 34.696 308.548 36.904 308.548 39.752C308.548 42.6 309.204 44.824 310.516 46.424C311.86 48.024 313.652 48.824 315.892 48.824C319.06 48.824 321.156 47.432 322.18 44.648H328.084C327.316 47.336 325.876 49.48 323.764 51.08C321.652 52.648 319.028 53.432 315.892 53.432C313.364 53.432 311.124 52.872 309.172 51.752C307.22 50.6 305.684 49 304.564 46.952C303.476 44.872 302.932 42.472 302.932 39.752ZM339.922 31.016V45.656C339.922 46.648 340.146 47.368 340.594 47.816C341.074 48.232 341.874 48.44 342.994 48.44H346.354V53H342.034C339.57 53 337.682 52.424 336.37 51.272C335.058 50.12 334.402 48.248 334.402 45.656V31.016H331.282V26.552H334.402V19.976H339.922V26.552H346.354V31.016H339.922ZM354.181 23.048C353.189 23.048 352.357 22.712 351.685 22.04C351.013 21.368 350.677 20.536 350.677 19.544C350.677 18.552 351.013 17.72 351.685 17.048C352.357 16.376 353.189 16.04 354.181 16.04C355.141 16.04 355.957 16.376 356.629 17.048C357.301 17.72 357.637 18.552 357.637 19.544C357.637 20.536 357.301 21.368 356.629 22.04C355.957 22.712 355.141 23.048 354.181 23.048ZM356.869 26.552V53H351.397V26.552H356.869ZM375.525 53.432C373.029 53.432 370.773 52.872 368.757 51.752C366.741 50.6 365.157 49 364.005 46.952C362.853 44.872 362.277 42.472 362.277 39.752C362.277 37.064 362.869 34.68 364.053 32.6C365.237 30.52 366.853 28.92 368.901 27.8C370.949 26.68 373.237 26.12 375.765 26.12C378.293 26.12 380.581 26.68 382.629 27.8C384.677 28.92 386.293 30.52 387.477 32.6C388.661 34.68 389.253 37.064 389.253 39.752C389.253 42.44 388.645 44.824 387.429 46.904C386.213 48.984 384.549 50.6 382.437 51.752C380.357 52.872 378.053 53.432 375.525 53.432ZM375.525 48.68C376.933 48.68 378.245 48.344 379.461 47.672C380.709 47 381.717 45.992 382.485 44.648C383.253 43.304 383.637 41.672 383.637 39.752C383.637 37.832 383.269 36.216 382.533 34.904C381.797 33.56 380.821 32.552 379.605 31.88C378.389 31.208 377.077 30.872 375.669 30.872C374.261 30.872 372.949 31.208 371.733 31.88C370.549 32.552 369.605 33.56 368.901 34.904C368.197 36.216 367.845 37.832 367.845 39.752C367.845 42.6 368.565 44.808 370.005 46.376C371.477 47.912 373.317 48.68 375.525 48.68ZM408.007 26.12C410.087 26.12 411.943 26.552 413.575 27.416C415.239 28.28 416.535 29.56 417.463 31.256C418.391 32.952 418.855 35 418.855 37.4V53H413.431V38.216C413.431 35.848 412.839 34.04 411.655 32.792C410.471 31.512 408.855 30.872 406.807 30.872C404.759 30.872 403.127 31.512 401.911 32.792C400.727 34.04 400.135 35.848 400.135 38.216V53H394.663V26.552H400.135V29.576C401.031 28.488 402.167 27.64 403.543 27.032C404.951 26.424 406.439 26.12 408.007 26.12ZM455.631 53L447.951 39.656H443.775V53H438.303V19.64H449.823C452.383 19.64 454.543 20.088 456.303 20.984C458.095 21.88 459.423 23.08 460.287 24.584C461.183 26.088 461.631 27.768 461.631 29.624C461.631 31.8 460.991 33.784 459.711 35.576C458.463 37.336 456.527 38.536 453.903 39.176L462.159 53H455.631ZM443.775 35.288H449.823C451.871 35.288 453.407 34.776 454.431 33.752C455.487 32.728 456.015 31.352 456.015 29.624C456.015 27.896 455.503 26.552 454.479 25.592C453.455 24.6 451.903 24.104 449.823 24.104H443.775V35.288ZM492.871 39.128C492.871 40.12 492.807 41.016 492.679 41.816H472.471C472.631 43.928 473.415 45.624 474.823 46.904C476.231 48.184 477.959 48.824 480.007 48.824C482.951 48.824 485.031 47.592 486.247 45.128H492.151C491.351 47.56 489.895 49.56 487.783 51.128C485.703 52.664 483.111 53.432 480.007 53.432C477.479 53.432 475.207 52.872 473.191 51.752C471.207 50.6 469.639 49 468.487 46.952C467.367 44.872 466.807 42.472 466.807 39.752C466.807 37.032 467.351 34.648 468.439 32.6C469.559 30.52 471.111 28.92 473.095 27.8C475.111 26.68 477.415 26.12 480.007 26.12C482.503 26.12 484.727 26.664 486.679 27.752C488.631 28.84 490.151 30.376 491.239 32.36C492.327 34.312 492.871 36.568 492.871 39.128ZM487.159 37.4C487.127 35.384 486.407 33.768 484.999 32.552C483.591 31.336 481.847 30.728 479.767 30.728C477.879 30.728 476.263 31.336 474.919 32.552C473.575 33.736 472.775 35.352 472.519 37.4H487.159ZM507.856 53.432C505.776 53.432 503.904 53.064 502.24 52.328C500.608 51.56 499.312 50.536 498.352 49.256C497.392 47.944 496.88 46.488 496.816 44.888H502.48C502.576 46.008 503.104 46.952 504.064 47.72C505.056 48.456 506.288 48.824 507.76 48.824C509.296 48.824 510.48 48.536 511.312 47.96C512.176 47.352 512.608 46.584 512.608 45.656C512.608 44.664 512.128 43.928 511.168 43.448C510.24 42.968 508.752 42.44 506.704 41.864C504.72 41.32 503.104 40.792 501.856 40.28C500.608 39.768 499.52 38.984 498.592 37.928C497.696 36.872 497.248 35.48 497.248 33.752C497.248 32.344 497.664 31.064 498.496 29.912C499.328 28.728 500.512 27.8 502.048 27.128C503.616 26.456 505.408 26.12 507.424 26.12C510.432 26.12 512.848 26.888 514.672 28.424C516.528 29.928 517.52 31.992 517.648 34.616H512.176C512.08 33.432 511.6 32.488 510.736 31.784C509.872 31.08 508.704 30.728 507.232 30.728C505.792 30.728 504.688 31 503.92 31.544C503.152 32.088 502.768 32.808 502.768 33.704C502.768 34.408 503.024 35 503.536 35.48C504.048 35.96 504.672 36.344 505.408 36.632C506.144 36.888 507.232 37.224 508.672 37.64C510.592 38.152 512.16 38.68 513.376 39.224C514.624 39.736 515.696 40.504 516.592 41.528C517.488 42.552 517.952 43.912 517.984 45.608C517.984 47.112 517.568 48.456 516.736 49.64C515.904 50.824 514.72 51.752 513.184 52.424C511.68 53.096 509.904 53.432 507.856 53.432ZM547.849 26.552V53H542.377V49.88C541.513 50.968 540.377 51.832 538.969 52.472C537.593 53.08 536.121 53.384 534.553 53.384C532.473 53.384 530.601 52.952 528.937 52.088C527.305 51.224 526.009 49.944 525.049 48.248C524.121 46.552 523.657 44.504 523.657 42.104V26.552H529.081V41.288C529.081 43.656 529.673 45.48 530.857 46.76C532.041 48.008 533.657 48.632 535.705 48.632C537.753 48.632 539.369 48.008 540.553 46.76C541.769 45.48 542.377 43.656 542.377 41.288V26.552H547.849ZM560.541 17.48V53H555.069V17.48H560.541ZM574.109 31.016V45.656C574.109 46.648 574.333 47.368 574.781 47.816C575.261 48.232 576.061 48.44 577.181 48.44H580.541V53H576.221C573.757 53 571.869 52.424 570.557 51.272C569.245 50.12 568.589 48.248 568.589 45.656V31.016H565.469V26.552H568.589V19.976H574.109V26.552H580.541V31.016H574.109ZM595.184 53.432C593.104 53.432 591.232 53.064 589.568 52.328C587.936 51.56 586.64 50.536 585.68 49.256C584.72 47.944 584.208 46.488 584.144 44.888H589.808C589.904 46.008 590.432 46.952 591.392 47.72C592.384 48.456 593.616 48.824 595.088 48.824C596.624 48.824 597.808 48.536 598.64 47.96C599.504 47.352 599.936 46.584 599.936 45.656C599.936 44.664 599.456 43.928 598.496 43.448C597.568 42.968 596.08 42.44 594.032 41.864C592.048 41.32 590.432 40.792 589.184 40.28C587.936 39.768 586.848 38.984 585.92 37.928C585.024 36.872 584.576 35.48 584.576 33.752C584.576 32.344 584.992 31.064 585.824 29.912C586.656 28.728 587.84 27.8 589.376 27.128C590.944 26.456 592.736 26.12 594.752 26.12C597.76 26.12 600.176 26.888 602 28.424C603.856 29.928 604.848 31.992 604.976 34.616H599.504C599.408 33.432 598.928 32.488 598.064 31.784C597.2 31.08 596.032 30.728 594.56 30.728C593.12 30.728 592.016 31 591.248 31.544C590.48 32.088 590.096 32.808 590.096 33.704C590.096 34.408 590.352 35 590.864 35.48C591.376 35.96 592 36.344 592.736 36.632C593.472 36.888 594.56 37.224 596 37.64C597.92 38.152 599.488 38.68 600.704 39.224C601.952 39.736 603.024 40.504 603.92 41.528C604.816 42.552 605.28 43.912 605.312 45.608C605.312 47.112 604.896 48.456 604.064 49.64C603.232 50.824 602.048 51.752 600.512 52.424C599.008 53.096 597.232 53.432 595.184 53.432Z" fill="#1E1E1E"/>
<path d="M242.087 270.708L265.111 258.493L251.41 240.145C251.41 240.145 234.054 246.414 233.651 261.763L242.087 270.708Z" fill="#E4897B"/>
<path d="M275.617 243.039L262.13 231.852L251.464 240.148L265.166 258.497L275.617 243.039Z" fill="#E4897B"/>
<path d="M139.676 235.418C144.078 236.363 148.292 238.044 152.142 240.39C155.59 242.506 158.781 245.018 161.652 247.876C166.214 252.446 170.494 257.292 174.468 262.387C181.91 271.71 188.868 280.925 195.961 290.167C197.196 289.411 198.459 288.546 199.749 287.654C201.952 286.141 204.155 284.465 206.385 282.736C215.224 275.818 224.197 268.116 233.117 260.658L244.078 270.197C237.423 280.533 229.939 290.303 221.698 299.409C217.267 304.392 212.353 308.919 207.03 312.921C205.331 314.166 203.534 315.269 201.656 316.218C200.358 316.873 199 317.398 197.599 317.785C195.356 318.421 193.015 318.632 190.695 318.407C189.86 318.318 189.034 318.164 188.223 317.947C187.296 317.719 186.396 317.393 185.536 316.975C183.687 316.123 182.017 314.921 180.62 313.435L178.659 311.246L175.65 307.949C167.59 299.112 159.879 289.978 152.303 281.223C148.542 276.872 144.727 272.575 141.395 269.305C140.08 267.959 138.62 266.762 137.043 265.738C135.838 265.007 134.535 264.452 133.174 264.09L139.676 235.418Z" fill="#0C7489"/>
<path opacity="0.7" d="M133.037 264.062C134.4 264.433 135.702 264.997 136.906 265.738C138.499 266.739 139.962 267.938 141.258 269.305C142.656 270.683 144.16 272.251 145.691 273.926C147.814 276.196 150.017 278.709 152.166 281.222C156.922 286.627 161.784 292.356 166.728 298.004C169.602 301.328 172.558 304.652 175.513 307.921L178.522 311.245L180.483 313.407C181.877 314.905 183.547 316.116 185.4 316.974C186.264 317.381 187.163 317.706 188.086 317.947C188.897 318.164 189.724 318.318 190.558 318.406C192.878 318.619 195.217 318.409 197.463 317.785C198.859 317.386 200.217 316.861 201.52 316.218C203.396 315.256 205.193 314.145 206.893 312.894C212.217 308.892 217.131 304.366 221.562 299.382C229.802 290.275 237.287 280.505 243.941 270.17L232.98 260.603C224.087 268.089 215.087 275.791 206.248 282.709C204.045 284.438 201.815 286.086 199.612 287.6C198.349 288.519 196.925 289.383 195.824 290.14C188.785 280.871 181.827 271.683 174.331 262.36C170.358 257.255 166.078 252.4 161.516 247.821C158.648 244.971 155.466 242.46 152.032 240.336C148.172 238.016 143.961 236.345 139.566 235.391L133.037 264.062Z" fill="white"/>
<path opacity="0.1" d="M145.694 273.925C147.817 276.195 150.02 278.708 152.169 281.221C156.924 286.626 161.787 292.355 166.73 298.002C166.231 291.735 164.343 285.659 161.205 280.221C158.067 274.782 153.759 270.12 148.596 266.574C147.111 268.784 146.121 271.292 145.694 273.925Z" fill="black"/>
<path d="M32.8535 241.606C38.5338 259.036 42.4493 276.999 44.5403 295.221C46.421 310.111 47.5225 324.947 48.1136 338.593C48.7046 352.24 48.8121 365.022 48.7315 374.751C48.5971 387.425 48.1673 395.342 48.1673 395.342H156.492C171.833 284.952 140.883 235.121 140.883 235.121C132.741 233.582 124.514 232.544 116.246 232.013C114.527 232.013 112.754 231.851 110.873 231.797C96.2126 231.944 81.5728 232.946 67.0274 234.796C64.3408 235.094 61.493 235.499 58.7526 235.959C45.0508 238.255 32.8535 241.606 32.8535 241.606Z" fill="#0C7489"/>
<path opacity="0.7" d="M32.854 241.579C35.4126 248.997 37.5387 256.558 39.2214 264.225C41.0483 272.332 42.5258 280.817 43.7617 289.33C44.0303 291.302 44.299 293.248 44.5408 295.221C45.7498 304.841 46.6364 314.461 47.2275 323.703C47.5767 328.784 47.8723 333.756 48.0872 338.566C48.4365 347.16 48.6245 355.24 48.6783 362.428C48.6783 366.887 48.6783 371.021 48.6783 374.724C48.6783 387.425 48.1409 395.342 48.1409 395.342H156.412C171.753 284.925 140.803 235.121 140.803 235.121C132.672 233.567 124.453 232.529 116.193 232.013C114.447 232.013 112.674 231.824 110.82 231.797C96.1594 231.944 81.5196 232.946 66.9742 234.796C64.2876 235.094 61.4397 235.499 58.7262 235.931C45.0513 238.255 32.854 241.579 32.854 241.579Z" fill="white"/>
<path d="M237.251 846.553C237.251 846.553 201.197 835.743 198.564 821.583C198.523 821.248 198.413 820.926 198.241 820.637C198.07 820.347 197.841 820.097 197.568 819.901C197.295 819.705 196.985 819.569 196.657 819.5C196.329 819.432 195.99 819.432 195.662 819.502L169.468 823.907C168.848 824.012 168.269 824.287 167.795 824.702C167.321 825.117 166.97 825.655 166.781 826.258L158.721 851.876L166.109 852.092L168.796 848.417L171.912 852.282C212.212 853.552 229.487 853.66 237.52 851.39C238.944 847.85 237.251 846.553 237.251 846.553Z" fill="black"/>
<path d="M92.0914 846.553C92.0914 846.553 56.0368 835.743 53.404 821.583C53.3594 821.247 53.2465 820.925 53.0722 820.635C52.898 820.345 52.6661 820.095 52.3912 819.9C52.1163 819.704 51.8042 819.568 51.4746 819.5C51.1449 819.432 50.8048 819.432 50.4755 819.502L24.3077 823.907C23.6846 824.003 23.1014 824.275 22.6259 824.691C22.1503 825.107 21.8019 825.651 21.6211 826.258L13.5612 851.876L20.9763 852.092L23.663 848.417L26.7526 852.282C67.052 853.552 84.327 853.66 92.3869 851.39C93.7839 847.85 92.0914 846.553 92.0914 846.553Z" fill="black"/>
<path d="M82.7949 400.02C83.0098 400.669 89.4846 421.098 98.2161 450.392L99.7206 455.526C103.831 469.47 108.371 485.252 112.939 501.466C118.527 521.382 124.142 542.325 129.059 562.376C136.232 591.373 142.035 618.504 144.345 638.042C151.895 702.277 166.591 829.097 166.591 829.097L200.63 820.45C200.63 820.45 206.836 683.117 200.389 617.504C196.278 575.807 177.848 490.927 165.785 438.177C159.632 411.154 155.038 392.48 155.038 392.48L116.028 396.561L82.7949 400.02Z" fill="#263238"/>
<path opacity="0.2" d="M129.116 562.456C120.089 525.92 108.886 486.466 99.7511 455.578L106.871 439.121C125.408 459.902 131.749 526.218 129.116 562.456Z" fill="black"/>
<path d="M19.8226 827.203L57.4354 830.879C57.4354 830.879 100.932 703.706 106.601 637.175C109.019 608.233 111.329 552.24 113.049 501.544C114.338 464.414 115.305 430.149 115.735 411.421C115.977 402.044 116.111 396.559 116.111 396.559L82.7972 400.045L47.1456 401.153C47.1456 401.153 45.4798 409.395 45.9634 444.255C46.7426 498.302 48.6501 593.667 47.5217 644.877C46.1784 711.219 19.8226 827.203 19.8226 827.203Z" fill="#263238"/>
<path d="M76.4012 188.637L102.945 212.12C100.017 223.119 104.342 233.441 109.635 235.495L105.685 246.494L72.8817 233.793C81.2909 225.037 78.8998 202.851 76.4012 188.637Z" fill="#E4897B"/>
<path opacity="0.2" d="M87.2285 198.176L102.945 211.958C102.204 214.518 101.7 217.141 101.441 219.794C95.4227 218.876 87.2822 212.174 86.7449 205.823C86.452 203.266 86.6159 200.676 87.2285 198.176Z" fill="black"/>
<path d="M75.5687 227.066C75.5687 227.066 95.9064 233.498 98.7811 235.173C101.656 236.849 104.987 245.01 104.987 245.01C104.987 245.01 102.757 236.633 103.886 231.85C105.014 227.066 107.029 227.066 107.029 227.066L112.241 237.876C112.241 237.876 113.343 247.145 104.987 248.496C96.6318 249.847 71.1625 234.525 71.1625 234.525L75.5687 227.066Z" fill="#0C7489"/>
<path opacity="0.6" d="M75.5687 227.066C75.5687 227.066 95.9064 233.498 98.7811 235.173C101.656 236.849 104.987 245.01 104.987 245.01C104.987 245.01 102.757 236.633 103.886 231.85C105.014 227.066 107.029 227.066 107.029 227.066L112.241 237.876C112.241 237.876 113.343 247.145 104.987 248.496C96.6318 249.847 71.1625 234.525 71.1625 234.525L75.5687 227.066Z" fill="white"/>
<path d="M124.118 149.381C128.9 155.083 123.366 162.352 123.581 167.919C123.795 173.485 124.763 180.755 117.643 173.08C110.523 165.406 116.649 141.49 124.118 149.381Z" fill="#263238"/>
<path d="M74.5495 173.723C76.9406 192.315 74.5495 195.477 84.5169 204.341C99.6158 217.69 122.882 218.961 124.978 199.828C126.858 182.587 126.563 151.618 107.864 145.565C103.724 144.224 99.3141 143.961 95.0464 144.803C90.7787 145.644 86.7934 147.562 83.4639 150.376C80.1345 153.191 77.5699 156.809 76.0108 160.893C74.4516 164.976 73.9488 169.391 74.5495 173.723Z" fill="#FF8B7B"/>
<path d="M77.2879 186.233C85.6164 191.314 88.3299 179.505 87.7657 178.586C85.2403 174.586 85.3746 171.181 88.3837 163.534C91.3927 155.886 76.1595 147.05 65.0638 150.346C54.8814 153.4 65.0637 161.399 63.8816 168.074C61.5174 179.964 70.5444 182.153 77.2879 186.233Z" fill="#263238"/>
<path d="M118.988 193.775C112.366 192.462 105.641 191.738 98.8924 191.613C100.531 195.802 103.675 199.315 111.278 199.72C118.881 200.126 118.988 193.775 118.988 193.775Z" fill="white"/>
<path d="M66.8924 186.774C68.7544 190.69 72.0309 193.744 76.0539 195.314C81.1585 197.151 83.5764 192.071 82.045 186.558C80.6748 181.586 76.3762 174.641 71.2985 175.208C66.2207 175.776 64.4745 181.775 66.8924 186.774Z" fill="#FF8B7B"/>
<path d="M97.1416 174.127C97.3028 175.694 98.0282 175.802 99.076 175.667C100.124 175.532 101.037 175.262 100.876 173.695C100.715 172.127 99.7476 170.992 98.6998 170.992C97.652 170.992 96.9804 172.533 97.1416 174.127Z" fill="#263238"/>
<path d="M116.591 174.045C116.752 175.639 117.477 175.72 118.525 175.612C119.573 175.504 120.486 175.207 120.325 173.612C120.164 172.018 119.17 170.91 118.149 170.91C117.128 170.91 116.403 172.451 116.591 174.045Z" fill="#263238"/>
<path d="M113.534 173.535C115.154 177.197 117.269 180.616 119.82 183.696C119.017 184.338 118.084 184.796 117.086 185.039C116.089 185.282 115.05 185.303 114.044 185.101L113.534 173.535Z" fill="#FF5652"/>
<path d="M93.7298 167.152C93.5722 167.129 93.4237 167.064 93.2999 166.963C93.1122 166.809 92.9908 166.589 92.9608 166.347C92.9307 166.106 92.9945 165.862 93.1388 165.666C94.0302 164.464 95.1962 163.495 96.5382 162.841C97.8802 162.187 99.3588 161.868 100.849 161.91C101.096 161.937 101.323 162.059 101.484 162.25C101.644 162.441 101.724 162.687 101.709 162.937C101.682 163.183 101.56 163.409 101.369 163.566C101.178 163.722 100.934 163.797 100.688 163.775C99.5116 163.768 98.3499 164.039 97.2957 164.564C96.2415 165.09 95.324 165.856 94.6164 166.801C94.5172 166.938 94.3811 167.045 94.224 167.107C94.067 167.169 93.8955 167.185 93.7298 167.152Z" fill="#263238"/>
<path d="M125.834 170.344C125.684 170.382 125.527 170.382 125.377 170.344C125.227 170.307 125.089 170.232 124.974 170.128C124.158 169.282 123.149 168.651 122.034 168.288C120.92 167.925 119.734 167.843 118.58 168.047C118.462 168.075 118.339 168.079 118.219 168.059C118.1 168.038 117.985 167.994 117.883 167.929C117.78 167.863 117.692 167.778 117.622 167.678C117.553 167.577 117.504 167.464 117.479 167.345C117.421 167.105 117.459 166.852 117.585 166.64C117.71 166.428 117.913 166.273 118.15 166.21C119.598 165.958 121.084 166.058 122.486 166.5C123.887 166.941 125.164 167.713 126.21 168.75C126.299 168.836 126.369 168.938 126.417 169.052C126.465 169.166 126.49 169.288 126.49 169.412C126.49 169.536 126.465 169.658 126.417 169.772C126.369 169.885 126.299 169.988 126.21 170.074C126.111 170.196 125.981 170.289 125.834 170.344Z" fill="#263238"/>
<path d="M103.755 152.672C103.755 152.672 117.752 158.915 123.959 146.619C130.165 134.323 113.534 127 113.534 127C114.155 128.342 114.476 129.804 114.476 131.283C114.476 132.763 114.155 134.225 113.534 135.566C113.534 135.566 110.714 126.649 98.9999 129.513C87.2862 132.378 68.6409 136.053 64.799 142.322C63.8154 143.805 63.2186 145.513 63.0637 147.289C62.9087 149.064 63.2006 150.851 63.9124 152.483L83.0413 157.131C84.109 155.469 85.4921 154.035 87.1116 152.911C88.731 151.787 90.5549 150.995 92.4789 150.581C94.4029 150.167 96.3892 150.138 98.3241 150.497C100.259 150.856 102.105 151.595 103.755 152.672Z" fill="#263238"/>
<path d="M157.648 386.126L158.48 406.799L45.8571 425.067C45.8571 407.177 48.5437 383.91 48.5437 383.91L157.648 386.126Z" fill="#263238"/>
<path d="M49.2948 394.672L46.9842 394.618L47.7902 387.133L49.832 387.16L49.2948 394.672Z" fill="#263238"/>
<path d="M134.969 396.152L88.4631 395.341L88.9736 387.855L135.291 388.666L134.969 396.152Z" fill="#263238"/>
<path d="M138.863 388.723L158.529 389.074V396.559L138.621 396.208L138.863 388.723Z" fill="#263238"/>
<path d="M53.4354 387.207L85.4062 387.775L84.8153 395.287L52.9518 394.72L53.4354 387.207Z" fill="#263238"/>
<g opacity="0.2">
<path d="M49.2948 394.668L46.9842 394.614L47.7902 387.129L49.832 387.156L49.2948 394.668Z" fill="white"/>
<path d="M134.971 396.159L88.4651 395.349L88.9755 387.863L135.293 388.674L134.971 396.159Z" fill="white"/>
<path d="M138.865 388.727L158.531 389.078V396.563L138.623 396.212L138.865 388.727Z" fill="white"/>
<path d="M53.4295 387.211L85.4004 387.778L84.8094 395.291L52.946 394.723L53.4295 387.211Z" fill="white"/>
</g>
<path d="M119.389 396.692C119.991 396.687 120.569 396.452 121.008 396.037C121.446 395.621 121.712 395.054 121.753 394.449L121.995 389.882C122.016 389.562 121.972 389.242 121.866 388.94C121.76 388.638 121.593 388.361 121.377 388.126C120.931 387.662 120.325 387.391 119.684 387.369L108.159 387.18C107.56 387.177 106.982 387.401 106.539 387.806C106.097 388.211 105.821 388.769 105.767 389.369L105.418 394.125C105.401 394.45 105.45 394.776 105.561 395.082C105.671 395.389 105.842 395.67 106.063 395.908C106.281 396.148 106.547 396.34 106.843 396.47C107.139 396.6 107.459 396.667 107.782 396.665L119.389 396.692ZM108.132 389.206L119.657 389.396C119.735 389.364 119.822 389.364 119.899 389.396C119.917 389.438 119.926 389.484 119.926 389.531C119.926 389.577 119.917 389.623 119.899 389.666L119.657 394.206C119.657 394.299 119.621 394.388 119.555 394.454C119.49 394.52 119.401 394.557 119.308 394.557H107.702C107.624 394.589 107.538 394.589 107.46 394.557C107.442 394.514 107.433 394.468 107.433 394.422C107.433 394.376 107.442 394.33 107.46 394.287L107.809 389.558C107.806 389.513 107.811 389.468 107.826 389.425C107.84 389.383 107.863 389.344 107.894 389.311C107.924 389.278 107.961 389.251 108.002 389.233C108.043 389.216 108.087 389.206 108.132 389.206Z" fill="white"/>
<path d="M108.184 392.853H111.73C111.876 392.877 112.026 392.869 112.168 392.829C112.311 392.789 112.443 392.718 112.556 392.622C112.669 392.526 112.759 392.406 112.822 392.271C112.884 392.135 112.916 391.988 112.916 391.839C112.916 391.69 112.884 391.543 112.822 391.408C112.759 391.273 112.669 391.153 112.556 391.057C112.443 390.96 112.311 390.89 112.168 390.85C112.026 390.81 111.876 390.802 111.73 390.826H108.184C107.945 390.865 107.727 390.989 107.571 391.175C107.414 391.36 107.328 391.596 107.328 391.839C107.328 392.083 107.414 392.319 107.571 392.504C107.727 392.69 107.945 392.813 108.184 392.853Z" fill="white"/>
<path opacity="0.1" d="M39.247 264.306C41.0739 272.413 42.5516 280.899 43.7874 289.411C46.077 282.033 46.8001 274.254 45.9099 266.576C44.0186 265.064 41.6627 264.261 39.247 264.306Z" fill="black"/>
<path opacity="0.1" d="M47.3051 323.785C47.6544 328.866 47.9499 333.838 48.1648 338.648C48.5141 347.241 48.7022 355.321 48.7559 362.51C60.0935 357.781 80.6193 348.43 83.0373 341.134C86.3956 331 80.8343 326.352 80.8343 326.352C69.6156 326.202 58.4172 325.344 47.3051 323.785Z" fill="black"/>
<path d="M96.8998 321.809L102.622 323.539C104.037 323.972 105.256 324.891 106.066 326.135C106.876 327.38 107.226 328.871 107.055 330.348L106.196 337.861C106.011 339.198 105.41 340.441 104.478 341.412C103.546 342.384 102.332 343.033 101.01 343.266L97.5715 343.887C94.0563 345.995 89.9274 346.824 85.8772 346.233C81.827 345.643 78.1017 343.669 75.3261 340.644L75.1649 328.322L92.8967 321.809C94.1964 321.376 95.6002 321.376 96.8998 321.809Z" fill="#E4897B"/>
<path d="M80.8084 328.051C80.8084 328.051 86.1816 318.16 86.3428 312.188C86.504 306.216 91.7161 313.188 89.1638 317.593C88.4955 318.838 88.3263 320.293 88.691 321.66C89.0557 323.027 89.9265 324.202 91.125 324.943L80.8084 328.051Z" fill="#E4897B"/>
<path d="M0.907997 325.326L1.09608 323.921L1.28408 322.921L1.49905 321.786L1.90204 319.516C4.0782 307.356 6.52305 295.195 9.63953 283.007C11.2289 276.603 13.157 270.289 15.4158 264.091C16.766 260.484 18.3918 256.988 20.2786 253.633C21.6043 251.292 23.2103 249.123 25.0608 247.174C26.4187 245.767 27.9436 244.532 29.6012 243.499C31.6722 242.223 33.9432 241.309 36.3177 240.797C38.5966 242.156 40.5427 244.012 42.0122 246.229C43.4817 248.447 44.437 250.968 44.8075 253.606C46.0955 258.523 46.3968 263.649 45.694 268.685C44.6567 270.655 43.7589 272.695 43.0074 274.792C41.1268 279.711 39.3805 285.25 37.6342 290.844C34.3027 301.897 31.2669 313.355 28.1236 324.813C29.4669 325.218 30.9982 325.569 32.6102 325.894C35.2752 326.413 37.9656 326.792 40.6701 327.029C51.7927 328.164 63.8825 328.326 75.5962 328.38L77.8262 342.783C65.5624 346.361 52.9529 348.608 40.2134 349.485C36.9357 349.647 33.5774 349.728 30.0579 349.485C26.2427 349.372 22.4506 348.846 18.7472 347.918C16.3777 347.281 14.0883 346.374 11.9232 345.215C8.6735 343.546 5.89976 341.072 3.8633 338.027C2.5888 336.064 1.67855 333.885 1.17667 331.595C0.770889 329.532 0.680275 327.417 0.907997 325.326Z" fill="#0C7489"/>
<path opacity="0.7" d="M0.907997 325.326L1.09608 323.921L1.28408 322.921L1.49905 321.786L1.90204 319.516C4.0782 307.356 6.52305 295.195 9.63953 283.007C11.2289 276.603 13.157 270.289 15.4158 264.091C16.766 260.484 18.3918 256.988 20.2786 253.633C21.6043 251.292 23.2103 249.123 25.0608 247.174C26.4187 245.767 27.9436 244.532 29.6012 243.499C31.6722 242.223 33.9432 241.309 36.3177 240.797C38.5966 242.156 40.5427 244.012 42.0122 246.229C43.4817 248.447 44.437 250.968 44.8075 253.606C46.0955 258.523 46.3968 263.649 45.694 268.685C44.6567 270.655 43.7589 272.695 43.0074 274.792C41.1268 279.711 39.3805 285.25 37.6342 290.844C34.3027 301.897 31.2669 313.355 28.1236 324.813C29.4669 325.218 30.9982 325.569 32.6102 325.894C35.2752 326.413 37.9656 326.792 40.6701 327.029C51.7927 328.164 63.8825 328.326 75.5962 328.38L77.8262 342.783C65.5624 346.361 52.9529 348.608 40.2134 349.485C36.9357 349.647 33.5774 349.728 30.0579 349.485C26.2427 349.372 22.4506 348.846 18.7472 347.918C16.3777 347.281 14.0883 346.374 11.9232 345.215C8.6735 343.546 5.89976 341.072 3.8633 338.027C2.5888 336.064 1.67855 333.885 1.17667 331.595C0.770889 329.532 0.680275 327.417 0.907997 325.326Z" fill="white"/>
<path d="M261.24 219.227H661.038C672.236 219.227 681.314 228.235 681.314 239.346V832.59C681.314 843.702 672.236 852.71 661.038 852.71H261.24C250.041 852.71 240.963 843.702 240.963 832.59V239.346C240.963 228.235 250.041 219.227 261.24 219.227Z" fill="#263238"/>
<path opacity="0.4" d="M261.24 219.227H661.038C672.236 219.227 681.314 228.235 681.314 239.346V832.59C681.314 843.702 672.236 852.71 661.038 852.71H261.24C250.041 852.71 240.963 843.702 240.963 832.59V239.346C240.963 228.235 250.041 219.227 261.24 219.227Z" fill="white"/>
<path opacity="0.2" d="M261.938 265.598H643.529V828.065H261.938V265.598Z" fill="black"/>
<path d="M449.433 210.929C449.433 207.845 450.667 204.887 452.865 202.706C455.062 200.526 458.043 199.301 461.151 199.301C464.259 199.301 467.24 200.526 469.437 202.706C471.635 204.887 472.87 207.845 472.87 210.929H556.773C557.549 210.925 558.318 211.074 559.035 211.367C559.753 211.66 560.405 212.091 560.954 212.636C561.502 213.18 561.937 213.827 562.232 214.539C562.527 215.251 562.677 216.014 562.674 216.784V277.366H359.824V216.784C359.82 216.014 359.971 215.251 360.266 214.539C360.561 213.827 360.996 213.18 361.544 212.636C362.093 212.091 362.745 211.66 363.463 211.367C364.18 211.074 364.949 210.925 365.725 210.929H449.433ZM461.151 204.851C459.94 204.851 458.755 205.208 457.748 205.875C456.741 206.543 455.956 207.492 455.492 208.603C455.029 209.713 454.907 210.935 455.144 212.114C455.38 213.293 455.963 214.376 456.82 215.226C457.677 216.076 458.768 216.655 459.956 216.889C461.144 217.124 462.376 217.004 463.495 216.544C464.614 216.084 465.571 215.305 466.244 214.305C466.917 213.306 467.276 212.131 467.276 210.929C467.276 209.317 466.631 207.771 465.482 206.631C464.333 205.491 462.775 204.851 461.151 204.851Z" fill="#263238"/>
<path d="M270.358 257.273H651.949V819.74H270.358V257.273Z" fill="#0C7489"/>
<path opacity="0.7" d="M270.358 257.273H651.949V819.74H270.358V257.273Z" fill="white"/>
<g opacity="0.4">
<path d="M330.601 319.52H591.707V333.395H330.601V319.52Z" fill="black"/>
</g>
<g opacity="0.4">
<path d="M330.57 368.809H563.709V374.359H330.57V368.809Z" fill="black"/>
</g>
<g opacity="0.4">
<path d="M330.601 390.312H591.707V395.863H330.601V390.312Z" fill="black"/>
</g>
<g opacity="0.4">
<path d="M330.601 411.82H591.707V417.371H330.601V411.82Z" fill="black"/>
</g>
<g opacity="0.4">
<path d="M330.601 433.355H591.707V438.906H330.601V433.355Z" fill="black"/>
</g>
<g opacity="0.4">
<path d="M330.601 454.867H591.707V460.417H330.601V454.867Z" fill="black"/>
</g>
<g opacity="0.4">
<path d="M330.601 476.371H591.707V481.921H330.601V476.371Z" fill="black"/>
</g>
<g opacity="0.4">
<path d="M470.523 497.875H591.707V503.425H470.523V497.875Z" fill="black"/>
</g>
<g opacity="0.4">
<path d="M545.84 585.373H591.707V540.027H545.84V585.373ZM585.974 579.823H551.434V545.578H586.113L585.974 579.823Z" fill="black"/>
</g>
<g opacity="0.4">
<path d="M330.567 551.523H531.096V557.074H330.567V551.523Z" fill="black"/>
<path d="M394.446 568.344H531.096V573.894H394.446V568.344Z" fill="black"/>
</g>
<g opacity="0.4">
<path d="M545.84 668.686H591.707V623.34H545.84V668.686ZM585.974 663.136H551.434V628.89H586.113L585.974 663.136Z" fill="black"/>
</g>
<g opacity="0.4">
<path d="M330.567 634.832H531.096V640.382H330.567V634.832Z" fill="black"/>
<path d="M394.446 651.652H531.096V657.203H394.446V651.652Z" fill="black"/>
</g>
<g opacity="0.4">
<path d="M545.84 751.999H591.707V706.625H545.84V751.999ZM585.974 746.448H551.434V712.175H586.113L585.974 746.448Z" fill="black"/>
</g>
<g opacity="0.4">
<path d="M330.567 718.113H531.096V723.664H330.567V718.113Z" fill="black"/>
<path d="M394.446 734.957H531.096V740.507H394.446V734.957Z" fill="black"/>
</g>
<path d="M573.72 575.523L581.887 564.339L577.356 561.065L573.245 566.726L560.128 552.406L555.989 556.153L573.72 575.523Z" fill="#0C7489"/>
<path d="M573.72 658.812L581.887 647.628L577.356 644.381L573.245 650.042L560.128 635.723L555.989 639.469L573.72 658.812Z" fill="#0C7489"/>
<path d="M573.72 742.117L581.887 730.933L577.356 727.686L573.245 733.347L560.128 719.027L555.989 722.774L573.72 742.117Z" fill="#0C7489"/>
<g opacity="0.2">
<path d="M390.473 293.99H526.256C527.44 294.023 528.618 293.802 529.707 293.341C530.797 292.881 531.774 292.192 532.571 291.323C533.367 290.453 533.965 289.423 534.324 288.303C534.682 287.183 534.792 285.999 534.647 284.832L530.927 248.755C530.673 246.215 529.488 243.855 527.595 242.126C525.703 240.396 523.235 239.417 520.663 239.375H384.964C383.776 239.337 382.593 239.556 381.499 240.016C380.405 240.477 379.425 241.168 378.626 242.042C377.828 242.916 377.231 243.951 376.877 245.077C376.522 246.203 376.419 247.392 376.573 248.561L380.293 284.638C380.545 287.162 381.72 289.507 383.596 291.23C385.471 292.953 387.918 293.935 390.473 293.99ZM521.166 244.926C522.167 244.946 523.127 245.325 523.867 245.994C524.608 246.662 525.079 247.574 525.194 248.561L528.913 284.638C528.97 285.097 528.926 285.563 528.785 286.003C528.643 286.444 528.408 286.849 528.095 287.191C527.782 287.533 527.398 287.805 526.97 287.987C526.542 288.169 526.079 288.257 525.613 288.246H389.914C388.917 288.226 387.961 287.851 387.221 287.188C386.482 286.525 386.008 285.62 385.887 284.638L382.167 248.561C382.106 248.102 382.146 247.636 382.284 247.194C382.422 246.752 382.654 246.345 382.964 246C383.275 245.655 383.656 245.38 384.084 245.195C384.511 245.01 384.973 244.918 385.439 244.926H521.166Z" fill="black"/>
</g>
<path d="M393.278 291.213H529.061C531.511 291.213 533.862 290.249 535.597 288.532C537.332 286.815 538.311 284.486 538.318 282.055V245.978C538.344 244.755 538.124 243.54 537.671 242.403C537.217 241.266 536.539 240.23 535.677 239.356C534.815 238.483 533.785 237.789 532.649 237.315C531.513 236.841 530.293 236.597 529.061 236.598H393.334C390.879 236.598 388.524 237.565 386.788 239.288C385.052 241.011 384.076 243.347 384.076 245.783V281.86C384.054 283.076 384.275 284.284 384.727 285.414C385.179 286.544 385.852 287.574 386.708 288.444C387.564 289.314 388.585 290.006 389.713 290.482C390.841 290.957 392.053 291.205 393.278 291.213ZM529.061 242.148C530.033 242.148 530.965 242.531 531.652 243.213C532.339 243.895 532.725 244.819 532.725 245.783V281.86C532.717 282.82 532.328 283.737 531.642 284.413C530.955 285.089 530.028 285.468 529.061 285.468H393.334C392.367 285.468 391.439 285.089 390.753 284.413C390.067 283.737 389.677 282.82 389.67 281.86V245.783C389.67 244.819 390.056 243.895 390.743 243.213C391.43 242.531 392.362 242.148 393.334 242.148H529.061Z" fill="white"/>
<path d="M407.79 228.109H514.514C516.816 228.109 518.682 229.961 518.682 232.244V246.675C518.682 248.959 516.816 250.81 514.514 250.81H407.79C405.488 250.81 403.623 248.959 403.623 246.675V232.244C403.623 229.961 405.488 228.109 407.79 228.109Z" fill="#263238"/>
<path opacity="0.1" d="M407.79 228.109H514.514C516.816 228.109 518.682 229.961 518.682 232.244V246.675C518.682 248.959 516.816 250.81 514.514 250.81H407.79C405.488 250.81 403.623 248.959 403.623 246.675V232.244C403.623 229.961 405.488 228.109 407.79 228.109Z" fill="white"/>
<path d="M236.571 340.921L236.795 341.504L266.916 417.266L278.243 445.767L299.526 407.581L341.338 421.068L299.61 316.223L273.125 326.602L238.165 340.311L236.571 340.921Z" fill="#263238"/>
<g opacity="0.2">
<path d="M277.99 431.8L296.169 399.136L331.912 410.681L295.834 319.934L241.884 341.052L277.99 431.8ZM295.498 397.554L278.186 428.636L243.786 341.83L295.107 321.737L329.619 408.433L295.498 397.554Z" fill="white"/>
</g>
<path opacity="0.2" d="M236.795 341.5L266.944 417.261C278.169 390.809 284.789 362.658 286.521 334.007L273.013 326.625L238.054 340.334L236.795 341.5Z" fill="black"/>
<path d="M243.646 445.767L222.39 407.581L180.579 421.068L222.307 316.223L285.346 340.921L243.646 445.767Z" fill="#263238"/>
<g opacity="0.2">
<path d="M280.145 341.054L226.083 319.852L189.977 410.599L225.747 399.054L243.787 431.801L280.145 341.054ZM192.466 408.434L226.978 321.739L278.327 341.831L243.787 428.554L226.503 397.472L192.466 408.434Z" fill="white"/>
</g>
<path d="M260.961 192.499L253.494 186.727L247.201 193.748L238.811 189.363L233.889 197.383L224.855 194.58L221.443 203.322L212.046 202.156L210.256 211.398L200.803 211.897L200.719 221.305L191.49 223.47L193.084 232.739L184.414 236.513L187.658 245.338L179.827 250.61L184.582 258.714L177.813 265.263L183.966 272.395L178.485 280.055L185.812 285.994L181.813 294.486L190.091 299.037L187.658 308.112L196.636 311.109L195.881 320.461L205.25 321.821L206.201 331.173L215.654 330.84L218.255 339.859L227.512 337.861L231.707 346.298L240.461 342.69L246.083 350.238L254.053 345.132L260.961 351.57L267.869 345.132L275.812 350.238L281.462 342.69L290.216 346.298L294.383 337.861L303.64 339.859L306.241 330.84L315.722 331.173L316.645 321.821L326.014 320.461L325.259 311.109L334.237 308.112L331.804 299.037L340.11 294.486L336.083 285.994L343.438 280.055L337.929 272.395L344.109 265.263L337.313 258.714L342.096 250.61L334.237 245.338L337.481 236.513L328.811 232.739L330.405 223.47L321.204 221.305L321.12 211.897L311.667 211.398L309.877 202.156L300.48 203.322L297.068 194.58L288.034 197.383L283.112 189.363L274.722 193.748L268.429 186.727L260.961 192.499Z" fill="#0C7489"/>
<path opacity="0.2" d="M210.317 319.404C182.356 291.659 182.356 246.677 210.317 218.932C238.277 191.188 283.61 191.188 311.57 218.932C339.531 246.677 339.531 291.659 311.57 319.403C283.61 347.148 238.277 347.148 210.317 319.404Z" fill="black"/>
<path d="M294.297 271.814L277.516 270.343C277.516 270.343 274.44 258.271 276.342 232.295C273.468 231.746 270.531 231.596 267.616 231.851C264.819 232.462 261.687 261.351 261.687 261.351C261.687 261.351 231.398 257.216 229.664 258.41C228.573 259.159 228.013 263.599 227.734 266.735C227.654 267.624 227.89 268.513 228.401 269.247C228.912 269.982 229.665 270.517 230.531 270.759L231.565 271.037L230.978 299.954C230.96 301.027 231.356 302.066 232.083 302.86C232.81 303.654 233.815 304.143 234.894 304.227L263.281 306.475C266.087 306.692 268.895 306.063 271.335 304.671L274.58 302.812L291.976 305.282L294.297 271.814Z" fill="#0C7489"/>
<path opacity="0.7" d="M294.297 271.814L277.516 270.343C277.516 270.343 274.44 258.271 276.342 232.295C273.468 231.746 270.531 231.596 267.616 231.851C264.819 232.462 261.687 261.351 261.687 261.351C261.687 261.351 231.398 257.216 229.664 258.41C228.573 259.159 228.013 263.599 227.734 266.735C227.654 267.624 227.89 268.513 228.401 269.247C228.912 269.982 229.665 270.517 230.531 270.759L231.565 271.037L230.978 299.954C230.96 301.027 231.356 302.066 232.083 302.86C232.81 303.654 233.815 304.143 234.894 304.227L263.281 306.475C266.087 306.692 268.895 306.063 271.335 304.671L274.58 302.812L291.976 305.282L294.297 271.814Z" fill="white"/>
<path d="M727.465 772.458C727.465 772.458 711.601 737.251 729.736 702.52C747.871 667.79 753.114 659.634 741.559 652.497C730.003 645.361 724.693 680.295 724.693 680.295C718.979 664.52 718.394 647.295 723.023 631.156C731.038 606.042 736.081 565.126 725.094 560.742C714.106 556.359 723.023 611.717 713.471 630.68C708.627 617.407 705.495 603.551 704.154 589.458C702.851 569.272 704.888 537.056 696.238 528.798C687.589 520.54 682.011 526.249 690.528 570.801C695.647 597.403 698.474 624.409 698.977 651.512C698.977 651.512 680.174 593.094 667.517 591.395C654.859 589.696 654.893 608.591 665.713 625.005C676.534 641.419 697.407 670.814 700.814 685.937C700.814 685.937 680.141 641.962 661.572 655.352C643.003 668.741 677.736 695.35 693.233 704.967C708.729 714.584 719.483 774.837 719.483 774.837L727.465 772.458Z" fill="#0C7489"/>
<path opacity="0.2" d="M727.465 772.458C727.465 772.458 711.601 737.251 729.736 702.52C747.871 667.79 753.114 659.634 741.559 652.497C730.003 645.361 724.693 680.295 724.693 680.295C718.979 664.52 718.394 647.295 723.023 631.156C731.038 606.042 736.081 565.126 725.094 560.742C714.106 556.359 723.023 611.717 713.471 630.68C708.627 617.407 705.495 603.551 704.154 589.458C702.851 569.272 704.888 537.056 696.238 528.798C687.589 520.54 682.011 526.249 690.528 570.801C695.647 597.403 698.474 624.409 698.977 651.512C698.977 651.512 680.174 593.094 667.517 591.395C654.859 589.696 654.893 608.591 665.713 625.005C676.534 641.419 697.407 670.814 700.814 685.937C700.814 685.937 680.141 641.962 661.572 655.352C643.003 668.741 677.736 695.35 693.233 704.967C708.729 714.584 719.483 774.837 719.483 774.837L727.465 772.458Z" fill="black"/>
<path d="M714.945 786.903C714.945 786.903 730.408 751.459 711.873 717C693.337 682.541 687.994 674.453 699.449 667.181C710.904 659.908 716.648 694.707 716.648 694.707C722.183 678.871 722.569 661.644 717.751 645.567C709.401 620.556 703.891 579.708 714.812 575.154C725.733 570.6 717.517 626.129 727.269 644.922C731.916 631.576 734.845 617.675 735.985 603.564C737.054 583.378 734.616 551.196 743.199 542.802C751.782 534.408 757.393 540.049 749.378 584.703C744.578 611.368 742.075 638.408 741.897 665.515C741.897 665.515 760.165 606.826 772.723 604.923C785.28 603.02 785.547 621.915 774.927 638.499C764.306 655.083 743.8 684.784 740.561 699.94C740.561 699.94 760.599 655.762 779.435 668.88C798.271 681.997 763.739 709.116 748.376 718.971C733.013 728.826 722.927 789.078 722.927 789.078L714.945 786.903Z" fill="#0C7489"/>
<path d="M786.213 761.617H658.568L668.922 854.561H775.86L786.213 761.617Z" fill="#263238"/>
</svg>
