<svg width="785" height="771" viewBox="0 0 785 771" fill="none" xmlns="http://www.w3.org/2000/svg">
<path d="M205.303 29.576C205.303 31.272 204.903 32.872 204.103 34.376C203.303 35.88 202.023 37.112 200.263 38.072C198.503 39 196.247 39.464 193.495 39.464H187.447V53H181.975V19.64H193.495C196.055 19.64 198.215 20.088 199.975 20.984C201.767 21.848 203.095 23.032 203.959 24.536C204.855 26.04 205.303 27.72 205.303 29.576ZM193.495 35C195.575 35 197.127 34.536 198.151 33.608C199.175 32.648 199.687 31.304 199.687 29.576C199.687 25.928 197.623 24.104 193.495 24.104H187.447V35H193.495ZM215.994 30.392C216.794 29.048 217.85 28.008 219.162 27.272C220.506 26.504 222.09 26.12 223.914 26.12V31.784H222.522C220.378 31.784 218.746 32.328 217.626 33.416C216.538 34.504 215.994 36.392 215.994 39.08V53H210.522V26.552H215.994V30.392ZM253.184 39.128C253.184 40.12 253.12 41.016 252.992 41.816H232.784C232.944 43.928 233.728 45.624 235.136 46.904C236.544 48.184 238.272 48.824 240.32 48.824C243.264 48.824 245.344 47.592 246.56 45.128H252.464C251.664 47.56 250.208 49.56 248.096 51.128C246.016 52.664 243.424 53.432 240.32 53.432C237.792 53.432 235.52 52.872 233.504 51.752C231.52 50.6 229.952 49 228.8 46.952C227.68 44.872 227.12 42.472 227.12 39.752C227.12 37.032 227.664 34.648 228.752 32.6C229.872 30.52 231.424 28.92 233.408 27.8C235.424 26.68 237.728 26.12 240.32 26.12C242.816 26.12 245.04 26.664 246.992 27.752C248.944 28.84 250.464 30.376 251.552 32.36C252.64 34.312 253.184 36.568 253.184 39.128ZM247.472 37.4C247.44 35.384 246.72 33.768 245.312 32.552C243.904 31.336 242.16 30.728 240.08 30.728C238.192 30.728 236.576 31.336 235.232 32.552C233.888 33.736 233.088 35.352 232.832 37.4H247.472ZM256.745 39.656C256.745 37 257.289 34.648 258.377 32.6C259.497 30.552 261.001 28.968 262.889 27.848C264.809 26.696 266.937 26.12 269.273 26.12C271.001 26.12 272.697 26.504 274.361 27.272C276.057 28.008 277.401 29 278.393 30.248V17.48H283.913V53H278.393V49.016C277.497 50.296 276.249 51.352 274.649 52.184C273.081 53.016 271.273 53.432 269.225 53.432C266.921 53.432 264.809 52.856 262.889 51.704C261.001 50.52 259.497 48.888 258.377 46.808C257.289 44.696 256.745 42.312 256.745 39.656ZM278.393 39.752C278.393 37.928 278.009 36.344 277.241 35C276.505 33.656 275.529 32.632 274.313 31.928C273.097 31.224 271.785 30.872 270.377 30.872C268.969 30.872 267.657 31.224 266.441 31.928C265.225 32.6 264.233 33.608 263.465 34.952C262.729 36.264 262.361 37.832 262.361 39.656C262.361 41.48 262.729 43.08 263.465 44.456C264.233 45.832 265.225 46.888 266.441 47.624C267.689 48.328 269.001 48.68 270.377 48.68C271.785 48.68 273.097 48.328 274.313 47.624C275.529 46.92 276.505 45.896 277.241 44.552C278.009 43.176 278.393 41.576 278.393 39.752ZM293.884 23.048C292.892 23.048 292.06 22.712 291.388 22.04C290.716 21.368 290.38 20.536 290.38 19.544C290.38 18.552 290.716 17.72 291.388 17.048C292.06 16.376 292.892 16.04 293.884 16.04C294.844 16.04 295.66 16.376 296.332 17.048C297.004 17.72 297.34 18.552 297.34 19.544C297.34 20.536 297.004 21.368 296.332 22.04C295.66 22.712 294.844 23.048 293.884 23.048ZM296.572 26.552V53H291.1V26.552H296.572ZM301.932 39.752C301.932 37.032 302.476 34.648 303.564 32.6C304.684 30.52 306.22 28.92 308.172 27.8C310.124 26.68 312.364 26.12 314.892 26.12C318.092 26.12 320.732 26.888 322.812 28.424C324.924 29.928 326.348 32.088 327.084 34.904H321.18C320.7 33.592 319.932 32.568 318.876 31.832C317.82 31.096 316.492 30.728 314.892 30.728C312.652 30.728 310.86 31.528 309.516 33.128C308.204 34.696 307.548 36.904 307.548 39.752C307.548 42.6 308.204 44.824 309.516 46.424C310.86 48.024 312.652 48.824 314.892 48.824C318.06 48.824 320.156 47.432 321.18 44.648H327.084C326.316 47.336 324.876 49.48 322.764 51.08C320.652 52.648 318.028 53.432 314.892 53.432C312.364 53.432 310.124 52.872 308.172 51.752C306.22 50.6 304.684 49 303.564 46.952C302.476 44.872 301.932 42.472 301.932 39.752ZM338.922 31.016V45.656C338.922 46.648 339.146 47.368 339.594 47.816C340.074 48.232 340.874 48.44 341.994 48.44H345.354V53H341.034C338.57 53 336.682 52.424 335.37 51.272C334.058 50.12 333.402 48.248 333.402 45.656V31.016H330.282V26.552H333.402V19.976H338.922V26.552H345.354V31.016H338.922ZM353.181 23.048C352.189 23.048 351.357 22.712 350.685 22.04C350.013 21.368 349.677 20.536 349.677 19.544C349.677 18.552 350.013 17.72 350.685 17.048C351.357 16.376 352.189 16.04 353.181 16.04C354.141 16.04 354.957 16.376 355.629 17.048C356.301 17.72 356.637 18.552 356.637 19.544C356.637 20.536 356.301 21.368 355.629 22.04C354.957 22.712 354.141 23.048 353.181 23.048ZM355.869 26.552V53H350.397V26.552H355.869ZM374.525 53.432C372.029 53.432 369.773 52.872 367.757 51.752C365.741 50.6 364.157 49 363.005 46.952C361.853 44.872 361.277 42.472 361.277 39.752C361.277 37.064 361.869 34.68 363.053 32.6C364.237 30.52 365.853 28.92 367.901 27.8C369.949 26.68 372.237 26.12 374.765 26.12C377.293 26.12 379.581 26.68 381.629 27.8C383.677 28.92 385.293 30.52 386.477 32.6C387.661 34.68 388.253 37.064 388.253 39.752C388.253 42.44 387.645 44.824 386.429 46.904C385.213 48.984 383.549 50.6 381.437 51.752C379.357 52.872 377.053 53.432 374.525 53.432ZM374.525 48.68C375.933 48.68 377.245 48.344 378.461 47.672C379.709 47 380.717 45.992 381.485 44.648C382.253 43.304 382.637 41.672 382.637 39.752C382.637 37.832 382.269 36.216 381.533 34.904C380.797 33.56 379.821 32.552 378.605 31.88C377.389 31.208 376.077 30.872 374.669 30.872C373.261 30.872 371.949 31.208 370.733 31.88C369.549 32.552 368.605 33.56 367.901 34.904C367.197 36.216 366.845 37.832 366.845 39.752C366.845 42.6 367.565 44.808 369.005 46.376C370.477 47.912 372.317 48.68 374.525 48.68ZM407.007 26.12C409.087 26.12 410.943 26.552 412.575 27.416C414.239 28.28 415.535 29.56 416.463 31.256C417.391 32.952 417.855 35 417.855 37.4V53H412.431V38.216C412.431 35.848 411.839 34.04 410.655 32.792C409.471 31.512 407.855 30.872 405.807 30.872C403.759 30.872 402.127 31.512 400.911 32.792C399.727 34.04 399.135 35.848 399.135 38.216V53H393.663V26.552H399.135V29.576C400.031 28.488 401.167 27.64 402.543 27.032C403.951 26.424 405.439 26.12 407.007 26.12ZM454.631 53L446.951 39.656H442.775V53H437.303V19.64H448.823C451.383 19.64 453.543 20.088 455.303 20.984C457.095 21.88 458.423 23.08 459.287 24.584C460.183 26.088 460.631 27.768 460.631 29.624C460.631 31.8 459.991 33.784 458.711 35.576C457.463 37.336 455.527 38.536 452.903 39.176L461.159 53H454.631ZM442.775 35.288H448.823C450.871 35.288 452.407 34.776 453.431 33.752C454.487 32.728 455.015 31.352 455.015 29.624C455.015 27.896 454.503 26.552 453.479 25.592C452.455 24.6 450.903 24.104 448.823 24.104H442.775V35.288ZM491.871 39.128C491.871 40.12 491.807 41.016 491.679 41.816H471.471C471.631 43.928 472.415 45.624 473.823 46.904C475.231 48.184 476.959 48.824 479.007 48.824C481.951 48.824 484.031 47.592 485.247 45.128H491.151C490.351 47.56 488.895 49.56 486.783 51.128C484.703 52.664 482.111 53.432 479.007 53.432C476.479 53.432 474.207 52.872 472.191 51.752C470.207 50.6 468.639 49 467.487 46.952C466.367 44.872 465.807 42.472 465.807 39.752C465.807 37.032 466.351 34.648 467.439 32.6C468.559 30.52 470.111 28.92 472.095 27.8C474.111 26.68 476.415 26.12 479.007 26.12C481.503 26.12 483.727 26.664 485.679 27.752C487.631 28.84 489.151 30.376 490.239 32.36C491.327 34.312 491.871 36.568 491.871 39.128ZM486.159 37.4C486.127 35.384 485.407 33.768 483.999 32.552C482.591 31.336 480.847 30.728 478.767 30.728C476.879 30.728 475.263 31.336 473.919 32.552C472.575 33.736 471.775 35.352 471.519 37.4H486.159ZM506.856 53.432C504.776 53.432 502.904 53.064 501.24 52.328C499.608 51.56 498.312 50.536 497.352 49.256C496.392 47.944 495.88 46.488 495.816 44.888H501.48C501.576 46.008 502.104 46.952 503.064 47.72C504.056 48.456 505.288 48.824 506.76 48.824C508.296 48.824 509.48 48.536 510.312 47.96C511.176 47.352 511.608 46.584 511.608 45.656C511.608 44.664 511.128 43.928 510.168 43.448C509.24 42.968 507.752 42.44 505.704 41.864C503.72 41.32 502.104 40.792 500.856 40.28C499.608 39.768 498.52 38.984 497.592 37.928C496.696 36.872 496.248 35.48 496.248 33.752C496.248 32.344 496.664 31.064 497.496 29.912C498.328 28.728 499.512 27.8 501.048 27.128C502.616 26.456 504.408 26.12 506.424 26.12C509.432 26.12 511.848 26.888 513.672 28.424C515.528 29.928 516.52 31.992 516.648 34.616H511.176C511.08 33.432 510.6 32.488 509.736 31.784C508.872 31.08 507.704 30.728 506.232 30.728C504.792 30.728 503.688 31 502.92 31.544C502.152 32.088 501.768 32.808 501.768 33.704C501.768 34.408 502.024 35 502.536 35.48C503.048 35.96 503.672 36.344 504.408 36.632C505.144 36.888 506.232 37.224 507.672 37.64C509.592 38.152 511.16 38.68 512.376 39.224C513.624 39.736 514.696 40.504 515.592 41.528C516.488 42.552 516.952 43.912 516.984 45.608C516.984 47.112 516.568 48.456 515.736 49.64C514.904 50.824 513.72 51.752 512.184 52.424C510.68 53.096 508.904 53.432 506.856 53.432ZM546.849 26.552V53H541.377V49.88C540.513 50.968 539.377 51.832 537.969 52.472C536.593 53.08 535.121 53.384 533.553 53.384C531.473 53.384 529.601 52.952 527.937 52.088C526.305 51.224 525.009 49.944 524.049 48.248C523.121 46.552 522.657 44.504 522.657 42.104V26.552H528.081V41.288C528.081 43.656 528.673 45.48 529.857 46.76C531.041 48.008 532.657 48.632 534.705 48.632C536.753 48.632 538.369 48.008 539.553 46.76C540.769 45.48 541.377 43.656 541.377 41.288V26.552H546.849ZM559.541 17.48V53H554.069V17.48H559.541ZM573.109 31.016V45.656C573.109 46.648 573.333 47.368 573.781 47.816C574.261 48.232 575.061 48.44 576.181 48.44H579.541V53H575.221C572.757 53 570.869 52.424 569.557 51.272C568.245 50.12 567.589 48.248 567.589 45.656V31.016H564.469V26.552H567.589V19.976H573.109V26.552H579.541V31.016H573.109ZM594.184 53.432C592.104 53.432 590.232 53.064 588.568 52.328C586.936 51.56 585.64 50.536 584.68 49.256C583.72 47.944 583.208 46.488 583.144 44.888H588.808C588.904 46.008 589.432 46.952 590.392 47.72C591.384 48.456 592.616 48.824 594.088 48.824C595.624 48.824 596.808 48.536 597.64 47.96C598.504 47.352 598.936 46.584 598.936 45.656C598.936 44.664 598.456 43.928 597.496 43.448C596.568 42.968 595.08 42.44 593.032 41.864C591.048 41.32 589.432 40.792 588.184 40.28C586.936 39.768 585.848 38.984 584.92 37.928C584.024 36.872 583.576 35.48 583.576 33.752C583.576 32.344 583.992 31.064 584.824 29.912C585.656 28.728 586.84 27.8 588.376 27.128C589.944 26.456 591.736 26.12 593.752 26.12C596.76 26.12 599.176 26.888 601 28.424C602.856 29.928 603.848 31.992 603.976 34.616H598.504C598.408 33.432 597.928 32.488 597.064 31.784C596.2 31.08 595.032 30.728 593.56 30.728C592.12 30.728 591.016 31 590.248 31.544C589.48 32.088 589.096 32.808 589.096 33.704C589.096 34.408 589.352 35 589.864 35.48C590.376 35.96 591 36.344 591.736 36.632C592.472 36.888 593.56 37.224 595 37.64C596.92 38.152 598.488 38.68 599.704 39.224C600.952 39.736 602.024 40.504 602.92 41.528C603.816 42.552 604.28 43.912 604.312 45.608C604.312 47.112 603.896 48.456 603.064 49.64C602.232 50.824 601.048 51.752 599.512 52.424C598.008 53.096 596.232 53.432 594.184 53.432Z" fill="#1E1E1E"/>
<path d="M714.992 702.053C714.992 702.053 730.586 672.703 712.76 643.75C694.933 614.797 689.779 607.998 701.138 602.048C712.497 596.099 717.717 625.222 717.717 625.222C723.333 612.071 723.909 597.712 719.358 584.257C711.479 563.322 706.522 529.212 717.323 525.558C728.124 521.903 719.358 568.053 728.747 583.861C733.509 572.796 736.588 561.245 737.907 549.497C739.187 532.669 737.185 505.812 745.687 498.928C754.19 492.044 759.673 496.803 751.301 533.943C746.269 556.12 743.49 578.633 742.995 601.227C742.995 601.227 761.478 552.528 773.921 551.111C786.363 549.695 786.33 565.446 775.693 579.13C765.057 592.813 744.538 617.318 741.19 629.925C741.19 629.925 761.511 593.266 779.764 604.428C798.017 615.59 763.875 637.772 748.642 645.79C733.409 653.807 722.838 704.036 722.838 704.036L714.992 702.053Z" fill="#0C7489"/>
<path opacity="0.2" d="M714.992 702.053C714.992 702.053 730.586 672.703 712.76 643.75C694.933 614.797 689.779 607.998 701.138 602.048C712.497 596.099 717.717 625.222 717.717 625.222C723.333 612.071 723.909 597.712 719.358 584.257C711.479 563.322 706.522 529.212 717.323 525.558C728.124 521.903 719.358 568.053 728.747 583.861C733.509 572.796 736.588 561.245 737.907 549.497C739.187 532.669 737.185 505.812 745.687 498.928C754.19 492.044 759.673 496.803 751.301 533.943C746.269 556.12 743.49 578.633 742.995 601.227C742.995 601.227 761.478 552.528 773.921 551.111C786.363 549.695 786.33 565.446 775.693 579.13C765.057 592.813 744.538 617.318 741.19 629.925C741.19 629.925 761.511 593.266 779.764 604.428C798.017 615.59 763.875 637.772 748.642 645.79C733.409 653.807 722.838 704.036 722.838 704.036L714.992 702.053Z" fill="black"/>
<path d="M727.304 714.094C727.304 714.094 712.104 684.546 730.325 655.82C748.545 627.093 753.798 620.351 742.537 614.288C731.277 608.226 725.63 637.235 725.63 637.235C720.19 624.034 719.81 609.673 724.547 596.27C732.754 575.42 738.171 541.367 727.436 537.571C716.7 533.775 724.776 580.066 715.19 595.732C710.623 584.607 707.743 573.018 706.622 561.255C705.571 544.427 707.968 517.599 699.531 510.601C691.094 503.604 685.578 508.306 693.457 545.532C698.175 567.76 700.636 590.302 700.811 612.9C700.811 612.9 682.853 563.974 670.51 562.388C658.166 560.802 657.903 576.553 668.343 590.378C678.783 604.203 698.94 628.963 702.124 641.598C702.124 641.598 682.427 604.769 663.911 615.705C645.395 626.64 679.341 649.247 694.442 657.463C709.544 665.678 719.458 715.907 719.458 715.907L727.304 714.094Z" fill="#0C7489"/>
<path d="M657.246 693.016H782.72L772.543 770.498H667.423L657.246 693.016Z" fill="#263238"/>
<path d="M540.915 291.831C556.894 303.111 577.349 319.365 594.415 328.921L594.769 329.118C594.769 329.118 595.173 329.489 596.589 329.423C609.383 327.067 621.645 317.249 632.365 309.787C633.511 308.839 635.02 308.288 636.606 308.238C638.192 308.187 639.744 308.642 640.968 309.514C642.191 310.387 643 311.617 643.241 312.97C643.483 314.324 643.139 315.707 642.276 316.856C636.031 325.457 628.297 333.182 619.344 339.765C614.116 343.7 607.968 346.617 601.317 348.318C595.634 349.685 589.575 349.283 584.2 347.183L581.445 345.961C560.156 335.729 541.901 322.442 523.723 308.696C511.435 298.573 527.667 282.645 540.865 291.874L540.915 291.831Z" fill="#EBC0BB"/>
<path d="M539.147 324.84C544.193 326.769 549.076 329 553.761 331.517C565.796 337.669 579.803 345.611 579.803 345.611L591.281 324.469C569.31 305.008 536.34 289.691 536.34 289.691C536.34 289.691 535.051 296.237 534.47 303.546C533.711 312.666 534.04 323.226 539.147 324.84Z" fill="#0C7489"/>
<path d="M578.158 345.263L591.28 320.762L597.854 328.9L584.403 349.234L578.158 345.263Z" fill="#0C7489"/>
<path opacity="0.6" d="M578.158 345.263L591.28 320.762L597.854 328.9L584.403 349.234L578.158 345.263Z" fill="white"/>
<path opacity="0.2" d="M539.147 320.152C544.16 321.8 549.042 323.731 553.761 325.934C551.055 316.146 544.93 307.311 536.214 300.625C535.608 300.951 535.026 301.308 534.47 301.694C533.711 309.592 534.04 318.756 539.147 320.152Z" fill="black"/>
<path d="M474.168 405.612C474.168 405.612 475.382 423.328 485.394 454.353C491.673 473.554 499.315 492.404 508.275 510.796C513.332 521.182 519.096 532.178 525.569 543.785C528.552 549.065 531.713 554.432 535.05 559.931C538.893 653.923 600.003 749.464 600.003 749.464C603.391 750.969 615.173 749.311 615.173 746.344C606.122 733.951 588.322 613.537 576.844 556.418C576.136 548.651 575.099 540.338 573.835 531.742C570.472 508.702 565.517 483.611 560.688 461.553C553.103 426.819 545.871 399.59 545.871 399.59L525.645 401.27L474.168 405.612Z" fill="#EEC1BB"/>
<path d="M450.098 535.713C451.784 545.793 453.882 556.6 456.394 568.135C434.549 630.992 479.452 753.588 479.452 753.588C487.037 754.875 493.763 754.024 497.151 751.843C488.681 714.883 494.774 618.753 501.348 561.349C501.929 556.157 502.662 550.44 503.472 544.288C504.837 533.946 506.455 522.47 508.174 510.731C511.057 490.986 514.318 470.194 517.251 451.823C520.841 429.547 523.976 410.718 525.569 401.249C526.277 397.081 526.656 394.703 526.656 394.703L463.625 400.594C463.625 400.594 447.595 416.107 445.168 464.543C444.327 488.346 445.977 512.166 450.098 535.713Z" fill="#EEC1BB"/>
<path opacity="0.2" d="M450.097 535.712C467.339 540.752 485.312 543.69 503.496 544.44C504.861 534.098 506.479 522.622 508.199 510.883C513.255 521.269 519.02 532.265 525.492 543.872C542.334 542.53 558.715 538.388 573.733 531.676C570.37 508.636 565.415 483.545 560.586 461.487C553.908 458.116 546.693 455.609 539.171 454.047C532.003 452.592 524.664 451.86 517.301 451.866C506.579 451.812 495.877 452.653 485.342 454.375C471.591 456.572 458.144 460.001 445.218 464.607C444.365 488.387 445.998 512.185 450.097 535.712Z" fill="black"/>
<path d="M449.744 291.307C449.744 291.307 452.551 300.297 455.585 315.307C456.368 319.016 457.152 323.14 457.885 327.547C458.416 330.754 458.922 334.093 459.428 337.627C459.984 341.62 460.515 345.831 460.995 350.173C462.846 366.849 463.546 383.606 463.094 400.354H546.099C546.099 400.354 559.196 316.573 537.578 289.562C537.578 289.737 495.027 272.435 449.744 291.307Z" fill="#0C7489"/>
<path opacity="0.2" d="M455.584 315.395C456.368 319.105 457.152 323.228 457.885 327.635C458.416 330.843 458.921 334.181 459.427 337.715C463.009 327.014 462.921 315.647 459.174 304.988L455.584 315.395Z" fill="black"/>
<path d="M492.674 277.562C466.633 277.562 463.371 296.042 463.371 296.042L475.532 291.526L511.308 312.166L520.082 291.33L531.105 293.097C531.105 293.097 515.278 277.584 492.674 277.562Z" fill="#0C7489"/>
<path opacity="0.6" d="M492.674 277.562C466.633 277.562 463.371 296.042 463.371 296.042L475.532 291.526L511.308 312.166L520.082 291.33L531.105 293.097C531.105 293.097 515.278 277.584 492.674 277.562Z" fill="white"/>
<path d="M476.545 287.792L510.298 309.61C510.298 309.435 515.532 287.792 515.532 287.792C507.568 286.287 504.306 282.948 503.446 278.934C502.983 275.649 503.381 272.316 504.609 269.181L485.925 256.418L480.868 252.992C483.22 262.941 485.419 281.159 476.545 287.792Z" fill="#EEC1BB"/>
<path opacity="0.2" d="M485.773 263.771C486.481 270.032 495.381 276.556 503.471 278.934C503.008 275.649 503.405 272.316 504.634 269.182L485.95 256.418C485.512 258.851 485.453 261.324 485.773 263.771Z" fill="black"/>
<path d="M541.194 230.85L539.424 230.304L545.163 216.624C544.351 215.906 543.462 215.256 542.508 214.682L543.596 213.352C544.883 214.093 546.034 214.998 547.009 216.035L547.262 216.362L541.194 230.85Z" fill="#0C7489"/>
<path d="M537.376 246.647C537.376 246.647 553.861 217.694 520.714 200.72C487.568 183.745 463.574 219.2 466.911 236.981C468.327 244.64 471.665 253.978 480.211 258.581C483.649 260.414 483.902 252.036 483.902 252.036C483.902 252.036 516.113 261.876 537.376 246.647Z" fill="#263238"/>
<path d="M482.588 227.401C479.629 245.008 477.961 252.383 485.773 263.532C497.505 280.31 522.586 280.659 531.435 264.448C539.374 249.83 542.863 223.518 525.266 212.216C521.584 209.682 517.182 208.044 512.519 207.472C507.856 206.901 503.1 207.417 498.746 208.966C494.392 210.515 490.597 213.042 487.756 216.283C484.914 219.525 483.13 223.364 482.588 227.401Z" fill="#EEC1BB"/>
<path d="M503.8 220.312C488.63 229.039 504.912 248.916 483.573 241.738C462.234 234.559 481.475 210.669 496.746 208.465C512.017 206.261 503.8 220.312 503.8 220.312Z" fill="#263238"/>
<path d="M525.721 245.031C526.432 248.711 527.69 252.297 529.463 255.7C528.497 256.045 527.453 256.195 526.41 256.139C525.367 256.082 524.353 255.82 523.445 255.373L525.721 245.031Z" fill="#D4827D"/>
<path d="M519.678 228.406C519.548 228.391 519.416 228.398 519.29 228.428C519.164 228.458 519.046 228.51 518.944 228.581C518.01 229.269 516.894 229.747 515.694 229.971C514.493 230.196 513.248 230.16 512.067 229.868C511.946 229.831 511.818 229.816 511.69 229.824C511.562 229.832 511.437 229.862 511.323 229.913C511.209 229.964 511.109 230.035 511.028 230.121C510.947 230.207 510.888 230.307 510.854 230.414C510.787 230.639 510.821 230.878 510.947 231.083C511.073 231.289 511.283 231.447 511.536 231.526C513.02 231.922 514.595 231.988 516.116 231.717C517.637 231.446 519.053 230.848 520.234 229.977C520.419 229.814 520.523 229.595 520.523 229.366C520.523 229.138 520.419 228.919 520.234 228.755C520.097 228.59 519.902 228.468 519.678 228.406Z" fill="#263238"/>
<path d="M533.735 230.585C533.498 230.508 533.238 230.508 533.001 230.585C532.768 230.696 532.594 230.882 532.518 231.102C532.442 231.323 532.471 231.561 532.597 231.763C533.262 233.044 534.261 234.175 535.515 235.068C536.769 235.961 538.245 236.592 539.828 236.912C539.957 236.931 540.089 236.926 540.215 236.898C540.341 236.87 540.46 236.819 540.562 236.749C540.665 236.679 540.749 236.592 540.81 236.492C540.87 236.393 540.906 236.283 540.915 236.171C540.928 235.94 540.846 235.713 540.684 235.53C540.522 235.346 540.291 235.218 540.03 235.167C538.779 234.902 537.615 234.393 536.628 233.678C535.642 232.963 534.859 232.061 534.342 231.043C534.215 230.829 533.998 230.665 533.735 230.585Z" fill="#263238"/>
<path d="M512.776 212.782C512.776 212.782 503.472 226.331 489.566 229.561C475.66 232.79 474.699 226.899 474.699 226.899C474.699 226.899 475.736 209.663 494.066 206.084C494.066 206.084 496.772 200.979 512.725 202.135C528.679 203.292 547.085 214.637 540.967 230.957C537.509 228.876 533.518 227.551 529.337 227.095C527.729 221.477 523.823 216.549 518.338 213.219C522.007 216.909 524.291 221.474 524.887 226.31C524.887 226.31 521.296 216.317 512.776 212.782Z" fill="#263238"/>
<path d="M516.342 240.299L520.488 240.168C520.488 240.168 517.884 242.459 516.342 240.299Z" fill="#263238"/>
<path d="M516.34 240.297C515.309 240.995 514.052 241.4 512.743 241.454C511.434 241.509 510.138 241.211 509.033 240.602C509.033 240.602 512.649 243.177 514.949 242.784C515.635 242.687 516.285 242.453 516.847 242.101C517.409 241.749 517.867 241.288 518.186 240.755L516.34 240.297Z" fill="#263238"/>
<path d="M533.18 242.545L537.301 242.414C537.301 242.414 534.697 244.705 533.18 242.545Z" fill="#263238"/>
<path d="M533.178 242.543C533.178 242.543 532.065 244.725 527.666 242.783C527.666 242.783 529.461 245.423 531.762 245.118C532.447 245.021 533.097 244.787 533.659 244.434C534.221 244.082 534.68 243.621 534.998 243.088L533.178 242.543Z" fill="#263238"/>
<path d="M520.108 262.462C519.96 262.465 519.815 262.422 519.7 262.343C519.584 262.263 519.505 262.151 519.475 262.026C519.475 262.026 518.363 257.379 510.677 254.477C510.6 254.448 510.531 254.407 510.473 254.355C510.415 254.304 510.369 254.243 510.339 254.176C510.308 254.109 510.293 254.037 510.295 253.965C510.297 253.894 510.315 253.823 510.348 253.757C510.42 253.627 510.546 253.526 510.701 253.473C510.855 253.42 511.028 253.42 511.183 253.473C519.526 256.637 520.689 261.611 520.714 261.829C520.744 261.971 520.707 262.117 520.613 262.236C520.518 262.354 520.373 262.436 520.209 262.462H520.108Z" fill="#263238"/>
<path d="M512.421 210.95C506.834 210.95 502.586 208.987 502.586 206.39C502.586 203.794 506.834 201.809 512.421 201.809C518.009 201.809 522.256 203.772 522.256 206.39C522.256 209.009 518.034 210.95 512.421 210.95ZM512.421 203.445C507.744 203.445 504.482 204.994 504.482 206.39C504.482 207.787 507.744 209.314 512.421 209.314C517.099 209.314 520.36 207.765 520.36 206.39C520.36 205.016 517.149 203.489 512.421 203.489V203.445Z" fill="#0C7489"/>
<path d="M539.905 216.032C537.396 215.932 534.959 215.279 532.826 214.134C527.972 211.734 525.443 208.2 526.96 205.931C528.477 203.749 533.256 203.749 538.11 206.214C542.965 208.68 545.493 212.171 543.976 214.418C543.529 214.979 542.915 215.425 542.198 215.709C541.482 215.993 540.689 216.105 539.905 216.032ZM528.604 206.76C527.795 207.96 529.716 210.709 533.66 212.716C537.604 214.723 541.422 214.898 542.231 213.611C543.04 212.323 541.119 209.662 537.175 207.632C533.23 205.603 529.413 205.56 528.604 206.76Z" fill="#0C7489"/>
<path d="M526.631 207.786C525.952 207.041 524.981 206.537 523.9 206.367C523.541 206.35 523.181 206.4 522.845 206.513C522.509 206.626 522.205 206.799 521.953 207.022L520.664 205.822C521.107 205.443 521.638 205.15 522.222 204.962C522.806 204.774 523.43 204.695 524.052 204.731C525.651 204.955 527.099 205.677 528.123 206.76L526.631 207.786Z" fill="#0C7489"/>
<path d="M485.217 238.461L483.447 237.894L495.887 207.96L496.089 207.807C498.346 206.711 500.812 205.972 503.37 205.625L503.724 207.24C501.554 207.539 499.448 208.12 497.479 208.963L485.217 238.461Z" fill="#0C7489"/>
<path d="M474.42 242.806C474.624 244.497 475.238 246.133 476.223 247.606C477.207 249.08 478.54 250.358 480.134 251.359C484.179 253.693 487.87 249.853 488.123 245.009C488.351 240.646 486.53 234.1 481.777 233.86C477.024 233.62 473.712 238.268 474.42 242.806Z" fill="#EEC1BB"/>
<path d="M477.884 769.711H481.399L482.385 765.958L493.99 770.496H523.47C523.47 770.496 528.148 766.416 514.115 763.187C513.427 763.025 512.758 762.806 512.118 762.533C504.659 759.5 493.99 749.289 493.99 749.289H477.834C477.348 749.934 476.908 750.604 476.519 751.296C474.749 754.351 471.639 760.765 477.884 769.711Z" fill="#263238"/>
<path d="M476.52 751.296C478.643 749.245 488.352 758.256 495.482 761.332C501.828 764.06 508.958 765.26 512.119 762.489C504.66 759.456 492.878 746.234 492.878 746.234H479.882C479.882 746.234 477.278 749.987 476.52 751.296Z" fill="#FFC2BC"/>
<path d="M600.584 769.711H604.099L605.06 765.958L616.69 770.496H646.094C646.094 770.496 650.797 766.416 636.765 763.187C636.075 763.029 635.405 762.81 634.768 762.533C627.183 759.5 616.639 749.289 616.639 749.289H600.584C600.098 749.934 599.659 750.604 599.27 751.296C597.475 754.351 594.415 760.765 600.584 769.711Z" fill="#263238"/>
<path d="M599.244 751.296C601.368 749.245 611.077 758.256 618.181 761.332C624.553 764.06 631.683 765.26 634.843 762.489C627.258 759.456 615.602 746.234 615.602 746.234H602.607C602.607 746.234 600.003 749.987 599.244 751.296Z" fill="#FFC2BC"/>
<path d="M546.908 394.766H463.22L460.97 404.06C460.97 404.06 430.225 440.78 445.8 532.35C445.8 532.35 513.129 539.048 576.54 527.31C576.54 527.31 562.305 433.253 547.414 402.555L546.908 394.766Z" fill="#263238"/>
<path d="M488.176 402.754H460.086L461.78 395.859H488.176V402.754Z" fill="#263238"/>
<path d="M539.17 395.859H547.589L548.297 402.754H539.17V395.859Z" fill="#263238"/>
<path d="M536.389 395.859H490.904V402.776H536.389V395.859Z" fill="#263238"/>
<path opacity="0.6" d="M488.176 402.754H460.086L461.78 395.859H488.176V402.754Z" fill="white"/>
<path opacity="0.6" d="M539.17 395.859H547.589L548.297 402.754H539.17V395.859Z" fill="white"/>
<path opacity="0.6" d="M536.389 395.859H490.904V402.776H536.389V395.859Z" fill="white"/>
<path d="M511.083 403.277H523.725C524.479 403.277 525.09 402.75 525.09 402.099V396.492C525.09 395.841 524.479 395.314 523.725 395.314H511.083C510.329 395.314 509.718 395.841 509.718 396.492V402.099C509.718 402.75 510.329 403.277 511.083 403.277Z" fill="white"/>
<path d="M656.789 297.873L657.118 303.393C657.171 304.413 656.948 305.43 656.465 306.362C655.982 307.294 655.253 308.115 654.337 308.761L645.513 314.826C643.784 316.024 641.748 316.847 639.575 317.227C637.402 317.606 635.155 317.531 633.023 317.008L630.343 316.353C629.053 307.233 635.399 296.542 635.399 296.542L636.815 293.335C637.084 292.666 637.505 292.05 638.052 291.522C638.6 290.994 639.263 290.566 640.004 290.261C640.745 289.957 641.549 289.783 642.369 289.748C643.189 289.714 644.008 289.821 644.78 290.063L652.213 292.441C653.506 292.864 654.627 293.603 655.44 294.568C656.253 295.533 656.722 296.682 656.789 297.873Z" fill="#EEC1BB"/>
<path d="M455.787 316.377C444.637 326.741 431.414 339.155 420.567 349.759L421.882 347.948C422.135 347.402 422.034 347.097 421.882 347.249C422.185 353.489 426.939 359.424 430.857 365.206C436.622 373.213 443.499 381.177 449.997 388.747C450.924 389.831 451.366 391.167 451.242 392.509C451.118 393.852 450.436 395.11 449.322 396.053C448.208 396.996 446.736 397.56 445.179 397.641C443.621 397.721 442.082 397.314 440.844 396.493C436.066 393.286 431.768 389.947 427.419 386.413C418.335 379.219 410.493 370.939 404.133 361.824C399.633 354.929 395.865 344.915 402.034 337.279C412.527 324.137 424.374 311.84 437.431 300.537C449.896 290.828 467.038 305.621 455.787 316.377Z" fill="#EBC0BB"/>
<path d="M449.744 291.285C449.744 291.285 430.908 299.707 404.967 330.95L425.573 345.459L457 322.659C460.158 316.251 461.224 309.219 460.084 302.325C457.834 292.071 449.744 291.285 449.744 291.285Z" fill="#0C7489"/>
<path d="M428.506 344.41L403.021 327.043L399.127 336.665L423.399 349.232L428.506 344.41Z" fill="#0C7489"/>
<path opacity="0.6" d="M428.506 344.41L403.021 327.043L399.127 336.665L423.399 349.232L428.506 344.41Z" fill="white"/>
<path d="M462.563 406.55L463.069 401.052C463.149 400.03 462.951 399.007 462.49 398.063C462.029 397.119 461.318 396.282 460.414 395.619L451.792 389.379C450.09 388.154 448.073 387.297 445.909 386.879C443.746 386.462 441.498 386.496 439.353 386.979L436.648 387.59C435.105 396.666 441.173 407.488 441.173 407.488L442.513 410.739C442.768 411.413 443.174 412.036 443.709 412.573C444.244 413.111 444.897 413.551 445.631 413.87C446.364 414.188 447.163 414.378 447.982 414.429C448.801 414.479 449.623 414.389 450.402 414.164L457.987 411.983C459.279 411.56 460.401 410.82 461.214 409.855C462.026 408.89 462.495 407.742 462.563 406.55Z" fill="#EEC1BB"/>
<path d="M488.149 201.961C488.149 201.961 481.373 177.699 455.584 182.019C429.795 186.339 445.825 223.19 440.414 236.979C435.004 250.768 433.942 272.324 455.584 276.251C452.664 273.992 450.659 270.986 449.862 267.672C449.066 264.358 449.521 260.912 451.16 257.837C450.456 261.218 451.289 264.703 453.486 267.568C452.245 265.357 451.783 262.881 452.156 260.446C452.529 258.01 453.721 255.723 455.584 253.866C462.158 247.495 475.255 223.779 476.544 216.361C477.834 208.943 488.149 201.961 488.149 201.961Z" fill="#263238"/>
<path d="M648.34 324.279L645.85 324.659C644.999 324.789 644.122 324.622 643.413 324.194C642.704 323.766 642.221 323.113 642.071 322.378L618.71 208.402L627.574 207.05L650.916 320.939C650.991 321.303 650.982 321.676 650.889 322.037C650.797 322.398 650.623 322.74 650.377 323.043C650.132 323.346 649.82 323.604 649.458 323.803C649.097 324.001 648.694 324.137 648.273 324.201L648.34 324.279Z" fill="#263238"/>
<path d="M623.454 231.471C652.467 227.043 671.596 202.032 666.18 175.607C660.764 149.183 632.854 131.351 603.841 135.779C574.828 140.207 555.699 165.218 561.115 191.643C566.531 218.068 594.441 235.9 623.454 231.471Z" fill="#0C7489"/>
<path opacity="0.6" d="M623.454 231.471C652.467 227.043 671.596 202.032 666.18 175.607C660.764 149.183 632.854 131.351 603.841 135.779C574.828 140.207 555.699 165.218 561.115 191.643C566.531 218.068 594.441 235.9 623.454 231.471Z" fill="white"/>
<path d="M628.431 230.71C657.444 226.282 676.573 201.27 671.157 174.846C665.741 148.421 637.831 130.589 608.818 135.017C579.805 139.445 560.676 164.457 566.092 190.881C571.508 217.306 599.418 235.138 628.431 230.71Z" fill="#0C7489"/>
<path opacity="0.7" d="M628.431 230.71C657.444 226.282 676.573 201.27 671.157 174.846C665.741 148.421 637.831 130.589 608.818 135.017C579.805 139.445 560.676 164.457 566.092 190.881C571.508 217.306 599.418 235.138 628.431 230.71Z" fill="white"/>
<path d="M594.289 207.656L613.732 183.656L585.92 166.878L589.94 161.925L617.752 178.703L637.195 154.703L642.934 158.172L623.491 182.172L651.303 198.95L647.283 203.903L619.471 187.125L600.028 211.125L594.289 207.656Z" fill="#0C7489"/>
<path d="M221.323 541.867V562.965L195.03 558.451L188.655 561.837L195.03 571.791L183.121 563.831L170.651 565.423L165.584 598.188L151.737 588.113L128.713 604.234L134.877 614.047L121.334 601.695L93.0319 624.727V603.931L75.9389 617.634L70.498 656.726L103.19 694.851L169.694 696.866L252.847 668.494C252.847 668.494 263.005 614.692 263.005 613.503V573.201L239.911 552.285L221.323 541.867Z" fill="#0C7489"/>
<path opacity="0.3" d="M221.323 541.867V562.965L195.03 558.451L188.655 561.837L195.03 571.791L183.121 563.831L170.651 565.423L165.584 598.188L151.737 588.113L128.713 604.234L134.877 614.047L121.334 601.695L93.0319 624.727V603.931L75.9389 617.634L70.498 656.726L103.19 694.851L169.694 696.866L252.847 668.494C252.847 668.494 263.005 614.692 263.005 613.503V573.201L239.911 552.285L221.323 541.867Z" fill="white"/>
<path d="M357.716 761.509C372.544 766.97 393.233 753.831 403.905 732.169C414.576 710.507 411.26 688.563 396.432 683.102C381.604 677.642 360.915 690.8 350.22 712.442C339.526 734.084 342.935 756.048 357.716 761.509Z" fill="#263238"/>
<path d="M300.483 759.777C297.119 761.034 293.323 761.128 289.882 760.039C275.334 754.699 276.711 723.646 292.987 690.7C309.263 657.754 334.249 635.366 348.797 640.726C352.049 642.128 354.555 644.551 355.802 647.497C357.554 647.389 359.312 647.631 360.939 648.202C362.567 648.88 364.024 649.829 365.227 650.995C366.429 652.16 367.352 653.519 367.945 654.993C369.75 654.847 371.569 655.083 373.245 655.678C374.86 656.37 376.298 657.335 377.474 658.515C378.649 659.696 379.538 661.067 380.087 662.55C381.923 662.346 383.789 662.554 385.505 663.154C387.124 663.852 388.557 664.831 389.715 666.031C390.872 667.231 391.729 668.626 392.23 670.126C394.093 669.848 396.009 670.023 397.764 670.63C409.86 675.083 408.716 700.856 395.195 728.281C381.675 755.706 360.892 774.285 348.797 769.832C347.079 769.152 345.603 768.088 344.523 766.749C342.921 767.472 341.163 767.902 339.359 768.013C337.555 768.124 335.744 767.913 334.039 767.394C332.353 766.734 330.89 765.715 329.789 764.432C328.171 765.121 326.408 765.522 324.606 765.608C322.804 765.695 321.001 765.466 319.304 764.935C317.647 764.31 316.195 763.341 315.077 762.114C311.765 763.414 307.997 763.552 304.569 762.497C302.986 761.869 301.589 760.939 300.483 759.777Z" fill="#263238"/>
<path opacity="0.3" d="M300.483 759.777C297.119 761.034 293.323 761.128 289.882 760.039C275.334 754.699 276.711 723.646 292.987 690.7C309.263 657.754 334.249 635.366 348.797 640.726C352.049 642.128 354.555 644.551 355.802 647.497C357.554 647.389 359.312 647.631 360.939 648.202C362.567 648.88 364.024 649.829 365.227 650.995C366.429 652.16 367.352 653.519 367.945 654.993C369.75 654.847 371.569 655.083 373.245 655.678C374.86 656.37 376.298 657.335 377.474 658.515C378.649 659.696 379.538 661.067 380.087 662.55C381.923 662.346 383.789 662.554 385.505 663.154C387.124 663.852 388.557 664.831 389.715 666.031C390.872 667.231 391.729 668.626 392.23 670.126C394.093 669.848 396.009 670.023 397.764 670.63C409.86 675.083 408.716 700.856 395.195 728.281C381.675 755.706 360.892 774.285 348.797 769.832C347.079 769.152 345.603 768.088 344.523 766.749C342.921 767.472 341.163 767.902 339.359 768.013C337.555 768.124 335.744 767.913 334.039 767.394C332.353 766.734 330.89 765.715 329.789 764.432C328.171 765.121 326.408 765.522 324.606 765.608C322.804 765.695 321.001 765.466 319.304 764.935C317.647 764.31 316.195 763.341 315.077 762.114C311.765 763.414 307.997 763.552 304.569 762.497C302.986 761.869 301.589 760.939 300.483 759.777Z" fill="white"/>
<path d="M147.555 760.543C165.609 767.197 185.149 770.311 204.766 769.659C224.383 769.007 243.588 764.607 260.995 756.774C264.191 755.307 267.755 754.539 271.375 754.539C274.995 754.539 278.559 755.307 281.755 756.774C282.054 756.929 282.366 757.063 282.689 757.177C297.47 762.598 322.853 739.888 339.362 706.418C355.871 672.947 357.296 641.432 342.514 635.991C342.187 635.872 341.852 635.771 341.51 635.689C338.102 634.731 335.021 633.062 332.54 630.83C330.059 628.598 328.256 625.872 327.289 622.893C321.533 605.824 311.253 590.145 297.263 577.096C283.272 564.048 265.955 553.987 246.681 547.711C238.501 545.033 230.028 543.075 221.392 541.867L212.939 544.93L238.018 561.655L233.955 564.456L238.111 571.227L229.822 566.854L220.481 571.227L238.041 603.931L202.828 609.09L198.321 615.135L209.203 628.777L194.631 617.694L181.228 630.288L177.538 670.147L165.559 657.391L141.975 632.283H122.57L117.899 647.417V631.88L102.184 628.777L80.7477 655.477L76.3343 660.978L79.6035 648.505L86.9591 620.294L83.5498 621.059L76.3343 622.692L81.9386 608.364L78.506 607.599C71.1906 621.527 67.1756 636.577 66.697 651.864C66.2183 667.151 69.2856 682.366 75.7186 696.615C82.1517 710.864 91.8206 723.86 104.157 734.838C116.494 745.816 131.249 754.556 147.555 760.543Z" fill="#0C7489"/>
<path opacity="0.2" d="M282.082 754.74C295.252 759.737 319.14 737.873 335.416 705.894C351.692 673.915 354.213 643.951 341.043 638.954C327.873 633.956 304.008 655.82 287.663 687.799C271.317 719.778 268.982 749.742 282.082 754.74Z" fill="black"/>
<path d="M213.569 723.366C213.779 723.372 213.986 723.315 214.153 723.204C244.696 703.598 307.557 717.844 308.305 717.985C308.426 718.016 308.553 718.024 308.678 718.011C308.803 717.998 308.924 717.963 309.033 717.908C309.142 717.854 309.237 717.781 309.313 717.693C309.388 717.606 309.442 717.507 309.472 717.401C309.536 717.19 309.501 716.965 309.374 716.777C309.247 716.588 309.039 716.45 308.795 716.393C306.25 715.809 247.755 702.59 215.741 720.262L224.264 702.993C224.333 702.845 224.352 702.683 224.318 702.527C224.285 702.37 224.202 702.224 224.077 702.107L211.351 690.701L247.475 689.331C247.657 689.327 247.833 689.277 247.982 689.187C248.132 689.098 248.247 688.973 248.315 688.827C248.383 688.684 248.403 688.527 248.374 688.374C248.345 688.222 248.268 688.079 248.152 687.961L224.1 664.384L256.792 661.725C256.964 661.709 257.128 661.654 257.268 661.565C257.407 661.477 257.517 661.358 257.586 661.221C257.658 661.086 257.683 660.936 257.658 660.79C257.633 660.643 257.559 660.506 257.446 660.395L237.177 638.33H255.648C255.835 638.326 256.018 638.276 256.175 638.187C256.332 638.098 256.457 637.973 256.535 637.826L265.432 619.791C269.588 628.274 288.783 663.437 328.06 677.865C328.296 677.947 328.559 677.946 328.794 677.863C329.029 677.781 329.218 677.622 329.321 677.422C329.37 677.323 329.396 677.216 329.397 677.109C329.398 677.001 329.373 676.894 329.325 676.794C329.278 676.695 329.207 676.604 329.118 676.529C329.029 676.453 328.923 676.394 328.807 676.354C285.024 660.233 266.529 617.776 266.343 617.353C266.283 617.195 266.168 617.057 266.013 616.96C265.858 616.862 265.671 616.809 265.479 616.809C265.286 616.806 265.097 616.853 264.935 616.942C264.774 617.032 264.646 617.161 264.568 617.312L254.971 636.677H235.145C234.966 636.679 234.791 636.723 234.638 636.805C234.486 636.886 234.363 637.003 234.281 637.141C234.191 637.272 234.143 637.421 234.143 637.574C234.143 637.726 234.191 637.876 234.281 638.007L254.69 660.173L221.999 662.873C221.824 662.883 221.657 662.935 221.516 663.024C221.375 663.114 221.267 663.236 221.205 663.377C221.137 663.517 221.116 663.671 221.145 663.82C221.174 663.97 221.251 664.11 221.368 664.223L245.397 687.759L209.156 689.13C208.972 689.138 208.795 689.192 208.646 689.285C208.497 689.378 208.382 689.506 208.315 689.653C208.248 689.8 208.232 689.96 208.27 690.114C208.307 690.268 208.396 690.409 208.525 690.52L222.256 702.852L212.705 722.217C212.644 722.341 212.619 722.477 212.633 722.612C212.646 722.746 212.698 722.876 212.783 722.989C212.869 723.103 212.985 723.196 213.122 723.262C213.259 723.327 213.412 723.363 213.569 723.366Z" fill="#263238"/>
<path opacity="0.6" d="M147.555 760.543C165.609 767.197 185.149 770.311 204.766 769.659C224.383 769.007 243.588 764.607 260.995 756.774C264.191 755.307 267.755 754.539 271.375 754.539C274.995 754.539 278.559 755.307 281.755 756.774C282.054 756.929 282.366 757.063 282.689 757.177C297.47 762.598 322.853 739.888 339.362 706.418C355.871 672.947 357.296 641.432 342.514 635.991C342.187 635.872 341.852 635.771 341.51 635.689C338.102 634.731 335.021 633.062 332.54 630.83C330.059 628.598 328.256 625.872 327.289 622.893C321.533 605.824 311.253 590.145 297.263 577.096C283.272 564.048 265.955 553.987 246.681 547.711C238.501 545.033 230.028 543.075 221.392 541.867L212.939 544.93L238.018 561.655L233.955 564.456L238.111 571.227L229.822 566.854L220.481 571.227L238.041 603.931L202.828 609.09L198.321 615.135L209.203 628.777L194.631 617.694L181.228 630.288L177.538 670.147L165.559 657.391L141.975 632.283H122.57L117.899 647.417V631.88L102.184 628.777L80.7477 655.477L76.3343 660.978L79.6035 648.505L86.9591 620.294L83.5498 621.059L76.3343 622.692L81.9386 608.364L78.506 607.599C71.1906 621.527 67.1756 636.577 66.697 651.864C66.2183 667.151 69.2856 682.366 75.7186 696.615C82.1517 710.864 91.8206 723.86 104.157 734.838C116.494 745.816 131.249 754.556 147.555 760.543Z" fill="white"/>
<path opacity="0.2" d="M102.255 628.715L80.8184 655.415C83.7373 667.827 91.3965 677.721 103.142 682.175C123.318 689.832 149.074 678.93 165.583 657.329L141.998 632.221H122.594L117.923 647.354V631.818L102.255 628.715Z" fill="white"/>
<path opacity="0.2" d="M79.6735 648.406L87.0292 620.195L83.6199 620.961C80.3108 629.813 78.9718 639.125 79.6735 648.406Z" fill="white"/>
<path opacity="0.2" d="M124.205 710.225C127.591 715.565 137.609 716.492 146.552 712.24C155.496 707.988 160.003 700.25 156.617 694.89C153.231 689.53 143.213 688.623 134.27 692.875C125.326 697.127 120.726 704.865 124.205 710.225Z" fill="white"/>
<g opacity="0.2">
<path d="M361.85 653.926C361.27 663.776 359.708 673.566 357.179 683.185C355.825 687.92 354.541 692.655 352.673 697.29C351.832 699.607 350.804 701.864 349.87 704.141C348.936 706.418 347.769 708.635 346.601 710.831C344.266 715.285 341.931 719.657 339.082 723.889C336.233 728.121 333.361 732.272 330.325 736.382C324.025 744.589 316.695 752.171 308.469 758.992C313.592 756.564 318.358 753.614 322.666 750.206C327.014 746.813 331.05 743.135 334.739 739.204C338.426 735.258 341.804 731.105 344.85 726.771C347.868 722.362 350.604 717.815 353.046 713.149C357.805 703.846 361.013 694.009 362.573 683.93C363.381 678.924 363.748 673.872 363.671 668.817C363.622 663.814 363.012 658.827 361.85 653.926Z" fill="white"/>
</g>
<g opacity="0.2">
<path d="M376.093 659.609C375.075 669.449 373.241 679.214 370.606 688.828C369.205 693.583 367.874 698.319 366.169 702.933L363.624 709.926C362.667 712.223 361.803 714.581 360.752 716.817C359.701 719.054 358.814 721.351 357.576 723.507L355.848 726.812L353.91 730.016C352.719 732.212 351.224 734.268 349.847 736.363C349.123 737.411 348.329 738.378 347.512 739.426C346.694 740.474 346.017 741.441 345.176 742.489C341.994 746.526 338.515 750.382 334.762 754.036C331.02 757.782 326.97 761.291 322.643 764.534C327.867 762.268 332.746 759.453 337.167 756.151C341.666 752.877 345.808 749.255 349.543 745.33C357.074 737.428 363.046 728.509 367.22 718.933C371.291 709.45 374.187 699.623 375.86 689.614C377.705 679.681 377.783 669.563 376.093 659.609Z" fill="white"/>
</g>
<g opacity="0.2">
<path d="M388.074 667.809C387.846 676.991 386.388 686.119 383.73 695.012C381.184 703.834 377.866 712.476 373.806 720.865C371.835 725.059 369.614 729.162 367.151 733.157C364.816 737.187 361.967 741.016 359.211 744.865C353.41 752.551 346.54 759.595 338.756 765.842C343.636 763.722 348.174 761.059 352.253 757.923C356.371 754.785 360.175 751.354 363.625 747.666C365.329 745.812 367.057 743.938 368.552 741.943L370.887 738.981L373.012 735.938C381.237 723.58 386.695 709.998 389.101 695.899C390.946 686.571 390.596 677.018 388.074 667.809Z" fill="white"/>
</g>
<g opacity="0.2">
<path d="M400.94 678.57C399.884 686.95 398.025 695.24 395.383 703.356C392.798 711.37 389.575 719.22 385.739 726.851C381.933 734.482 377.46 741.851 372.359 748.896C367.245 756.052 360.952 762.528 353.678 768.12C358.294 766.386 362.559 764.025 366.311 761.128C370.111 758.252 373.597 755.082 376.725 751.657C382.963 744.812 388.122 737.284 392.067 729.269C396.058 721.295 398.942 712.942 400.66 704.383C402.507 695.86 402.602 687.122 400.94 678.57Z" fill="white"/>
</g>
<path d="M40.0472 769.751H70.3804L55.2021 762.719L36.9648 769.751" fill="#0C7489"/>
<path d="M109.633 769.752L122.99 766.246L136.954 766.992L133.031 770.055L109.633 769.752Z" fill="#0C7489"/>
<path d="M80.8184 758.93L102.231 755.504L113.323 757.217L109.634 762.718L80.8184 758.93Z" fill="#0C7489"/>
<path d="M0 762.72L15.4118 759.113L32.318 760.705L24.0284 766.247L0 762.72Z" fill="#0C7489"/>
<path d="M257.447 770.498H273.63L268.773 765.863H257.447V770.498Z" fill="#0C7489"/>
<g opacity="0.6">
<path d="M40.0472 769.751H70.3804L55.2021 762.719L36.9648 769.751" fill="white"/>
<path d="M109.633 769.748L122.99 766.242L136.954 766.988L133.031 770.051L109.633 769.748Z" fill="white"/>
<path d="M80.8184 758.93L102.231 755.504L113.323 757.217L109.634 762.718L80.8184 758.93Z" fill="white"/>
<path d="M0 762.716L15.4118 759.109L32.318 760.701L24.0284 766.243L0 762.716Z" fill="white"/>
<path d="M257.447 770.498H273.63L268.773 765.863H257.447V770.498Z" fill="white"/>
</g>
<path d="M48.5719 343.506L12.4009 311.346L53.7792 336.453L61.2749 326.358L32.4362 300.706L65.4314 320.736L90.207 287.326L231.739 298.429L238.58 306.026L267.956 281.422L243.461 311.467L252.731 321.764L280.262 298.711L257.308 326.882L320.613 397.309L284.932 437.65L313.211 462.798L280.332 442.849L270.875 453.569L293.199 473.418L267.232 457.68L236.619 492.299L168.387 487.12L182.187 527.804L152.251 527.381L185.83 606.493L119.91 512.208L150.5 514.162L135.742 484.642L96.9789 481.7L68.2336 452.481L35.1683 480.188L62.4892 446.637L53.3589 437.348L22.8389 462.899L48.0581 431.968L10.9531 394.246L48.5719 343.506Z" fill="#263238"/>
<path opacity="0.3" d="M48.5719 343.506L12.4009 311.346L53.7792 336.453L61.2749 326.358L32.4362 300.706L65.4314 320.736L90.207 287.326L231.739 298.429L238.58 306.026L267.956 281.422L243.461 311.467L252.731 321.764L280.262 298.711L257.308 326.882L320.613 397.309L284.932 437.65L313.211 462.798L280.332 442.849L270.875 453.569L293.199 473.418L267.232 457.68L236.619 492.299L168.387 487.12L182.187 527.804L152.251 527.381L185.83 606.493L119.91 512.208L150.5 514.162L135.742 484.642L96.9789 481.7L68.2336 452.481L35.1683 480.188L62.4892 446.637L53.3589 437.348L22.8389 462.899L48.0581 431.968L10.9531 394.246L48.5719 343.506Z" fill="white"/>
<path d="M173.616 420.298C162.338 426.525 157.831 428.359 148.771 448.509C148.771 448.509 143.587 452.539 141.088 443.854C138.59 435.169 150.078 420.641 151.059 414.575C152.04 408.51 125.373 408.732 119.488 406.515C113.604 404.299 111.315 395.311 119.955 392.41C119.955 392.41 105.104 384.853 123.388 377.518C123.388 377.518 113.534 368.047 127.685 363.272C127.685 363.272 124.275 355.453 140.644 352.411C152.787 350.134 193.979 361.116 199.676 368.33L191.317 406.616C188.001 414.797 181.369 415.986 173.616 420.298Z" fill="white"/>
<path d="M191.754 414.859L210.71 418.143C212.746 418.495 214.728 417.357 215.136 415.6L225.081 372.847C225.49 371.09 224.171 369.38 222.135 369.028L203.178 365.744C201.143 365.392 199.161 366.53 198.752 368.287L188.808 411.04C188.399 412.797 189.718 414.507 191.754 414.859Z" fill="#0C7489"/>
<path opacity="0.5" d="M191.754 414.859L210.71 418.143C212.746 418.495 214.728 417.357 215.136 415.6L225.081 372.847C225.49 371.09 224.171 369.38 222.135 369.028L203.178 365.744C201.143 365.392 199.161 366.53 198.752 368.287L188.808 411.04C188.399 412.797 189.718 414.507 191.754 414.859Z" fill="white"/>
<path d="M208.271 372.06C208.404 371.499 208.727 370.983 209.198 370.58C209.67 370.176 210.27 369.902 210.922 369.792C211.574 369.682 212.249 369.742 212.862 369.963C213.475 370.183 213.999 370.556 214.366 371.034C214.734 371.511 214.93 372.072 214.929 372.645C214.927 373.219 214.729 373.779 214.36 374.255C213.99 374.731 213.465 375.102 212.851 375.322C212.237 375.541 211.562 375.598 210.91 375.486C210.474 375.414 210.059 375.268 209.69 375.055C209.32 374.843 209.003 374.57 208.758 374.251C208.512 373.932 208.342 373.574 208.259 373.198C208.175 372.822 208.18 372.435 208.271 372.06Z" fill="white"/>
</svg>
