<svg width="63" height="62" viewBox="0 0 63 62" fill="none" xmlns="http://www.w3.org/2000/svg">
<circle cx="31.9707" cy="31" r="31" fill="#F1FDFF"/>
<g clip-path="url(#clip0_1017_6025)">
<path d="M29.5547 42.3984C27.4878 42.3984 25.8047 40.7164 25.8047 38.6484C25.8047 38.2344 26.1407 37.8984 26.5547 37.8984C26.9687 37.8984 27.3047 38.2344 27.3047 38.6484C27.3047 39.8895 28.3147 40.8984 29.5547 40.8984C30.7947 40.8984 31.8047 39.8895 31.8047 38.6484C31.8047 38.2344 32.1407 37.8984 32.5547 37.8984C32.9687 37.8984 33.3047 38.2344 33.3047 38.6484C33.3047 40.7164 31.6218 42.3984 29.5547 42.3984Z" fill="#0C7489"/>
<path d="M37.8046 39.3984H21.3046C20.3397 39.3984 19.5547 38.6135 19.5547 37.6485C19.5547 37.1364 19.7777 36.6515 20.1666 36.3184C20.1917 36.2964 20.2186 36.2765 20.2466 36.2584C21.7146 34.9774 22.5547 33.1344 22.5547 31.1884V28.3984C22.5547 24.5385 25.6957 21.3984 29.5546 21.3984C29.7147 21.3984 29.8877 21.4014 30.0477 21.4285C30.4566 21.4964 30.7327 21.8835 30.6646 22.2914C30.5967 22.6994 30.2026 22.9755 29.8016 22.9074C29.7216 22.8944 29.6337 22.8984 29.5546 22.8984C26.5228 22.8984 24.0547 25.3654 24.0547 28.3984V31.1884C24.0547 33.6044 22.9956 35.8905 21.1517 37.4594C21.1367 37.4714 21.1237 37.4824 21.1076 37.4934C21.0807 37.5275 21.0547 37.5795 21.0547 37.6485C21.0547 37.7844 21.1688 37.8984 21.3046 37.8984H37.8046C37.9407 37.8984 38.0547 37.7844 38.0547 37.6485C38.0547 37.5784 38.0287 37.5275 38.0007 37.4934C37.9857 37.4824 37.9727 37.4714 37.9577 37.4594C36.1127 35.8894 35.0547 33.6044 35.0547 31.1884V30.0985C35.0547 29.6845 35.3907 29.3485 35.8047 29.3485C36.2187 29.3485 36.5547 29.6845 36.5547 30.0985V31.1884C36.5547 33.1355 37.3958 34.9794 38.8657 36.2615C38.8926 36.2794 38.9186 36.2985 38.9426 36.3195C39.3317 36.6515 39.5547 37.1364 39.5547 37.6485C39.5547 38.6135 38.7698 39.3984 37.8046 39.3984Z" fill="#0C7489"/>
<path d="M36.5547 28.3984C33.7977 28.3984 31.5547 26.1555 31.5547 23.3985C31.5547 20.6415 33.7977 18.3984 36.5547 18.3984C39.3118 18.3984 41.5546 20.6415 41.5546 23.3985C41.5546 26.1555 39.3118 28.3984 36.5547 28.3984ZM36.5547 19.8984C34.6246 19.8984 33.0547 21.4684 33.0547 23.3985C33.0547 25.3284 34.6246 26.8984 36.5547 26.8984C38.4847 26.8984 40.0546 25.3284 40.0546 23.3985C40.0546 21.4684 38.4847 19.8984 36.5547 19.8984Z" fill="#0C7489"/>
</g>
<defs>
<clipPath id="clip0_1017_6025">
<rect width="24" height="24" fill="white" transform="translate(18.5703 18.3984)"/>
</clipPath>
</defs>
</svg>
