<svg width="23" height="23" viewBox="0 0 23 23" fill="none" xmlns="http://www.w3.org/2000/svg">
<path d="M22.4151 20.8104L17.1825 15.5725C18.4795 13.9896 19.2613 11.962 19.2613 9.75215C19.2613 4.68324 15.1525 0.570312 10.0887 0.570312C5.02039 0.570312 0.916016 4.68324 0.916016 9.75215C0.916016 14.8211 5.02039 18.934 10.0887 18.934C12.2963 18.934 14.3174 18.1559 15.8987 16.8575L21.1314 22.0909C21.4867 22.4467 22.0597 22.4467 22.4151 22.0909C22.7705 21.7397 22.7705 21.1616 22.4151 20.8104ZM10.0887 17.1065C6.03315 17.1065 2.73722 13.8073 2.73722 9.75215C2.73722 5.69702 6.03315 2.39334 10.0887 2.39334C14.1397 2.39334 17.4401 5.69702 17.4401 9.75215C17.4401 13.8073 14.1397 17.1065 10.0887 17.1065Z" fill="#0C7489"/>
</svg>
