<svg width="63" height="62" viewBox="0 0 63 62" fill="none" xmlns="http://www.w3.org/2000/svg">
<circle cx="31.9707" cy="31" r="31" fill="#F1FDFF"/>
<g clip-path="url(#clip0_1017_6020)">
<path d="M33.1626 43.8156H31.6061C30.3473 43.8156 29.3231 42.7915 29.3231 41.5326V41.0061C28.7879 40.8351 28.2679 40.6192 27.7684 40.3607L27.3952 40.7339C26.4914 41.6388 25.0437 41.6123 24.1661 40.7335L23.0661 39.6335C22.187 38.7554 22.1617 37.3081 23.0664 36.4044L23.4392 36.0316C23.1807 35.532 22.9649 35.0122 22.7939 34.4769H22.2674C21.0086 34.4769 19.9844 33.4527 19.9844 32.1939V30.6374C19.9844 29.3785 21.0086 28.3544 22.2674 28.3544H22.7939C22.965 27.8191 23.1808 27.2992 23.4393 26.7997L23.0661 26.4266C22.162 25.5234 22.1869 24.076 23.0664 23.1975L24.1666 22.0974C25.0461 21.2166 26.4936 21.1946 27.3956 22.0977L27.7684 22.4705C28.268 22.212 28.7879 21.9962 29.3231 21.8251V21.2986C29.3231 20.0398 30.3473 19.0156 31.6062 19.0156H33.1626C34.4215 19.0156 35.4456 20.0398 35.4456 21.2986V21.8252C35.9808 21.9962 36.5008 22.212 37.0003 22.4705L37.3735 22.0974C38.2773 21.1925 39.725 21.219 40.6026 22.0977L41.7026 23.1977C42.5817 24.0758 42.607 25.5231 41.7023 26.4268L41.3295 26.7997C41.588 27.2992 41.8038 27.8191 41.9748 28.3544H42.5013C43.7602 28.3544 44.7844 29.3785 44.7844 30.6374V32.1939C44.7844 33.4527 43.7602 34.4769 42.5013 34.4769H41.9748C41.8038 35.0121 41.588 35.532 41.3295 36.0316L41.7026 36.4047C42.6068 37.3079 42.5818 38.7553 41.7023 39.6338L40.6022 40.7339C39.7226 41.6147 38.2752 41.6367 37.3731 40.7336L37.0003 40.3608C36.5008 40.6193 35.9808 40.8351 35.4456 41.0062V41.5327C35.4456 42.7915 34.4215 43.8156 33.1626 43.8156ZM28.0113 38.8348C28.7053 39.2452 29.4522 39.5553 30.2312 39.7563C30.5521 39.8391 30.7762 40.1285 30.7762 40.4598V41.5326C30.7762 41.9902 31.1486 42.3625 31.6062 42.3625H33.1626C33.6202 42.3625 33.9925 41.9902 33.9925 41.5326V40.4598C33.9925 40.1285 34.2167 39.8391 34.5376 39.7563C35.3166 39.5553 36.0635 39.2452 36.7575 38.8348C37.043 38.6659 37.4066 38.7119 37.6412 38.9464L38.401 39.7064C38.7287 40.0344 39.2548 40.0268 39.5744 39.7067L40.6752 38.6059C40.994 38.2875 41.0047 37.7613 40.6755 37.4325L39.9153 36.6723C39.6808 36.4378 39.6348 36.0742 39.8036 35.7887C40.2141 35.0948 40.5241 34.3479 40.7251 33.5688C40.8079 33.2479 41.0973 33.0238 41.4286 33.0238H42.5014C42.959 33.0238 43.3313 32.6515 43.3313 32.1939V30.6374C43.3313 30.1798 42.959 29.8075 42.5014 29.8075H41.4286C41.0973 29.8075 40.8079 29.5834 40.7251 29.2626C40.5241 28.4835 40.214 27.7366 39.8036 27.0426C39.6348 26.7571 39.6808 26.3936 39.9153 26.159L40.6752 25.3991C41.0037 25.071 40.9952 24.545 40.6755 24.2257L39.5748 23.125C39.2557 22.8055 38.7295 22.7961 38.4014 23.1247L37.6412 23.8849C37.4067 24.1195 37.043 24.1654 36.7576 23.9966C36.0636 23.5861 35.3167 23.2761 34.5376 23.075C34.2168 22.9922 33.9926 22.7029 33.9926 22.3715V21.2986C33.9926 20.841 33.6203 20.4688 33.1627 20.4688H31.6062C31.1486 20.4688 30.7763 20.841 30.7763 21.2986V22.3714C30.7763 22.7028 30.5521 22.9921 30.2313 23.0749C29.4522 23.276 28.7053 23.586 28.0113 23.9965C27.7258 24.1653 27.3622 24.1193 27.1277 23.8848L26.3678 23.1249C26.0402 22.7968 25.514 22.8045 25.1945 23.1245L24.0936 24.2253C23.7748 24.5437 23.7641 25.0699 24.0933 25.3987L24.8536 26.1589C25.0881 26.3935 25.134 26.7571 24.9652 27.0425C24.5548 27.7365 24.2448 28.4834 24.0437 29.2625C23.9609 29.5833 23.6715 29.8075 23.3402 29.8075H22.2674C21.8098 29.8075 21.4375 30.1798 21.4375 30.6374V32.1939C21.4375 32.6515 21.8098 33.0238 22.2674 33.0238H23.3402C23.6715 33.0238 23.9609 33.2479 24.0437 33.5687C24.2447 34.3478 24.5548 35.0947 24.9652 35.7887C25.134 36.0742 25.088 36.4377 24.8535 36.6723L24.0936 37.4322C23.7651 37.7603 23.7736 38.2863 24.0933 38.6056L25.194 39.7063C25.5131 40.0258 26.0393 40.0352 26.3674 39.7066L27.1276 38.9464C27.3004 38.7736 27.66 38.627 28.0113 38.8348Z" fill="#0C7489"/>
<path d="M32.3842 36.8153C29.4088 36.8153 26.9883 34.3947 26.9883 31.4194C26.9883 28.4441 29.4088 26.0234 32.3842 26.0234C35.3596 26.0234 37.7802 28.4441 37.7802 31.4194C37.7802 34.3947 35.3596 36.8153 32.3842 36.8153ZM32.3842 27.4766C30.2101 27.4766 28.4414 29.2453 28.4414 31.4194C28.4414 33.5934 30.2102 35.3622 32.3842 35.3622C34.5583 35.3622 36.327 33.5934 36.327 31.4194C36.327 29.2453 34.5583 27.4766 32.3842 27.4766Z" fill="#0C7489"/>
</g>
<defs>
<clipPath id="clip0_1017_6020">
<rect width="24.8" height="24.8" fill="white" transform="translate(19.9844 19.0156)"/>
</clipPath>
</defs>
</svg>
