<svg width="396" height="323" viewBox="0 0 396 323" fill="none" xmlns="http://www.w3.org/2000/svg">
<path d="M355.727 151.938H260.291C258.586 151.938 257.197 150.55 257.197 148.844V9.83236C257.197 8.12692 258.586 6.73828 260.291 6.73828H355.727C357.433 6.73828 358.821 8.12692 358.821 9.83236V148.844C358.821 150.55 357.433 151.938 355.727 151.938ZM260.297 6.87028C258.665 6.87028 257.335 8.20084 257.335 9.83236V148.844C257.335 150.476 258.665 151.806 260.297 151.806H355.733C357.364 151.806 358.695 150.476 358.695 148.844V9.83236C358.695 8.20084 357.364 6.87028 355.733 6.87028H260.297Z" fill="#E0E0E0"/>
<path d="M245.682 151.938H150.246C148.541 151.938 147.152 150.55 147.152 148.844V9.83236C147.152 8.12692 148.541 6.73828 150.246 6.73828H245.682C247.388 6.73828 248.777 8.12692 248.777 9.83236V148.844C248.777 150.55 247.388 151.938 245.682 151.938ZM150.246 6.87028C148.615 6.87028 147.284 8.20084 147.284 9.83236V148.844C147.284 150.476 148.615 151.806 150.246 151.806H245.682C247.314 151.806 248.645 150.476 248.645 148.844V9.83236C248.645 8.20084 247.314 6.87028 245.682 6.87028H150.246Z" fill="#E0E0E0"/>
<path d="M135.701 151.938H40.2699C38.5644 151.938 37.1758 150.55 37.1758 148.844V9.83236C37.1758 8.12692 38.5644 6.73828 40.2699 6.73828H135.706C137.411 6.73828 138.8 8.12692 138.8 9.83236V148.844C138.8 150.55 137.411 151.938 135.706 151.938H135.701ZM40.2699 6.87028C38.6383 6.87028 37.3078 8.20084 37.3078 9.83236V148.844C37.3078 150.476 38.6383 151.806 40.2699 151.806H135.706C137.337 151.806 138.668 150.476 138.668 148.844V9.83236C138.668 8.20084 137.337 6.87028 135.706 6.87028H40.2699Z" fill="#E0E0E0"/>
<path d="M396 184.184H0V184.247H396V184.184Z" fill="#E0E0E0"/>
<path d="M374.541 199.695H345.115V199.917H374.541V199.695Z" fill="#EBEBEB"/>
<path d="M269.106 202.105H261.381V202.327H269.106V202.105Z" fill="#EBEBEB"/>
<path d="M59.8268 192.938H21.457V193.159H59.8268V192.938Z" fill="#EBEBEB"/>
<path d="M73.3707 192.938H67.7422V193.159H73.3707V192.938Z" fill="#EBEBEB"/>
<path d="M174.872 196.688H91.6543V196.909H174.872V196.688Z" fill="#EBEBEB"/>
<path d="M203.48 220.216L197.166 189.508H173.369L167.054 220.216C166.589 222.487 168.089 224.662 170.127 224.662H200.413C202.451 224.662 203.95 222.487 203.486 220.216H203.48Z" fill="#EBEBEB"/>
<path d="M185.892 189.509H172.766C172.053 189.509 171.473 188.928 171.473 188.215C171.473 187.503 172.053 186.922 172.766 186.922H185.892V189.509Z" fill="#E6E6E6"/>
<path d="M184.641 189.509H197.767C198.479 189.509 199.06 188.928 199.06 188.215C199.06 187.503 198.479 186.922 197.767 186.922H184.641V189.509Z" fill="#E6E6E6"/>
<path d="M195.793 189.508H174.831L168.97 219.905C168.712 221.256 169.609 222.539 170.818 222.539H199.811C201.02 222.539 201.918 221.256 201.659 219.905L195.798 189.508H195.793Z" fill="#F0F0F0"/>
<path opacity="0.3" d="M178.3 188.383H173.59C173.352 188.383 173.162 188.193 173.162 187.955C173.162 187.717 173.352 187.527 173.59 187.527H178.3C178.537 187.527 178.727 187.717 178.727 187.955C178.727 188.193 178.537 188.383 178.3 188.383Z" fill="white"/>
<path opacity="0.3" d="M179.978 188.383H179.498C179.26 188.383 179.07 188.193 179.07 187.955C179.07 187.717 179.26 187.527 179.498 187.527H179.978C180.216 187.527 180.406 187.717 180.406 187.955C180.406 188.193 180.216 188.383 179.978 188.383Z" fill="white"/>
<path d="M201.653 219.907L198.86 205.43L171.726 205.593L168.965 219.907C168.706 221.259 169.603 222.542 170.813 222.542H199.805C201.014 222.542 201.912 221.259 201.653 219.907Z" fill="#E0E0E0"/>
<path d="M185.323 206.337C192.831 206.337 198.919 206.003 198.919 205.592C198.919 205.181 192.831 204.848 185.323 204.848C177.814 204.848 171.727 205.181 171.727 205.592C171.727 206.003 177.814 206.337 185.323 206.337Z" fill="#E6E6E6"/>
<g opacity="0.3">
<path d="M179.197 194.558C180.01 194.975 179.783 196.089 179.714 196.532C179.218 199.737 179.065 202.103 178.389 205.292C178.183 206.274 177.824 207.272 177.127 207.995C176.43 208.724 175.2 209.041 174.413 208.423C173.558 207.752 173.643 206.448 173.817 205.371L174.878 198.692C175.021 197.794 175.168 196.876 175.58 196.068C175.992 195.255 176.721 194.552 177.618 194.405C177.618 194.405 178.706 194.299 179.197 194.552V194.558Z" fill="white"/>
</g>
<path opacity="0.3" d="M176.658 215.239C176.336 216.717 175.243 217.731 174.219 217.509C173.195 217.282 172.63 215.904 172.952 214.426C173.274 212.947 174.367 211.934 175.391 212.155C176.415 212.382 176.98 213.761 176.658 215.239Z" fill="white"/>
<path d="M202.951 33.7773V49.6859L216.727 57.6429L230.507 49.6859V33.7773L216.727 25.8203L202.951 33.7773Z" fill="#FAFAFA"/>
<path d="M216.728 57.8396C216.696 57.8396 216.659 57.829 216.627 57.8132L202.846 49.8562C202.783 49.8193 202.746 49.7559 202.746 49.6873V33.7786C202.746 33.71 202.783 33.6414 202.846 33.6097L216.627 25.6527C216.691 25.6158 216.765 25.6158 216.828 25.6527L230.609 33.6097C230.672 33.6466 230.709 33.71 230.709 33.7786V49.6873C230.709 49.7559 230.672 49.8246 230.609 49.8562L216.828 57.8132C216.796 57.829 216.764 57.8396 216.728 57.8396ZM203.147 49.5711L216.728 57.4119L230.308 49.5711V33.8895L216.728 26.0487L203.147 33.8895V49.5711Z" fill="#F0F0F0"/>
<path d="M230.508 33.7773V49.6859L244.283 57.6429L258.064 49.6859V33.7773L244.283 25.8203L230.508 33.7773Z" fill="#FAFAFA"/>
<path d="M244.284 57.8396C244.253 57.8396 244.216 57.829 244.184 57.8132L230.403 49.8562C230.34 49.8193 230.303 49.7559 230.303 49.6873V33.7786C230.303 33.71 230.34 33.6414 230.403 33.6097L244.184 25.6527C244.247 25.6158 244.321 25.6158 244.385 25.6527L258.165 33.6097C258.229 33.6466 258.266 33.71 258.266 33.7786V49.6873C258.266 49.7559 258.229 49.8246 258.165 49.8562L244.385 57.8132C244.353 57.829 244.321 57.8396 244.284 57.8396ZM230.704 49.5711L244.284 57.4119L257.864 49.5711V33.8895L244.284 26.0487L230.704 33.8895V49.5711Z" fill="#F0F0F0"/>
<path d="M258.254 33.7773V49.6859L272.029 57.6429L285.81 49.6859V33.7773L272.029 25.8203L258.254 33.7773Z" fill="#FAFAFA"/>
<path d="M272.03 57.8396C271.999 57.8396 271.962 57.829 271.93 57.8132L258.149 49.8562C258.086 49.8193 258.049 49.7559 258.049 49.6873V33.7786C258.049 33.71 258.086 33.6414 258.149 33.6097L271.93 25.6527C271.993 25.6158 272.067 25.6158 272.131 25.6527L285.911 33.6097C285.975 33.6466 286.012 33.71 286.012 33.7786V49.6873C286.012 49.7559 285.975 49.8246 285.911 49.8562L272.131 57.8132C272.099 57.829 272.067 57.8396 272.03 57.8396ZM258.45 49.5711L272.03 57.4119L285.61 49.5711V33.8895L272.03 26.0487L258.45 33.8895V49.5711Z" fill="#F0F0F0"/>
<path d="M285.812 33.7773V49.6859L299.593 57.6429L313.369 49.6859V33.7773L299.593 25.8203L285.812 33.7773Z" fill="#FAFAFA"/>
<path d="M299.593 57.8396C299.561 57.8396 299.524 57.829 299.492 57.8132L285.712 49.8562C285.648 49.8193 285.611 49.7559 285.611 49.6873V33.7786C285.611 33.71 285.648 33.6414 285.712 33.6097L299.492 25.6527C299.556 25.6158 299.63 25.6158 299.693 25.6527L313.474 33.6097C313.537 33.6466 313.574 33.71 313.574 33.7786V49.6873C313.574 49.7559 313.537 49.8246 313.474 49.8562L299.693 57.8132C299.661 57.829 299.63 57.8396 299.593 57.8396ZM286.013 49.5711L299.593 57.4119L313.173 49.5711V33.8895L299.593 26.0487L286.013 33.8895V49.5711Z" fill="#F0F0F0"/>
<path d="M244.475 9.82024V25.7289L258.255 33.6858L272.031 25.7289V9.82024L258.255 1.86328L244.475 9.82024Z" fill="#FAFAFA"/>
<path d="M258.255 33.8826C258.223 33.8826 258.186 33.872 258.155 33.8562L244.374 25.8992C244.31 25.8622 244.273 25.7989 244.273 25.7302V9.82161C244.273 9.75297 244.31 9.68433 244.374 9.65265L258.155 1.69569C258.218 1.65873 258.292 1.65873 258.355 1.69569L272.136 9.65265C272.199 9.68961 272.236 9.75297 272.236 9.82161V25.7302C272.236 25.7989 272.199 25.8675 272.136 25.8992L258.355 33.8562C258.324 33.872 258.292 33.8826 258.255 33.8826ZM244.675 25.6141L258.255 33.4549L271.835 25.6141V9.93249L258.255 2.09169L244.675 9.93249V25.6141Z" fill="#F0F0F0"/>
<path d="M313.558 33.9703C313.489 33.9703 313.426 33.9386 313.389 33.8752C313.331 33.7802 313.362 33.6588 313.452 33.6007L323.796 27.2911C323.885 27.233 324.012 27.2647 324.07 27.3544C324.128 27.4495 324.097 27.5709 324.007 27.629L313.663 33.9386C313.632 33.9597 313.595 33.965 313.558 33.965V33.9703Z" fill="#F0F0F0"/>
<path d="M244.473 10.0153C244.431 10.0153 244.394 10.0047 244.357 9.97832L231.12 0.400403C231.03 0.337043 231.009 0.210325 231.078 0.125845C231.141 0.0360847 231.268 0.0149637 231.352 0.0836037L244.589 9.66152C244.679 9.72488 244.7 9.8516 244.632 9.93608C244.595 9.98888 244.531 10.0206 244.473 10.0206V10.0153Z" fill="#F0F0F0"/>
<path d="M248.877 12.5755C248.809 12.5755 248.74 12.5385 248.703 12.4751C248.65 12.3801 248.682 12.2587 248.777 12.2059L258.593 6.58794C258.688 6.53514 258.809 6.56682 258.862 6.66186C258.915 6.7569 258.883 6.87834 258.788 6.93114L248.972 12.5491C248.941 12.5649 248.909 12.5755 248.872 12.5755H248.877Z" fill="#F0F0F0"/>
<path d="M234.938 36.3723C234.869 36.3723 234.801 36.3354 234.764 36.272C234.711 36.177 234.743 36.0555 234.838 36.0027L244.653 30.3848C244.748 30.332 244.87 30.3637 244.922 30.4587C244.975 30.5538 244.944 30.6752 244.849 30.728L235.033 36.3459C235.001 36.3618 234.97 36.3723 234.933 36.3723H234.938Z" fill="#F0F0F0"/>
<path d="M262.563 36.3723C262.494 36.3723 262.426 36.3354 262.389 36.272C262.336 36.177 262.368 36.0555 262.463 36.0027L272.278 30.3848C272.373 30.332 272.495 30.3637 272.547 30.4587C272.6 30.5538 272.569 30.6752 272.474 30.728L262.658 36.3459C262.626 36.3618 262.595 36.3723 262.558 36.3723H262.563Z" fill="#F0F0F0"/>
<path d="M290.056 44.722C289.945 44.722 289.855 44.6323 289.855 44.5214V38.8295C289.855 38.7187 289.945 38.6289 290.056 38.6289C290.167 38.6289 290.257 38.7187 290.257 38.8295V44.5214C290.257 44.6323 290.167 44.722 290.056 44.722Z" fill="#F0F0F0"/>
<path d="M234.124 44.722C234.014 44.722 233.924 44.6323 233.924 44.5214V38.8295C233.924 38.7187 234.014 38.6289 234.124 38.6289C234.235 38.6289 234.325 38.7187 234.325 38.8295V44.5214C234.325 44.6323 234.235 44.722 234.124 44.722Z" fill="#F0F0F0"/>
<path d="M90.3359 139.188V155.73L104.666 164.004L118.99 155.73V139.188L104.666 130.914L90.3359 139.188Z" fill="#FAFAFA"/>
<path d="M104.665 164.201C104.634 164.201 104.597 164.19 104.565 164.174L90.2351 155.901C90.1717 155.864 90.1348 155.8 90.1348 155.726V139.179C90.1348 139.11 90.1717 139.042 90.2351 139.005L104.565 130.731C104.628 130.694 104.702 130.694 104.766 130.731L119.096 139.005C119.159 139.042 119.196 139.105 119.196 139.179V155.726C119.196 155.795 119.159 155.864 119.096 155.901L104.766 164.174C104.734 164.19 104.702 164.201 104.665 164.201ZM90.536 155.615L104.665 163.773L118.795 155.615V139.3L104.665 131.143L90.536 139.3V155.615Z" fill="#F0F0F0"/>
<path d="M118.99 139.188V155.73L133.32 164.004L147.65 155.73V139.188L133.32 130.914L118.99 139.188Z" fill="#FAFAFA"/>
<path d="M133.32 164.201C133.288 164.201 133.251 164.19 133.219 164.174L118.889 155.901C118.826 155.864 118.789 155.8 118.789 155.726V139.179C118.789 139.11 118.826 139.042 118.889 139.005L133.219 130.731C133.283 130.694 133.357 130.694 133.42 130.731L147.75 139.005C147.813 139.042 147.85 139.105 147.85 139.179V155.726C147.85 155.795 147.813 155.864 147.75 155.901L133.42 164.174C133.388 164.19 133.357 164.201 133.32 164.201ZM119.19 155.615L133.32 163.773L147.449 155.615V139.3L133.32 131.143L119.19 139.3V155.615Z" fill="#F0F0F0"/>
<path d="M147.846 139.188V155.73L162.176 164.004L176.506 155.73V139.188L162.176 130.914L147.846 139.188Z" fill="#FAFAFA"/>
<path d="M162.175 164.201C162.143 164.201 162.106 164.19 162.075 164.174L147.745 155.901C147.681 155.864 147.645 155.8 147.645 155.726V139.179C147.645 139.11 147.681 139.042 147.745 139.005L162.075 130.731C162.138 130.694 162.212 130.694 162.275 130.731L176.605 139.005C176.669 139.042 176.706 139.105 176.706 139.179V155.726C176.706 155.795 176.669 155.864 176.605 155.901L162.275 164.174C162.244 164.19 162.212 164.201 162.175 164.201ZM148.046 155.615L162.175 163.773L176.304 155.615V139.3L162.175 131.143L148.046 139.3V155.615Z" fill="#F0F0F0"/>
<path d="M176.506 139.188V155.73L190.836 164.004L205.166 155.73V139.188L190.836 130.914L176.506 139.188Z" fill="#FAFAFA"/>
<path d="M190.835 164.201C190.804 164.201 190.767 164.19 190.735 164.174L176.405 155.901C176.342 155.864 176.305 155.8 176.305 155.726V139.179C176.305 139.11 176.342 139.042 176.405 139.005L190.735 130.731C190.798 130.694 190.872 130.694 190.936 130.731L205.265 139.005C205.329 139.042 205.366 139.105 205.366 139.179V155.726C205.366 155.795 205.329 155.864 205.265 155.901L190.936 164.174C190.904 164.19 190.872 164.201 190.835 164.201ZM176.706 155.615L190.835 163.773L204.965 155.615V139.3L190.835 131.143L176.706 139.3V155.615Z" fill="#F0F0F0"/>
<path d="M133.52 114.434V130.976L147.844 139.25L162.174 130.976V114.434L147.844 106.16L133.52 114.434Z" fill="#FAFAFA"/>
<path d="M147.845 139.449C147.813 139.449 147.776 139.439 147.745 139.423L133.415 131.149C133.351 131.112 133.314 131.049 133.314 130.975V114.427C133.314 114.359 133.351 114.29 133.415 114.259L147.745 105.985C147.808 105.948 147.882 105.948 147.945 105.985L162.275 114.259C162.339 114.295 162.376 114.359 162.376 114.427V130.975C162.376 131.044 162.339 131.112 162.275 131.149L147.945 139.423C147.914 139.439 147.882 139.449 147.845 139.449ZM133.716 130.864L147.845 139.022L161.974 130.864V114.549L147.845 106.391L133.716 114.549V130.864Z" fill="#F0F0F0"/>
<path d="M205.36 139.384C205.292 139.384 205.228 139.352 205.191 139.289C205.133 139.194 205.165 139.072 205.255 139.014L216.01 132.451C216.1 132.393 216.227 132.425 216.285 132.515C216.343 132.61 216.311 132.731 216.221 132.789L205.466 139.352C205.434 139.373 205.397 139.379 205.36 139.379V139.384Z" fill="#F0F0F0"/>
<path d="M133.521 114.473C133.478 114.473 133.441 114.463 133.404 114.436L119.64 104.473C119.55 104.41 119.529 104.283 119.597 104.199C119.666 104.114 119.787 104.088 119.872 104.156L133.637 114.12C133.727 114.183 133.748 114.31 133.679 114.394C133.642 114.447 133.579 114.479 133.521 114.479V114.473Z" fill="#F0F0F0"/>
<path d="M138.098 117.135C138.029 117.135 137.961 117.098 137.924 117.034C137.871 116.939 137.903 116.818 137.998 116.765L148.204 110.92C148.299 110.867 148.421 110.899 148.473 110.994C148.526 111.089 148.494 111.21 148.399 111.263L138.193 117.108C138.161 117.124 138.13 117.135 138.093 117.135H138.098Z" fill="#F0F0F0"/>
<path d="M123.604 141.883C123.535 141.883 123.467 141.846 123.43 141.783C123.377 141.688 123.409 141.566 123.504 141.513L133.71 135.668C133.805 135.61 133.926 135.647 133.979 135.742C134.032 135.837 134 135.959 133.905 136.012L123.699 141.857C123.667 141.872 123.636 141.883 123.599 141.883H123.604Z" fill="#F0F0F0"/>
<path d="M152.329 141.883C152.26 141.883 152.191 141.846 152.154 141.783C152.102 141.688 152.133 141.566 152.228 141.513L162.435 135.668C162.53 135.61 162.651 135.647 162.704 135.742C162.757 135.837 162.725 135.959 162.63 136.012L152.424 141.857C152.392 141.872 152.36 141.883 152.323 141.883H152.329Z" fill="#F0F0F0"/>
<path d="M178.49 152.715C178.379 152.715 178.289 152.625 178.289 152.514V146.595C178.289 146.484 178.379 146.395 178.49 146.395C178.601 146.395 178.69 146.484 178.69 146.595V152.514C178.69 152.625 178.601 152.715 178.49 152.715Z" fill="#F0F0F0"/>
<path d="M122.755 150.564C122.644 150.564 122.555 150.474 122.555 150.363V144.439C122.555 144.328 122.644 144.238 122.755 144.238C122.866 144.238 122.956 144.328 122.956 144.439V150.363C122.956 150.474 122.866 150.564 122.755 150.564Z" fill="#F0F0F0"/>
<path d="M98.5449 42.5863V59.1338L112.87 67.4075L127.199 59.1338V42.5863L112.87 34.3125L98.5449 42.5863Z" fill="#FAFAFA"/>
<path d="M112.87 67.6043C112.839 67.6043 112.802 67.5937 112.77 67.5779L98.4402 59.3041C98.3768 59.2671 98.3398 59.2038 98.3398 59.1351V42.5876C98.3398 42.519 98.3768 42.4503 98.4402 42.4187L112.77 34.1449C112.833 34.1079 112.907 34.1079 112.971 34.1449L127.301 42.4187C127.364 42.4556 127.401 42.519 127.401 42.5876V59.1351C127.401 59.2038 127.364 59.2724 127.301 59.3041L112.971 67.5779C112.939 67.5937 112.907 67.6043 112.87 67.6043ZM98.7411 59.019L112.87 67.1766L127 59.019V42.7038L112.87 34.5462L98.7411 42.7038V59.019Z" fill="#F0F0F0"/>
<path d="M127.201 42.5863V59.1338L141.531 67.4075L155.861 59.1338V42.5863L141.531 34.3125L127.201 42.5863Z" fill="#FAFAFA"/>
<path d="M141.531 67.6043C141.499 67.6043 141.462 67.5937 141.43 67.5779L127.1 59.3041C127.037 59.2671 127 59.2038 127 59.1351V42.5876C127 42.519 127.037 42.4503 127.1 42.4187L141.43 34.1449C141.494 34.1079 141.568 34.1079 141.631 34.1449L155.961 42.4187C156.024 42.4556 156.061 42.519 156.061 42.5876V59.1351C156.061 59.2038 156.024 59.2724 155.961 59.3041L141.631 67.5779C141.599 67.5937 141.568 67.6043 141.531 67.6043ZM127.401 59.019L141.531 67.1766L155.66 59.019V42.7038L141.531 34.5462L127.401 42.7038V59.019Z" fill="#F0F0F0"/>
<path d="M156.057 42.5863V59.1338L170.387 67.4075L184.716 59.1338V42.5863L170.387 34.3125L156.057 42.5863Z" fill="#FAFAFA"/>
<path d="M170.386 67.6043C170.354 67.6043 170.317 67.5937 170.286 67.5779L155.956 59.3041C155.892 59.2671 155.855 59.2038 155.855 59.1351V42.5876C155.855 42.519 155.892 42.4503 155.956 42.4187L170.286 34.1449C170.349 34.1079 170.423 34.1079 170.486 34.1449L184.816 42.4187C184.88 42.4556 184.917 42.519 184.917 42.5876V59.1351C184.917 59.2038 184.88 59.2724 184.816 59.3041L170.486 67.5779C170.455 67.5937 170.423 67.6043 170.386 67.6043ZM156.257 59.019L170.386 67.1766L184.515 59.019V42.7038L170.386 34.5462L156.257 42.7038V59.019Z" fill="#F0F0F0"/>
<path d="M184.912 42.5863V59.1338L199.242 67.4075L213.572 59.1338V42.5863L199.242 34.3125L184.912 42.5863Z" fill="#FAFAFA"/>
<path d="M199.242 67.6043C199.21 67.6043 199.173 67.5937 199.141 67.5779L184.811 59.3041C184.748 59.2671 184.711 59.2038 184.711 59.1351V42.5876C184.711 42.519 184.748 42.4503 184.811 42.4187L199.141 34.1449C199.205 34.1079 199.278 34.1079 199.342 34.1449L213.672 42.4187C213.735 42.4556 213.772 42.519 213.772 42.5876V59.1351C213.772 59.2038 213.735 59.2724 213.672 59.3041L199.342 67.5779C199.31 67.5937 199.278 67.6043 199.242 67.6043ZM185.112 59.019L199.242 67.1766L213.371 59.019V42.7038L199.242 34.5462L185.112 42.7038V59.019Z" fill="#F0F0F0"/>
<path d="M141.531 17.8714V34.4137L155.861 42.6874L170.191 34.4137V17.8714L155.861 9.59766L141.531 17.8714Z" fill="#FAFAFA"/>
<path d="M155.861 42.8894C155.829 42.8894 155.792 42.8789 155.76 42.863L141.43 34.5893C141.367 34.5523 141.33 34.4889 141.33 34.4203V17.8728C141.33 17.8041 141.367 17.7355 141.43 17.7038L155.76 9.43006C155.824 9.3931 155.898 9.3931 155.961 9.43006L170.291 17.7038C170.354 17.7408 170.391 17.8041 170.391 17.8728V34.4203C170.391 34.4889 170.354 34.5576 170.291 34.5893L155.961 42.863C155.929 42.8789 155.898 42.8894 155.861 42.8894ZM141.731 34.3041L155.861 42.4617L169.99 34.3041V17.9889L155.861 9.83134L141.731 17.9889V34.3041Z" fill="#F0F0F0"/>
<path d="M213.571 42.7901C213.503 42.7901 213.439 42.7584 213.402 42.6951C213.344 42.6 213.376 42.4786 213.466 42.4205L224.221 35.8575C224.311 35.7994 224.438 35.8311 224.496 35.9208C224.554 36.0159 224.522 36.1373 224.432 36.1954L213.677 42.7584C213.645 42.7796 213.608 42.7848 213.571 42.7848V42.7901Z" fill="#F0F0F0"/>
<path d="M141.726 17.8734C141.683 17.8734 141.647 17.8628 141.61 17.8364L127.845 7.87306C127.755 7.8097 127.734 7.68298 127.802 7.5985C127.866 7.50874 127.992 7.48762 128.077 7.55626L141.842 17.5196C141.932 17.583 141.953 17.7097 141.884 17.7942C141.847 17.847 141.784 17.8787 141.726 17.8787V17.8734Z" fill="#F0F0F0"/>
<path d="M146.309 20.5408C146.24 20.5408 146.172 20.5038 146.135 20.4405C146.082 20.3454 146.114 20.224 146.209 20.1712L156.415 14.3262C156.51 14.2734 156.631 14.3051 156.684 14.4001C156.737 14.4952 156.705 14.6166 156.61 14.6694L146.404 20.5144C146.372 20.5302 146.341 20.5408 146.304 20.5408H146.309Z" fill="#F0F0F0"/>
<path d="M131.815 45.283C131.746 45.283 131.678 45.246 131.641 45.1826C131.588 45.0876 131.62 44.9662 131.715 44.9134L141.921 39.0684C142.016 39.0156 142.137 39.0473 142.19 39.1423C142.243 39.2374 142.211 39.3588 142.116 39.4116L131.91 45.2566C131.878 45.2724 131.847 45.283 131.81 45.283H131.815Z" fill="#F0F0F0"/>
<path d="M160.538 45.283C160.469 45.283 160.4 45.246 160.363 45.1826C160.311 45.0876 160.342 44.9662 160.437 44.9134L170.643 39.0684C170.739 39.0156 170.86 39.0473 170.913 39.1423C170.966 39.2374 170.934 39.3588 170.839 39.4116L160.633 45.2566C160.601 45.2724 160.569 45.283 160.532 45.283H160.538Z" fill="#F0F0F0"/>
<path d="M189.13 53.9622C189.019 53.9622 188.93 53.8724 188.93 53.7615V47.8374C188.93 47.7265 189.019 47.6367 189.13 47.6367C189.241 47.6367 189.331 47.7265 189.331 47.8374V53.7615C189.331 53.8724 189.241 53.9622 189.13 53.9622Z" fill="#F0F0F0"/>
<path d="M130.964 53.9622C130.853 53.9622 130.764 53.8724 130.764 53.7615V47.8374C130.764 47.7265 130.853 47.6367 130.964 47.6367C131.075 47.6367 131.165 47.7265 131.165 47.8374V53.7615C131.165 53.8724 131.075 53.9622 130.964 53.9622Z" fill="#F0F0F0"/>
<path d="M235.357 149.66V167.174L250.522 175.928L265.686 167.174V149.66L250.522 140.906L235.357 149.66Z" fill="#FAFAFA"/>
<path d="M250.521 176.123C250.489 176.123 250.452 176.112 250.421 176.096L235.257 167.342C235.193 167.305 235.156 167.242 235.156 167.168V149.659C235.156 149.591 235.193 149.522 235.257 149.485L250.421 140.731C250.484 140.694 250.558 140.694 250.621 140.731L265.786 149.485C265.849 149.522 265.886 149.585 265.886 149.659V167.168C265.886 167.236 265.849 167.305 265.786 167.342L250.621 176.096C250.59 176.112 250.558 176.123 250.521 176.123ZM235.558 167.057L250.521 175.7L265.485 167.057V149.775L250.521 141.132L235.558 149.775V167.057Z" fill="#F0F0F0"/>
<path d="M265.686 149.66V167.174L280.85 175.928L296.014 167.174V149.66L280.85 140.906L265.686 149.66Z" fill="#FAFAFA"/>
<path d="M280.849 176.123C280.817 176.123 280.781 176.112 280.749 176.096L265.585 167.342C265.521 167.305 265.484 167.242 265.484 167.168V149.659C265.484 149.591 265.521 149.522 265.585 149.485L280.749 140.731C280.812 140.694 280.886 140.694 280.949 140.731L296.114 149.485C296.177 149.522 296.214 149.585 296.214 149.659V167.168C296.214 167.236 296.177 167.305 296.114 167.342L280.949 176.096C280.918 176.112 280.886 176.123 280.849 176.123ZM265.88 167.057L280.849 175.7L295.813 167.057V149.775L280.849 141.132L265.88 149.775V167.057Z" fill="#F0F0F0"/>
<path d="M250.521 175.91V193.424L265.686 202.178L280.85 193.424V175.91L265.686 167.156L250.521 175.91Z" fill="#FAFAFA"/>
<path d="M265.685 202.373C265.653 202.373 265.616 202.362 265.585 202.346L250.421 193.592C250.357 193.555 250.32 193.492 250.32 193.418V175.909C250.32 175.841 250.357 175.772 250.421 175.735L265.585 166.981C265.648 166.944 265.722 166.944 265.785 166.981L280.95 175.735C281.013 175.772 281.05 175.835 281.05 175.909V193.418C281.05 193.486 281.013 193.555 280.95 193.592L265.785 202.346C265.754 202.362 265.722 202.373 265.685 202.373ZM250.722 193.307L265.685 201.95L280.654 193.307V176.025L265.685 167.382L250.722 176.025V193.307Z" fill="#F0F0F0"/>
<path d="M250.521 123.297V140.806L265.686 149.56L280.85 140.806V123.297L265.686 114.543L250.521 123.297Z" fill="#FAFAFA"/>
<path d="M265.685 149.759C265.653 149.759 265.616 149.749 265.585 149.733L250.421 140.979C250.357 140.942 250.32 140.878 250.32 140.805V123.296C250.32 123.227 250.357 123.159 250.421 123.122L265.585 114.368C265.648 114.331 265.722 114.331 265.785 114.368L280.95 123.122C281.013 123.159 281.05 123.222 281.05 123.296V140.805C281.05 140.873 281.013 140.942 280.95 140.979L265.785 149.733C265.754 149.749 265.722 149.759 265.685 149.759ZM250.722 140.694L265.685 149.337L280.654 140.694V123.412L265.685 114.769L250.722 123.412V140.694Z" fill="#F0F0F0"/>
<path d="M296.22 149.793C296.151 149.793 296.088 149.761 296.051 149.698C295.993 149.603 296.024 149.481 296.114 149.423L307.498 142.475C307.588 142.417 307.714 142.448 307.772 142.538C307.831 142.633 307.799 142.755 307.709 142.813L296.325 149.761C296.294 149.782 296.257 149.787 296.22 149.787V149.793Z" fill="#F0F0F0"/>
<path d="M250.727 123.497C250.685 123.497 250.648 123.487 250.611 123.46L236.044 112.916C235.954 112.853 235.933 112.726 236.002 112.641C236.065 112.552 236.192 112.531 236.276 112.599L250.844 123.143C250.933 123.207 250.955 123.333 250.886 123.418C250.849 123.471 250.786 123.502 250.727 123.502V123.497Z" fill="#F0F0F0"/>
<path d="M255.575 126.312C255.506 126.312 255.437 126.275 255.4 126.212C255.348 126.117 255.379 125.995 255.474 125.943L266.277 119.76C266.372 119.707 266.494 119.739 266.547 119.834C266.599 119.929 266.568 120.05 266.473 120.103L255.67 126.286C255.638 126.302 255.606 126.312 255.569 126.312H255.575Z" fill="#F0F0F0"/>
<path d="M240.235 152.5C240.166 152.5 240.098 152.463 240.061 152.399C240.008 152.304 240.039 152.183 240.135 152.13L250.937 145.947C251.032 145.895 251.154 145.926 251.207 146.021C251.259 146.116 251.228 146.238 251.133 146.291L240.33 152.473C240.298 152.489 240.267 152.5 240.23 152.5H240.235Z" fill="#F0F0F0"/>
<path d="M270.637 152.5C270.569 152.5 270.5 152.463 270.463 152.399C270.41 152.304 270.442 152.183 270.537 152.13L281.34 145.947C281.435 145.895 281.556 145.926 281.609 146.021C281.662 146.116 281.63 146.238 281.535 146.291L270.732 152.473C270.701 152.489 270.669 152.5 270.632 152.5H270.637Z" fill="#F0F0F0"/>
<path d="M239.337 161.688C239.226 161.688 239.137 161.598 239.137 161.488V155.22C239.137 155.109 239.226 155.02 239.337 155.02C239.448 155.02 239.538 155.109 239.538 155.22V161.488C239.538 161.598 239.448 161.688 239.337 161.688Z" fill="#F0F0F0"/>
<path d="M109.924 172.062H92.7637V179.19H109.924V172.062Z" fill="#E6E6E6"/>
<path d="M118.504 179.191H101.344V186.319H118.504V179.191Z" fill="#F5F5F5"/>
<path d="M49.4412 124.691H32.2812V131.819H49.4412V124.691Z" fill="#E6E6E6"/>
<path d="M58.0213 131.82H40.8613V138.948H58.0213V131.82Z" fill="#F5F5F5"/>
<path d="M356.379 126.422H339.219V133.55H356.379V126.422Z" fill="#E6E6E6"/>
<path d="M364.959 133.551H347.799V140.679H364.959V133.551Z" fill="#F5F5F5"/>
<path d="M47.1561 25.2383H29.9961V32.3663H47.1561V25.2383Z" fill="#EBEBEB"/>
<path d="M56.6912 18.1641H39.5312V25.2921H56.6912V18.1641Z" fill="#FAFAFA"/>
<path d="M57.2616 32.2305H40.1016V39.3585H57.2616V32.2305Z" fill="#F5F5F5"/>
<path d="M359.051 64.3945H341.891V71.5225H359.051V64.3945Z" fill="#EBEBEB"/>
<path d="M368.586 57.3242H351.426V64.4522H368.586V57.3242Z" fill="#FAFAFA"/>
<path d="M369.156 71.3867H351.996V78.5147H369.156V71.3867Z" fill="#F5F5F5"/>
<path d="M329.709 14.6055H312.549V21.7335H329.709V14.6055Z" fill="#F5F5F5"/>
<path d="M276.476 218.565L267.653 175.676H234.416L225.593 218.565C224.938 221.733 227.04 224.774 229.886 224.774H272.184C275.03 224.774 277.126 221.739 276.476 218.565Z" fill="#EBEBEB"/>
<path d="M233.065 172.062H251.909V175.674H233.065C232.352 175.674 231.771 175.093 231.771 174.38V173.356C231.771 172.643 232.352 172.062 233.065 172.062Z" fill="#E6E6E6"/>
<path d="M269.011 175.68H250.167V172.068H269.011C269.724 172.068 270.305 172.649 270.305 173.362V174.386C270.305 175.099 269.724 175.68 269.011 175.68Z" fill="#E6E6E6"/>
<path d="M265.731 175.676H236.454L228.264 218.127C227.9 220.017 229.157 221.807 230.846 221.807H271.339C273.028 221.807 274.285 220.017 273.921 218.127L265.731 175.676Z" fill="#F0F0F0"/>
<path opacity="0.3" d="M241.476 172.914H234.564C234.328 172.914 234.137 173.106 234.137 173.342V173.674C234.137 173.911 234.328 174.102 234.564 174.102H241.476C241.712 174.102 241.904 173.911 241.904 173.674V173.342C241.904 173.106 241.712 172.914 241.476 172.914Z" fill="white"/>
<path opacity="0.3" d="M243.814 172.914H242.81C242.574 172.914 242.383 173.106 242.383 173.342V173.674C242.383 173.911 242.574 174.102 242.81 174.102H243.814C244.05 174.102 244.241 173.911 244.241 173.674V173.342C244.241 173.106 244.05 172.914 243.814 172.914Z" fill="white"/>
<path d="M273.921 218.129L270.019 197.906L232.125 198.139L228.27 218.129C227.906 220.019 229.163 221.809 230.852 221.809H271.344C273.034 221.809 274.285 220.019 273.926 218.129H273.921Z" fill="#E0E0E0"/>
<path d="M251.117 197.094C240.631 197.094 232.125 197.558 232.125 198.134C232.125 198.709 240.626 199.174 251.117 199.174C261.609 199.174 270.109 198.709 270.109 198.134C270.109 197.558 261.609 197.094 251.117 197.094Z" fill="#E6E6E6"/>
<g opacity="0.3">
<path d="M242.558 182.723C243.693 183.304 243.376 184.862 243.281 185.485C242.589 189.962 242.373 193.268 241.433 197.719C241.143 199.091 240.641 200.48 239.675 201.499C238.703 202.513 236.987 202.962 235.884 202.096C234.685 201.156 234.812 199.34 235.049 197.835C235.54 194.725 236.037 191.615 236.533 188.505C236.734 187.248 236.94 185.971 237.515 184.841C238.091 183.706 239.11 182.723 240.361 182.523C240.361 182.523 241.882 182.375 242.563 182.729L242.558 182.723Z" fill="white"/>
</g>
<path opacity="0.3" d="M239.015 211.609C238.561 213.674 237.035 215.094 235.604 214.777C234.173 214.466 233.381 212.538 233.835 210.474C234.289 208.409 235.815 206.989 237.246 207.306C238.677 207.617 239.469 209.545 239.015 211.609Z" fill="white"/>
<path d="M183.443 217.821L173.876 171.32H137.84L128.272 217.821C127.565 221.259 129.84 224.553 132.924 224.553H178.786C181.87 224.553 184.145 221.259 183.438 217.821H183.443Z" fill="#0C7489"/>
<path d="M156.805 171.32H136.932C135.849 171.32 134.973 170.444 134.973 169.361C134.973 168.279 135.849 167.402 136.932 167.402H156.805V171.32Z" fill="#0C7489"/>
<path d="M154.916 171.32H174.79C175.872 171.32 176.749 170.444 176.749 169.361C176.749 168.279 175.872 167.402 174.79 167.402H154.916V171.32Z" fill="#0C7489"/>
<g opacity="0.3">
<path d="M156.805 171.32H136.932C135.849 171.32 134.973 170.444 134.973 169.361C134.973 168.279 135.849 167.402 136.932 167.402H156.805V171.32Z" fill="white"/>
<path d="M154.916 171.32H174.79C175.872 171.32 176.749 170.444 176.749 169.361C176.749 168.279 175.872 167.402 174.79 167.402H154.916V171.32Z" fill="white"/>
</g>
<path opacity="0.3" d="M183.443 217.821L173.876 171.32H137.84L128.272 217.821C127.565 221.259 129.84 224.553 132.924 224.553H178.786C181.87 224.553 184.145 221.259 183.438 217.821H183.443Z" fill="white"/>
<path opacity="0.3" d="M171.795 171.32H140.052L131.176 217.351C130.78 219.4 132.143 221.338 133.975 221.338H177.878C179.71 221.338 181.067 219.395 180.676 217.351L171.801 171.32H171.795Z" fill="white"/>
<path opacity="0.2" d="M137.845 171.32L137.533 172.815H174.187L173.875 171.32H137.845Z" fill="black"/>
<path opacity="0.3" d="M145.311 169.616H138.183C137.824 169.616 137.539 169.326 137.539 168.972C137.539 168.613 137.829 168.328 138.183 168.328H145.311C145.67 168.328 145.955 168.619 145.955 168.972C145.955 169.331 145.665 169.616 145.311 169.616Z" fill="white"/>
<path opacity="0.3" d="M147.85 169.616H147.127C146.768 169.616 146.482 169.326 146.482 168.972C146.482 168.613 146.773 168.328 147.127 168.328H147.85C148.209 168.328 148.494 168.619 148.494 168.972C148.494 169.331 148.204 169.616 147.85 169.616Z" fill="white"/>
<path d="M180.676 217.35L176.447 195.422L135.358 195.675L131.176 217.35C130.78 219.398 132.143 221.336 133.975 221.336H177.878C179.71 221.336 181.067 219.393 180.676 217.35Z" fill="#0C7489"/>
<path d="M155.946 194.547C144.572 194.547 135.354 195.054 135.354 195.677C135.354 196.3 144.572 196.807 155.946 196.807C167.319 196.807 176.538 196.3 176.538 195.677C176.538 195.054 167.319 194.547 155.946 194.547Z" fill="#0C7489"/>
<path opacity="0.3" d="M155.946 194.547C144.572 194.547 135.354 195.054 135.354 195.677C135.354 196.3 144.572 196.807 155.946 196.807C167.319 196.807 176.538 196.3 176.538 195.677C176.538 195.054 167.319 194.547 155.946 194.547Z" fill="black"/>
<g opacity="0.3">
<path d="M146.668 178.962C147.898 179.595 147.56 181.279 147.454 181.955C146.704 186.808 146.467 190.393 145.448 195.224C145.136 196.713 144.592 198.218 143.536 199.321C142.486 200.419 140.622 200.91 139.423 199.971C138.124 198.952 138.262 196.982 138.52 195.351C139.054 191.977 139.592 188.608 140.126 185.234C140.342 183.872 140.564 182.489 141.192 181.258C141.815 180.028 142.919 178.962 144.281 178.74C144.281 178.74 145.928 178.581 146.673 178.962H146.668Z" fill="white"/>
</g>
<path opacity="0.3" d="M142.824 210.281C142.333 212.519 140.681 214.056 139.128 213.718C137.576 213.38 136.721 211.289 137.206 209.05C137.692 206.812 139.35 205.275 140.902 205.613C142.455 205.951 143.31 208.042 142.824 210.281Z" fill="white"/>
<path opacity="0.1" d="M177.851 220.186H133.947C132.511 220.186 131.371 218.993 131.133 217.488C130.822 219.484 132.157 221.337 133.947 221.337H177.851C179.64 221.337 180.976 219.484 180.665 217.488C180.427 218.993 179.287 220.186 177.851 220.186Z" fill="black"/>
<path d="M230.994 143.541C229.901 149.127 223.85 163.13 219.896 167.222C218.76 168.399 217.245 169.561 215.65 169.202C214.51 168.943 213.681 167.961 213.116 166.937C211.622 164.249 211.379 161.076 210.893 158.04C209.494 149.27 205.787 140.88 200.254 133.937L223.454 127.094L230.999 143.541H230.994Z" fill="#0C7489"/>
<g opacity="0.3">
<path d="M230.994 143.541C229.901 149.127 223.85 163.13 219.896 167.222C218.76 168.399 217.245 169.561 215.65 169.202C214.51 168.943 213.681 167.961 213.116 166.937C211.622 164.249 211.379 161.076 210.893 158.04C209.494 149.27 205.787 140.88 200.254 133.937L223.454 127.094L230.999 143.541H230.994Z" fill="black"/>
</g>
<path d="M155.834 114.355C155.834 114.355 122.411 117.454 123.325 81.1122C123.325 81.1122 118.245 63.1918 134.144 57.2413C134.144 57.2413 136.282 41.9715 153.078 41.0528C153.078 41.0528 164.683 25.783 185.455 29.7536C185.455 29.7536 203.649 19.6635 220.45 30.0493C220.45 30.0493 231.575 26.0893 237.684 35.8626C237.684 35.8626 259.369 35.2501 265.478 54.1894C265.478 54.1894 279.528 58.4662 278.002 73.1235C278.002 73.1235 297.829 91.5032 286.223 116.852C286.223 116.852 278.615 132.988 261.201 134.208C261.201 134.208 258.451 150.09 238.297 150.09C238.297 150.09 231.792 151.516 225.989 149.493C219.426 147.202 216.316 139.683 219.051 133.294C219.051 133.294 190.951 136.346 181.484 135.127C172.017 133.907 158.579 129.324 155.828 114.355H155.834Z" fill="#0C7489"/>
<path d="M156.816 113.789C156.747 113.789 156.694 113.742 156.684 113.673C155.934 106.957 158.648 100.045 163.769 95.6367C168.891 91.2279 176.13 89.5699 182.661 91.3176C182.983 91.4021 183.305 91.4971 183.633 91.5922C185.285 92.0727 186.991 92.5637 188.591 92.0621C189.689 91.7189 190.597 90.9322 191.479 90.1719C191.606 90.061 191.732 89.9554 191.859 89.8445C198.311 84.3691 207.461 81.9562 215.777 83.5243C214.959 78.4344 216.707 73.033 220.366 69.3951C220.419 69.3423 220.503 69.3423 220.551 69.3951C220.603 69.4479 220.603 69.5323 220.551 69.5799C216.907 73.2019 215.191 78.6034 216.068 83.6616C216.073 83.7039 216.063 83.7461 216.031 83.7778C215.999 83.8095 215.957 83.8253 215.915 83.8147C207.625 82.1885 198.47 84.5751 192.028 90.0399C191.901 90.1455 191.775 90.2564 191.648 90.3672C190.75 91.1434 189.816 91.946 188.67 92.305C186.996 92.833 185.248 92.3261 183.559 91.8403C183.237 91.7453 182.915 91.6556 182.593 91.5711C176.146 89.8498 169.002 91.4813 163.944 95.8373C158.885 100.188 156.203 107.015 156.948 113.641C156.958 113.715 156.905 113.779 156.831 113.789H156.816Z" fill="black"/>
<path d="M156.198 109.153H156.182C146.388 108.06 137.633 102.653 133.336 95.0502C128.557 86.6022 129.777 75.5036 136.166 69.231C136.218 69.1782 136.303 69.1782 136.35 69.231C136.403 69.2838 136.398 69.3683 136.35 69.4158C130.041 75.604 128.842 86.5652 133.563 94.9129C137.824 102.447 146.499 107.801 156.208 108.884C156.282 108.894 156.335 108.958 156.325 109.032C156.319 109.1 156.261 109.148 156.193 109.148L156.198 109.153Z" fill="black"/>
<path d="M160.65 66.7259C154.926 66.5305 149.662 62.3857 148.126 56.8681C146.589 51.3558 148.955 45.0831 153.754 41.9574C153.818 41.9204 153.897 41.9363 153.939 41.9943C153.981 42.0577 153.96 42.1369 153.902 42.1791C149.198 45.2415 146.88 51.3927 148.385 56.7995C149.889 62.2062 155.053 66.2718 160.666 66.4619C160.74 66.4619 160.798 66.5252 160.793 66.5991C160.793 66.6678 160.729 66.7259 160.661 66.7259H160.65Z" fill="black"/>
<path d="M188.85 66.0643C188.792 66.0643 188.74 66.0273 188.724 65.9692C188.703 65.9006 188.745 65.8267 188.819 65.8056C194.632 64.2216 197.172 58.535 197.108 53.5982C197.04 48.2496 192.742 43.3497 187.715 42.8956C185.381 42.6844 182.847 43.3022 179.98 44.7753C179.917 44.807 179.837 44.7859 179.801 44.7172C179.769 44.6539 179.795 44.5747 179.859 44.5377C182.773 43.0382 185.355 42.4152 187.736 42.6316C192.89 43.0963 197.304 48.1123 197.372 53.5929C197.436 58.6247 194.838 64.4328 188.887 66.0537C188.877 66.0537 188.866 66.0537 188.85 66.0537V66.0643Z" fill="black"/>
<path d="M210.006 63.3232C209.938 63.3232 209.874 63.2651 209.874 63.1964C209.705 58.7612 211.939 54.231 215.561 51.6649C219.104 49.1516 223.977 48.5128 228.059 50.007C227.061 47.0185 227.43 43.6604 229.067 40.9676C230.757 38.1904 233.687 36.2843 236.913 35.8724C236.982 35.8619 237.05 35.9147 237.061 35.9886C237.071 36.0625 237.019 36.1259 236.945 36.1364C233.845 36.5324 230.915 38.4385 229.289 41.1102C227.668 43.7766 227.325 47.2614 228.396 50.1918C228.412 50.2393 228.402 50.2974 228.365 50.3291C228.328 50.366 228.275 50.3766 228.222 50.3555C224.172 48.7609 219.257 49.3576 215.709 51.8814C212.16 54.4 209.969 58.8404 210.138 63.1912C210.138 63.2651 210.085 63.3232 210.011 63.3284L210.006 63.3232Z" fill="black"/>
<path d="M247.029 79.3071C246.955 79.3071 246.897 79.2437 246.902 79.1698C247.008 75.289 245.524 71.4504 242.837 68.6467C240.149 65.8431 236.379 64.201 232.493 64.1429C232.419 64.1429 232.361 64.0795 232.361 64.0109C232.361 63.937 232.419 63.8789 232.493 63.8789C236.448 63.937 240.287 65.6107 243.022 68.4619C245.757 71.3184 247.267 75.2203 247.161 79.1751C247.161 79.249 247.098 79.3018 247.029 79.3018V79.3071Z" fill="black"/>
<path d="M259.95 114.83C259.359 114.83 258.773 114.804 258.181 114.756C258.107 114.751 258.055 114.688 258.06 114.614C258.065 114.54 258.134 114.492 258.202 114.492C263.847 114.957 269.565 113.141 273.9 109.503C278.235 105.865 281.017 100.543 281.535 94.9088C281.762 92.4325 281.63 88.821 279.718 85.653C277.981 82.7754 274.929 80.8904 271.941 80.8482C271.899 80.8482 271.862 80.8271 271.835 80.7954C271.809 80.7637 271.804 80.7215 271.814 80.6792C273.208 75.6527 271.74 70.0136 268.071 66.3071C264.401 62.6005 258.778 61.0746 253.736 62.4157C253.667 62.4368 253.593 62.3946 253.572 62.3207C253.551 62.252 253.593 62.1781 253.667 62.157C258.794 60.7895 264.523 62.3471 268.256 66.117C271.952 69.8499 273.451 75.5101 272.11 80.5842C275.13 80.6951 278.187 82.6117 279.94 85.5104C281.888 88.7365 282.026 92.4114 281.793 94.9247C281.271 100.632 278.456 106.013 274.069 109.698C270.135 113.003 265.072 114.825 259.95 114.825V114.83Z" fill="black"/>
<path d="M211.417 42.521C211.343 42.521 211.285 42.4629 211.285 42.389C211.312 39.3636 212.447 36.2959 214.4 33.978C216.349 31.66 219.179 30.018 222.157 29.4741C222.225 29.4636 222.299 29.5111 222.31 29.5797C222.32 29.6536 222.273 29.7223 222.204 29.7328C219.284 30.2661 216.512 31.8765 214.606 34.1469C212.7 36.4173 211.581 39.4216 211.554 42.389C211.554 42.4629 211.496 42.521 211.422 42.521H211.417Z" fill="black"/>
<path d="M205.794 118.908C204.025 118.908 202.23 118.834 200.414 118.676C192.309 117.989 183.834 115.909 172.947 111.923C172.878 111.896 172.842 111.822 172.868 111.754C172.894 111.685 172.968 111.653 173.037 111.674C183.903 115.65 192.356 117.731 200.435 118.412C210.678 119.278 220.198 117.678 227.959 113.792C236.803 109.362 243.52 101.621 245.933 93.0835C245.954 93.0149 246.022 92.9726 246.096 92.9937C246.165 93.0149 246.207 93.0888 246.186 93.1574C243.752 101.764 236.983 109.568 228.076 114.029C221.65 117.25 214.026 118.908 205.794 118.908Z" fill="black"/>
<path d="M249.586 109.15C249.544 109.15 249.507 109.135 249.481 109.098C247.369 106.299 243.894 104.573 240.389 104.573C240.357 104.573 240.32 104.573 240.288 104.573C240.214 104.573 240.156 104.515 240.156 104.441C240.156 104.367 240.214 104.309 240.288 104.309C240.32 104.309 240.357 104.309 240.394 104.309C243.979 104.309 247.538 106.077 249.697 108.939C249.739 108.997 249.729 109.082 249.671 109.124C249.65 109.14 249.618 109.15 249.592 109.15H249.586Z" fill="black"/>
<path d="M218.39 134.388C218.348 134.388 218.306 134.367 218.279 134.325C218.242 134.262 218.258 134.182 218.322 134.146C226.785 128.797 237.868 127.646 247.251 131.141C247.319 131.168 247.356 131.242 247.33 131.31C247.304 131.379 247.23 131.416 247.161 131.389C237.858 127.92 226.859 129.061 218.469 134.367C218.448 134.383 218.422 134.388 218.401 134.388H218.39Z" fill="black"/>
<path d="M174.853 90.405C174.853 90.405 174.805 90.3997 174.784 90.3892C174.721 90.3522 174.699 90.273 174.736 90.2096C176.167 87.7808 176.616 84.8188 175.956 82.0784C175.301 79.3381 173.559 76.8988 171.183 75.3834C171.12 75.3464 171.104 75.262 171.141 75.1986C171.183 75.1352 171.262 75.1194 171.326 75.1564C173.76 76.7087 175.539 79.2061 176.215 82.0151C176.885 84.824 176.431 87.8548 174.963 90.3416C174.937 90.3839 174.895 90.405 174.847 90.405H174.853Z" fill="black"/>
<path d="M186.442 42.6585C186.374 42.6585 186.315 42.6004 186.31 42.5318C186.236 40.7366 186.601 38.9256 187.361 37.2993C187.393 37.2307 187.472 37.2043 187.535 37.236C187.604 37.2676 187.63 37.3468 187.598 37.4102C186.859 38.9995 186.506 40.7683 186.574 42.5212C186.574 42.5952 186.521 42.6532 186.447 42.6585H186.442Z" fill="black"/>
<g opacity="0.3">
<path d="M244.692 97.4073C244.945 97.1908 245.198 96.9743 245.452 96.7578C246.566 103.479 242.421 110.264 236.529 114.303C230.636 118.342 223.271 120.058 216.016 120.993C208.74 121.933 201.29 122.17 194.072 120.898C186.854 119.625 179.853 116.764 174.51 112.08C174.51 112.08 190.445 118.939 212.198 117.408C233.952 115.871 244.686 97.4073 244.686 97.4073H244.692Z" fill="black"/>
</g>
<g opacity="0.3">
<path d="M159.879 100.214C163.153 94.3475 165.782 89.7644 171.199 87.5099C176.617 85.2553 183.048 85.6091 188.185 88.4339C191.691 84.6534 196.443 82.0398 201.517 81.1052C206.591 80.1707 211.961 80.9099 216.586 83.1908C212.383 83.1327 208.154 83.0799 204.02 83.8403C199.885 84.6006 195.815 86.2427 192.8 89.1731C191.506 90.4297 190.994 91.19 189.32 91.8553C187.008 92.7687 184.584 92.2091 182.213 91.454C174.256 88.9038 165.127 92.6473 159.879 100.214Z" fill="black"/>
</g>
<g opacity="0.3">
<path d="M155.708 70.134C154.071 68.2332 148.506 67.2512 144.424 69.3684C140.248 70.8574 138.067 75.5724 137.682 79.9918C137.397 83.2918 137.903 86.7555 139.704 89.538C141.504 92.3206 144.741 94.2848 148.041 94.0102C151.341 93.7356 154.398 90.8686 154.356 87.5528C154.33 85.2665 152.983 82.8905 153.928 80.8102C154.583 79.3635 156.172 78.5504 156.991 77.1934C158.284 75.0444 158.226 73.0644 155.708 70.134Z" fill="white"/>
</g>
<g opacity="0.3">
<path d="M156.324 49.6383C155.522 50.1188 155.025 51.0164 154.883 51.9404C154.74 52.8644 154.925 53.8148 155.247 54.6913C155.638 55.7631 156.25 56.7875 157.19 57.4316C158.125 58.0758 159.424 58.2711 160.416 57.7167C161.324 57.2099 161.836 56.1591 161.889 55.119C161.942 54.0788 161.599 53.0598 161.118 52.1358C160.627 51.1959 159.973 50.3089 159.054 49.7756C158.14 49.2423 156.937 49.1209 156.034 49.67" fill="white"/>
</g>
<g opacity="0.3">
<path d="M204.003 96.7473C202.921 95.0999 200.777 94.4294 198.802 94.5244C196.833 94.6195 194.932 97.3439 193.047 97.9247C186.674 99.8889 184.409 96.1929 174.108 98.1465C171.917 98.5425 169.678 98.9543 167.745 100.058C165.813 101.156 164.202 103.099 164.118 105.322C164.033 107.545 165.918 109.836 168.136 109.652C170.765 109.435 172.096 106.394 174.298 104.937C176.304 103.606 178.955 103.685 181.278 104.319C183.601 104.952 185.771 106.072 188.1 106.7C191.864 107.714 195.988 107.365 199.531 105.734C201.257 104.937 202.9 103.796 203.876 102.165C204.853 100.533 205.049 98.3419 204.003 96.7526V96.7473Z" fill="white"/>
</g>
<path opacity="0.3" d="M219.166 98.603C220.805 97.0685 220.89 94.4957 219.355 92.8565C217.821 91.2173 215.248 91.1324 213.609 92.6669C211.969 94.2014 211.885 96.7742 213.419 98.4134C214.954 100.053 217.526 100.137 219.166 98.603Z" fill="white"/>
<g opacity="0.3">
<path d="M279.84 118.5C273.557 124.704 265.083 128.643 256.291 129.446C257.902 134.926 255.489 141.062 251.265 144.9C248.656 147.276 245.467 148.871 242.072 149.884C258.805 148.052 261.207 134.208 261.207 134.208C278.615 132.988 286.229 116.853 286.229 116.853C288.753 111.34 289.788 106.156 289.867 101.414C288.061 107.845 284.597 113.806 279.845 118.5H279.84Z" fill="black"/>
</g>
<g opacity="0.3">
<path d="M228.65 56.9544C228.634 55.381 227.399 54.2511 226.021 53.7548L225.989 53.7442C223.391 52.8308 220.44 53.4696 218.402 55.3229C218.001 55.6872 217.631 56.0938 217.277 56.5426C216.411 57.662 215.794 59.0559 216.184 60.5132C216.3 60.9461 216.522 61.358 216.844 61.6748C218.164 62.9842 220.028 62.3136 221.38 61.3844C222.531 60.5976 223.624 59.5997 225.002 59.3727C226.153 59.1826 227.425 59.5575 228.281 58.2216C228.524 57.8468 228.65 57.398 228.65 56.9544Z" fill="white"/>
</g>
<g opacity="0.3">
<path d="M282.284 94.5117C284.148 100.557 282.215 107.606 277.521 111.851C272.827 116.096 265.62 117.316 259.791 114.856C259.791 114.856 268.603 114.375 273.989 109.602C280.552 103.789 282.284 94.5117 282.284 94.5117Z" fill="black"/>
</g>
<g opacity="0.3">
<path d="M197.224 55.0508C197.124 58.8101 195.123 62.4692 192.018 64.5865C188.913 66.7037 184.774 67.2265 181.236 65.9487L182.092 66.4873C185.471 69.1273 190.629 69.1695 194.051 66.5876C197.472 64.0004 198.84 59.0266 197.224 55.0561V55.0508Z" fill="black"/>
</g>
<path d="M285.442 50.9502C288.88 50.9502 291.667 48.1632 291.667 44.7251C291.667 41.2871 288.88 38.5 285.442 38.5C282.004 38.5 279.217 41.2871 279.217 44.7251C279.217 48.1632 282.004 50.9502 285.442 50.9502Z" fill="#0C7489"/>
<path d="M195.311 149.38C197.314 149.38 198.938 147.756 198.938 145.752C198.938 143.749 197.314 142.125 195.311 142.125C193.308 142.125 191.684 143.749 191.684 145.752C191.684 147.756 193.308 149.38 195.311 149.38Z" fill="#0C7489"/>
<path d="M149.164 33.0516C151.168 33.0516 152.792 31.4276 152.792 29.4242C152.792 27.4209 151.168 25.7969 149.164 25.7969C147.161 25.7969 145.537 27.4209 145.537 29.4242C145.537 31.4276 147.161 33.0516 149.164 33.0516Z" fill="#0C7489"/>
<path d="M275.399 39.0605C275.399 40.7818 274.005 42.1757 272.289 42.1757C270.573 42.1757 269.174 40.7818 269.174 39.0605C269.174 37.3392 270.568 35.9453 272.289 35.9453C274.01 35.9453 275.399 37.3392 275.399 39.0605Z" fill="#0C7489"/>
<path d="M183.284 144.663C183.284 145.666 182.471 146.474 181.473 146.474C180.475 146.474 179.662 145.661 179.662 144.663C179.662 143.665 180.475 142.852 181.473 142.852C182.471 142.852 183.284 143.665 183.284 144.663Z" fill="#0C7489"/>
<path d="M157.37 21.7212C157.37 22.7244 156.557 23.5322 155.559 23.5322C154.561 23.5322 153.748 22.7191 153.748 21.7212C153.748 20.7233 154.561 19.9102 155.559 19.9102C156.557 19.9102 157.37 20.7233 157.37 21.7212Z" fill="#0C7489"/>
<path d="M279.713 37.2231C280.41 37.2231 280.975 36.6581 280.975 35.9611C280.975 35.2642 280.41 34.6992 279.713 34.6992C279.016 34.6992 278.451 35.2642 278.451 35.9611C278.451 36.6581 279.016 37.2231 279.713 37.2231Z" fill="#0C7489"/>
<path d="M185.876 151.679C185.876 152.086 185.549 152.413 185.142 152.413C184.736 152.413 184.408 152.086 184.408 151.679C184.408 151.273 184.736 150.945 185.142 150.945C185.549 150.945 185.876 151.273 185.876 151.679Z" fill="#0C7489"/>
<path d="M148.884 20.7818C148.884 21.389 148.393 21.8801 147.786 21.8801C147.179 21.8801 146.688 21.389 146.688 20.7818C146.688 20.1746 147.179 19.6836 147.786 19.6836C148.393 19.6836 148.884 20.1746 148.884 20.7818Z" fill="#0C7489"/>
<path opacity="0.4" d="M149.164 33.0516C151.168 33.0516 152.792 31.4276 152.792 29.4242C152.792 27.4209 151.168 25.7969 149.164 25.7969C147.161 25.7969 145.537 27.4209 145.537 29.4242C145.537 31.4276 147.161 33.0516 149.164 33.0516Z" fill="white"/>
<path opacity="0.4" d="M157.37 21.7212C157.37 22.7244 156.557 23.5322 155.559 23.5322C154.561 23.5322 153.748 22.7191 153.748 21.7212C153.748 20.7233 154.561 19.9102 155.559 19.9102C156.557 19.9102 157.37 20.7233 157.37 21.7212Z" fill="white"/>
<path opacity="0.4" d="M148.884 20.7818C148.884 21.389 148.393 21.8801 147.786 21.8801C147.179 21.8801 146.688 21.389 146.688 20.7818C146.688 20.1746 147.179 19.6836 147.786 19.6836C148.393 19.6836 148.884 20.1746 148.884 20.7818Z" fill="white"/>
<path opacity="0.4" d="M285.442 50.9502C288.88 50.9502 291.667 48.1632 291.667 44.7251C291.667 41.2871 288.88 38.5 285.442 38.5C282.004 38.5 279.217 41.2871 279.217 44.7251C279.217 48.1632 282.004 50.9502 285.442 50.9502Z" fill="white"/>
<path opacity="0.4" d="M275.399 39.0605C275.399 40.7818 274.005 42.1757 272.289 42.1757C270.573 42.1757 269.174 40.7818 269.174 39.0605C269.174 37.3392 270.568 35.9453 272.289 35.9453C274.01 35.9453 275.399 37.3392 275.399 39.0605Z" fill="white"/>
<path opacity="0.4" d="M279.713 37.2231C280.41 37.2231 280.975 36.6581 280.975 35.9611C280.975 35.2642 280.41 34.6992 279.713 34.6992C279.016 34.6992 278.451 35.2642 278.451 35.9611C278.451 36.6581 279.016 37.2231 279.713 37.2231Z" fill="white"/>
<path opacity="0.3" d="M195.311 149.38C197.314 149.38 198.938 147.756 198.938 145.752C198.938 143.749 197.314 142.125 195.311 142.125C193.308 142.125 191.684 143.749 191.684 145.752C191.684 147.756 193.308 149.38 195.311 149.38Z" fill="white"/>
<path opacity="0.3" d="M183.284 144.663C183.284 145.666 182.471 146.474 181.473 146.474C180.475 146.474 179.662 145.661 179.662 144.663C179.662 143.665 180.475 142.852 181.473 142.852C182.471 142.852 183.284 143.665 183.284 144.663Z" fill="white"/>
<path opacity="0.3" d="M185.876 151.679C185.876 152.086 185.549 152.413 185.142 152.413C184.736 152.413 184.408 152.086 184.408 151.679C184.408 151.273 184.736 150.945 185.142 150.945C185.549 150.945 185.876 151.273 185.876 151.679Z" fill="white"/>
<path d="M105.737 21.2383H91.0483C87.2837 21.2383 84.2266 24.2901 84.2266 28.06V36.2916C84.2266 40.0562 87.2784 43.1133 91.0483 43.1133H94.3906L94.9238 46.9149L98.9789 43.1133H105.737C109.502 43.1133 112.559 40.0615 112.559 36.2916V28.06C112.559 24.2954 109.507 21.2383 105.737 21.2383Z" fill="#0C7489"/>
<path d="M103.176 32.0303C103.176 33.0018 103.963 33.7833 104.934 33.7833C105.906 33.7833 106.687 32.9965 106.687 32.0303C106.687 31.0641 105.9 30.2773 104.934 30.2773C103.968 30.2773 103.176 31.0641 103.176 32.0303Z" fill="white"/>
<path d="M98.9522 33.7833C99.9203 33.7833 100.705 32.9984 100.705 32.0303C100.705 31.0622 99.9203 30.2773 98.9522 30.2773C97.984 30.2773 97.1992 31.0622 97.1992 32.0303C97.1992 32.9984 97.984 33.7833 98.9522 33.7833Z" fill="white"/>
<path d="M92.8115 33.7833C93.7797 33.7833 94.5645 32.9984 94.5645 32.0303C94.5645 31.0622 93.7797 30.2773 92.8115 30.2773C91.8434 30.2773 91.0586 31.0622 91.0586 32.0303C91.0586 32.9984 91.8434 33.7833 92.8115 33.7833Z" fill="white"/>
<path d="M106.117 19.9375H96.7975C96.5441 19.9375 96.5441 20.3335 96.7975 20.3335H106.117C106.37 20.3335 106.37 19.9375 106.117 19.9375Z" fill="#0C7489"/>
<path d="M95.6305 19.9375H94.8491C94.7435 19.9375 94.6484 20.0273 94.6484 20.1381C94.6484 20.249 94.7329 20.3388 94.8491 20.3388H95.6305C95.7361 20.3388 95.8312 20.249 95.8312 20.1381C95.8312 20.0273 95.7467 19.9375 95.6305 19.9375Z" fill="#0C7489"/>
<path d="M333.513 72.8629C331.443 78.5125 336.945 81.3531 340.546 89.6744C344.147 97.9957 335.456 107.927 322.119 108.149C308.781 108.366 308.359 95.588 310.429 86.4219C312.493 77.2559 308.174 75.7616 309.093 68.7656C310.297 59.5679 323.523 52.5983 328.782 61.041C333.46 60.5975 335.319 67.9261 333.513 72.8629Z" fill="#263238"/>
<path d="M324.336 119.059L324.362 118.314C324.378 117.955 324.468 117.601 324.632 117.279L326.955 112.696L329.674 112.152C331.596 114.233 329.701 118.372 329.701 118.372V119.053C329.701 120.167 328.961 121.149 327.89 121.456L327.52 121.561C325.883 122.031 324.267 120.764 324.336 119.064V119.059Z" fill="#FFC3BD"/>
<path d="M310.455 85.8203C306.712 89.7328 304.241 99.6433 303.913 99.8809L298.691 105.557C303.987 110.615 306.58 111.101 309.378 107.078C311.944 103.387 317.853 90.604 317.853 90.604L310.455 85.8203Z" fill="#0C7489"/>
<path d="M315.623 125.088L326.722 172.275L335.772 214.732L345.788 211.696C345.788 211.696 343.913 195.238 340.692 181.484C339.953 178.316 338.343 174.931 337.963 172.37C337.62 170.126 337.593 164.26 337.34 159.017C337.039 152.681 335.576 147.607 333.359 141.567C333.359 141.567 337.715 133.077 333.422 124.555L315.634 125.088H315.623Z" fill="#0C7489"/>
<path d="M324.741 127.197L307.539 122.625L304.714 170.99L303.072 215.405H311.906C311.906 215.405 314.783 199.349 315.628 185.246C315.818 181.999 315.845 176.502 316.204 173.936C316.515 171.687 316.975 169.269 318.231 164.189C319.747 158.022 320.222 149.912 319.836 143.476C319.836 143.476 326.436 136.585 324.741 127.192V127.197Z" fill="#0C7489"/>
<path d="M298.612 225.192C299.299 224.786 300.075 224.474 300.909 224.279C300.909 224.279 303.406 222.457 304.7 216.902L307.952 216.306C309.072 216.121 310.223 216.48 310.846 217.203C310.93 217.304 310.999 217.415 311.047 217.531C311.194 218.122 311.295 218.719 311.347 219.321C311.479 221.364 311.453 223.407 311.268 225.451H310.661L310.519 221.602C310.519 220.292 309.098 221.813 308.697 223.207C308.29 224.601 307.451 226.127 303.67 226.127C299.32 226.142 297.488 225.995 298.617 225.192H298.612Z" fill="#263238"/>
<path d="M305.16 215.414C305.16 215.414 304.579 217.452 303.386 220.266C302.895 221.713 302.039 223.081 300.867 224.284C300.867 224.284 303.692 224.702 304.949 223.276C306.2 221.85 307.979 216.94 310.841 217.236C310.625 216.871 310.134 215.731 309.806 215.419H305.16V215.414Z" fill="#FFC3BD"/>
<path d="M336.922 224.884C337.403 224.25 338.005 223.669 338.702 223.173C338.702 223.173 340.328 220.544 339.425 214.91L342.208 213.125C343.174 212.534 344.373 212.428 345.228 212.866C345.349 212.93 345.45 213.004 345.539 213.093C345.898 213.585 346.215 214.102 346.49 214.641C347.382 216.483 348.132 218.384 348.734 220.343L348.169 220.57L346.58 217.059C346.083 215.85 345.344 217.793 345.497 219.234C345.65 220.681 345.45 222.407 341.949 223.838C337.926 225.496 336.173 226.051 336.917 224.878L336.922 224.884Z" fill="#263238"/>
<path d="M339.319 213.658C339.319 213.658 339.441 215.411 339.483 218.516C339.573 220.042 339.298 221.631 338.67 223.189C338.67 223.189 341.442 222.508 342.065 220.712C342.688 218.917 342.477 213.706 345.244 212.893C344.906 212.639 344.525 212.423 344.108 212.254L339.325 213.658H339.319Z" fill="#FFC3BD"/>
<g opacity="0.3">
<path d="M310.449 90.1016C309.884 91.0678 309.694 91.6116 309.341 92.7257C308.987 93.8345 308.792 95.8568 308.707 96.8969L310.613 97.446C310.539 94.9011 310.529 92.6465 310.455 90.1016H310.449Z" fill="black"/>
</g>
<path d="M335.349 97.6887L338.068 87.002C336.083 84.0399 326.69 81.7695 326.69 81.7695L320.227 82.1233C320.227 82.1233 317.74 82.6777 315.618 83.3694C312.777 84.2934 311.24 85.0378 310.565 86.6166C310.565 86.6166 309.382 90.1067 310.095 97.3033C310.29 99.2833 310.739 109.722 310.184 113.122L306.721 121.744C318.532 130.942 333.77 120.694 333.77 120.694C333.237 119.067 331.41 115.762 331.167 114.178C331.341 112.151 331.906 110.825 332.767 107.277C332.931 106.591 335.069 98.3646 335.359 97.6993L335.349 97.6887Z" fill="#0C7489"/>
<path d="M305.797 152.985C305.797 152.985 300.152 153.043 300.152 150.419C300.152 147.795 306.061 119.922 306.71 115.17C307.365 110.413 310.454 85.8185 310.454 85.8185C311.489 84.5935 313.542 83.9758 315.612 83.3633L305.802 152.985H305.797Z" fill="#0C7489"/>
<path opacity="0.8" d="M305.797 152.985C305.797 152.985 300.152 153.043 300.152 150.419C300.152 147.795 306.061 119.922 306.71 115.17C307.365 110.413 310.454 85.8185 310.454 85.8185C311.489 84.5935 313.542 83.9758 315.612 83.3633L305.802 152.985H305.797Z" fill="white"/>
<path opacity="0.3" d="M309.853 106.361C309.853 106.361 305.318 103.964 304.975 102.934C304.631 101.905 304.156 99.1538 307.308 97.8919C308.354 97.4748 310.197 98.4146 310.197 98.4146V105.886L309.853 106.361Z" fill="black"/>
<path d="M328.211 82.5739C328.211 82.5739 326.295 84.047 323.824 86.1801C323.312 86.6236 322.741 87.0091 322.145 87.3259C320.524 88.1865 319.051 88.6775 318.649 87.8961C318.56 87.7271 318.491 87.5371 318.443 87.3417C318.105 86.0323 318.243 84.2001 319.299 83.3553C320.492 82.4049 321.062 81.5971 320.851 80.314C320.74 79.5854 320.476 78.8356 320.165 78.107L321.537 77.2833L326.437 72.3359C325.878 75.3719 325.624 80.7839 328.206 82.5739H328.211Z" fill="#FFC3BD"/>
<path opacity="0.2" d="M320.887 80.6017C322.234 79.7992 323.712 78.4158 323.538 76.8265C323.459 76.1613 323.316 75.5277 323.152 75.1211L320.412 78.7485C320.639 79.3345 320.718 79.72 320.882 80.6017H320.887Z" fill="black"/>
<path d="M327.388 66.7613C326.929 71.7985 326.839 73.9316 324.236 76.5769C320.329 80.5474 314.309 79.2116 313.275 74.222C312.34 69.7287 313.253 62.247 318.201 60.1297C323.074 58.0441 327.847 61.7295 327.388 66.7666V66.7613Z" fill="#FFC3BD"/>
<path d="M320.867 68.3997C320.84 68.9329 320.555 69.3712 320.222 69.3765C319.89 69.3818 319.642 68.9594 319.668 68.4261C319.694 67.8928 319.979 67.4545 320.312 67.4493C320.645 67.444 320.893 67.8664 320.867 68.3997Z" fill="#263238"/>
<path d="M315.899 68.3811C315.873 68.8985 315.588 69.3209 315.255 69.3262C314.922 69.3315 314.679 68.9196 314.7 68.4022C314.727 67.8848 315.012 67.4624 315.345 67.4571C315.677 67.4518 315.92 67.8636 315.899 68.3811Z" fill="#263238"/>
<path d="M321.918 66.5432C321.854 66.5485 321.786 66.5327 321.738 66.4851C320.962 65.7671 320.091 66.0205 320.08 66.0205C319.948 66.0575 319.822 65.9835 319.79 65.8515C319.758 65.7195 319.843 65.5823 319.975 65.54C320.022 65.5242 321.115 65.2074 322.081 66.0997C322.176 66.1895 322.182 66.3479 322.081 66.4535C322.034 66.5063 321.976 66.5327 321.918 66.5379V66.5432Z" fill="#263238"/>
<path d="M314.23 65.8599C314.178 65.8441 314.135 65.8071 314.114 65.749C314.067 65.6329 314.125 65.4903 314.241 65.4269C315.392 64.7775 316.247 65.2738 316.279 65.2949C316.379 65.353 316.406 65.4956 316.332 65.617C316.263 65.7332 316.121 65.7807 316.02 65.7173C315.989 65.6962 315.318 65.3266 314.405 65.8441C314.347 65.8758 314.283 65.881 314.23 65.8652V65.8599Z" fill="#263238"/>
<path d="M317.251 68.1406C317.251 68.1406 316.464 70.0256 315.572 71.203C315.419 71.4089 315.514 71.7099 315.757 71.7997C316.38 72.0267 317.109 71.8208 317.109 71.8208L317.251 68.1459V68.1406Z" fill="#ED847E"/>
<path d="M320.502 67.4699L319.346 67.1953C319.346 67.1953 319.979 68.056 320.502 67.4699Z" fill="#263238"/>
<path d="M315.465 67.4738L314.309 67.1992C314.309 67.1992 314.942 68.0599 315.465 67.4738Z" fill="#263238"/>
<path d="M326.242 70.0204C325.007 70.5748 323.386 64.6348 323.639 63.1458C321.073 63.8586 319.193 62.8502 319.31 62.4119C317.499 64.1754 314.22 65.5746 314.589 63.6738C314.954 61.773 318.185 58.0084 323.249 59.2439C328.312 60.4794 329.463 65.9654 329.416 68.0721C329.368 70.1841 326.242 70.0204 326.242 70.0204Z" fill="#263238"/>
<path d="M328.913 70.8668C328.316 71.9017 327.35 72.5458 326.463 72.7729C325.133 73.1055 324.441 70.9619 324.895 69.626C325.307 68.4222 326.616 67.6302 327.91 67.8889C329.188 68.1476 329.589 69.6841 328.908 70.8668H328.913Z" fill="#FFC3BD"/>
<path opacity="0.2" d="M326.095 70.7269H326.085C326.011 70.7269 325.958 70.6583 325.963 70.5844C325.995 70.0722 326.238 69.5812 326.629 69.2433C327.014 68.9053 327.531 68.7258 328.049 68.7575C328.123 68.7575 328.176 68.8261 328.17 68.9C328.17 68.974 328.102 69.0373 328.033 69.0215C327.59 68.9951 327.141 69.1482 326.803 69.4386C326.465 69.7343 326.259 70.1567 326.227 70.6002C326.227 70.6688 326.164 70.7216 326.095 70.7216V70.7269Z" fill="black"/>
<path d="M317.63 72.8663C318.036 73.3257 318.585 74.2497 318.585 74.2497C318.68 74.2127 318.77 74.181 318.86 74.1388C320.106 73.6372 320.518 72.993 320.597 72.4334C320.639 72.1271 320.576 71.842 320.497 71.6202C320.407 71.3615 320.286 71.2031 320.286 71.2031C319.784 71.8631 318.659 72.4175 318.042 72.6921C317.788 72.8082 317.619 72.8716 317.619 72.8716L317.63 72.8663Z" fill="#263238"/>
<path d="M318.052 72.6907L318.343 73.092C319.515 72.6168 320.28 72.1257 320.502 71.6241C320.412 71.3654 320.291 71.207 320.291 71.207C319.789 71.867 318.665 72.4214 318.047 72.696L318.052 72.6907Z" fill="white"/>
<path d="M318.865 74.1429C320.111 73.6413 320.523 72.9972 320.602 72.4375C320.185 72.6223 319.699 72.8969 319.33 73.2665C319.045 73.5516 318.918 73.8578 318.865 74.1429Z" fill="#DE5753"/>
<path d="M329.937 82.6953C329.937 82.6953 326.701 86.423 325.856 91.4601C325.011 96.4972 323.981 154.873 324.166 155.528C324.356 156.182 341.902 155.153 342.842 153.368C343.781 151.583 340.122 130.189 338.993 126.06C337.868 121.931 336.057 119.872 335.471 116.582C334.874 113.23 338.406 85.8211 338.237 87.1463C338.517 86.8295 333.311 83.0332 329.932 82.6953H329.937Z" fill="#0C7489"/>
<path opacity="0.8" d="M329.937 82.6953C329.937 82.6953 326.701 86.423 325.856 91.4601C325.011 96.4972 323.981 154.873 324.166 155.528C324.356 156.182 341.902 155.153 342.842 153.368C343.781 151.583 340.122 130.189 338.993 126.06C337.868 121.931 336.057 119.872 335.471 116.582C334.874 113.23 338.406 85.8211 338.237 87.1463C338.517 86.8295 333.311 83.0332 329.932 82.6953H329.937Z" fill="white"/>
<path opacity="0.3" d="M325.164 104.897L329.546 105.415L330.544 97.7852C330.544 97.7852 331.595 107.469 331.009 107.796C330.423 108.123 325.164 104.897 325.164 104.897Z" fill="black"/>
<path opacity="0.3" d="M305.967 149.481C305.967 149.481 309.251 152.227 314.985 149.481C320.719 146.735 320.107 141.514 320.027 139.739C319.959 138.25 315.856 107.072 315.856 107.072L314.615 105.504L310.201 105.879L305.972 149.476L305.967 149.481Z" fill="black"/>
<path d="M298.487 78.3082L306.496 77.2949C308.869 76.9947 311.041 78.6786 311.341 81.0515L318.928 141.029C319.429 144.99 316.619 148.607 312.664 149.108L310.401 149.394C306.441 149.895 302.823 147.085 302.323 143.13L294.735 83.1522C294.435 80.7792 296.119 78.6077 298.492 78.3075L298.487 78.3082Z" fill="#0C7489"/>
<path opacity="0.7" d="M294.191 78.8516L310.802 76.7502L318.934 141.029C319.435 144.989 316.624 148.607 312.67 149.107L310.407 149.393C306.447 149.894 302.829 147.084 302.328 143.129L294.197 78.8509L294.191 78.8516Z" fill="white"/>
<path opacity="0.3" d="M295.529 78.1268L303.575 141.772C303.966 144.877 306.685 147.353 310.096 147.458C314.579 147.601 318.006 144.042 317.515 140.156L309.447 76.3633L295.523 78.1215L295.529 78.1268Z" fill="#0C7489"/>
<path d="M300.247 115.45L303.574 141.77C303.965 144.875 306.684 147.351 310.095 147.457C314.577 147.6 318.004 144.041 317.513 140.155L314.166 113.691L300.242 115.45H300.247Z" fill="#0C7489"/>
<path opacity="0.3" d="M311.24 146.471C306.816 146.952 303.854 143.974 303.41 140.457L303.574 141.772C303.965 144.877 306.684 147.353 310.095 147.459C314.577 147.601 318.004 144.043 317.513 140.157L317.328 138.699C317.772 142.216 315.544 146.007 311.24 146.471Z" fill="white"/>
<path d="M311.58 75.7821L293.629 78.0531C292.581 78.1856 291.84 79.1419 291.972 80.1892L292.048 80.7864C292.18 81.8336 293.137 82.5752 294.184 82.4427L312.135 80.1718C313.183 80.0393 313.924 79.0829 313.792 78.0356L313.716 77.4385C313.584 76.3912 312.627 75.6496 311.58 75.7821Z" fill="#0C7489"/>
<path opacity="0.7" d="M311.58 75.7821L293.629 78.0531C292.581 78.1856 291.84 79.1419 291.972 80.1892L292.048 80.7864C292.18 81.8336 293.137 82.5752 294.184 82.4427L312.135 80.1718C313.183 80.0393 313.924 79.0829 313.792 78.0356L313.716 77.4385C313.584 76.3912 312.627 75.6496 311.58 75.7821Z" fill="white"/>
<path opacity="0.3" d="M311.247 80.2658L294.637 82.3672L294.744 83.2158L311.355 81.1144L311.247 80.2658Z" fill="black"/>
<path d="M314.171 113.692C314.234 114.178 311.167 114.96 307.323 115.445C303.479 115.931 300.311 115.936 300.253 115.445C300.195 114.954 303.257 114.178 307.101 113.692C310.945 113.207 314.113 113.207 314.171 113.692Z" fill="#0C7489"/>
<path opacity="0.3" d="M314.171 113.692C314.234 114.178 311.167 114.96 307.323 115.445C303.479 115.931 300.311 115.936 300.253 115.445C300.195 114.954 303.257 114.178 307.101 113.692C310.945 113.207 314.113 113.207 314.171 113.692Z" fill="black"/>
<path opacity="0.4" d="M305.295 127.45H305.274C304.493 127.55 303.79 127.054 303.701 126.341L301.758 110.976C301.678 110.358 302.096 109.762 302.745 109.561H302.766C303.616 109.292 304.503 109.799 304.604 110.612L306.547 125.982C306.636 126.695 306.077 127.355 305.295 127.45Z" fill="white"/>
<path opacity="0.4" d="M307.52 131.621C307.62 132.402 307.002 133.125 306.147 133.236C305.291 133.342 304.515 132.798 304.415 132.017C304.315 131.235 304.932 130.512 305.788 130.401C306.643 130.29 307.419 130.839 307.52 131.621Z" fill="white"/>
<path d="M313.152 121.207C313.844 126.028 314.456 130.859 314.984 135.701C314.293 130.88 313.68 126.049 313.152 121.207Z" fill="white"/>
<path d="M297.661 106.194C297.661 106.194 302.434 106.664 303.052 107.541C303.67 108.417 302.149 108.612 302.149 108.612C302.149 108.612 303.834 108.502 303.976 109.209C304.15 110.059 302.556 110.255 302.556 110.255C302.556 110.255 303.934 110.223 304.018 110.862C304.108 111.527 302.324 111.875 302.324 111.875C302.324 111.875 303.3 112.034 303.105 112.514C302.915 112.995 299.145 113.808 297.904 113.296C296.663 112.784 296.246 109.452 296.273 108.348C296.299 107.245 296.299 105.925 297.461 105.508L297.651 106.194H297.661Z" fill="#FFC3BD"/>
<path opacity="0.2" d="M302.16 108.699C302.16 108.699 302.16 108.699 302.155 108.699L299.209 108.752C299.172 108.752 299.135 108.715 299.135 108.672C299.135 108.63 299.166 108.588 299.203 108.588L302.15 108.535C302.187 108.535 302.224 108.572 302.224 108.614C302.224 108.657 302.197 108.694 302.16 108.699Z" fill="black"/>
<path opacity="0.2" d="M302.488 110.355L299.663 110.63C299.626 110.63 299.589 110.598 299.584 110.556C299.584 110.508 299.605 110.482 299.647 110.466L302.472 110.191C302.509 110.191 302.546 110.223 302.551 110.265C302.551 110.308 302.53 110.35 302.488 110.355Z" fill="black"/>
<path opacity="0.2" d="M302.244 111.976L300.148 112.24C300.111 112.24 300.074 112.214 300.069 112.166C300.064 112.124 300.09 112.082 300.132 112.076L302.229 111.812C302.266 111.812 302.302 111.839 302.308 111.886C302.313 111.929 302.287 111.971 302.244 111.976Z" fill="black"/>
<path d="M315.611 107.144L317.855 108.538L319.687 103.865L317.855 103.664L315.611 107.144Z" fill="#FFC3BD"/>
<path d="M317.824 101.336C316.959 99.9953 314.794 99.1346 313.548 98.5644L313.748 100.138L315.322 101.046C314.656 101.025 309.239 98.0786 308.315 98.1578C307.391 98.237 308.03 98.9657 308.03 98.9657C308.03 98.9657 306.831 98.274 306.425 98.6753C306.319 98.7809 306.245 99.1927 306.742 99.594C307.861 100.497 310.311 102.276 310.311 102.276C310.174 102.171 306.995 100.196 306.478 99.9636C305.807 99.6573 305.332 99.858 305.168 100.254C304.936 100.819 308.79 103.401 308.875 103.623C308.875 103.623 306.705 102.06 305.992 102.398C305.284 102.736 306.594 103.797 307.93 104.51C309.155 105.164 311.383 106.764 312.692 107.308C314.303 107.979 315.538 108.068 316.737 106.949C317.935 105.835 318.268 104.573 318.268 104.573C318.268 104.573 318.696 102.688 317.824 101.347V101.336Z" fill="#FFC3BD"/>
<path d="M338.238 87.1444C335.133 84.3037 332.599 86.6692 331.337 88.3377C329.309 91.0252 330.661 98.5492 330.661 98.5492H330.677C330.735 102.24 330.74 106.971 330.566 107.193L319.272 102.631L315.592 109.574C315.592 109.574 319.737 111.485 326.12 114.331C332.81 117.32 336.516 116.913 338.09 112.267C338.866 109.975 339.056 105.661 339.072 102.166C339.072 102.166 340.17 88.9079 338.238 87.1444Z" fill="#0C7489"/>
<path opacity="0.8" d="M338.238 87.1444C335.133 84.3037 332.599 86.6692 331.337 88.3377C329.309 91.0252 330.661 98.5492 330.661 98.5492H330.677C330.735 102.24 330.74 106.971 330.566 107.193L319.272 102.631L315.592 109.574C315.592 109.574 319.737 111.485 326.12 114.331C332.81 117.32 336.516 116.913 338.09 112.267C338.866 109.975 339.056 105.661 339.072 102.166C339.072 102.166 340.17 88.9079 338.238 87.1444Z" fill="white"/>
<path d="M78.4141 68.3242C78.4141 68.3242 82.8862 69.3274 84.2801 74.3117C85.8113 79.7765 89.5971 97.0316 89.5971 97.0316H99.1064L101.255 103.737C101.255 103.737 92.5381 110.659 86.5294 108.6C80.5261 106.541 79.5915 100.242 79.5915 100.242L78.4141 68.3295V68.3242Z" fill="#0C7489"/>
<path opacity="0.8" d="M78.4141 68.3242C78.4141 68.3242 82.8862 69.3274 84.2801 74.3117C85.8113 79.7765 89.5971 97.0316 89.5971 97.0316H99.1064L101.255 103.737C101.255 103.737 92.5381 110.659 86.5294 108.6C80.5261 106.541 79.5915 100.242 79.5915 100.242L78.4141 68.3295V68.3242Z" fill="white"/>
<path opacity="0.2" d="M84.6658 104.849L83.7734 85.1602L88.404 108.978L85.5898 108.598L84.6658 104.849Z" fill="black"/>
<path d="M52.616 74.3953C56.444 91.6768 55.9582 111.371 56.3648 115.067C60.2139 114.819 75.811 116.039 83.7205 115.511C86.4555 94.6864 81.7933 76.539 80.0562 71.0848C79.4701 69.2473 77.8861 67.9115 75.9747 67.6686C72.7856 67.262 68.3029 67.1195 64.2056 67.299C61.5128 67.4152 58.651 67.9484 56.3278 68.4923C53.6773 69.1153 52.0246 71.7395 52.616 74.3953Z" fill="#0C7489"/>
<path d="M71.0744 51.8127C74.554 52.4305 74.9922 52.1137 75.0344 49.6321C75.0767 47.1505 76.3386 42.9687 74.5804 41.6646C73.461 40.8356 73.0016 42.1239 73.0016 42.1239C72.7482 41.559 72.1252 41.2422 71.5708 41.4639C71.4968 40.9465 71.4124 39.6212 70.4514 39.2411C69.4904 38.8609 68.6404 39.7374 68.6404 39.7374C68.6404 39.7374 68.709 37.7046 67.3362 37.8999C65.9634 38.0953 65.6888 39.5103 65.6888 39.5103C65.6888 39.5103 64.8968 38.354 63.825 38.8134C62.7532 39.2675 62.9644 40.5927 62.9644 40.5927C62.9644 40.5927 61.8239 40.0489 60.9791 40.6667C60.1343 41.2844 60.752 42.2771 60.752 42.2771C60.752 42.2771 59.9812 40.3023 58.5186 41.3953C57.1986 42.3827 58.3919 43.9244 58.3919 43.9244C58.3919 43.9244 56.9452 43.6921 56.5967 44.4207C55.4087 46.9076 57.6421 57.5574 61.2061 58.9091C68.144 61.5702 71.0639 51.8127 71.0639 51.8127H71.0744Z" fill="#263238"/>
<path d="M61.2911 65.9111C61.2911 65.9111 62.1095 62.6639 60.8107 56.745C60.8107 56.7397 61.1275 56.6236 61.1275 56.6183C60.9479 55.7893 60.7526 55.0237 60.5625 54.3584C60.5625 54.3373 60.5625 54.332 60.5625 54.332L68.1921 59.7704C67.8806 61.6184 68.3135 65.2511 68.6092 66.7981C68.6092 66.7981 69.4329 69.6123 65.7686 69.4909C63.0916 69.4011 61.2964 65.9216 61.2964 65.9216L61.2911 65.9111Z" fill="#FFAC9D"/>
<path opacity="0.2" d="M68.1498 62.3852L63.6406 61.0547C63.9627 62.5067 65.1085 64.2755 68.287 64.624C68.287 64.624 68.0758 63.0083 68.1498 62.3905V62.3852Z" fill="black"/>
<path d="M60.7469 50.4613C60.9528 55.5354 60.9634 58.4025 63.4767 61.0372C67.2519 64.9972 73.4242 62.8641 74.7442 57.8111C75.9322 53.265 75.3989 45.7305 70.4674 43.6554C65.6098 41.6121 60.5463 45.3873 60.7522 50.4613H60.7469Z" fill="#FFAC9D"/>
<path d="M63.0489 55.6416C64.2369 54.5223 63.4819 49.1789 62.9011 47.6477C65.7998 47.9223 75.1454 47.9117 74.7916 45.3298C74.4379 42.7479 71.0376 40.5567 65.4777 42.3677C60.8366 43.8831 59.6856 46.1852 59.6644 48.0754C59.6222 51.9509 63.0489 55.6416 63.0489 55.6416Z" fill="#263238"/>
<path d="M58.656 54.6455C59.0362 55.9602 59.9866 56.9687 60.9792 57.4914C62.4735 58.2729 63.0754 56.6308 62.9645 55.0309C62.8642 53.5895 62.484 51.8313 60.8314 51.7098C59.2052 51.5884 58.2178 53.1407 58.6508 54.6455H58.656Z" fill="#FFAC9D"/>
<path d="M67.9749 52.0791C67.9644 52.5965 68.2283 53.0189 68.5715 53.0242C68.9095 53.0242 69.1946 52.6124 69.2052 52.0897C69.2157 51.5722 68.9517 51.1498 68.6085 51.1445C68.2706 51.1445 67.9855 51.5564 67.9749 52.0791Z" fill="#263238"/>
<path d="M73.0609 52.2822C73.0503 52.7997 73.3143 53.2221 73.6575 53.2273C73.9954 53.2273 74.2805 52.8155 74.2911 52.2928C74.3017 51.7753 74.0377 51.3529 73.6945 51.3477C73.3565 51.3477 73.0714 51.7595 73.0609 52.2822Z" fill="#263238"/>
<path d="M71.4121 51.9609C71.4121 51.9609 73.0014 54.5745 73.503 55.6358C72.7691 56.2747 71.5283 55.9473 71.5283 55.9473L71.4121 51.9662V51.9609Z" fill="#D58745"/>
<path d="M66.7546 49.6069C66.8338 49.6385 66.9236 49.6333 66.9975 49.5752C67.8687 48.9257 68.7135 49.2161 68.724 49.2214C68.8508 49.2689 68.988 49.2003 69.0356 49.0736C69.0831 48.9469 69.0144 48.8096 68.893 48.7621C68.8508 48.7462 67.7895 48.3766 66.7071 49.1845C66.6015 49.2637 66.5751 49.4168 66.6596 49.5224C66.686 49.5593 66.7176 49.5805 66.7546 49.5963V49.6069Z" fill="#263238"/>
<path d="M69.7978 57.7584C68.7946 57.7426 68.0923 57.1724 67.5379 56.6127C67.4587 56.5335 67.4587 56.412 67.5379 56.3328C67.6171 56.2536 67.7386 56.2536 67.8178 56.3328C68.5253 57.0456 69.1219 57.3519 69.803 57.3624C69.9139 57.3624 69.9984 57.4522 69.9984 57.5631C69.9984 57.674 69.9086 57.7584 69.7978 57.7584Z" fill="#263238"/>
<path opacity="0.2" d="M62.1305 54.9667C62.0619 54.9667 62.0038 54.9139 61.9985 54.8453C61.9616 54.4282 61.8137 54.0322 61.5709 53.689C61.4177 53.4672 61.1537 53.1821 60.7947 53.0871C60.4726 53.0026 60.1189 53.1082 59.9552 53.3405C59.913 53.3986 59.8285 53.4144 59.7704 53.3722C59.7123 53.3299 59.6965 53.2455 59.7387 53.1874C59.971 52.86 60.4304 52.7122 60.8633 52.8283C61.3016 52.9445 61.6078 53.2771 61.7873 53.5306C62.0513 53.9107 62.215 54.3543 62.2573 54.8136C62.2626 54.8875 62.2097 54.9509 62.1358 54.9562H62.1253L62.1305 54.9667Z" fill="black"/>
<path d="M75.3522 50.1444C75.3997 50.1339 75.442 50.1128 75.4789 50.0811C75.574 49.986 75.5793 49.8329 75.4842 49.7379C74.5497 48.7769 73.4567 48.9987 73.4039 48.9987C73.2719 49.0251 73.1874 49.1518 73.2138 49.2838C73.2402 49.4158 73.3669 49.5003 73.4937 49.4739C73.5412 49.4633 74.386 49.3049 75.1357 50.0758C75.1938 50.1339 75.2783 50.1603 75.3522 50.1444Z" fill="#263238"/>
<path d="M89.7441 207.535L92.4422 219.996L96.6029 219.278L97.0094 206.59L89.7441 207.535Z" fill="#FFAC9D"/>
<path d="M92.2723 226.02L95.8891 225.587C95.8891 225.587 96.5755 225.112 97.0085 225.112C97.4414 225.112 98.9673 225.218 98.9673 225.218L108.566 224.067C108.44 223.676 108.302 223.327 108.16 223.021C107.98 222.652 107.79 222.34 107.584 222.081C106.871 221.184 106.021 220.936 105.129 220.983C103.777 221.062 99.2049 218.744 99.2049 218.744L97.2725 217.836C97.2566 217.219 97.2619 216.405 96.5861 216.236C95.7201 216.02 94.9809 215.941 94.7117 216.891L94.4265 218.032L93.4603 218C93.4603 218 91.4539 216.97 91.6757 217.963C91.8024 218.533 91.1741 221.258 91.6334 223.264C91.739 223.734 91.8446 224.172 91.9344 224.563C92.1297 225.424 92.267 226.02 92.267 226.02H92.2723Z" fill="#263238"/>
<g opacity="0.2">
<path d="M108.56 224.065L98.9613 225.216C98.9613 225.216 97.4406 225.11 97.0024 225.11C96.5694 225.11 95.883 225.586 95.883 225.586L92.2662 226.019C92.2662 226.019 92.129 225.427 91.9336 224.567L108.154 223.02C108.302 223.326 108.439 223.669 108.56 224.065Z" fill="white"/>
</g>
<path d="M101.433 219.543C101.385 219.506 101.311 219.506 101.264 219.548C101.047 219.733 100.873 219.981 100.768 220.277C100.715 220.435 100.947 220.551 101 220.393C101.09 220.129 101.243 219.912 101.433 219.749C101.496 219.696 101.496 219.596 101.433 219.543Z" fill="#0C7489"/>
<path d="M100.614 219.183C100.567 219.146 100.493 219.146 100.445 219.189C100.229 219.373 100.055 219.622 99.9492 219.917C99.8964 220.076 100.129 220.192 100.181 220.033C100.271 219.769 100.424 219.553 100.614 219.389C100.678 219.336 100.678 219.236 100.614 219.183Z" fill="#0C7489"/>
<path d="M99.7805 218.855C99.7329 218.818 99.659 218.818 99.6115 218.861C99.395 219.045 99.2208 219.293 99.1152 219.589C99.0624 219.748 99.2947 219.864 99.3475 219.705C99.4373 219.441 99.5904 219.225 99.7805 219.061C99.8438 219.008 99.8438 218.908 99.7805 218.855Z" fill="#0C7489"/>
<path d="M54.998 208.191L57.7278 220.647L61.8884 219.924L62.2633 207.23L54.998 208.191Z" fill="#FFAC9D"/>
<path d="M56.613 226.491L60.2562 226.459C60.2562 226.459 60.9901 226.063 61.4231 226.111C61.856 226.158 63.3556 226.433 63.3556 226.433L73.0232 226.354C72.944 225.947 72.8437 225.588 72.7328 225.271C72.5956 224.881 72.4424 224.553 72.2682 224.273C71.661 223.302 70.8426 222.959 69.9503 222.911C68.5933 222.837 64.3112 220.028 64.3112 220.028L62.4896 218.914C62.5424 218.296 62.6428 217.489 61.988 217.246C61.1485 216.934 60.4252 216.771 60.0503 217.689L59.6437 218.793L58.688 218.65C58.688 218.65 56.8084 217.404 56.9192 218.418C56.9826 218.999 56.0533 221.633 56.2909 223.682C56.3437 224.157 56.3965 224.611 56.444 225.007C56.5444 225.889 56.613 226.491 56.613 226.491Z" fill="#263238"/>
<g opacity="0.2">
<path d="M73.0226 226.358L63.3549 226.437C63.3549 226.437 61.8554 226.163 61.4224 226.115C60.9894 226.068 60.2555 226.464 60.2555 226.464L56.6123 226.495C56.6123 226.495 56.5437 225.893 56.4434 225.012L72.7322 225.276C72.843 225.593 72.9434 225.957 73.0226 226.358Z" fill="white"/>
</g>
<path d="M66.4445 221.067C66.3969 221.024 66.3283 221.019 66.2808 221.056C66.0432 221.214 65.8425 221.441 65.7105 221.727C65.6419 221.874 65.8584 222.017 65.927 221.869C66.0485 221.616 66.2227 221.415 66.4286 221.278C66.4973 221.23 66.5078 221.135 66.4497 221.072L66.4445 221.067Z" fill="#0C7489"/>
<path d="M65.6685 220.625C65.621 220.583 65.5523 220.578 65.4995 220.615C65.2619 220.778 65.0613 221 64.9293 221.285C64.8607 221.433 65.0771 221.576 65.1458 221.428C65.2672 221.174 65.4415 220.974 65.6474 220.836C65.716 220.789 65.7266 220.694 65.6685 220.63V220.625Z" fill="#0C7489"/>
<path d="M64.8716 220.207C64.8241 220.165 64.7555 220.16 64.7027 220.197C64.4651 220.36 64.2644 220.582 64.1324 220.867C64.0638 221.015 64.2803 221.158 64.3489 221.01C64.4703 220.756 64.6446 220.561 64.8505 220.418C64.9191 220.371 64.9297 220.276 64.8716 220.212V220.207Z" fill="#0C7489"/>
<path d="M99.1533 214.987L89.1688 216.861C89.1688 216.861 81.1221 185.26 78.7725 170.656C78.0544 166.215 76.3859 159.869 74.8706 153.195C72.9539 144.784 70.541 135.686 68.5662 128.564C66.4806 121.061 64.9336 115.665 64.9336 115.665L82.1094 114.566C82.1094 114.566 92.0306 151.843 93.6462 166.236C95.3306 181.2 99.148 214.981 99.148 214.981L99.1533 214.987Z" fill="#263238"/>
<path opacity="0.2" d="M74.8707 150.773C72.9541 142.045 70.5411 132.604 68.5664 125.212L70.3722 121.363C74.6331 126.469 75.7314 142.219 74.8707 150.773Z" fill="black"/>
<path d="M73.9307 115.094C73.9307 115.094 72.9539 155.143 71.5494 168.971C70.0129 184.114 64.9389 217.066 64.9389 217.066H54.0938C54.0938 217.066 54.6746 181.991 56.1582 167.366C56.3694 138.606 55.8467 116.24 55.8467 116.24L73.9307 115.094Z" fill="#263238"/>
<path opacity="0.4" d="M67.4652 70.1034C67.4652 70.1034 65.9023 72.0887 65.5749 74.924C61.673 73.0919 59.8145 68.6408 59.8145 68.6408L60.9919 67.3789C60.9919 67.3789 65.3268 68.2184 67.4705 70.1034H67.4652Z" fill="black"/>
<path opacity="0.4" d="M67.8496 70.1194C67.8496 70.1194 69.5867 71.355 71.4242 74.3118C74.1539 72.6222 73.2458 67.8015 73.2458 67.8015L71.0229 67.3633C71.0229 67.3633 70.0302 68.282 67.8496 70.1194Z" fill="black"/>
<path d="M67.6749 69.4844L68.5197 69.5794L69.9347 70.6829C70.0139 71.3852 69.94 72.0505 69.6443 72.6577C69.6443 72.6577 68.2715 72.9903 67.1363 72.8636C66.1173 72.2141 65.8691 71.3218 65.8691 71.3218L66.9146 69.7484L67.6696 69.4844H67.6749Z" fill="#263238"/>
<path d="M67.3429 69.2046C67.3429 69.2046 66.1126 71.8287 65.2836 74.4318C61.3817 72.5996 59.1113 68.2172 59.1113 68.2172L61.4873 65.3555C61.4873 65.3555 65.1992 67.3144 67.3429 69.2046Z" fill="#0C7489"/>
<path d="M67.3438 69.2046C67.3438 69.2046 69.6564 71.1212 71.5625 73.6081C74.2922 71.9185 71.5466 67.4622 71.5466 67.4622L68.1885 65.3555C68.1885 65.3555 67.5233 68.8508 67.3438 69.2046Z" fill="#0C7489"/>
<path d="M68.9911 72.1016C68.9911 72.1016 73.7536 96.1731 75.4221 107.335L73.7484 113.391C71.3037 108.074 70.9764 107.588 70.9764 107.588C70.5856 103.037 67.6816 72.1913 67.6816 72.1913L68.9911 72.1016Z" fill="#263238"/>
<path d="M80.8965 146.372C80.1415 126.525 76.1656 86.022 74.3018 77.97C72.7547 71.2961 70.9279 67.5895 69.6184 66.0742C69.2647 65.6676 71.741 67.2622 72.2795 67.2727C74.5499 67.3202 77.6229 67.4734 79.6451 69.0732C83.3306 71.9825 85.1733 93.9103 84.6664 104.845C87.9136 117.174 92.2907 143.616 91.8261 146.367H80.8965V146.372Z" fill="#0C7489"/>
<g opacity="0.8">
<path d="M80.8965 146.372C80.1415 126.525 76.1656 86.022 74.3018 77.97C72.7547 71.2961 70.9279 67.5895 69.6184 66.0742C69.2647 65.6676 71.741 67.2622 72.2795 67.2727C74.5499 67.3202 77.6229 67.4734 79.6451 69.0732C83.3306 71.9825 85.1733 93.9103 84.6664 104.845C87.9136 117.174 92.2907 143.616 91.8261 146.367H80.8965V146.372Z" fill="white"/>
</g>
<path opacity="0.2" d="M73.392 67.2188C73.392 67.2188 78.973 78.5602 79.2264 80.8781C79.4798 83.1855 78.2707 90.6514 78.2707 90.6514C78.2707 90.6514 79.992 83.0904 79.823 81.4061C79.3954 77.1293 73.3867 67.224 73.3867 67.224L73.392 67.2188Z" fill="black"/>
<path d="M50.0767 73.4912C49.5328 69.3412 57.1044 67.7941 59.3748 67.3823C59.6282 67.3348 60.8901 66.0781 60.8901 66.0781C60.8901 66.0781 65.3095 75.7141 66.3813 91.57C67.0308 101.211 67.6327 131.249 67.1945 146.883H51.138C51.2224 139.143 54.4168 109.353 53.8149 102.764C53.213 96.1741 50.6997 78.2644 50.0767 73.4912Z" fill="#0C7489"/>
<path opacity="0.8" d="M50.0767 73.4912C49.5328 69.3412 57.1044 67.7941 59.3748 67.3823C59.6282 67.3348 60.8901 66.0781 60.8901 66.0781C60.8901 66.0781 65.3095 75.7141 66.3813 91.57C67.0308 101.211 67.6327 131.249 67.1945 146.883H51.138C51.2224 139.143 54.4168 109.353 53.8149 102.764C53.213 96.1741 50.6997 78.2644 50.0767 73.4912Z" fill="white"/>
<path opacity="0.2" d="M55.2404 81.9936C55.5942 84.4435 55.7367 94.3329 53.3766 99.0849C52.9858 95.8166 52.4684 91.8777 51.9668 88.0972L55.2404 81.9883V81.9936Z" fill="black"/>
<path opacity="0.2" d="M58.9426 68.3203C58.9426 68.3203 59.0905 80.9553 59.9142 83.1413C60.7326 85.3113 65.1783 91.4256 65.1783 91.4256C65.1783 91.4256 60.2257 85.4592 59.6132 83.8805C58.0662 79.873 58.9426 68.3203 58.9426 68.3203Z" fill="black"/>
<path opacity="0.2" d="M69.5854 114.248L68.9729 116.249L53.7031 111.962L53.814 108.266L69.5854 114.248Z" fill="black"/>
<path d="M66.7023 121.712C67.5366 122.895 69.5482 122.932 71.2378 121.786L113.372 93.1947L110.305 88.8281L68.318 117.319C66.5756 118.502 65.847 120.487 66.7076 121.712H66.7023Z" fill="#263238"/>
<path opacity="0.4" d="M66.7023 121.712C67.5366 122.895 69.5482 122.932 71.2378 121.786L113.372 93.1947L110.305 88.8281L68.318 117.319C66.5756 118.502 65.847 120.487 66.7076 121.712H66.7023Z" fill="white"/>
<path opacity="0.3" d="M107.802 90.5234L110.939 94.8425L110.057 95.4391L106.963 91.0937L107.802 90.5234Z" fill="black"/>
<path d="M115.949 52.6564C103.06 61.7221 99.9558 79.521 109.022 92.4095C118.087 105.298 135.886 108.403 148.775 99.3368C161.663 90.2711 164.768 72.4722 155.702 59.5837C146.636 46.6952 128.837 43.5906 115.949 52.6564ZM117.871 54.61C129.471 46.4524 145.485 49.2402 153.643 60.8404C161.8 72.4405 159.013 88.4548 147.412 96.6124C135.812 104.77 119.798 101.977 111.64 90.382C103.483 78.7818 106.271 62.7676 117.871 54.61Z" fill="#263238"/>
<g opacity="0.4">
<path d="M115.949 52.6564C103.06 61.7221 99.9558 79.521 109.022 92.4095C118.087 105.298 135.886 108.403 148.775 99.3368C161.663 90.2711 164.768 72.4722 155.702 59.5837C146.636 46.6952 128.837 43.5906 115.949 52.6564ZM117.871 54.61C129.471 46.4524 145.485 49.2402 153.643 60.8404C161.8 72.4405 159.013 88.4548 147.412 96.6124C135.812 104.77 119.798 101.977 111.64 90.382C103.483 78.7818 106.271 62.7676 117.871 54.61Z" fill="white"/>
</g>
<path d="M106.466 97.5259C106.466 97.5259 101.867 94.1995 100.632 94.4952C99.3963 94.7908 100.59 96.1531 100.59 96.1531C100.59 96.1531 99.1851 94.7328 98.4987 95.2502C97.6803 95.868 98.937 97.2883 98.937 97.2883C98.937 97.2883 97.7437 96.1795 97.1629 96.6758C96.5663 97.1933 97.8704 98.8987 97.8704 98.8987C97.8704 98.8987 96.8778 98.2756 96.6771 98.8512C96.4712 99.4267 99.1746 103.096 100.674 103.619C102.179 104.142 105.157 101.512 105.996 100.509C106.836 99.5112 107.871 98.339 107.168 97.0612L106.461 97.5206L106.466 97.5259Z" fill="#FFAC9D"/>
<path opacity="0.2" d="M100.52 96.2153H100.525L103.097 98.5755C103.134 98.6071 103.192 98.6019 103.223 98.5649C103.26 98.5279 103.26 98.4699 103.223 98.4382L100.652 96.0833C100.615 96.0516 100.557 96.0569 100.525 96.0939C100.488 96.1308 100.488 96.1836 100.515 96.2153H100.52Z" fill="black"/>
<path opacity="0.2" d="M98.9378 97.4317L101.229 99.8922C101.261 99.9239 101.319 99.9239 101.356 99.8922C101.393 99.8552 101.398 99.8077 101.367 99.7655L99.0751 97.305C99.0434 97.2733 98.9853 97.2733 98.9484 97.305C98.9114 97.342 98.9061 97.3948 98.9325 97.4317H98.9378Z" fill="black"/>
<path opacity="0.2" d="M97.8817 99.0568L99.5291 100.931C99.5607 100.968 99.6188 100.968 99.6558 100.931C99.698 100.894 99.7033 100.841 99.6716 100.804L98.0242 98.9301C97.9926 98.8931 97.9345 98.8931 97.8975 98.9301C97.8553 98.967 97.85 99.0198 97.8817 99.0568Z" fill="black"/>
<path d="M73.5354 108.096C73.5354 108.096 75.2197 106.855 76.9304 107.135C78.6411 107.415 80.0773 107.182 81.3339 107.478C82.5906 107.774 81.0435 108.582 80.1354 108.846C79.2272 109.11 78.1976 109.416 78.5091 110.065C78.8154 110.715 83.8947 114.252 84.2221 115.203C84.5442 116.153 83.5462 115.836 83.5462 115.836C83.5462 115.836 84.7554 116.729 84.5336 117.304C84.4755 117.452 84.1006 117.705 83.4829 117.389C82.0995 116.671 79.2694 115.007 79.2694 115.007C79.4331 115.097 82.7754 117.399 83.2347 117.806C83.8314 118.339 83.8366 118.899 83.5146 119.231C83.0552 119.707 78.8154 116.998 78.5566 117.008C78.5566 117.008 81.0488 118.487 81.0224 119.337C80.9907 120.187 79.3698 119.347 78.0867 118.328C76.904 117.399 74.3485 115.879 73.2397 114.812C71.8722 113.503 71.2491 112.315 71.8405 110.641C72.4318 108.967 73.5354 108.091 73.5354 108.091V108.096Z" fill="#FFAC9D"/>
<path opacity="0.3" d="M83.4141 115.75C83.4141 115.75 83.3877 115.75 83.3771 115.74C82.395 115.053 81.3707 114.404 80.3306 113.807C80.2989 113.791 80.2883 113.749 80.3042 113.717C80.32 113.686 80.3622 113.675 80.3939 113.691C81.4394 114.288 82.469 114.937 83.451 115.629C83.4827 115.65 83.488 115.692 83.4669 115.718C83.4563 115.74 83.4352 115.745 83.4141 115.745V115.75Z" fill="black"/>
<path d="M74.2218 108.678C74.1215 108.604 71.8563 107.094 71.8563 107.094L69.5859 112.258L72.7539 113.155L74.2218 108.683V108.678Z" fill="#FFAC9D"/>
<path d="M50.9899 70.8359C50.842 71.0102 49.9867 72.1454 48.4449 77.2406C46.9031 82.3358 40.7255 101.397 41.9611 102.975C43.1966 104.554 69.6019 114.792 70.0559 114.227C70.51 113.662 73.3929 104.612 73.3929 104.612L52.5211 96.8452L56.9351 80.5089L50.9899 70.8359Z" fill="#0C7489"/>
<path opacity="0.8" d="M50.9899 70.8359C50.842 71.0102 49.9867 72.1454 48.4449 77.2406C46.9031 82.3358 40.7255 101.397 41.9611 102.975C43.1966 104.554 69.6019 114.792 70.0559 114.227C70.51 113.662 73.3929 104.612 73.3929 104.612L52.5211 96.8452L56.9351 80.5089L50.9899 70.8359Z" fill="white"/>
<path opacity="0.3" d="M133.252 52.0326C133.252 52.0326 120.997 70.9245 126.129 80.4496C131.261 89.98 149.129 93.0424 153.411 88.359C157.693 83.6757 158.421 55.1531 133.252 52.0273V52.0326Z" fill="white"/>
<path d="M118.923 60.1918L118.727 60.0439C117.634 59.2255 117.819 57.5306 119.06 56.971C119.419 56.8073 119.783 56.6594 120.148 56.5169C122.122 55.7618 123.49 58.4863 121.758 59.6902C121.726 59.7113 121.695 59.7324 121.663 59.7535C121.468 59.8908 121.278 60.0281 121.093 60.1706C120.449 60.6564 119.562 60.6722 118.917 60.1865L118.923 60.1918Z" fill="#E6E6E6"/>
<path d="M118.183 65.0555C114.398 70.9005 113.352 78.1921 115.401 84.8977C115.723 85.9485 114.297 86.656 113.664 85.7584L113.627 85.7108C108.484 78.3981 108.896 68.8465 113.98 62.0617C114.582 61.2592 115.712 61.0797 116.515 61.6816L117.771 62.6267C118.537 63.2022 118.701 64.2582 118.183 65.0608V65.0555Z" fill="#E6E6E6"/>
<path d="M66.7235 309.72C65.2515 309.72 63.9288 309.464 62.7555 308.952C61.6035 308.419 60.6968 307.693 60.0355 306.776C59.3742 305.837 59.0328 304.76 59.0115 303.544H62.1155C62.2222 304.589 62.6488 305.475 63.3955 306.2C64.1635 306.904 65.2728 307.256 66.7235 307.256C68.1102 307.256 69.1982 306.915 69.9875 306.232C70.7982 305.528 71.2035 304.632 71.2035 303.544C71.2035 302.691 70.9688 301.997 70.4995 301.464C70.0302 300.931 69.4435 300.525 68.7395 300.248C68.0355 299.971 67.0862 299.672 65.8915 299.352C64.4195 298.968 63.2355 298.584 62.3395 298.2C61.4648 297.816 60.7075 297.219 60.0675 296.408C59.4488 295.576 59.1395 294.467 59.1395 293.08C59.1395 291.864 59.4488 290.787 60.0675 289.848C60.6862 288.909 61.5502 288.184 62.6595 287.672C63.7902 287.16 65.0808 286.904 66.5315 286.904C68.6222 286.904 70.3288 287.427 71.6515 288.472C72.9955 289.517 73.7528 290.904 73.9235 292.632H70.7235C70.6168 291.779 70.1688 291.032 69.3795 290.392C68.5902 289.731 67.5448 289.4 66.2435 289.4C65.0275 289.4 64.0355 289.72 63.2675 290.36C62.4995 290.979 62.1155 291.853 62.1155 292.984C62.1155 293.795 62.3395 294.456 62.7875 294.968C63.2568 295.48 63.8222 295.875 64.4835 296.152C65.1662 296.408 66.1155 296.707 67.3315 297.048C68.8035 297.453 69.9875 297.859 70.8835 298.264C71.7795 298.648 72.5475 299.256 73.1875 300.088C73.8275 300.899 74.1475 302.008 74.1475 303.416C74.1475 304.504 73.8595 305.528 73.2835 306.488C72.7075 307.448 71.8542 308.227 70.7235 308.824C69.5928 309.421 68.2595 309.72 66.7235 309.72ZM77.3448 300.696C77.3448 298.883 77.7074 297.304 78.4328 295.96C79.1581 294.595 80.1608 293.539 81.4408 292.792C82.7421 292.045 84.2248 291.672 85.8888 291.672C88.0434 291.672 89.8141 292.195 91.2008 293.24C92.6088 294.285 93.5368 295.736 93.9848 297.592H90.8488C90.5501 296.525 89.9634 295.683 89.0888 295.064C88.2354 294.445 87.1688 294.136 85.8888 294.136C84.2248 294.136 82.8808 294.712 81.8568 295.864C80.8328 296.995 80.3208 298.605 80.3208 300.696C80.3208 302.808 80.8328 304.44 81.8568 305.592C82.8808 306.744 84.2248 307.32 85.8888 307.32C87.1688 307.32 88.2354 307.021 89.0888 306.424C89.9421 305.827 90.5288 304.973 90.8488 303.864H93.9848C93.5154 305.656 92.5768 307.096 91.1688 308.184C89.7608 309.251 88.0008 309.784 85.8888 309.784C84.2248 309.784 82.7421 309.411 81.4408 308.664C80.1608 307.917 79.1581 306.861 78.4328 305.496C77.7074 304.131 77.3448 302.531 77.3448 300.696ZM96.7823 300.664C96.7823 298.872 97.1449 297.304 97.8703 295.96C98.5956 294.595 99.5876 293.539 100.846 292.792C102.126 292.045 103.545 291.672 105.102 291.672C106.638 291.672 107.972 292.003 109.102 292.664C110.233 293.325 111.076 294.157 111.63 295.16V291.96H114.574V309.496H111.63V306.232C111.054 307.256 110.19 308.109 109.038 308.792C107.908 309.453 106.585 309.784 105.07 309.784C103.513 309.784 102.105 309.4 100.846 308.632C99.5876 307.864 98.5956 306.787 97.8703 305.4C97.1449 304.013 96.7823 302.435 96.7823 300.664ZM111.63 300.696C111.63 299.373 111.364 298.221 110.83 297.24C110.297 296.259 109.572 295.512 108.654 295C107.758 294.467 106.766 294.2 105.678 294.2C104.59 294.2 103.598 294.456 102.702 294.968C101.806 295.48 101.092 296.227 100.558 297.208C100.025 298.189 99.7583 299.341 99.7583 300.664C99.7583 302.008 100.025 303.181 100.558 304.184C101.092 305.165 101.806 305.923 102.702 306.456C103.598 306.968 104.59 307.224 105.678 307.224C106.766 307.224 107.758 306.968 108.654 306.456C109.572 305.923 110.297 305.165 110.83 304.184C111.364 303.181 111.63 302.019 111.63 300.696ZM128.039 291.64C130.173 291.64 131.901 292.291 133.223 293.592C134.546 294.872 135.207 296.728 135.207 299.16V309.496H132.327V299.576C132.327 297.827 131.89 296.493 131.015 295.576C130.141 294.637 128.946 294.168 127.431 294.168C125.895 294.168 124.669 294.648 123.751 295.608C122.855 296.568 122.407 297.965 122.407 299.8V309.496H119.495V291.96H122.407V294.456C122.983 293.56 123.762 292.867 124.743 292.376C125.746 291.885 126.845 291.64 128.039 291.64ZM163.599 291.96L153.039 317.752H150.031L153.487 309.304L146.415 291.96H149.647L155.151 306.168L160.591 291.96H163.599ZM174.175 309.784C172.532 309.784 171.039 309.411 169.695 308.664C168.372 307.917 167.327 306.861 166.559 305.496C165.812 304.109 165.439 302.509 165.439 300.696C165.439 298.904 165.823 297.325 166.591 295.96C167.38 294.573 168.447 293.517 169.791 292.792C171.135 292.045 172.639 291.672 174.303 291.672C175.967 291.672 177.471 292.045 178.815 292.792C180.159 293.517 181.215 294.563 181.983 295.928C182.772 297.293 183.167 298.883 183.167 300.696C183.167 302.509 182.761 304.109 181.951 305.496C181.161 306.861 180.084 307.917 178.719 308.664C177.353 309.411 175.839 309.784 174.175 309.784ZM174.175 307.224C175.22 307.224 176.201 306.979 177.119 306.488C178.036 305.997 178.772 305.261 179.327 304.28C179.903 303.299 180.191 302.104 180.191 300.696C180.191 299.288 179.913 298.093 179.359 297.112C178.804 296.131 178.079 295.405 177.183 294.936C176.287 294.445 175.316 294.2 174.271 294.2C173.204 294.2 172.223 294.445 171.327 294.936C170.452 295.405 169.748 296.131 169.215 297.112C168.681 298.093 168.415 299.288 168.415 300.696C168.415 302.125 168.671 303.331 169.183 304.312C169.716 305.293 170.42 306.029 171.295 306.52C172.169 306.989 173.129 307.224 174.175 307.224ZM202.547 291.96V309.496H199.635V306.904C199.081 307.8 198.302 308.504 197.299 309.016C196.318 309.507 195.23 309.752 194.035 309.752C192.67 309.752 191.443 309.475 190.355 308.92C189.267 308.344 188.403 307.491 187.763 306.36C187.145 305.229 186.835 303.853 186.835 302.232V291.96H189.715V301.848C189.715 303.576 190.153 304.909 191.027 305.848C191.902 306.765 193.097 307.224 194.611 307.224C196.169 307.224 197.395 306.744 198.291 305.784C199.187 304.824 199.635 303.427 199.635 301.592V291.96H202.547ZM210.376 294.808C210.888 293.805 211.613 293.027 212.552 292.472C213.512 291.917 214.675 291.64 216.04 291.64V294.648H215.272C212.008 294.648 210.376 296.419 210.376 299.96V309.496H207.464V291.96H210.376V294.808ZM237.053 298.36L243.901 309.496H240.605L235.261 300.792L230.173 309.496H226.941L233.757 298.36L226.909 287.192H230.173L235.549 295.928L240.669 287.192H243.933L237.053 298.36ZM259.968 296.536V299H247.2V296.536H259.968ZM277.177 309.496L271.865 300.376H268.345V309.496H265.433V287.192H272.633C274.318 287.192 275.737 287.48 276.889 288.056C278.062 288.632 278.937 289.411 279.513 290.392C280.089 291.373 280.377 292.493 280.377 293.752C280.377 295.288 279.929 296.643 279.033 297.816C278.158 298.989 276.835 299.768 275.065 300.152L280.665 309.496H277.177ZM268.345 298.04H272.633C274.211 298.04 275.395 297.656 276.185 296.888C276.974 296.099 277.369 295.053 277.369 293.752C277.369 292.429 276.974 291.405 276.185 290.68C275.417 289.955 274.233 289.592 272.633 289.592H268.345V298.04ZM283.814 300.664C283.814 298.872 284.176 297.304 284.902 295.96C285.627 294.595 286.619 293.539 287.878 292.792C289.158 292.045 290.576 291.672 292.134 291.672C293.67 291.672 295.003 292.003 296.134 292.664C297.264 293.325 298.107 294.157 298.662 295.16V291.96H301.606V309.496H298.662V306.232C298.086 307.256 297.222 308.109 296.07 308.792C294.939 309.453 293.616 309.784 292.102 309.784C290.544 309.784 289.136 309.4 287.878 308.632C286.619 307.864 285.627 306.787 284.902 305.4C284.176 304.013 283.814 302.435 283.814 300.664ZM298.662 300.696C298.662 299.373 298.395 298.221 297.862 297.24C297.328 296.259 296.603 295.512 295.686 295C294.79 294.467 293.798 294.2 292.71 294.2C291.622 294.2 290.63 294.456 289.734 294.968C288.838 295.48 288.123 296.227 287.59 297.208C287.056 298.189 286.79 299.341 286.79 300.664C286.79 302.008 287.056 303.181 287.59 304.184C288.123 305.165 288.838 305.923 289.734 306.456C290.63 306.968 291.622 307.224 292.71 307.224C293.798 307.224 294.79 306.968 295.686 306.456C296.603 305.923 297.328 305.165 297.862 304.184C298.395 303.181 298.662 302.019 298.662 300.696ZM321.631 291.96L311.071 317.752H308.062L311.519 309.304L304.447 291.96H307.679L313.183 306.168L318.623 291.96H321.631ZM330.766 309.784C329.422 309.784 328.216 309.56 327.15 309.112C326.083 308.643 325.24 308.003 324.622 307.192C324.003 306.36 323.662 305.411 323.598 304.344H326.606C326.691 305.219 327.096 305.933 327.822 306.488C328.568 307.043 329.539 307.32 330.734 307.32C331.843 307.32 332.718 307.075 333.358 306.584C333.998 306.093 334.318 305.475 334.318 304.728C334.318 303.96 333.976 303.395 333.294 303.032C332.611 302.648 331.555 302.275 330.126 301.912C328.824 301.571 327.758 301.229 326.926 300.888C326.115 300.525 325.411 300.003 324.814 299.32C324.238 298.616 323.95 297.699 323.95 296.568C323.95 295.672 324.216 294.851 324.75 294.104C325.283 293.357 326.04 292.771 327.022 292.344C328.003 291.896 329.123 291.672 330.382 291.672C332.323 291.672 333.891 292.163 335.086 293.144C336.28 294.125 336.92 295.469 337.006 297.176H334.094C334.03 296.259 333.656 295.523 332.974 294.968C332.312 294.413 331.416 294.136 330.286 294.136C329.24 294.136 328.408 294.36 327.79 294.808C327.171 295.256 326.862 295.843 326.862 296.568C326.862 297.144 327.043 297.624 327.406 298.008C327.79 298.371 328.259 298.669 328.814 298.904C329.39 299.117 330.179 299.363 331.182 299.64C332.44 299.981 333.464 300.323 334.254 300.664C335.043 300.984 335.715 301.475 336.27 302.136C336.846 302.797 337.144 303.661 337.166 304.728C337.166 305.688 336.899 306.552 336.366 307.32C335.832 308.088 335.075 308.696 334.094 309.144C333.134 309.571 332.024 309.784 330.766 309.784Z" fill="#1E1E1E"/>
</svg>
