<svg width="24" height="25" viewBox="0 0 24 25" fill="none" xmlns="http://www.w3.org/2000/svg">
<path d="M2.01562 12.0871C2.01562 17.5954 6.48104 22.0609 11.9894 22.0609C17.4977 22.0609 21.9632 17.5954 21.9632 12.0871C21.9632 6.57869 17.4977 2.11328 11.9894 2.11328C6.48104 2.11328 2.01562 6.57869 2.01562 12.0871Z" stroke="#1E1E1E" stroke-width="1.79528" stroke-linecap="round" stroke-linejoin="round"/>
<path d="M12.9883 2.15625C12.9883 2.15625 15.9804 6.09651 15.9804 12.0807C15.9804 18.065 12.9883 22.0054 12.9883 22.0054" stroke="#1E1E1E" stroke-width="1.79528" stroke-linecap="round" stroke-linejoin="round"/>
<path d="M10.9921 22.0054C10.9921 22.0054 8 18.065 8 12.0807C8 6.09651 10.9921 2.15625 10.9921 2.15625" stroke="#1E1E1E" stroke-width="1.79528" stroke-linecap="round" stroke-linejoin="round"/>
<path d="M2.64258 15.5781H21.3342" stroke="#1E1E1E" stroke-width="1.79528" stroke-linecap="round" stroke-linejoin="round"/>
<path d="M2.64258 8.58984H21.3342" stroke="#1E1E1E" stroke-width="1.79528" stroke-linecap="round" stroke-linejoin="round"/>
</svg>
